<svg xmlns="http://www.w3.org/2000/svg" viewBox="0 0 4800 2700"><defs><style>.cls-1{fill:#fff;}.cls-2{fill:#005086;}</style></defs><title>slide-1</title><g id="Layer_2" data-name="Layer 2"><g id="slide-1"><path class="cls-1" d="M2533.51,2555.81s1-15.31,5.61-20.41,14.8-37.76,17.86-49.5,13.78-40.31,9.19-50.51-28.07-29.09-30.11-44.4,3.06-30.62,5.11-35.72,9.23-14.8,9.23-14.8-4.64,15.31-4.64,20.93-6.64,19.9,1.53,13.26,28.57-45.41,25-70.93-12.24-37.25-38.78-48-43.37-24.49-78.07-9.19-55.11,18.89-73,17.86-29.09,4.6-50.52,0-25-10.2-38.27-10.2-22.45-10.57-28.06-14.47-5.62-21.25-7.15-31.46-4.08-19.9,0-24,5.62-15.31,10.21-15.31,21.43-8.16,27-20.92,7.66-29.09,2.56-29.6-21.44,1.54-29.09,16.84-12.76,19.9-15.31,18.89-14.29-7.15-24-5.62-13.27,4.08-15.82,0-6.63-17.35-21.43-23-30.11-9.7-31.13-2,5.61,24.49,18.88,31.12,20.92,5.11,19.39,9.19-4.59,10.21-3.57,12.25,2,8.67,2,10.71,4.08,6.64,3.06,10.72-8.67,10.2-6.12,16.33,7.14,6.63,7.65,8.67a6,6,0,0,0,5.11,4.59c3.06.51,6.63-2,6.63,5.62s-7.14,19.9,2,40.82,19.9,29.64,19.9,45.94,5.1,26.52,11.74,34.17,21.43,6.13,26,21.43,2,40.82-2,54.09-4.59,16.84-4.59,30.62,2.55,23,1,34.7-2.55,24-6.64,33.67-8.16,14.81-8.16,14.81,13.27,2.54,18.37,1.52,5.1-14.28,5.1-14.28,1.53-28.58,8.17-56.13,13.77-41.34,19.39-57.15,3.87-23.48,3.87-23.48,7.35,27.56,6.33,39.81,0,14.28,3.58,21.94,10.71,26,15.81,40.31,6.13,25.51,6.13,29.59-2.55,10.21-2.55,10.21l-.51,4.59,19.39-1s1-14.8-2.56-24-7.65-29.09-10.71-44.91.51-41.84,0-53.06,4.59-35.21,4.59-35.21,35.21,4.59,65.32,4.08,40.82-6.63,40.82-6.63,3.06,13.26,17.86,20.41,31.12,21.43,36.23,31.12,4.59,27.56.51,38.27-15.31,51-26,59.19a80.87,80.87,0,0,0-16.33,16.33s18.38,1,23-3.06,5.61-1.53,8.16-8.67,17.35-27.56,23-33.17,11.74-17.35,11.74-17.35-2.55,31.13-7.14,42.86-10.72,22.46-13.27,23.48-7.14,8.67-.51,7.14S2524.84,2561.42,2533.51,2555.81Z"/><path class="cls-1" d="M1972.75,2543.14s21.15,3.26,26-4.88,9-11.39,11.39-17.9-19.52-44.74-22.78-83.79-3.25-70-5.69-72.4-25.22-22.78-20.34-68.34,35.79-69.14-4.88-115.51-50.44-34.17-82.17-38.24-48.81,13-93.55,0-54.5-13.83-65.89-22.78-8.95-17.08-8.95-17.08,17.08-5.7,20.34-8.95,19.52-12.2,26-13,7.32-8.13,11.39-9.76,8.13-10.58,6.51-17.08-4.89-14.65-15.46-16.27-30.91-11.39-32.54-16.27-3.26-13-11.39-13.83-14.64-4.07-13.83-9-2.44-12.2,17.9-15.45,61-12.21,78.91-30.11,15.45-27.66,15.45-27.66-10.57,17.09-22.77,21.16a162.23,162.23,0,0,1-22,5.69s22.78-13.83,22.78-37.42a207.3,207.3,0,0,0-4.07-41.49s-1.62,45.56-9,53.69-15.45,9.76-15.45,9.76,13-45.55,3.25-68.33-20.34-32.54-20.34-32.54,15.46,35,13,57.76-39.86,46.37-39.86,46.37-8.95-6.51-10.58-20.34-2.44-38.23,8.14-37.42,17.08-16.27,17.08-16.27-11.39-4.88-17.08-2.44-10.72-29.29-15.53-42.31-22.71-21.15-22.71-21.15,14.65,13.83,14.65,32.54,2.44,32.54-7.33,39-24.4-24.4-30.91-39.86-7.32-35.8-7.32-35.8-4.07,28.48,7.32,52.07,1,28.47-8,24.41-25.32-26-35.09-30.1-26.84-9-26.84-9,49.62,33.35,59.38,47.18,39.87,11.39,44.75,15.46-.82,47.18-14.65,48.81-22-16.27-22.77-34.17-17.9-71.59-17.9-71.59,10.57,70,7.32,83-2.44,31.73-14.64,25.22-18.71-24.41-13-44.74-12.2-81.36-12.2-81.36,4.88,73.22.81,96-6.51,33.35-20.34,25.22-25.22-14.64-22.77-43.93-5.7-60.2-5.7-60.2-1.63,53.69-5.7,64.27-4.06,34.16-19.52,15.45-36.6-31.72-36.6-52.06-1.63-30.92,7.32-47.18-4.07-36.61-4.07-36.61.81,35-16.27,40.67-16.27-17.08-16.27-17.08-5.71,23.59,0,32.54,19.53,36.61,15.47,39.86-26.85-2.44-40.68-9-17.9-35-17.9-35,5.7,31.73,0,42.3-6.51,10.58-18.71,19.53-17.89,23.59-17.89,23.59,22-20.34,29.28-23.59,19.52-4.88,9.76,5.69-4.07,24.41-4.07,24.41,6.51-22,13.83-27.66,17.09-18.71,38.24,3.25,43.11,49.63,68.34,56.13,56.13,17.9,65.08,26,14.64,7.32,14.64,24.4-4.07,43.12-16.27,91.93-6.51,84.6,8.13,112.26,24.41,61,26.85,85.42,12.2,37.42,12.2,61,9.76,47.18,4.07,65.89,3.25,9,.81,31.73,1.63,54.5-5.69,66.7-22.78,32.54,3.25,27.66,26.85,3.26,23.59-17.89-7.32-35.8,0-69.15,11.39-39.05,7.33-61-6.51-69.15,0-75.65,27.66-11.39,29.28,3.25-2.44,48.81-7.32,58.57,0,28.48.81,40.68,5.7,27.66,4.07,52.88-7.32,42.3-5.69,51.25-4.38,17.82-4.38,17.82,23.09,11.46,28-4-4.07-25.22-3.26-46.37-.81-50.44,4.89-74.85-2.44-32.53,4.06-53.68,4.89-30.92,31.73-18.72,68.34-13,77.28-8.13,30.11,39.86,39.87,48.81,24.4,6.51,22.77,30.91-3.25,67.52-9,78.1-10.57,22.78-14.64,31.72-8.13,17.9,14.64,16.28,29.29-10.58,26.85-44.75,5.69-63.45,9.76-83,3.26-38.24,3.26-46.38,6.51.82,17.89,9,21.16,41.49,22.78,57.76,9.76,52.88,7.32,64.27S1965.43,2539.07,1972.75,2543.14Z"/><path class="cls-2" d="M4800,1251.76a316.61,316.61,0,0,0-33.6,2.31c4.51-139,9.4-278,7.56-416.93-2.86-215-17.41-429.86-23.25-644.65-1.75-64.26-1-128.4.91-192.49H4505.89c1.91,24.63,4.33,49.24,7.41,73.83,7.66,61,10.84,123.88,13.14,186.84-11.43-3.28-23.07-5.18-34-7.81-5.58-13.87-10.87-27.91-16-42-4.05-11.34-8.56-24.61-17.45-35.45-2.57-3.16-5.18-6.13-7.76-9C4439,126.69,4441.63,85.87,4439,44.91l-1.3.06c.65,22.87-.19,45.77.84,68.75a293.86,293.86,0,0,0,3.34,34.43,63.07,63.07,0,0,0,3.1,11.3,144.74,144.74,0,0,1-9.67-11.89c-6.82-8.88-9.35-19.9-15.13-32.34-2.79-5.68-6.69-13.1-14.5-17-6.66-3.32-12.93-4.71-19.15-6.14-.94-.16-1.87-.34-2.8-.51-.14-.38-.26-.76-.39-1.13C4379,78.37,4372.12,66,4361.61,57v-.5h-.6c-1-.81-2-1.6-3-2.35-10.95-8.19-24.58-11.35-36.7-13.25q-1.12-3.06-2.24-6.15Q4312.72,17.5,4307,0h-1.92q5.25,18,11.13,35.77.75,2.31,1.52,4.64l-.88-.13c-13.26-2-26.52-4.06-39.74-6.19-1.23-2.94-2.29-6.06-3.45-9.15A71.77,71.77,0,0,0,4263.34,6.2a76.28,76.28,0,0,0-5.27-6.2h-3.6A74,74,0,0,1,4261,7.94a68.31,68.31,0,0,1,9.27,18.18c.81,2.34,1.56,4.79,2.41,7.25-19-3.11-37.86-6.5-56.57-10.62-6.33-7.38-12.37-15.13-18.45-22.75h-3.82l-2.07,1.59c4.7,6.21,9.32,12.56,14.12,18.83-16.61-3.92-33.06-8.49-49.27-14l-2.07,5.86A553.46,553.46,0,0,0,4214,30.68c8.13,9.77,17.08,19,27.9,26.68,22.08,14.66,47.52,17.88,70.38,26,8,2.5,16.07,5.19,24.18,7.84.34.34.68.69,1.05,1l.38-.55c11.27,3.68,22.64,7.26,34.15,10.16,1.49,5.31,2.74,10.69,3.81,16.15a45.65,45.65,0,0,0-14-5.5,165.52,165.52,0,0,0-36.28-1.26c-23.6,1.38-47.1-5.35-71-6.55l-.09,1.36c23.7,1.91,46.82,9.43,71.29,8.82a161.75,161.75,0,0,1,35.15,2.31,37.13,37.13,0,0,1,16.37,8.51c2.65,15.91,4.07,32.33,5.77,49,0,0,0,.08,0,.12-22.4-6.53-45.31-10.42-68-14.9l-.57,2.66c23.29,5.38,46.71,10.12,69.19,17.65,3.08,25.68,7.68,53,23.95,76.87,10.71,15.88,26,26.65,42.09,34.59-17.34,8.28-31.55,21.47-46.64,27.65-11.3,5.15-23.9,2.56-36.23-2.26s-23.68-12.28-35.49-19.42c-48.17-31.12-106-32.64-158.75-45.09l-.77,3c53,14.19,110.09,17.77,155.08,49.17,11.46,7.42,23,15.43,36.18,21.25a80.36,80.36,0,0,0,21,6.21,45.33,45.33,0,0,0,22.83-2.58c14.17-5.3,25.25-14.05,36.81-20.59,7.6-4.47,15.43-8,23.39-9.8,4.67,1.79,9.3,3.42,13.8,4.92,4.73,1.64,9.41,3.23,14,4.85,2,4.28,4.21,8.51,6.67,12.61,6.35,11,12.85,21.19,17.51,31.46,4.22,9,7.07,20.54,11.71,32.09q.95,22.13,2.21,44c6.12,105.07-8.69,208.83-6.73,314q.36,19.47.71,38.95l-8.36-4.14-1.93-.94c-4.33-5.4-6.55-13.85-7.83-21.23-1.95-11.61-2.22-23.94-4.67-35.93-2.26-12.09-6.41-23.55-10.9-34.82a152.08,152.08,0,0,0-7.79-16.49c-3.13-5.09-6.12-11-12.29-13.55l-.39,1.31c9.75,5.94,13.6,19,18.11,29.65,4.09,11.28,7.84,22.8,9.63,34.53,2,11.79,1.89,23.76,3.53,36.05a69.83,69.83,0,0,0,4,16.35c-11.65-5.55-23.51-10.86-35.72-15.48-4-3.32-7.89-7.06-11.86-10.77-7.22-6.75-13.08-15.86-21-24-3.81-3.91-9.41-8.2-15.42-9.32a67.73,67.73,0,0,0-16.95-1.42c-4.2.08-8.37.38-12.49.75-2.86-7.25-6.22-14.82-11.91-21.31-.12-.15-.25-.28-.38-.42-11-31.43-42.78-50.88-73.6-56.89l-.21,1c28.35,6.42,56.43,24.49,67.74,51a23.64,23.64,0,0,0-8-3.13,68.73,68.73,0,0,0-15.09-2.39c-9.93-.69-19.64-.33-29.19-.21-18.72.4-37.85-3-56.93-5.2a235.42,235.42,0,0,0-58.11-.38l.41,4.34c38.32-4.78,75.1,7.79,114.59,9.27,9.68.19,19.23.15,28.44,1.1,9.14,1.26,18.38,2.4,23,8.48,3.57,4.19,6,9.75,8.32,15.73-2.9.25-5.77.46-8.6.57-42.6.71-85.4-2.11-128.23-2.45l-.06,2.43c42.71,1.69,85.31,5.88,128.33,6.53,3.72,0,7.37-.2,11-.41l.66,1.84a91.65,91.65,0,0,0,6.07,14.1,35.19,35.19,0,0,0,11.73,12.28c1.94,1.21,3.89,2.3,5.86,3.29-4.43-.9-8.87-2-13.42-2.95-20-4.72-41.36-5.54-61.33-.35l.23,1.14c20.09-4.5,40.69-3,60.4,2.25,9.75,2.47,20,5.53,30.37,6,11.83,3.38,23.46,5.05,33.52,9.4,17.53,6.79,34.48,15.3,51.37,24.29q7.8,4.14,15.67,8.38c2.29,131.17,3.9,262.66,3,393.75-.5,68.68-3.1,137.46-6,206.24a47.87,47.87,0,0,1-7.05,2c-.92.24-1.83.45-2.75.61-3.72.25-7.45.41-11.12.34-7.29-.73-14.73-3.09-22.38-5.74-3.8-2.79-7-6.64-10.6-11-24.39-26.91-55-45.81-82.72-68l-1.29,1.56c27.08,23.13,57.13,43.13,79.92,70,1,1.11,1.88,2.26,2.79,3.42q-33.51-10.58-67.11-20.44c-3.76-6-7.54-12.06-11.5-17.9l-.83.54c3.46,5.44,6.76,11,10,16.69q-59.34-17.37-119.18-32.7l-1,3.63q63.27,18.4,125.94,39.08c10,17.21,20.32,34.32,34.62,48.41-36.86-9.48-70.36-38.55-111.65-37.33l-.31,2.5c45.16.07,76.87,35.34,121.85,43.53.22.17.44.36.67.53l.27-.37c.77.13,1.53.28,2.3.4,23.4,1.35,44.94-5.66,66.42-4.41l3.18.12c-4.06,96.64-8,193.24-6.68,289.51,1.09,79.86,5,159.89,5.73,239.82-5.33-.69-10.67-1.49-15.92-2.2-23.62-2.93-47-11.54-72.59-10a83.4,83.4,0,0,0-8.33,1,137.48,137.48,0,0,1-24.67-20.92c-6.56-6.66-11.13-14.91-17.38-22.35-2.89-3.68-6.94-7.49-11.84-8.73-4.7-1.39-9.34-2.14-14-3.16l-.47,2.09c9.28,2.36,19,3.28,23.91,11.72,5.73,7.23,10.23,15.92,16.8,23.07a137.82,137.82,0,0,0,21.14,19.7c-1.29.35-2.58.73-3.86,1.16-6.38,2.24-11.54,5.93-16.52,9.39s-9.78,7-14.92,9.06c-4.89,2.1-10.88,1.65-16.69,1.16-23.52-3-45.81-13.62-67.88-23.26l-1.15,2.5c21.81,10.31,43.66,21.74,68.4,25.77,6.1.69,12.72,1.54,19.29-.89,6.25-2.29,11.38-5.93,16.43-9.19s10-6.49,15.13-8.08a63.72,63.72,0,0,1,9.52-2c5.31,3.63,10.77,7,16.3,10.2,18.36,10.48,37.86,18.24,57.47,25.39-12.64-1.45-25.36-3-38.26-4.72-20.62-2.36-39.88-4.14-59.86-8.06-22.07-4.61-43.28,2.57-62.26,7.49l1.53,7.72c20.36-3,39.72-7.07,57.46-1.1,19.32,6.06,40.19,10.39,59.48,14.74q8.79,2.14,17.72,4.26-7.92,3-15.69,6.54-7.55.54-15,1.4c-62.89,6.45-127.05-6.63-187.16-27.11l-1.25,3.41c57.27,21.52,118.44,36.55,180.64,33.87-5.94,3.39-11.71,7-17.24,10.84-24.78,14.16-54.67,10.15-82.79,10l0,1.61c27.83,1,58.08,6.26,84.81-7.74a248.44,248.44,0,0,1,27.88-15.46,302.56,302.56,0,0,1,71.44,3c-.82,37.2-2.73,74.36-6.35,111.47-10.15,103.93-10.74,209.94-7.5,314.38q1.11,35.8,1.7,71.77c-2-2.44-4.44-4.9-5.85-6.86-1.07,3.5-4.7,6.89-5.74,10.23-13-8.66-9.6-20.56-10.88-34.8-8.71,4.15-9.8,14.17-17.81,18.14-1.94-5.61-6.28-9.85-9.9-14.59-1.33,1.6-4.15,2.29-5.66,4.86-9.34-3-17.87-10.44-19.21-20.59-18.23,2.58-29.59,19.25-48.86,21.39-18.14,2-32,3.93-43.53-14.2-11.78-2.87-21.14.94-31.7,5.52-1,.42-25.21,12.89-24.43,3-.4,5.07-.09,10.37-.62,15.43-8.33-8.77-10.38,4.52-14.61,10.13-2.58-6.66-5.68-11.58-8.33-18.2-3.39,8.82-13.59,15.87-19.29,23.86-5.5-2.16-8.94-8.24-11.4-13.33-2.87,7.58-3.58,17.74-10.14,22.14-1.92-6.53-5.1-12.89-8.19-18.94-1.5.58-3.22.87-4.57,1.32a61.51,61.51,0,0,0-9.11-18.56c-2.87,4.57-3.7,9.23-5.22,14.74-2.33-6-2.73-11.31-6.57-16.44,4.75,6.34-65.22,45.07-67.49,8.72-1.75,4.54-1.48,9.89-1.62,15a37.58,37.58,0,0,1-12-4.9c-.85,2.85-4.66,6.22-5.22,9.46-3.28-1.67-2.21-.6-3.86-4-7.57-.9-10.25-10.88-13.78-17.26-2.14,6.12-5.13,12.69-10.09,16.78-1.8-6.72-5.08-13-7.37-19.1-4.7,6.05-8.87,16-11.63,24.44-2.19-.24-4.4-.44-6.6-.56a41.48,41.48,0,0,1-4.62-3.05c-1.07.91-2.16,1.89-3.24,2.9a123.93,123.93,0,0,0-15.59,1.35c-7.83-6.63-15.34-14.51-22.91-21.44.4,4.23-.82,9.32-.65,13.59l-2.91.6c0,3.58-2,6.55-2.35,10.08-.07.7-39.38,2.72-45,1.49-16.8-3.67-28.38-14.51-34.24-30.62-17.59.14-33.15-13.77-51.14-6.85-8.75,3.36-25.93,40.83-31.23,21.08-3.69.6-5.6,3-6.48,6.61-5.61-4.88-4-12.34-10.22-16-.93,3.49-4.41,7.73-5.17,10.2-2.36-7.88-6.74-14.81-9.22-22.41-2.84-8.71-3.87-19.05-8.37-26.38-3,7.89-3.23,18.14-4.76,26-.65,3.39-2,6.24-2.38,9.26a20.44,20.44,0,0,0-3.33-3.64c-3.7,6.34-1.35,13.68-3.53,20.44-1.29-3.62-3.37-4-5.24-6.41-1.37,3.16-4.58,5.32-5.84,8,.18-6.36-2.25-13-8.34-10.91.77-10-7.62-15.24-11.26-23.28-8.72,7-.31,23.68-13.16,31.13-3.83-4.41-5.19-6-10.57-3.55-4.48-11.57-10.76.1-16.8-1.33-3.24-.77-12.52-10.4-16.86-12.46-6.28-3-12.31-5.69-19.16-4.93,5,4.51,12.59,7.87,13.66,15.25-2.77-2.11-7.45-2-10.12-3.14,5.34,22.49-22.17,5.19-31.61,7.49,1.94,11.32-7.77,24-16.37,10.79-2.72,6.69-7.54,13.36-13.84,17.08-1.54-10.59,2.16-23.15,3.1-34-16.25,4.1-18.75,15.4-27.06,26.33-3.08-9.44-16.1-10.65-24.68-10.11,1.67,8-3.39,11.78-10.3,11.84-8.21.06-17.74,3.54-27.66,7.05H3342.21a47.49,47.49,0,0,1-13-8.13c-5-4.57-1-11.17-9.16-17.17-3.83-2.81-15.86-7-21.07-9.52-7.95-3.9-13.56-5.06-21.69.21-1.44,17.87-50.64,4.89-61.21,2.11-8.51-2.23-21.7-11.86-31.61-6-5.73,3.37-3.62,9.09-8.07,12.76-4.11,3.4-10.33,3.7-14.84,6.07a16.47,16.47,0,0,1-6-13.29c-7.54,2.27-7.73,10.71-13.19,15.43q-3.76-6.12-7.89-11.88c-1.2,1.9-5.53,4.48-6.59,7-4.78-4-9.28-10.84-11.88-16a101.44,101.44,0,0,1-4.24,13.73c-4.88,2.28-4.25,1.38-8.48,5.31-.66-.18-2.5-1.5-3.11-1.41-.84,3.49-3.33,6.6-4,9.91-.51-5.86-1.88-4.15-4.78-8.15-.56,2.37-1.9,4.46-2.5,6.67-4.45,1.66-4.38,1.14-8.37,5.26-8.3-5.17-10,4.64-16.64,1.31-6.33-3.17-8.7-14.6-10.11-20.35-7.35,9.64-8.5,16.07-21.82,17.68-11.41,1.38-22.59-4.2-33.56-7.46-.94-6.58-2.64-13-6-18.5-8.48,13.65-20.66,26.14-35.68,18.72-6-3-9.27-8.88-16.29-10.33-4.27-.88-8.36,0-12.49.73,3.42,2.1,5.57,6.55,6.74,11.13-1.41-5.53-41.19.16-45.41.55-9.57.88-23.07,4.7-32.49,2.81-3.14-.63-24.65-15.35-21.91-16.94-6.93,4-9.38,12.71-17.44,16.65-12-14.08-42.92-8.89-61.26-7.8a34.16,34.16,0,0,1,2.89,10.66q-27.36-5.15-55-11.6c-9.31-12.41-15.25-29.2-28.37-36-3.24,7-1.94,14.51-5.57,21.65-5.68-5.5-12.86-17.6-19.74-6.48-8.84-9-19.45-24.09-20.57-2.7-8.66-15.13-22.63.69-34.87-5.9-2.61-5.37-4.44-9.78-8.63-13.59-7.36,8.15-1.2,18.58-10.68,24.56-7.41,4.67-14.31,1.78-22.11,8.49-6.06,5.21-7.1,11.71-15.36,12.86-15.3,2.13-46.42-15-61.63-19.75-8.15-2.53-27.54-8.29-35.74-7.07-11.1,1.66-18.13,14.14-28.05,15.88-5.41.95-18.19-3.26-21.15-7.33-3.28-4.53-6-8.87-10.65-10-1.64,3.52-4.39,4.17-6.84,7.88-10.76-5.64-10.57-20.79-21.25-25.58-.48,8,.07,16.32-.62,24.3-1.37-3-5.8-6.46-7.68-8.48-.9,9.6-5.5,15.13-6.31,24.15-10.14-.43-14.76-2.55-20.26,7.11-6.43-5-14.53-26.49-22.84-12.16a36.12,36.12,0,0,1-4.35-15.59c-4.28,10.75-15.94,18.46-22,9.12-.25-.4,1.44-8.75.88-10.94-1.38-5.36-7.36-11.67-11-15.72-6.29,3.49-10.71,8.8-18.26,11.3-7.37,2.45-12.15-2-15.9,5.48-1.79-2.54-5.3-4.85-6.72-7.56-.25.79-.46,1.59-.64,2.4-2.64-3.56-5.2-7.18-7.95-10.61-6.8,17.51-12.06,23.24-30.74,22.73-21.24-.58-43.45-3.76-62.6-13.42-8.11-15-38.48,3.59-38.31-20.79-28.48.56-51.15,16.75-76.18,25.06l-1.44-.09a275.68,275.68,0,0,0-43.3,1.17c-5.68-2.74-10.79-6.64-16.07-10.42a48.67,48.67,0,0,1-.61,5c-10.52-5.25-11.83,3-14.08,9.93-23.94,4.42-47.79,10.78-71.67,17.39A59.36,59.36,0,0,1,1833.5,2521c2,4.82,4.77,9.84,6.29,14.75l-9.16,2.54c-14,1.27-27.3-4.62-41-6,9.17-7.47,5.3-18.93-5.45-22.7-5.52,6.19-11.65,12-16.23,19.06-2.87-6.46-7-14-13.2-16.87-2.37,6.05-6.16,11.14-9.1,16.78-2.16-3.84-6.05-5.52-8.52-8.06-.28,7.38,3.75,15.77-.22,22.09-3.92-3.06-5.19-10.15-7.42-12.22-5.12-4.77-15.9-10-22.94-12-27-7.8-55.24,7.23-81.38,3.5-9.65-1.37-11.51-7.9-19.12-11.29-8-3.56-16.13-2.52-24.68-2.41-5.5.06-20-3-24-.49-6.69,4.07-3.86,12.44-6.62,19.38-8.26.65-13.86,7.36-19,12.54,4.48,4,6.61,9.55,3.6,14.43-6.38-2.55-17.24-3.78-23.94-1.92a14.35,14.35,0,0,0-4,1.89q-11.6-.36-23.23-.53a120.62,120.62,0,0,1-18.82-19,24.83,24.83,0,0,1-5.14,13.41c-4.56-4-9.29-7.75-14.73-10.26-6.09,9.36-15.69-6.15-23.72-8.32-.58,3.63-3.66,6.65-4.56,10.15-9.56-2.63-16.79-.84-25.8-4.75-9.63-4.17-19-13.05-26.7-20.05-29.35-26.71-43.51-6.54-80.08-6.38-17.84.07-31.27-7.63-48.55,1-11.44,5.73-13.67,13-17.79,23.9-.79,2.08-4.41,13.75-8.71,19.58l-12.51-.25c-3.79-1.43-6.17-1.29-8.25-.16q-11.29-.22-22.58-.43a24.17,24.17,0,0,0-4.43-3.24c-.7,1.16-1.36,2.19-2,3.12q-20.46-.36-40.94-.61c-2.46-2.14-5.1-3.28-7.94-1.2-2.64-17.49-13-6.56-22.9-.36.84-6.81-3.28-23.66-12.64-21.74-3.72.76-13.31,19.09-15.14,23h-.27c-4.67-3.64-9.55-8.12-14.09-11a3.84,3.84,0,0,0-.13,2.65c-5.63-2.22-10.67-4.59-15.7-3.33a24.87,24.87,0,0,0,10.33,10.59c-2,.34-4,.79-6,1.28q-19,.19-38,.65a10.3,10.3,0,0,1-1.12-2.62,38.09,38.09,0,0,1-2.92,2.73c-3.17.08-6.34.18-9.52.28-1.31-3.44-3.43-6.27-6.91-7-1.11,3.26-4.2,4.83-5.55,7.36l-.41,0c-5.08-4.64-11.13-10.78-18.62-7.79-2.71-7.55-8.6-14.06-16.81-15.77,3.27,9,1.27,16.59.53,25.12-2.87.16-5.73.3-8.6.47a40,40,0,0,1-7.14-10.74c.21,3.78-1.65,5.85-2,9.61a29.25,29.25,0,0,1-3.8,1.88H895.33c-1.07-1.81-1.15-4.62.31-8.81-8.2,2-16.46,5.5-24.69,7,2-4,2.72-11.23-3.2-11.82-5.21-.51-7.63,8.86-9.5,13.67H856.8c-6.8-11-11.81-18.79-25.72-22.84,5.31,10.09,6.86,12.41,6.26,22.84h-3.57c-3.77-4.38-5.89-10.05-11.76-11.92.32,3.54-.57,8.25.73,11.84a19.24,19.24,0,0,0-3,.08H795.35a13.4,13.4,0,0,1,1.66-4.78c3,0,8.59-1.6,10.07-1.67-12.82-1.79-24.05,3.23-36,4.64a28,28,0,0,0-6-12.25c-1.26,1.64-3.51,2.74-4.83,4.81-6.6-7.57-7.13-19.12-19-22-.57,8.06,5.53,22.8,1.2,31.22H708.85c-12.32-5-25-11.69-32.06-13.87-34.4-10.57-60.49-17-97-15.08a55.23,55.23,0,0,1-13.18,16.82c-24.83-2.56-49.5-5-74.17-6.73-15.73-16.69-13.72-31.38-53.61-24.75-17,2.82-29.25,4.22-45.54,1.72-18.88-2.91-30.19-11.73-48.86-1.63-13.47,7.29-23.59,17.58-37.57,24.53-1.94-3.2-9.59-12.27-9.72-15.75.27,7.43-6.39,24.82-14.09,25.88-.63-2.23-3-5.39-3.42-6.63a8.06,8.06,0,0,0-.34,4.1c-7.78-11.94-13-27.41-31-28.56,1.19,11.93,10.38,22.78,9.82,36.68l-3.31.49c-3.52-.87-6.84-.87-9,1.31l-3.82.56c-6.5-6.74-13.9-16.36-22.1-18a71.23,71.23,0,0,0-2.46,13.67c-2.58-6.35-3-11.93-10.76-11.34-7.51.58-12.32,16.8-17.16,6.48-7-.63-12,4.15-18.43,4.77-.23-6.87,2.07-13.63-1-20.67-6.46,5.49-11.44,14.19-17.24,20.81-1.28-1.55-4.2-4.08-5.3-6.24a20.85,20.85,0,0,0,.22,2.22c-5-8.43-11.07-16.46-15.52-25.26-.86,3.76-4.17,7.49-5.62,10.34a37.38,37.38,0,0,0-9.83-8.85c-3.29,7.67-4.29,15.47-4.51,24.19-13.39-4.91-27.87-14.63-42-16.81-5.43-.84-11.52-1-16.39,1.89-1.88,1.11-11,14.7-10.45,14.77-15.21-2.15-21.51,2.26-26.09,8.93H0V2700H4800V2553l-8.19-.51c5.4-11.17-2-34.72-12.32-41.29-15.76-10-25.55-.87-35.4,9.36q1-30.3,1.72-60.79c6.68-299.81,14-598.37,14.12-898.45,0-91.36,2.52-182.74,5.41-274.1l.26.65c10.62-4.5,22.32-5.9,34.4-6.76v-6.89c-3.41.15-6.83.34-10.27.64,3.48-1.74,6.89-3.57,10.27-5.45ZM4334.72,56.24q-4-.15-7.91-.42l-.75-2C4329.05,54.5,4332,55.3,4334.72,56.24Zm-19.85-4.67q3.59.61,7,1.31c.3.88.59,1.75.88,2.62-.93-.08-1.86-.15-2.79-.25a138.33,138.33,0,0,1-20.28-3.56c-5.16-1.27-10.12-2.72-14-5.59Q4300.31,48.88,4314.87,51.57Zm.42,21.88c-23.71-7.41-49-10.14-69-22.74A124,124,0,0,1,4226,33.62c17.35,4.12,34.83,7.7,52.29,11.07.29.37.58.75.89,1.11,4.77,6.23,12.6,8.81,19.2,10.65a145.72,145.72,0,0,0,20.91,4.36c1.82.24,3.63.46,5.45.65l.81,2.45c1.38,4.21,2.1,8.86,3.38,13.45Q4322.16,75.37,4315.29,73.45Zm18.9,5.45c-1.93-5-3.13-10.86-4.85-16.15l-.31-.87c6.49.58,13,.91,19.46,1.16.63.44,1.26.91,1.87,1.39,7.7,5.92,13.18,14.25,17.12,23.68C4356.31,85.4,4345.29,82.16,4334.19,78.9Zm65.43,93.64c-3-21.84-5.43-44.6-11.49-66.89a54.91,54.91,0,0,1,11.31,4.29c3.47,1.63,5.83,5.84,8.2,11.09,4.38,9.91,7.32,23.66,15.28,35,7.42,11.11,16.35,20.15,23.28,29.35,6.61,8.58,10,19.22,13.8,31.14q5,15.23,10.34,30.37c-15-5.27-28.4-13.32-35.84-27-2.76-4.7-2.32-9.13-1.91-16,.21-3.47-1.45-8.07-4.29-10.41a33.12,33.12,0,0,0-8.48-5.3q-9.39-4.18-19-7.64C4400.39,177.86,4400,175.2,4399.62,172.54Zm23.76,73.24c-12.1-16.27-17.8-37.19-21.54-58.89q7.8,3.2,15.33,6.84c5.21,2.68,9.37,5.46,8.68,10.06-.55,4.9-1.46,13.29,2.11,19.32,9.47,18.79,27.84,28.52,46.25,34.57q4.41,12.13,9.18,24.19C4459.25,274.3,4437,264.67,4423.38,245.78Zm85.08,43.94c-1.63-3.5-3.25-7.05-4.94-10.65q-3.33-7.51-6.5-15.14c10.13,2.52,20.37,4.9,29.83,8.23q.43,12.36.84,24.7C4521.26,294.13,4514.83,291.83,4508.46,289.72Zm18.71,33.07,1.41.83c0,.5,0,1,.05,1.49C4528.15,324.33,4527.66,323.55,4527.17,322.79ZM4411.09,738.67c-6.82-3.54-10.27-10.73-13.57-19.06,3.28-.16,6.54-.27,9.79-.23,10.75.16,19.9,1.27,26.18,9.15,6,6.53,11.06,14.56,17.76,22C4436.52,747,4422.19,745.46,4411.09,738.67Zm108.75,687.77c-23.07-.44-44.85,7.24-66,6.54-2-.21-3.91-.5-5.85-.84-16.29-13.32-28.13-31-39.46-49.12q30.23,10,60.18,20.54c14.74,5.46,32.14,14,51,9.85,1.41-.24,2.79-.56,4.16-.9q-.28,7-.58,14C4522.14,1426.45,4521,1426.43,4519.84,1426.44Zm-41.07,595.73q4.48-1.55,9-3,7.71,1.79,15.49,3.52Q4491,2022,4478.77,2022.17Zm-33.3-56.51q-5.24-2.79-10.33-5.81c22.78-.4,45.51,8.43,69.27,12.25,5.92,1,11.73,2.08,17.62,3q0,10,0,19.93C4495.76,1986.6,4469.62,1978.46,4445.47,1965.66Zm330.37-699.32c-3.29,1.43-6.61,2.69-10,3.81.06-1.94.13-3.88.19-5.82,6.71-1,13.39-1.87,20.05-2.53C4782.72,1263.4,4779.29,1264.93,4775.84,1266.34Z"/><path class="cls-2" d="M2917.43,2530.49A29,29,0,0,0,2928,2530C2925.28,2528.36,2921.81,2528.16,2917.43,2530.49Z"/></g></g></svg>