<svg xmlns="http://www.w3.org/2000/svg" viewBox="0 0 1282 603.4"><defs><style>.cls-1{fill:#ffa102;}.cls-2{fill:#005086;}.cls-3{fill:#fff;}</style></defs><title>background_image</title><g id="Layer_2" data-name="Layer 2"><g id="Layer_5" data-name="Layer 5"><path class="cls-1" d="M1136,486.32a1.93,1.93,0,1,0,2.7-.35,1.92,1.92,0,0,0-2.7.35Z"/><path class="cls-1" d="M1085.27,509.25a1.93,1.93,0,1,0-2.7.35,1.93,1.93,0,0,0,2.7-.35Z"/><path class="cls-1" d="M1090.74,503.59a1.92,1.92,0,1,0,2.7-.35,1.92,1.92,0,0,0-2.7.35Z"/><path class="cls-1" d="M1075.43,502.47h0a1.93,1.93,0,1,0-2.34,3.06,1.93,1.93,0,0,0,2.35-3.06Z"/><path class="cls-1" d="M1076.76,509.43h0a1.93,1.93,0,1,0,.35,2.7A1.92,1.92,0,0,0,1076.75,509.42Z"/><path class="cls-1" d="M1086,513.79h0a1.92,1.92,0,1,0,.36,2.7A1.93,1.93,0,0,0,1086,513.79Z"/><path class="cls-1" d="M1093.84,497.07a1.92,1.92,0,1,0-2.7.34,1.92,1.92,0,0,0,2.7-.34Z"/><path class="cls-1" d="M1080.13,520a1.93,1.93,0,1,0-2.7.35,1.92,1.92,0,0,0,2.7-.35Z"/><path class="cls-1" d="M1099,492.31h0a1.93,1.93,0,1,0,2.7-.36A1.92,1.92,0,0,0,1099,492.32Z"/><path class="cls-1" d="M1086.75,499.09a1.93,1.93,0,1,0,.34,2.71,1.93,1.93,0,0,0-.34-2.71Z"/><path class="cls-1" d="M1074.36,497.46a1.93,1.93,0,1,0-2.7.35,1.93,1.93,0,0,0,2.7-.35Z"/><path class="cls-1" d="M1078.55,496.13a1.93,1.93,0,1,0,2.71-.35,1.93,1.93,0,0,0-2.71.35Z"/><path class="cls-1" d="M1104.54,522.5a1.93,1.93,0,1,0,.35,2.71,1.93,1.93,0,0,0-.35-2.71Z"/><path class="cls-1" d="M1157,533.67a1.93,1.93,0,1,0-.35-2.7,1.93,1.93,0,0,0,.35,2.7Z"/><path class="cls-1" d="M1150.43,533.34h0a1.92,1.92,0,1,0-2.7.36A1.93,1.93,0,0,0,1150.43,533.33Z"/><path class="cls-1" d="M1134.69,534.1h0a1.93,1.93,0,1,0-2.7.36A1.93,1.93,0,0,0,1134.7,534.09Z"/><path class="cls-1" d="M1184.91,530.86a1.93,1.93,0,1,0-2.71.35,1.93,1.93,0,0,0,2.71-.35Z"/><path class="cls-1" d="M1173.46,529.63a1.93,1.93,0,1,0,2.71-.35,1.93,1.93,0,0,0-2.71.35Z"/><path class="cls-1" d="M1099.72,529.67h0a1.92,1.92,0,1,0,2.7-.37A1.93,1.93,0,0,0,1099.72,529.68Z"/><path class="cls-1" d="M1084.92,527.74a1.93,1.93,0,1,0-2.71.35,1.93,1.93,0,0,0,2.71-.35Z"/><path class="cls-1" d="M1090.21,535.21a1.92,1.92,0,1,0-2.7.35,1.92,1.92,0,0,0,2.7-.35Z"/><path class="cls-1" d="M1087,488.69a1.93,1.93,0,1,0,2.71-.35,1.93,1.93,0,0,0-2.71.35Z"/><path class="cls-1" d="M1090.26,519.75a1.92,1.92,0,1,0,.36,2.7,1.92,1.92,0,0,0-.36-2.7Z"/><path class="cls-1" d="M1091.81,526.14a1.93,1.93,0,1,0,2.71-.35,1.93,1.93,0,0,0-2.71.35Z"/><path class="cls-1" d="M1096.46,457a1.92,1.92,0,1,0-2.36,3h0a1.93,1.93,0,1,0,2.36-3.05Z"/><path class="cls-1" d="M1129.49,459.1a1.92,1.92,0,1,0,.34,2.7,1.92,1.92,0,0,0-.34-2.7Z"/><path class="cls-1" d="M1090.45,461.32h0a1.92,1.92,0,1,0,.36,2.7A1.93,1.93,0,0,0,1090.44,461.32Z"/><path class="cls-1" d="M1096.07,466.07h0a1.93,1.93,0,1,0,.36,2.7A1.92,1.92,0,0,0,1096.07,466.07Z"/><path class="cls-1" d="M1102.23,465.36h0a1.93,1.93,0,1,0,2.34-3.06,1.93,1.93,0,0,0-2.34,3.06Z"/><path class="cls-1" d="M1165.16,531.83h0a1.93,1.93,0,1,0-.35-2.7A1.93,1.93,0,0,0,1165.17,531.83Z"/><path class="cls-1" d="M1106.24,454.86a1.93,1.93,0,1,0-2.37,3.05h0a1.93,1.93,0,0,0,2.36-3.05Z"/><path class="cls-1" d="M1086.54,468h0a1.93,1.93,0,1,0,.36,2.7A1.92,1.92,0,0,0,1086.53,468Z"/><path class="cls-1" d="M1107.6,448.5a1.93,1.93,0,1,0-2.71.35,1.94,1.94,0,0,0,2.71-.35Z"/><path class="cls-1" d="M1118.88,449a1.93,1.93,0,1,0,.35,2.71,1.93,1.93,0,0,0-.35-2.71Z"/><path class="cls-1" d="M1100.21,450.6h0a1.93,1.93,0,1,0-2.34,3.06,1.93,1.93,0,0,0,2.35-3Z"/><path class="cls-1" d="M1113.07,453.81a1.93,1.93,0,1,0,.34,2.71,1.92,1.92,0,0,0-.34-2.71Z"/><path class="cls-1" d="M1093.12,473.43h0a1.93,1.93,0,1,0,.36,2.7A1.92,1.92,0,0,0,1093.11,473.43Z"/><path class="cls-1" d="M1086.51,480.31a1.93,1.93,0,1,0,2.7-.35,1.93,1.93,0,0,0-2.7.35Z"/><path class="cls-1" d="M1105.44,484.08h0a1.93,1.93,0,1,0,.36,2.7A1.92,1.92,0,0,0,1105.44,484.08Z"/><path class="cls-1" d="M1075.89,486.77h0a1.93,1.93,0,1,0,.36,2.7A1.92,1.92,0,0,0,1075.88,486.76Z"/><path class="cls-1" d="M1143,444.5a1.93,1.93,0,1,0-2.71.34,1.94,1.94,0,0,0,2.71-.34Z"/><path class="cls-1" d="M1097.1,485.24h0a1.93,1.93,0,1,0,.36,2.7A1.91,1.91,0,0,0,1097.1,485.24Z"/><path class="cls-1" d="M1099.31,480.76a1.92,1.92,0,1,0-2.7.35,1.92,1.92,0,0,0,2.7-.35Z"/><path class="cls-1" d="M1080.45,487.49a1.93,1.93,0,1,0,2.71-.34,1.94,1.94,0,0,0-2.71.34Z"/><path class="cls-1" d="M1108.89,470.51a1.93,1.93,0,1,0,2.7-.35,1.93,1.93,0,0,0-2.7.35Z"/><path class="cls-1" d="M1099.7,469.81a1.93,1.93,0,1,0,2.71-.36,1.93,1.93,0,0,0-2.71.36Z"/><path class="cls-1" d="M1104.4,476.25h0a1.93,1.93,0,0,0,3.06,2.34,1.93,1.93,0,0,0-3.06-2.35Z"/><path class="cls-1" d="M1083.1,476.28a1.93,1.93,0,1,0-2.71.34,1.94,1.94,0,0,0,2.71-.34Z"/><path class="cls-1" d="M1079.39,479.55h0a1.93,1.93,0,1,0,.35,2.7A1.93,1.93,0,0,0,1079.39,479.55Z"/><path class="cls-1" d="M1174.59,479h0a1.93,1.93,0,1,0-2.7.36A1.92,1.92,0,0,0,1174.59,479Z"/><path class="cls-1" d="M1144.79,475.66a1.93,1.93,0,1,0,.35,2.71,1.93,1.93,0,0,0-.35-2.71Z"/><path class="cls-1" d="M1184.09,475.8h0a1.93,1.93,0,1,0,.35,2.71A1.93,1.93,0,0,0,1184.08,475.79Z"/><path class="cls-1" d="M1124.88,476.59a1.93,1.93,0,1,0,2.71-.36,1.94,1.94,0,0,0-2.71.36Z"/><path class="cls-1" d="M1115.91,481.1h0a1.93,1.93,0,0,0,2.34-3.06,1.93,1.93,0,0,0-2.35,3.06Z"/><path class="cls-1" d="M1159.87,479.71h0a1.93,1.93,0,1,0-2.7.36A1.93,1.93,0,0,0,1159.87,479.7Z"/><path class="cls-1" d="M1197.46,486.21h0a1.93,1.93,0,1,0,.35,2.71A1.93,1.93,0,0,0,1197.46,486.2Z"/><path class="cls-1" d="M1135.91,481.34h0a1.93,1.93,0,1,0-.36-2.7A1.93,1.93,0,0,0,1135.91,481.34Z"/><path class="cls-1" d="M1182.39,482.87h0a1.93,1.93,0,1,0,.36,2.7A1.93,1.93,0,0,0,1182.39,482.86Z"/><path class="cls-1" d="M1190.82,492.19a1.92,1.92,0,1,0-2.7.36,1.92,1.92,0,0,0,2.7-.36Z"/><path class="cls-1" d="M1202.64,483.3a1.93,1.93,0,1,0-2.71.34,1.94,1.94,0,0,0,2.71-.34Z"/><path class="cls-1" d="M1188.46,483.94a1.93,1.93,0,1,0-.35-2.7,1.92,1.92,0,0,0,.35,2.7Z"/><path class="cls-1" d="M1149.19,481.4h0a1.93,1.93,0,1,0-.35-2.7A1.93,1.93,0,0,0,1149.2,481.41Z"/><path class="cls-1" d="M1121.21,496.71h0a1.93,1.93,0,1,0-.35-2.7A1.94,1.94,0,0,0,1121.21,496.71Z"/><path class="cls-1" d="M1158.45,495h0a1.92,1.92,0,1,0-2.7.36A1.93,1.93,0,0,0,1158.45,495Z"/><path class="cls-1" d="M1176.58,491h0a1.93,1.93,0,1,0,.36,2.7A1.93,1.93,0,0,0,1176.58,491Z"/><path class="cls-1" d="M1167.15,490.39h0a1.93,1.93,0,1,0,.35,2.71A1.93,1.93,0,0,0,1167.14,490.38Z"/><path class="cls-1" d="M1148.74,497.62a1.93,1.93,0,1,0-2.71.34,1.92,1.92,0,0,0,2.71-.34Z"/><path class="cls-1" d="M1167.07,481.57a1.93,1.93,0,1,0,.36,2.71,1.94,1.94,0,0,0-.36-2.71Z"/><path class="cls-1" d="M1140.1,494.23h0a1.93,1.93,0,1,0,.35,2.7A1.93,1.93,0,0,0,1140.1,494.23Z"/><path class="cls-1" d="M1113.83,490.11a1.92,1.92,0,1,0,2.7-.36,1.92,1.92,0,0,0-2.7.36Z"/><path class="cls-1" d="M1120.93,487.78h0a1.93,1.93,0,1,0,2.34-3.06,1.93,1.93,0,0,0-2.34,3.06Z"/><path class="cls-1" d="M1107.18,495.35h0a1.93,1.93,0,1,0,2.34-3.06,1.93,1.93,0,0,0-2.34,3.06Z"/><path class="cls-1" d="M1164.41,500.69h0a1.93,1.93,0,1,0-2.71.35A1.93,1.93,0,0,0,1164.42,500.69Z"/><path class="cls-1" d="M1199.78,522.87a1.93,1.93,0,1,0-2.71.34,1.92,1.92,0,0,0,2.71-.34Z"/><path class="cls-1" d="M1182.48,524h0a1.92,1.92,0,1,0-2.7.36A1.93,1.93,0,0,0,1182.48,524Z"/><path class="cls-1" d="M1215.62,523.92h0a1.93,1.93,0,1,0,.36,2.7A1.92,1.92,0,0,0,1215.62,523.92Z"/><path class="cls-1" d="M1169,519.14h0a1.93,1.93,0,1,0-2.7.35A1.93,1.93,0,0,0,1169,519.13Z"/><path class="cls-1" d="M1191.94,518.94h0a1.93,1.93,0,1,0,.35,2.7A1.93,1.93,0,0,0,1191.94,518.94Z"/><path class="cls-1" d="M1156,526.57a1.93,1.93,0,1,0-2.71.36,1.94,1.94,0,0,0,2.71-.36Z"/><path class="cls-1" d="M1110.41,530.3h0a1.93,1.93,0,1,0,.35,2.7A1.93,1.93,0,0,0,1110.41,530.29Z"/><path class="cls-1" d="M1183.81,491.38h0a1.93,1.93,0,1,0,.35,2.7A1.93,1.93,0,0,0,1183.8,491.38Z"/><path class="cls-1" d="M1141.56,527.62h0a1.93,1.93,0,1,0,.35,2.7A1.92,1.92,0,0,0,1141.55,527.62Z"/><path class="cls-1" d="M1219.41,516.8h0a1.92,1.92,0,1,0,.37,2.7A1.92,1.92,0,0,0,1219.4,516.79Z"/><path class="cls-1" d="M1173.86,524.67h0a1.93,1.93,0,1,0-2.7.36A1.92,1.92,0,0,0,1173.86,524.67Z"/><path class="cls-1" d="M1118.37,528.84a1.92,1.92,0,1,0,.36,2.7,1.92,1.92,0,0,0-.36-2.7Z"/><path class="cls-1" d="M1172.91,497h0a1.93,1.93,0,1,0,.36,2.7A1.91,1.91,0,0,0,1172.91,497Z"/><path class="cls-1" d="M1204.36,513.4h0a1.93,1.93,0,1,0,.35,2.7A1.93,1.93,0,0,0,1204.35,513.39Z"/><path class="cls-1" d="M1198.29,493.92h0a1.93,1.93,0,1,0,.36,2.7A1.93,1.93,0,0,0,1198.29,493.92Z"/><path class="cls-1" d="M1156.75,500.31h0a1.93,1.93,0,1,0,.35,2.7A1.93,1.93,0,0,0,1156.74,500.3Z"/><path class="cls-1" d="M1205.42,497.66h0a1.93,1.93,0,1,0,.36,2.7A1.92,1.92,0,0,0,1205.41,497.66Z"/><path class="cls-1" d="M1124.35,528.73h0a1.93,1.93,0,1,0,2.71-.35A1.93,1.93,0,0,0,1124.34,528.73Z"/><path class="cls-1" d="M1214,511.14h0a1.93,1.93,0,1,0,.35,2.7A1.93,1.93,0,0,0,1214,511.14Z"/><path class="cls-1" d="M1172.56,510h0a1.93,1.93,0,1,0,.35,2.7A1.93,1.93,0,0,0,1172.55,510Z"/><path class="cls-1" d="M1176.53,505.87a1.93,1.93,0,1,0-2.71.35,1.93,1.93,0,0,0,2.71-.35Z"/><path class="cls-1" d="M1183.55,509.36h0a1.92,1.92,0,1,0-2.7.36A1.93,1.93,0,0,0,1183.55,509.35Z"/><path class="cls-1" d="M1110.62,485.72h0a1.93,1.93,0,1,0-.36-2.7A1.92,1.92,0,0,0,1110.62,485.72Z"/><path class="cls-1" d="M1199.34,548.09a1.93,1.93,0,1,0-.34-2.71,1.94,1.94,0,0,0,.34,2.71Z"/><path class="cls-1" d="M1228.26,554.61h0a1.93,1.93,0,1,0-.36-2.7A1.93,1.93,0,0,0,1228.26,554.62Z"/><path class="cls-1" d="M1235.67,551a1.93,1.93,0,1,0,2.71-.35,1.93,1.93,0,0,0-2.71.35Z"/><path class="cls-1" d="M1208.3,548.26h0a1.93,1.93,0,1,0-2.34,3.06,1.93,1.93,0,0,0,2.35-3Z"/><path class="cls-1" d="M1222.73,548.58h0a1.93,1.93,0,1,0,.35,2.7A1.92,1.92,0,0,0,1222.73,548.58Z"/><path class="cls-1" d="M1212.94,552.07a1.93,1.93,0,1,0,2.71-.35,1.93,1.93,0,0,0-2.71.35Z"/><path class="cls-1" d="M1197.38,555.13h0a1.93,1.93,0,1,0-.35-2.7A1.93,1.93,0,0,0,1197.39,555.14Z"/><path class="cls-1" d="M1229.75,559.21a1.93,1.93,0,1,0,2.7-.34,1.93,1.93,0,0,0-2.7.34Z"/><path class="cls-1" d="M1224,557.37a1.92,1.92,0,1,0-2.36,3h0a1.92,1.92,0,0,0,2.36-3Z"/><path class="cls-1" d="M1191.67,556h0a1.93,1.93,0,1,0,.35,2.71A1.93,1.93,0,0,0,1191.67,556Z"/><path class="cls-1" d="M1208.62,559.71a1.93,1.93,0,1,0-2.71.35,1.93,1.93,0,0,0,2.71-.35Z"/><path class="cls-1" d="M1224.5,531.88a1.93,1.93,0,1,0,2.71-.35,1.93,1.93,0,0,0-2.71.35Z"/><path class="cls-1" d="M1236.65,532.88a1.92,1.92,0,1,0-2.7.36,1.92,1.92,0,0,0,2.7-.36Z"/><path class="cls-1" d="M1193,529.1h0a1.93,1.93,0,1,0-2.7.35A1.93,1.93,0,0,0,1193,529.1Z"/><path class="cls-1" d="M1212.37,544.06a1.93,1.93,0,1,0,2.71-.35,1.93,1.93,0,0,0-2.71.35Z"/><path class="cls-1" d="M1202.9,528h0a1.93,1.93,0,0,0,2.34-3.06,1.93,1.93,0,0,0-2.35,3.06Z"/><path class="cls-1" d="M1241,534.45a1.93,1.93,0,0,0,2.36-3.05h0a1.93,1.93,0,1,0-2.35,3.05Z"/><path class="cls-1" d="M1222,525.13a1.93,1.93,0,1,0,2.71-.35,1.93,1.93,0,0,0-2.71.35Z"/><path class="cls-1" d="M1214.06,562.49h0a1.93,1.93,0,1,0-.35-2.71A1.93,1.93,0,0,0,1214.07,562.5Z"/><path class="cls-1" d="M1233.94,544a1.92,1.92,0,1,0,2.7-.36,1.92,1.92,0,0,0-2.7.36Z"/><path class="cls-1" d="M1239.57,539.94a1.93,1.93,0,1,0,2.71-.35,1.93,1.93,0,0,0-2.71.35Z"/><path class="cls-1" d="M1233.08,539.32h0a1.93,1.93,0,1,0-2.7.36A1.93,1.93,0,0,0,1233.09,539.32Z"/><path class="cls-1" d="M1188.61,537.25a1.92,1.92,0,1,0-.35-2.7,1.92,1.92,0,0,0,.35,2.7Z"/><path class="cls-1" d="M1200.23,576.24a1.93,1.93,0,1,0,2.71-.35,1.93,1.93,0,0,0-2.71.35Z"/><path class="cls-1" d="M1195.85,586a1.93,1.93,0,1,0,2.7-.35,1.92,1.92,0,0,0-2.7.35Z"/><path class="cls-1" d="M1170.68,590.48h0a1.93,1.93,0,1,0-2.7.36A1.92,1.92,0,0,0,1170.68,590.47Z"/><path class="cls-1" d="M1180.53,590.26h0a1.93,1.93,0,1,0,.35,2.7A1.92,1.92,0,0,0,1180.53,590.26Z"/><path class="cls-1" d="M1209,581.8a1.93,1.93,0,1,0,2.71-.36,1.94,1.94,0,0,0-2.71.36Z"/><path class="cls-1" d="M1202.63,584.36a1.93,1.93,0,1,0,2.71-.35,1.93,1.93,0,0,0-2.71.35Z"/><path class="cls-1" d="M1178.5,602.52a1.92,1.92,0,1,0-.36-2.7A1.93,1.93,0,0,0,1178.5,602.52Z"/><path class="cls-1" d="M1164.78,603.4h2.71a1.29,1.29,0,0,0-.16-.17A1.92,1.92,0,0,0,1164.78,603.4Z"/><path class="cls-1" d="M1192.6,582.12a1.93,1.93,0,1,0-.35-2.7,1.92,1.92,0,0,0,.35,2.7Z"/><path class="cls-1" d="M1182.79,563.66a1.93,1.93,0,1,0-.35-2.71,1.93,1.93,0,0,0,.35,2.71Z"/><path class="cls-1" d="M1207,591.52a1.93,1.93,0,1,0,2.71-.35,1.93,1.93,0,0,0-2.71.35Z"/><path class="cls-1" d="M1200.41,597.29h0a1.93,1.93,0,1,0-.35-2.7A1.94,1.94,0,0,0,1200.41,597.3Z"/><path class="cls-1" d="M1191.72,599.37a1.93,1.93,0,1,0,2.7-.35,1.93,1.93,0,0,0-2.7.35Z"/><path class="cls-1" d="M1199.06,567.62a1.92,1.92,0,1,0,2.7-.35,1.92,1.92,0,0,0-2.7.35Z"/><path class="cls-1" d="M1222.9,568.54h0a1.93,1.93,0,1,0-.35-2.7A1.93,1.93,0,0,0,1222.9,568.54Z"/><path class="cls-1" d="M1215.67,570.22h0a1.93,1.93,0,1,0,2.34-3.06,1.93,1.93,0,0,0-2.35,3.05Z"/><path class="cls-1" d="M1193.31,563.83h0a1.93,1.93,0,1,0,.35,2.71A1.94,1.94,0,0,0,1193.31,563.82Z"/><path class="cls-1" d="M1209.23,564.91h0a1.93,1.93,0,1,0,.36,2.7A1.93,1.93,0,0,0,1209.22,564.9Z"/><path class="cls-1" d="M1231.83,526.25h0a1.93,1.93,0,1,0-.36-2.7A1.93,1.93,0,0,0,1231.84,526.26Z"/><path class="cls-1" d="M1209.88,572.48h0a1.93,1.93,0,1,0-2.34,3.06,1.93,1.93,0,0,0,2.35-3Z"/><path class="cls-1" d="M1182.74,571.07a1.93,1.93,0,1,0-.34-2.71,1.92,1.92,0,0,0,.34,2.7Z"/><path class="cls-1" d="M1214.73,574.8a1.93,1.93,0,1,0,2.71-.36,1.92,1.92,0,0,0-2.71.36Z"/><path class="cls-1" d="M1195.13,571.17h0a1.93,1.93,0,1,0,.35,2.7A1.93,1.93,0,0,0,1195.13,571.16Z"/><path class="cls-1" d="M1195.17,478.59a1.93,1.93,0,1,0-.35-2.71,1.94,1.94,0,0,0,.35,2.71Z"/><path class="cls-1" d="M1182.28,452.79a1.93,1.93,0,1,0,2.71-.35,1.93,1.93,0,0,0-2.71.35Z"/><path class="cls-1" d="M1175.3,454.47a1.93,1.93,0,1,0,2.7-.34,1.93,1.93,0,0,0-2.7.34Z"/><path class="cls-1" d="M1169.84,452h0a1.93,1.93,0,0,0-.37-2.7,1.92,1.92,0,1,0,.36,2.7Z"/><path class="cls-1" d="M1170.82,460.6a1.93,1.93,0,1,0-2.71.35,1.93,1.93,0,0,0,2.71-.35Z"/><path class="cls-1" d="M1239.72,523.23a1.92,1.92,0,1,0,2.7-.34,1.92,1.92,0,0,0-2.7.34Z"/><path class="cls-1" d="M1197.24,468.63a1.92,1.92,0,1,0-2.7.35,1.92,1.92,0,0,0,2.7-.35Z"/><path class="cls-1" d="M1191.24,462.55a1.93,1.93,0,0,0,2.36-3.05h0a1.93,1.93,0,1,0-2.36,3.05Z"/><path class="cls-1" d="M1158.83,447.26a1.93,1.93,0,1,0-2.71.35,1.93,1.93,0,0,0,2.71-.35Z"/><path class="cls-1" d="M1201.08,470.75h0a1.93,1.93,0,1,0-.35-2.7A1.92,1.92,0,0,0,1201.09,470.76Z"/><path class="cls-1" d="M1183.42,460.54a1.93,1.93,0,0,0,3,2.36,1.93,1.93,0,0,0-3-2.37Z"/><path class="cls-1" d="M1175,465.43a1.93,1.93,0,1,0-.35-2.71,1.93,1.93,0,0,0,.35,2.71Z"/><path class="cls-1" d="M1113.57,445a1.93,1.93,0,1,0-2.71.35,1.93,1.93,0,0,0,2.71-.35Z"/><path class="cls-1" d="M1118.89,437.58h0a1.93,1.93,0,1,0,.36,2.7A1.93,1.93,0,0,0,1118.88,437.57Z"/><path class="cls-1" d="M1162.4,441.38a1.93,1.93,0,1,0,2.71-.35,1.93,1.93,0,0,0-2.71.35Z"/><path class="cls-1" d="M1124.37,447a1.93,1.93,0,1,0-2.7.35,1.93,1.93,0,0,0,2.7-.35Z"/><path class="cls-1" d="M1131.15,447.38a1.93,1.93,0,1,0-2.7.35,1.93,1.93,0,0,0,2.7-.35Z"/><path class="cls-1" d="M1150.73,445a1.93,1.93,0,1,0-2.71.34,1.94,1.94,0,0,0,2.71-.34Z"/><path class="cls-1" d="M1191,471.32h0a1.93,1.93,0,0,0-2.34,3.06,1.93,1.93,0,0,0,2.34-3.06Z"/><path class="cls-1" d="M1144.86,437.19a1.92,1.92,0,1,0-.35-2.7,1.92,1.92,0,0,0,.35,2.7Z"/><path class="cls-1" d="M1153,437.1a1.93,1.93,0,1,0,2.71-.35,1.93,1.93,0,0,0-2.71.35Z"/><path class="cls-1" d="M1140.33,435a1.93,1.93,0,1,0-2.71.35,1.93,1.93,0,0,0,2.71-.35Z"/><path class="cls-1" d="M1125.58,435.06h0a1.93,1.93,0,1,0,.35,2.7A1.94,1.94,0,0,0,1125.58,435.06Z"/><path class="cls-1" d="M1131.94,432h0a1.93,1.93,0,1,0,.35,2.7A1.93,1.93,0,0,0,1131.93,432Z"/><path class="cls-1" d="M1172.94,449.36h0a1.93,1.93,0,1,0,2.34-3.06,1.93,1.93,0,0,0-2.35,3.05Z"/><path class="cls-1" d="M1231.91,507.61h0a1.93,1.93,0,1,0-2.7.36A1.92,1.92,0,0,0,1231.91,507.6Z"/><path class="cls-1" d="M1223.55,503.19h0a1.93,1.93,0,1,0,.36,2.7A1.93,1.93,0,0,0,1223.55,503.18Z"/><path class="cls-1" d="M1181.52,502h0a1.93,1.93,0,1,0-.35-2.7A1.93,1.93,0,0,0,1181.53,502Z"/><path class="cls-1" d="M1235.71,507.67a1.93,1.93,0,1,0,2.71-.35,1.93,1.93,0,0,0-2.71.35Z"/><path class="cls-1" d="M1199.44,503.1h0a1.93,1.93,0,1,0,.35,2.7A1.93,1.93,0,0,0,1199.43,503.1Z"/><path class="cls-1" d="M1230.63,516.52a1.93,1.93,0,1,0-.36-2.71,1.93,1.93,0,0,0,.36,2.71Z"/><path class="cls-1" d="M1207.58,521.53h0a1.93,1.93,0,1,0-.35-2.7A1.93,1.93,0,0,0,1207.59,521.54Z"/><path class="cls-1" d="M1225.35,521.35h0a1.92,1.92,0,1,0-.37-2.7A1.92,1.92,0,0,0,1225.36,521.35Z"/><path class="cls-1" d="M1189.55,501.37h0a1.93,1.93,0,1,0-.35-2.7A1.93,1.93,0,0,0,1189.55,501.37Z"/><path class="cls-1" d="M1221.58,513.48a1.93,1.93,0,1,0-.35-2.71,1.93,1.93,0,0,0,.35,2.71Z"/><path class="cls-1" d="M1238.53,518.59h0a1.93,1.93,0,1,0-.35-2.7A1.93,1.93,0,0,0,1238.53,518.59Z"/><path class="cls-1" d="M1135.83,442.23h0a1.93,1.93,0,1,0-2.7.35A1.93,1.93,0,0,0,1135.83,442.22Z"/><path class="cls-1" d="M1219.32,486.12a1.92,1.92,0,1,0,2.7-.36,1.92,1.92,0,0,0-2.7.36Z"/><path class="cls-1" d="M1210.05,484.84h0a1.93,1.93,0,1,0-3.06-2.34,1.93,1.93,0,0,0,3.06,2.34Z"/><path class="cls-1" d="M1212.53,478.42a1.93,1.93,0,1,0,2.71-.34,1.92,1.92,0,0,0-2.71.34Z"/><path class="cls-1" d="M1213.38,491.26h0a1.93,1.93,0,1,0-.36-2.7A1.93,1.93,0,0,0,1213.39,491.26Z"/><path class="cls-1" d="M1205.11,473.56a1.93,1.93,0,1,0,2.71-.35,1.93,1.93,0,0,0-2.71.35Z"/><path class="cls-1" d="M1206.85,492h0a1.93,1.93,0,1,0-2.7.35A1.93,1.93,0,0,0,1206.86,492Z"/><path class="cls-1" d="M1212.46,495.73h0a1.93,1.93,0,1,0,.36,2.7A1.93,1.93,0,0,0,1212.45,495.73Z"/><path class="cls-1" d="M1228.81,498.38a1.93,1.93,0,1,0,2.71-.35,1.94,1.94,0,0,0-2.71.35Z"/><path class="cls-1" d="M1219.73,496.62h0a1.93,1.93,0,1,0,.35,2.7A1.92,1.92,0,0,0,1219.72,496.62Z"/><path class="cls-1" d="M1224.08,495.59h0a1.93,1.93,0,0,0,2.34-3.06,1.93,1.93,0,1,0-2.34,3.06Z"/><path class="cls-1" d="M1083.92,599.39a1.92,1.92,0,1,0-2.7.35,1.92,1.92,0,0,0,2.7-.35Z"/><path class="cls-1" d="M1160.84,575.27a1.93,1.93,0,1,0-.35-2.71,1.93,1.93,0,0,0,.35,2.71Z"/><path class="cls-1" d="M1178.28,573.3a1.93,1.93,0,1,0-2.7.36,1.92,1.92,0,0,0,2.7-.36Z"/><path class="cls-1" d="M1135,574.28h0a1.93,1.93,0,1,0,2.71-.35A1.94,1.94,0,0,0,1135,574.28Z"/><path class="cls-1" d="M1169.7,567.89h0a1.93,1.93,0,1,0,.36,2.7A1.93,1.93,0,0,0,1169.69,567.89Z"/><path class="cls-1" d="M1151,567.06h0a1.93,1.93,0,1,0,.35,2.7A1.93,1.93,0,0,0,1151,567.05Z"/><path class="cls-1" d="M1187.82,574.88h0a1.93,1.93,0,1,0,.35,2.7A1.92,1.92,0,0,0,1187.82,574.87Z"/><path class="cls-1" d="M1170.5,579.06a1.93,1.93,0,1,0-.35-2.71,1.93,1.93,0,0,0,.35,2.71Z"/><path class="cls-1" d="M1130.11,578.09a1.93,1.93,0,1,0-2.7.34,1.92,1.92,0,0,0,2.7-.34Z"/><path class="cls-1" d="M1131.1,568.4h0a1.93,1.93,0,1,0-.36-2.7A1.93,1.93,0,0,0,1131.11,568.41Z"/><path class="cls-1" d="M1153.79,576.48h0a1.93,1.93,0,1,0-.35-2.7A1.94,1.94,0,0,0,1153.79,576.49Z"/><path class="cls-1" d="M1181.77,581.86a1.93,1.93,0,1,0-2.71.35,1.93,1.93,0,0,0,2.71-.35Z"/><path class="cls-1" d="M1144.34,573.48h0a1.93,1.93,0,1,0,2.7-.35A1.94,1.94,0,0,0,1144.34,573.48Z"/><path class="cls-1" d="M1148.92,560.07h0a1.93,1.93,0,1,0,.35,2.7A1.93,1.93,0,0,0,1148.91,560.07Z"/><path class="cls-1" d="M1141.23,559.73h0a1.93,1.93,0,1,0,.36,2.7A1.93,1.93,0,0,0,1141.23,559.72Z"/><path class="cls-1" d="M1200.64,559.23a1.93,1.93,0,1,0,.35,2.71,1.93,1.93,0,0,0-.35-2.71Z"/><path class="cls-1" d="M1178.7,555.74h0a1.93,1.93,0,1,0,.35,2.7A1.92,1.92,0,0,0,1178.7,555.74Z"/><path class="cls-1" d="M1168.12,559.05a1.93,1.93,0,1,0-.34-2.71,1.92,1.92,0,0,0,.34,2.71Z"/><path class="cls-1" d="M1139,570.29a1.92,1.92,0,0,0,2.36-3h0a1.93,1.93,0,1,0-2.35,3Z"/><path class="cls-1" d="M1118.45,568.77h0a1.93,1.93,0,1,0,.35,2.7A1.92,1.92,0,0,0,1118.44,568.77Z"/><path class="cls-1" d="M1126.75,568.73a1.93,1.93,0,1,0,.35,2.7,1.93,1.93,0,0,0-.35-2.7Z"/><path class="cls-1" d="M1176.24,565.37a1.93,1.93,0,1,0-2.71.34,1.94,1.94,0,0,0,2.71-.34Z"/><path class="cls-1" d="M1165.36,565.26a1.93,1.93,0,1,0-2.71.35,1.93,1.93,0,0,0,2.71-.35Z"/><path class="cls-1" d="M1158.18,566.29h0a1.93,1.93,0,1,0-2.7.35A1.92,1.92,0,0,0,1158.18,566.28Z"/><path class="cls-1" d="M1135.41,596.65a1.93,1.93,0,1,0-2.71.35,1.93,1.93,0,0,0,2.71-.35Z"/><path class="cls-1" d="M1126.36,598.49h0a1.93,1.93,0,1,0-2.71.36A1.93,1.93,0,0,0,1126.37,598.48Z"/><path class="cls-1" d="M1168,595.44h0a1.93,1.93,0,1,0,.35,2.7A1.93,1.93,0,0,0,1167.94,595.43Z"/><path class="cls-1" d="M1175.07,599.84a1.93,1.93,0,1,0-2.71.36,1.94,1.94,0,0,0,2.71-.36Z"/><path class="cls-1" d="M1153.21,598.4a1.92,1.92,0,1,0-2.71.34,1.92,1.92,0,0,0,2.71-.34Z"/><path class="cls-1" d="M1142.71,595.53h0a1.93,1.93,0,1,0,.35,2.7A1.93,1.93,0,0,0,1142.71,595.53Z"/><path class="cls-1" d="M1098,599.27h0a1.93,1.93,0,1,0,2.7-.35A1.94,1.94,0,0,0,1098,599.27Z"/><path class="cls-1" d="M1118.78,598.07a1.93,1.93,0,1,0-2.71.35,1.93,1.93,0,0,0,2.71-.35Z"/><path class="cls-1" d="M1163.62,553.93h0a1.93,1.93,0,1,0,.35,2.7A1.93,1.93,0,0,0,1163.62,553.93Z"/><path class="cls-1" d="M1090.21,591.38h0a1.92,1.92,0,0,0-2.33,3.06,1.93,1.93,0,0,0,2.34-3.06Z"/><path class="cls-1" d="M1144.53,603.4h3.7a1.92,1.92,0,0,0-3.35-1.68A2,2,0,0,0,1144.53,603.4Z"/><path class="cls-1" d="M1109.48,599.3a1.92,1.92,0,1,0-2.7.35,1.92,1.92,0,0,0,2.7-.35Z"/><path class="cls-1" d="M1188.06,583.86h0a1.93,1.93,0,1,0,.35,2.7A1.92,1.92,0,0,0,1188.06,583.86Z"/><path class="cls-1" d="M1141,580.35h0a1.93,1.93,0,1,0,2.7-.35A1.93,1.93,0,0,0,1141,580.35Z"/><path class="cls-1" d="M1167.41,583h0a1.93,1.93,0,1,0-2.7.35A1.93,1.93,0,0,0,1167.41,583Z"/><path class="cls-1" d="M1134.81,584.16h0a1.92,1.92,0,1,0-2.7.37A1.92,1.92,0,0,0,1134.81,584.15Z"/><path class="cls-1" d="M1151.81,583.17a1.93,1.93,0,1,0-2.71.35,1.93,1.93,0,0,0,2.71-.35Z"/><path class="cls-1" d="M1159.89,581.13h0a1.93,1.93,0,1,0,.36,2.7A1.91,1.91,0,0,0,1159.89,581.13Z"/><path class="cls-1" d="M1139.9,587.1h0a1.93,1.93,0,1,0,.35,2.7A1.91,1.91,0,0,0,1139.9,587.1Z"/><path class="cls-1" d="M1155.74,590.52a1.93,1.93,0,1,0-2.71.35,1.93,1.93,0,0,0,2.71-.35Z"/><path class="cls-1" d="M1174,587.2a1.93,1.93,0,1,0-.35-2.71,1.93,1.93,0,0,0,.35,2.71Z"/><path class="cls-1" d="M1144.93,589.21a1.93,1.93,0,1,0,2.71-.35,1.93,1.93,0,0,0-2.71.35Z"/><path class="cls-1" d="M1162.24,590.21h0a1.93,1.93,0,1,0,.36,2.7A1.92,1.92,0,0,0,1162.24,590.21Z"/><path class="cls-1" d="M1127.71,590.69h0a1.93,1.93,0,1,0,2.34-3.06,1.93,1.93,0,0,0-2.34,3.06Z"/><path class="cls-1" d="M1118.84,602.6a1.93,1.93,0,0,0-2.7.35,2.46,2.46,0,0,0-.25.45h3.56a1.91,1.91,0,0,0-.6-.8Z"/><path class="cls-1" d="M1127.52,562.08a1.92,1.92,0,1,0-2.7.36,1.92,1.92,0,0,0,2.7-.36Z"/><path class="cls-1" d="M1132.06,559.76h0a1.93,1.93,0,1,0-.35-2.7A1.93,1.93,0,0,0,1132.07,559.76Z"/><path class="cls-1" d="M1228.3,543.29h0a1.93,1.93,0,1,0,.36,2.7A1.93,1.93,0,0,0,1228.29,543.28Z"/><path class="cls-1" d="M1191.89,591.62a1.93,1.93,0,1,0,2.71-.36,1.93,1.93,0,0,0-2.71.36Z"/><path class="cls-1" d="M1189,544.31h0a1.93,1.93,0,1,0-2.7.36A1.93,1.93,0,0,0,1189,544.3Z"/><path class="cls-1" d="M1187.74,595.2h0a1.93,1.93,0,1,0-3.06-2.34,1.93,1.93,0,0,0,3,2.35Z"/><path class="cls-1" d="M1140.28,552.29a1.93,1.93,0,1,0,2.71-.35,1.93,1.93,0,0,0-2.71.35Z"/><path class="cls-1" d="M1125,554.2h0a1.93,1.93,0,1,0-.36-2.7A1.92,1.92,0,0,0,1125,554.2Z"/><path class="cls-1" d="M1150.58,554.38a1.93,1.93,0,1,0-2.71.34,1.93,1.93,0,0,0,2.71-.34Z"/><path class="cls-1" d="M1171.22,549.12a1.92,1.92,0,1,0,2.7-.35,1.92,1.92,0,0,0-2.7.35Z"/><path class="cls-1" d="M1153.84,555.65a1.92,1.92,0,0,0,3,2.36h0a1.92,1.92,0,0,0-3-2.36Z"/><path class="cls-1" d="M1157.25,599.66a1.95,1.95,0,1,0,.15-.19Z"/><path class="cls-1" d="M1090.47,603.1a2,2,0,0,0,.58.3h1.21a1.93,1.93,0,1,0-1.79-.3Z"/><path class="cls-1" d="M1097.31,593.42a1.93,1.93,0,1,0-2.71.35,1.93,1.93,0,0,0,2.71-.35Z"/><path class="cls-1" d="M1128,603.4h3.33a1.92,1.92,0,1,0-3.33,0Z"/><path class="cls-1" d="M1136.74,603.4h2.56l-.09-.1A2,2,0,0,0,1136.74,603.4Z"/><path class="cls-1" d="M1082.92,603.4h1.75A1.93,1.93,0,0,0,1082.92,603.4Z"/><path class="cls-1" d="M1133.76,551.81h0a1.93,1.93,0,1,0-.35-2.71A1.93,1.93,0,0,0,1133.76,551.82Z"/><path class="cls-1" d="M1201.19,602.65a1.92,1.92,0,0,0-2.7.35,2.6,2.6,0,0,0-.23.4h3.52a2,2,0,0,0-.58-.75Z"/><path class="cls-1" d="M1185,602.76a1.75,1.75,0,0,0-.32.64h3.69a2,2,0,0,0-.67-1A1.93,1.93,0,0,0,1185,602.76Z"/><path class="cls-1" d="M1184,550.68h0a1.92,1.92,0,1,0,.36,2.7A1.93,1.93,0,0,0,1184,550.68Z"/><path class="cls-1" d="M1206,600.6a1.93,1.93,0,0,0,.35,2.7,1,1,0,0,0,.17.1h2a2,2,0,0,0,.5-.45,1.33,1.33,0,0,0,.14-.19,1.92,1.92,0,1,0-3.18-2.16Z"/><path class="cls-1" d="M1073.22,603.4h3a1.94,1.94,0,0,0-.35-2.71h0a1.92,1.92,0,0,0-2.69,2.71Z"/><path class="cls-1" d="M1178.63,535.77h0a1.93,1.93,0,1,0,2.7-.35A1.92,1.92,0,0,0,1178.63,535.77Z"/><path class="cls-1" d="M1213.33,537.11a1.93,1.93,0,1,0,.34,2.71,1.93,1.93,0,0,0-.34-2.71Z"/><path class="cls-1" d="M1205.21,537.91a1.93,1.93,0,1,0,.35,2.71,1.93,1.93,0,0,0-.35-2.71Z"/><path class="cls-1" d="M1133.27,539.58a1.93,1.93,0,1,0,2.71-.35,1.93,1.93,0,0,0-2.71.35Z"/><path class="cls-1" d="M1113.22,539.54h0a1.93,1.93,0,1,0-.36-2.7A1.93,1.93,0,0,0,1113.22,539.55Z"/><path class="cls-1" d="M1123.29,535.83h0a1.93,1.93,0,1,0,2.71-.35A1.93,1.93,0,0,0,1123.28,535.84Z"/><path class="cls-1" d="M1192.26,548.13h0a1.93,1.93,0,1,0,.35,2.7A1.94,1.94,0,0,0,1192.26,548.13Z"/><path class="cls-1" d="M1166.34,548.15a1.92,1.92,0,1,0-2.7.36,1.92,1.92,0,0,0,2.7-.36Z"/><path class="cls-1" d="M1222.15,538.68h0a1.93,1.93,0,1,0,.36,2.7A1.94,1.94,0,0,0,1222.15,538.68Z"/><path class="cls-1" d="M1181.14,546h0a1.93,1.93,0,1,0-2.7.35A1.93,1.93,0,0,0,1181.14,546Z"/><path class="cls-1" d="M1197.38,542h0a1.93,1.93,0,0,0-3.06-2.34,1.93,1.93,0,0,0,3.05,2.35Z"/><path class="cls-1" d="M1149.19,537.56a1.93,1.93,0,1,0,2.71-.34,1.93,1.93,0,0,0-2.71.34Z"/><path class="cls-1" d="M1156.44,546.44a1.93,1.93,0,1,0,2.71-.34,1.93,1.93,0,0,0-2.71.34Z"/><path class="cls-1" d="M1170,535.51a1.93,1.93,0,1,0,.35,2.71,1.93,1.93,0,0,0-.35-2.71Z"/><path class="cls-1" d="M1140.2,538.78h0a1.93,1.93,0,0,0,2.34-3.06,1.93,1.93,0,1,0-2.34,3.06Z"/><path class="cls-1" d="M1149.77,544.4a1.93,1.93,0,1,0,2.71-.35,1.93,1.93,0,0,0-2.71.35Z"/><path class="cls-1" d="M1119.53,541.65a1.93,1.93,0,1,0,2.71-.35,1.93,1.93,0,0,0-2.71.35Z"/><path class="cls-1" d="M1161.72,540.22a1.93,1.93,0,1,0-2.71.35,1.93,1.93,0,0,0,2.71-.35Z"/><path class="cls-1" d="M1130.58,546a1.92,1.92,0,1,0-2.7.34,1.92,1.92,0,0,0,2.7-.34Z"/><path class="cls-1" d="M1109.81,546.55h0a1.93,1.93,0,1,0-.36-2.7A1.93,1.93,0,0,0,1109.81,546.56Z"/><path class="cls-1" d="M1173.16,541.07h0a1.93,1.93,0,1,0,.35,2.7A1.93,1.93,0,0,0,1173.16,541.07Z"/><path class="cls-1" d="M1141.77,546.7h0a1.92,1.92,0,1,0-.36-2.7A1.93,1.93,0,0,0,1141.78,546.7Z"/><path class="cls-1" d="M1113.51,589.83h0a1.93,1.93,0,1,0,.35,2.7A1.93,1.93,0,0,0,1113.51,589.83Z"/><path class="cls-1" d="M1156.67,508.48a1.93,1.93,0,1,0,.36,2.71,1.93,1.93,0,0,0-.36-2.71Z"/><path class="cls-1" d="M1139.65,518.46a1.93,1.93,0,1,0,2.7-.35,1.93,1.93,0,0,0-2.7.35Z"/><path class="cls-1" d="M1137.86,512.78h0a1.92,1.92,0,1,0-.36-2.7A1.93,1.93,0,0,0,1137.87,512.78Z"/><path class="cls-1" d="M1162.93,514.54a1.93,1.93,0,1,0-2.7.34,1.92,1.92,0,0,0,2.7-.34Z"/><path class="cls-1" d="M1109.43,513.25a1.93,1.93,0,1,0-.35-2.71,1.93,1.93,0,0,0,.35,2.71Z"/><path class="cls-1" d="M1128.36,512.77h0a1.93,1.93,0,1,0-.36-2.7A1.92,1.92,0,0,0,1128.37,512.77Z"/><path class="cls-1" d="M1104.3,590.66h0a1.93,1.93,0,1,0,.36,2.71A1.93,1.93,0,0,0,1104.29,590.65Z"/><path class="cls-1" d="M1125.74,515.76h0a1.93,1.93,0,1,0,.35,2.7A1.93,1.93,0,0,0,1125.73,515.75Z"/><path class="cls-1" d="M1194.56,514.21h0a1.93,1.93,0,1,0-.35-2.7A1.93,1.93,0,0,0,1194.57,514.22Z"/><path class="cls-1" d="M1176.26,517.23a1.93,1.93,0,1,0-.35-2.7,1.93,1.93,0,0,0,.35,2.7Z"/><path class="cls-1" d="M1187.05,513.93h0a1.93,1.93,0,1,0,.35,2.7A1.94,1.94,0,0,0,1187.05,513.93Z"/><path class="cls-1" d="M1145.31,525.75h0a1.93,1.93,0,1,0-.36-2.7A1.92,1.92,0,0,0,1145.32,525.75Z"/><path class="cls-1" d="M1168.57,465.72h0a1.93,1.93,0,1,0-2.35,3.05,1.92,1.92,0,1,0,2.35-3Z"/><path class="cls-1" d="M1185,469.86a1.93,1.93,0,1,0-2.71.36,1.94,1.94,0,0,0,2.71-.36Z"/><path class="cls-1" d="M1155.24,463.57h0a1.93,1.93,0,1,0,.36,2.69A1.92,1.92,0,0,0,1155.24,463.57Z"/><path class="cls-1" d="M1162.79,459.94h0a1.93,1.93,0,1,0,.35,2.7A1.92,1.92,0,0,0,1162.79,459.93Z"/><path class="cls-1" d="M1177.26,472.68a1.93,1.93,0,1,0-2.7.35,1.93,1.93,0,0,0,2.7-.35Z"/><path class="cls-1" d="M1163.33,521.75a1.93,1.93,0,1,0,.35,2.71,1.93,1.93,0,0,0-.35-2.71Z"/><path class="cls-1" d="M1120.65,525.37h0a1.92,1.92,0,1,0-.36-2.7A1.93,1.93,0,0,0,1120.66,525.37Z"/><path class="cls-1" d="M1110.47,525.31h0a1.93,1.93,0,1,0-.36-2.7A1.93,1.93,0,0,0,1110.48,525.31Z"/><path class="cls-1" d="M1166.74,472.51h0a1.93,1.93,0,1,0,.35,2.7A1.94,1.94,0,0,0,1166.74,472.5Z"/><path class="cls-1" d="M1134.55,516.46h0a1.93,1.93,0,1,0,.35,2.7A1.93,1.93,0,0,0,1134.54,516.45Z"/><path class="cls-1" d="M1131.54,526.31a1.92,1.92,0,1,0-.35-2.7,1.92,1.92,0,0,0,.35,2.7Z"/><path class="cls-1" d="M1096,520.56h0a1.93,1.93,0,1,0-.35-2.71A1.93,1.93,0,0,0,1096,520.57Z"/><path class="cls-1" d="M1097.74,503.26h0a1.93,1.93,0,1,0-.36-2.7A1.93,1.93,0,0,0,1097.74,503.27Z"/><path class="cls-1" d="M1114.72,498.71a1.93,1.93,0,1,0,2.71-.36,1.94,1.94,0,0,0-2.71.36Z"/><path class="cls-1" d="M1128.79,497.73h0a1.93,1.93,0,1,0,2.7-.36A1.93,1.93,0,0,0,1128.78,497.73Z"/><path class="cls-1" d="M1104.2,503.84h0a1.93,1.93,0,1,0-.35-2.7A1.92,1.92,0,0,0,1104.21,503.85Z"/><path class="cls-1" d="M1110.67,506.13l0,0a1.92,1.92,0,1,0-.37-2.69A1.93,1.93,0,0,0,1110.72,506.17Z"/><path class="cls-1" d="M1152.27,487.47h0a1.93,1.93,0,1,0,.35,2.7A1.93,1.93,0,0,0,1152.26,487.47Z"/><path class="cls-1" d="M1126.33,505.46a1.93,1.93,0,1,0-2.71.34,1.94,1.94,0,0,0,2.71-.34Z"/><path class="cls-1" d="M1145.65,485.9h0a1.93,1.93,0,1,0-2.34,3.06,1.93,1.93,0,0,0,2.34-3.06Z"/><path class="cls-1" d="M1128.54,486a1.93,1.93,0,1,0-.35-2.7,1.92,1.92,0,0,0,.35,2.7Z"/><path class="cls-1" d="M1171.82,487h0a1.93,1.93,0,1,0-.35-2.7A1.92,1.92,0,0,0,1171.82,487Z"/><path class="cls-1" d="M1160.26,487.21h0a1.93,1.93,0,1,0-3.06-2.34,1.93,1.93,0,0,0,3.06,2.34Z"/><path class="cls-1" d="M1099.34,509.34a1.93,1.93,0,1,0,2.71-.36,1.94,1.94,0,0,0-2.71.36Z"/><path class="cls-1" d="M1091.61,514h0a1.93,1.93,0,1,0-.36-2.7A1.91,1.91,0,0,0,1091.61,514Z"/><path class="cls-1" d="M1145.69,515h0a1.93,1.93,0,1,0-.36-2.7A1.92,1.92,0,0,0,1145.7,515.05Z"/><path class="cls-1" d="M1104.38,515.77a1.93,1.93,0,1,0,2.71-.35,1.93,1.93,0,0,0-2.71.35Z"/><path class="cls-1" d="M1110.45,465.49h0a1.93,1.93,0,1,0,2.34-3.06,1.93,1.93,0,0,0-2.35,3.05Z"/><path class="cls-1" d="M1155,516.63h0a1.93,1.93,0,1,0,.35,2.7A1.92,1.92,0,0,0,1155,516.63Z"/><path class="cls-1" d="M1141.22,504.64a1.93,1.93,0,1,0-.35-2.71,1.94,1.94,0,0,0,.35,2.71Z"/><path class="cls-1" d="M1118.15,508.24h0a1.93,1.93,0,1,0,2.7-.35A1.93,1.93,0,0,0,1118.14,508.25Z"/><path class="cls-1" d="M1147.51,504.21a1.92,1.92,0,1,0,2.7-.34,1.92,1.92,0,0,0-2.7.34Z"/><path class="cls-1" d="M1133.2,503.49a1.93,1.93,0,1,0,2.71-.35,1.93,1.93,0,0,0-2.71.35Z"/><path class="cls-1" d="M1164.32,507.73h0a1.93,1.93,0,0,0,2.34-3.06,1.93,1.93,0,0,0-2.35,3.05Z"/><path class="cls-1" d="M1117.65,515.9a1.92,1.92,0,1,0-2.36,3h0a1.93,1.93,0,0,0,2.36-3.05Z"/><path class="cls-1" d="M1101.26,554.76a1.93,1.93,0,1,0-2.71.35,1.93,1.93,0,0,0,2.71-.35Z"/><path class="cls-1" d="M1116.34,555.12h0a1.93,1.93,0,1,0,3.06,2.34,1.93,1.93,0,0,0-3.05-2.35Z"/><path class="cls-1" d="M1105,558.25h0a1.93,1.93,0,1,0,.35,2.7A1.92,1.92,0,0,0,1105,558.25Z"/><path class="cls-1" d="M1094.49,535h0a1.93,1.93,0,1,0,2.7-.36A1.94,1.94,0,0,0,1094.49,535Z"/><path class="cls-1" d="M1109.43,559.55a1.93,1.93,0,1,0,2.7-.35,1.93,1.93,0,0,0-2.7.35Z"/><path class="cls-1" d="M1119.7,562.29a1.93,1.93,0,1,0,.35,2.71,1.94,1.94,0,0,0-.35-2.71Z"/><path class="cls-1" d="M1110.38,550.73h0a1.93,1.93,0,1,0,.36,2.7A1.92,1.92,0,0,0,1110.37,550.73Z"/><path class="cls-1" d="M1103.23,537.9h0a1.93,1.93,0,1,0,2.71-.35A1.93,1.93,0,0,0,1103.22,537.9Z"/><path class="cls-1" d="M1096.79,544.28a1.92,1.92,0,1,0-2.7.36,1.92,1.92,0,0,0,2.7-.36Z"/><path class="cls-1" d="M1100.74,545.43h0a1.93,1.93,0,1,0,2.7-.35A1.93,1.93,0,0,0,1100.74,545.43Z"/><path class="cls-1" d="M1117,548.11h0a1.93,1.93,0,1,0,2.7-.35A1.93,1.93,0,0,0,1117,548.12Z"/><path class="cls-1" d="M1101.83,567.23a1.93,1.93,0,1,0-2.71.35,1.93,1.93,0,0,0,2.71-.35Z"/><path class="cls-1" d="M1114.47,582.7h0a1.93,1.93,0,1,0,.35,2.7A1.93,1.93,0,0,0,1114.46,582.69Z"/><path class="cls-1" d="M1096.23,585.46a1.92,1.92,0,1,0-2.7.36,1.92,1.92,0,0,0,2.7-.36Z"/><path class="cls-1" d="M1102.36,586.5h0a1.93,1.93,0,1,0-.36-2.7A1.92,1.92,0,0,0,1102.37,586.5Z"/><path class="cls-1" d="M1122.36,587.43h0a1.93,1.93,0,1,0,.36,2.7A1.93,1.93,0,0,0,1122.36,587.43Z"/><path class="cls-1" d="M1128.85,490.73a1.93,1.93,0,1,0,2.71-.35,1.93,1.93,0,0,0-2.71.35Z"/><path class="cls-1" d="M1115.32,575.56h0a1.93,1.93,0,1,0,3,2.35,1.92,1.92,0,1,0-3-2.35Z"/><path class="cls-1" d="M1110.42,567.68a1.93,1.93,0,1,0,.35,2.7,1.93,1.93,0,0,0-.35-2.7Z"/><path class="cls-1" d="M1121.11,580.38h0a1.93,1.93,0,1,0,2.7-.36A1.93,1.93,0,0,0,1121.11,580.39Z"/><path class="cls-1" d="M1104,574.07a1.93,1.93,0,0,0-3-2.35,1.93,1.93,0,1,0,3,2.36Z"/><path class="cls-1" d="M1107,579.93h0a1.93,1.93,0,1,0-.35-2.71A1.93,1.93,0,0,0,1107,579.94Z"/><path class="cls-1" d="M1099.23,578.72a1.93,1.93,0,1,0-2.71.35,1.93,1.93,0,0,0,2.71-.35Z"/><path class="cls-1" d="M1142.65,467.08h0a1.93,1.93,0,1,0,.35,2.7A1.93,1.93,0,0,0,1142.64,467.08Z"/><path class="cls-1" d="M1148.24,462.14a1.93,1.93,0,1,0-2.71.35,1.93,1.93,0,0,0,2.71-.35Z"/><path class="cls-1" d="M1132.31,471.94h0a1.93,1.93,0,1,0,2.7-.35A1.92,1.92,0,0,0,1132.31,471.94Z"/><path class="cls-1" d="M1137.56,457.44h0a1.93,1.93,0,1,0,2.7-.35A1.93,1.93,0,0,0,1137.56,457.45Z"/><path class="cls-1" d="M1120.38,471.59h0a1.93,1.93,0,1,0,.35,2.7A1.94,1.94,0,0,0,1120.38,471.59Z"/><path class="cls-1" d="M1119.08,459.37a1.92,1.92,0,1,0-.36-2.7,1.92,1.92,0,0,0,.36,2.7Z"/><path class="cls-1" d="M1156,455.86h0a1.93,1.93,0,1,0,.35,2.7A1.92,1.92,0,0,0,1156,455.86Z"/><path class="cls-1" d="M1125.12,467.46a1.92,1.92,0,1,0,2.7-.34,1.93,1.93,0,0,0-2.7.34Z"/><path class="cls-1" d="M1133.33,463.62a1.93,1.93,0,1,0,2.71-.35,1.92,1.92,0,0,0-2.71.35Z"/><path class="cls-1" d="M1156.35,473h0a1.92,1.92,0,1,0-.36-2.7A1.93,1.93,0,0,0,1156.36,473Z"/><path class="cls-1" d="M1147.13,469.39a1.93,1.93,0,1,0,2.71-.35,1.93,1.93,0,0,0-2.71.35Z"/><path class="cls-1" d="M1117.62,464.37a1.93,1.93,0,1,0,2.71-.34,1.93,1.93,0,0,0-2.71.34Z"/><path class="cls-1" d="M1152.07,450.47h0a1.93,1.93,0,1,0,.35,2.7A1.93,1.93,0,0,0,1152.07,450.47Z"/><path class="cls-1" d="M1188.92,509.34a1.93,1.93,0,1,0-.36-2.71,1.94,1.94,0,0,0,.36,2.71Z"/><path class="cls-1" d="M1130.13,455.09h0a1.93,1.93,0,1,0-2.7.36A1.93,1.93,0,0,0,1130.13,455.09Z"/><path class="cls-1" d="M1207.48,508.67a1.93,1.93,0,1,0-2.7.35,1.93,1.93,0,0,0,2.7-.35Z"/><path class="cls-1" d="M1197.13,533.75h0a1.93,1.93,0,0,0,2.34-3.06,1.93,1.93,0,0,0-2.35,3Z"/><path class="cls-1" d="M1216,533.75h0a1.92,1.92,0,1,0-.36-2.7A1.93,1.93,0,0,0,1216,533.76Z"/><path class="cls-1" d="M1212.26,504.44a1.93,1.93,0,1,0,2.7-.36,1.92,1.92,0,0,0-2.7.36Z"/><path class="cls-1" d="M1209.49,533.51h0a1.93,1.93,0,1,0-3.06-2.34,1.93,1.93,0,0,0,3.06,2.34Z"/><path class="cls-1" d="M1163.27,453.81a1.93,1.93,0,1,0-2.71.34,1.93,1.93,0,0,0,2.71-.34Z"/><path class="cls-1" d="M1137.5,449.38h0a1.93,1.93,0,1,0,.35,2.7A1.93,1.93,0,0,0,1137.5,449.38Z"/><path class="cls-1" d="M1145.24,453a1.93,1.93,0,1,0-2.71.35,1.93,1.93,0,0,0,2.71-.35Z"/></g><g id="Layer_2-2" data-name="Layer 2"><path class="cls-2" d="M100.36,601.41c8.87-13.39,17.23-26.84,23.54-40.93,22.53-49.57-37.32-83.84-66.08-124.65-1.93-2.75-2.73-9-3-12-3-33.44,18-60.07,10.51-94.61-3-12-6-25.54-10.51-34.55C43.28,271.58,21.89,258.36,0,246.57V601.41Z"/><path class="cls-2" d="M871.24,52.94c-19.53,39.05,28.53,70.59,67.58,61.58,58.58-15,109.64-54.07,172.72-43.56,9,1.51,19.52,9,21,19.53,1.51,12-10.51,15-19.52,16.52-19.53,3-42,0-55.57,15-13.52,13.51-24,42.05-4.51,48.06,37.55,9,78.1-19.53,118.65-4.51,25.53,10.51,27,37.55,21,60.08-7.51,25.53-16.52,61.57,12,73.59,16.52,7.51,37.55,3,55.57-9A173.73,173.73,0,0,0,1282,273.6V0H866.79C876.07,16,880.47,34.48,871.24,52.94Z"/><path class="cls-1" d="M170.85,269.06a35.59,35.59,0,0,1,11-25.38h0v0l.05,0h-.07c-.32-7-2.38-12.3-10-12.3-8.43,0-15.24,6.51-15.24,14.52a14.24,14.24,0,0,0,.9,4.94l-.13.06a29.41,29.41,0,0,0,0,36.48l.13.06a13.78,13.78,0,0,0-.9,4.93c0,8,6.81,14.53,15.24,14.53,7.61,0,9.69-5.33,10-12.28l0,0h.08A35.83,35.83,0,0,1,170.85,269.06Z"/><path class="cls-1" d="M201.43,246.62a46.07,46.07,0,0,0-12.06-2.86c-8.28,6.18-13.52,15.22-13.52,25.3s5.24,19.13,13.52,25.29a46.46,46.46,0,0,0,12.06-2.85c-5.37-6.51-10.69-14.3-10.69-22.48S196.06,253.13,201.43,246.62Z"/><path class="cls-1" d="M149.41,254.25c-4.12,1.83-8.12,3.73-11.59,5.57a14.5,14.5,0,0,0-10.32-4.27c-7.83,0-9.36,6.06-9.36,13.51s1.53,13.5,9.34,13.5a14.41,14.41,0,0,0,10.32-4.26c3.47,1.83,7.49,3.73,11.59,5.57a34.14,34.14,0,0,1,0-29.62Z"/><path class="cls-1" d="M220.14,268.59c0-8-5-15.06-14-19.81-5,5.65-10.32,12.63-10.32,20.24s5.28,14.66,10.32,20.32c8.92-4.76,14-11.86,14-19.81a3.47,3.47,0,0,0,0-.47A3.94,3.94,0,0,0,220.14,268.59Zm-15.92-4.47a4.91,4.91,0,0,1,9.27-2.3,3.6,3.6,0,0,0-2-.64,3.51,3.51,0,0,0,0,7,3.57,3.57,0,0,0,.47,0,4.87,4.87,0,0,1-2.84.9A4.93,4.93,0,0,1,204.22,264.12Z"/></g><g id="Layer_3" data-name="Layer 3"><path class="cls-1" d="M955.19,153.68c-1.43.25,1.56,0,0,0Z"/><path class="cls-1" d="M955.19,128.8c1.56,0-1.43-.25,0,0Z"/><path class="cls-1" d="M946,141.24c0-5.81,1.33-11.07,9.2-12.44-9,0-16.53,4.51-18,10.41-12.29-6.68-2.16-27.44-2.16-27.44-21.15,3.78-43.82,29.47-43.82,29.47h-.5s22.67,25.69,43.82,29.47c0,0-9.79-20.79,2.66-27.45,1.41,5.91,8.91,10.42,18,10.42C947.32,152.31,946,147.05,946,141.24ZM915.45,137a3.36,3.36,0,1,1,3.35-3.36A3.36,3.36,0,0,1,915.45,137Z"/><path class="cls-1" d="M889.09,200.38c-2.32.4,2.5,0,0,0Z"/><path class="cls-1" d="M889.09,160.22c2.5,0-2.32-.4,0,0Z"/><path class="cls-1" d="M874.23,180.3c0-9.37,2.15-17.87,14.86-20.08-14.59,0-26.69,7.27-29,16.8-19.84-10.78-3.48-44.28-3.48-44.28-34.14,6.1-70.73,47.56-70.73,47.56h-.81s36.59,41.46,70.73,47.56c0,0-15.8-33.55,4.29-44.3,2.27,9.54,14.38,16.82,29,16.82C876.38,198.17,874.23,189.68,874.23,180.3Zm-49.29-6.92a5.42,5.42,0,1,1,5.42-5.42A5.41,5.41,0,0,1,824.94,173.38Z"/></g><g id="Layer_4" data-name="Layer 4"><path class="cls-1" d="M1228.54,396.41a41,41,0,0,0-54.24-54.11c0-3.64-.94-8.32-5.28-7.64-6.2,1-2.82,9.83-2,11.8l-.11.07c-1.42-1.58-8-8.39-11.54-3.18-2.68,4,2.21,6.95,5.6,8.43a41.06,41.06,0,0,0,56.47,59.43c-1.13,6,1.84,10.67,5.56,14.85,0,0,4.5-22.3,25.36-28.48C1248.37,397.58,1237.64,392.06,1228.54,396.41Zm-60.42-7.16a4,4,0,0,1-5.54-.72h0a3.95,3.95,0,1,1,5.55.73Zm27.67-30.36a4,4,0,0,1,5.53.71h0a4,4,0,1,1-5.54-.72Zm-23.7,14.53h0a3.95,3.95,0,1,1,5.53.74A3.94,3.94,0,0,1,1172.09,373.42Zm9.76,22.6h0a4,4,0,1,1,.73-5.55A4,4,0,0,1,1181.84,396Zm9.52,14.79a4,4,0,1,1,.71-5.55h0A4,4,0,0,1,1191.37,410.81Zm-4.83-36.27a3.95,3.95,0,0,1,4.83,6.25h0a4,4,0,0,1-4.82-6.26Zm8.46,20.29a3.95,3.95,0,1,1,5.55.71h0A4,4,0,0,1,1195,394.83Zm11.89,16.08h0a3.95,3.95,0,1,1,.71-5.54A3.95,3.95,0,0,1,1206.88,410.91Zm1.54-32.21h0a4,4,0,1,1,.73-5.55A4,4,0,0,1,1208.42,378.71Zm8.55,13.43a3.95,3.95,0,1,1,.71-5.55h0A4,4,0,0,1,1217,392.13Zm4.11-22.1h0a4,4,0,1,1,.72-5.54A4,4,0,0,1,1221.08,370Z"/><path class="cls-1" d="M16.79,490.16c11.34,14.59,3.42,32.21,3.42,32.21,4.63-1,9-2.81,11.18-7.5a34.89,34.89,0,0,0,68.42-13.09c3.07.66,7.91,1,8-3,.17-5.33-7.77-3.9-9.54-3.51a.49.49,0,0,0,0-.11c1.55-.95,8.27-5.39,4.47-9.13-2.66-2.62-5.6.18-7.43,2.66a35.63,35.63,0,0,0-3.77-5.25,34.89,34.89,0,0,0-60.47,15.77C26.93,491.65,16.79,490.16,16.79,490.16Zm61.79,29.78a3.36,3.36,0,0,1,2,6.43h0a3.36,3.36,0,1,1-1.93-6.43ZM70,493.64a3.35,3.35,0,1,1-1.94-6.42h0A3.36,3.36,0,0,1,70,493.64ZM77.24,509a3.36,3.36,0,1,1,4.19,2.23h0A3.36,3.36,0,0,1,77.24,509Zm-11.5,8.83A3.35,3.35,0,1,1,63.5,522h0A3.35,3.35,0,0,1,65.74,517.82Zm-13.89,5.5h0a3.36,3.36,0,1,1-2.25,4.19A3.35,3.35,0,0,1,51.86,523.32ZM68.65,509a3.35,3.35,0,0,1-4.18-2.24v0A3.36,3.36,0,1,1,68.65,509Zm-17.83,3.4h0A3.36,3.36,0,1,1,55,514.67,3.36,3.36,0,0,1,50.82,512.42Zm-9.72,3.29a3.35,3.35,0,1,1-2.26,4.18h0A3.34,3.34,0,0,1,41.1,515.72ZM56,492.7a3.36,3.36,0,1,1-2.24,4.2v0A3.37,3.37,0,0,1,56,492.7Zm-12.55,5h0a3.35,3.35,0,1,1-2.26,4.19A3.35,3.35,0,0,1,43.42,497.74Zm8.1-17.28a3.36,3.36,0,1,1-2.24,4.18h0A3.37,3.37,0,0,1,51.51,480.46Z"/><circle cx="82.67" cy="489.37" r="4.15"/><circle class="cls-3" cx="1186.93" cy="352.59" r="7.49"/><circle cx="1185.01" cy="351.81" r="4.89"/><circle class="cls-2" cx="879.95" cy="233.01" r="2.11"/><path class="cls-2" d="M331.72,311.62a4.3,4.3,0,0,0,0,8.59,4.17,4.17,0,0,0,2.46-.78,2.48,2.48,0,0,1-.41,0,3.06,3.06,0,0,1,0-6.11,3.15,3.15,0,0,1,1.74.55A4.27,4.27,0,0,0,331.72,311.62Z"/><path class="cls-2" d="M1047.36,392.39c-52.93-18-125.84-4.5-150.13-46.55-28.71-49.58,37.53-85.62,57.33-129.17,6.64-15-2.2-31.55-26.46-36.06-64-16.52-110.39,19.52-165.59,30-72.86,15-114.81-42-130.27-87.12C614.69,71,521.88,95,457.85,86,397.23,76,379.47,39,379,0H150.77A68.6,68.6,0,0,0,173,19.9c13.23,9,17.64,25.53,33.12,36,26.46,19.54,24.29,52.58,0,69.1-39.69,24-57.41,58.57-35.28,85.62,17.64,21,106,25.53,81.69,58.57-24.26,30-66.65,59.24-44.26,94.47.47.75,1.36,1.94,1.92,2.66,2.62,3.33,2.31,5,7,6.51,59,18.94,117,9,172.21-10.51,6.63-3,17.64-1.5,24.3-4.51,44.11-13.52,106-21,145.72,0,19.88,12,22,39.05-2.21,49.56s-59.61-4.5-88.32,9c-19.86,9-28.7,27-19.86,43.56,11,18,31.28,18.48,57.33,33a19.9,19.9,0,0,0,6.63,1.5c48.38,4.2,101.57,18,112.61,49.56,6,19.12,4.17,39-5.38,57.46h385.57c-.72-7.4-4.85-15-13.66-22.91C963.46,553,901.64,535,923.72,500.45c17.64-28.54,79.49-21,112.6-6,17.64,9,50.79,18,61.83,4.51C1129.05,461.48,1100.36,410.42,1047.36,392.39ZM279.75,333.1c-3.57-1.6-7.07-3.25-10.08-4.85a12.54,12.54,0,0,1-9,3.71c-6.8,0-8.13-5.27-8.13-11.75s1.33-11.74,8.15-11.74a12.59,12.59,0,0,1,9,3.7c3-1.59,6.5-3.24,10.08-4.84a29.75,29.75,0,0,0,0,25.77Zm28.19,9.3c-.26,6.05-2.07,10.68-8.69,10.68-7.33,0-13.26-5.66-13.26-12.64a12,12,0,0,1,.78-4.29l-.1,0a25.56,25.56,0,0,1,0-31.73l.1-.06A12.5,12.5,0,0,1,286,300c0-7,5.93-12.64,13.26-12.64,6.62,0,8.41,4.65,8.69,10.7H308l0,0v0h0a30.39,30.39,0,0,0,0,44.24h-.07S307.93,342.4,307.94,342.4Zm6.59-.18c-7.21-5.36-11.77-13.24-11.77-22s4.56-16.62,11.77-22A40,40,0,0,1,325,300.69c-4.67,5.66-9.3,12.39-9.3,19.49s4.63,13.89,9.3,19.55A40.8,40.8,0,0,1,314.53,342.22Zm26.76-21.6c0,6.92-4.4,13.1-12.16,17.23-4.38-4.91-9-11.05-9-17.67s4.6-12.69,9-17.61c7.78,4.14,12.16,10.31,12.16,17.24a2.82,2.82,0,0,1,0,.4A2.75,2.75,0,0,1,341.29,320.62Zm28.67-140c2.42,1.25,10.79,5.75,5.45,5.75-3.71,0-5.15-2.17-5.72-3.91-1.45,4.52-8.49,10.68-16.95,10.68-9.52,0-17.24-7.79-17.24-12.28s7.72-13.39,17.24-13.39c8.31,0,15.25,6.79,16.87,11.5.5-1.78,1.9-4.18,5.8-4.18,5.34,0-3,4.51-5.45,5.75ZM400.48,89c2.42,1.25,10.78,5.75,5.44,5.75-3.71,0-5.15-2.17-5.71-3.92-1.46,4.52-8.49,10.68-17,10.68-9.52,0-17.23-7.79-17.23-12.27s7.71-13.4,17.23-13.4c8.32,0,15.25,6.79,16.88,11.5.5-1.78,1.89-4.18,5.79-4.18,5.35,0-3,4.51-5.45,5.76A.22.22,0,0,0,400.48,89ZM488,176.78c2.06,1.06,9.15,4.88,4.62,4.88a4.62,4.62,0,0,1-4.84-3.32c-1.24,3.83-7.2,9.06-14.38,9.06-8.06,0-14.61-6.61-14.61-10.41s6.55-11.36,14.61-11.36c7.05,0,12.93,5.76,14.31,9.75a4.64,4.64,0,0,1,4.91-3.54c4.53,0-2.57,3.82-4.62,4.88ZM864.4,237.83h.32s14.27-16.18,27.59-18.56c0,0-6.38,13.07,1.36,17.28.9-3.72,5.62-6.56,11.31-6.56-.91-.16,1,0,0,0-5,.86-5.8,4.18-5.8,7.84s.84,7,5.8,7.83c1,0-.91.16,0,0-5.7,0-10.42-2.84-11.31-6.56-7.84,4.19-1.67,17.28-1.67,17.28C878.68,254,864.4,237.83,864.4,237.83Z"/></g><g id="Layer_7" data-name="Layer 7"><path class="cls-1" d="M470.92,142.62a1,1,0,0,0,0-.17c5.67-2.93,25.32-13.5,12.79-13.5-9.14,0-12.42,5.62-13.59,9.8-3.81-11-20.08-27-39.58-27-22.32,0-40.42,20.89-40.42,31.42S408.21,172,430.53,172c19.86,0,36.35-14.44,39.77-25,1.32,4.09,4.7,9.18,13.4,9.18C496.22,156.12,476.61,145.55,470.92,142.62Z"/><polygon class="cls-2" points="430.53 116.36 430.53 133.37 443.56 124.87 430.53 116.36"/><polygon class="cls-2" points="430.53 133.37 430.53 150.38 443.56 141.88 430.53 133.37"/><polygon class="cls-2" points="430.53 150.38 430.53 167.39 443.56 158.88 430.53 150.38"/><polygon class="cls-2" points="443.56 124.86 443.56 141.87 456.58 133.37 443.56 124.86"/><polygon class="cls-2" points="443.56 141.88 443.56 158.89 456.58 150.38 443.56 141.88"/><path class="cls-3" d="M405,126.85a7.52,7.52,0,0,0-7.52,7.51c0,.18,0,.36,0,.54a5,5,0,0,1,.34-1.1,4.91,4.91,0,1,1,2.65,6.58,7.51,7.51,0,1,0,4.5-13.53Z"/></g><g id="Layer_6" data-name="Layer 6"><path class="cls-1" d="M105.92,66h0c-.11-.12-.23-.24-.35-.35a21.58,21.58,0,1,0,.68.67ZM104,94.5a18.86,18.86,0,0,1-26.65,0h0v0h0A18.86,18.86,0,0,1,104,67.83h0v0h0A18.85,18.85,0,0,1,104,94.5Z"/><path class="cls-1" d="M101.84,70l-.24-.23a15.75,15.75,0,1,0,.48.47Zm-1.59,20.37a13.08,13.08,0,0,1-18.48.32l-.3-.3,0,0a4,4,0,0,1-.29-.29A13.07,13.07,0,0,1,99.93,71.93h0A13.08,13.08,0,0,1,100.25,90.41Z"/><path class="cls-1" d="M93.43,78.48l0,0a3.78,3.78,0,0,0-.4-.4,3.85,3.85,0,0,0-5,5.83h0v0h0a3.86,3.86,0,0,0,5.83-5A3.59,3.59,0,0,0,93.43,78.48Z"/><path class="cls-1" d="M97.76,74.15c-.21-.22-.42-.44-.65-.65a10.4,10.4,0,1,0,1.27,1.27C98.18,74.56,98,74.35,97.76,74.15Zm-1.92,12a7,7,0,0,1-9.84.24c-.08-.07-.15-.15-.22-.22l0,0-.22-.22A7,7,0,0,1,95.6,76.26h0A7,7,0,0,1,95.84,86.11Z"/><path class="cls-1" d="M109.81,62.1h0l-.32-.33a27.22,27.22,0,1,0,.62.62Zm-1.28,36.47A24.62,24.62,0,0,1,73.72,99l-.41-.41h0l-.43-.44a24.61,24.61,0,0,1,35.21-34.39h0A24.61,24.61,0,0,1,108.53,98.57Z"/><path class="cls-1" d="M149.14,76.17c7.51-1.49,52-10.8,29.94-17.33-19.16-5.69-27.47,8.86-30.06,15-5.11-9-52.4-43.47-85.67-40.57C46.7,34.7,33.56,45.51,31,73.56c-3.33-2.63-8.23-5.29-10.82-.86C16.46,79,27,82.52,29.38,83.22a.92.92,0,0,0,0,.16c-2.49.13-13.55,1.09-11.41,8.11,1.64,5.38,7.93,3.13,11.77,1.15a48,48,0,0,0,26.63,36.74c23.3,11.29,78.76-28.09,92.14-52.17,1.81,4.9,9.84,22.46,30.58,16.3C201.11,87,156.65,77.67,149.14,76.17ZM51.06,63.72A5.53,5.53,0,0,1,47.16,62c2.1,1.13,4.51-.15,5.45-2.94s0-6.26-2.12-7.56-4.66,0-5.63,2.85a6.88,6.88,0,0,0-.29,1.27c0-.2,0-.41,0-.63,0-4.83,2.92-8.75,6.52-8.75s6.51,3.92,6.51,8.75S54.66,63.72,51.06,63.72Zm64.85,42.67a35.65,35.65,0,0,1-50.41,0h0A35.66,35.66,0,0,1,115.91,56h0v0h0A35.65,35.65,0,0,1,115.91,106.39Z"/><path class="cls-1" d="M113.73,58.18l-.57-.58a32.94,32.94,0,1,0,1.13,1.13ZM112,102.48a30.11,30.11,0,0,1-42.57,0h0A30.12,30.12,0,0,1,112,59.88h0A30.12,30.12,0,0,1,112,102.48Z"/><path class="cls-1" d="M162,111h0l-.15-.16a9.54,9.54,0,1,0,.29.3A.93.93,0,0,0,162,111Zm-.81,12.29a8.14,8.14,0,0,1-11.49,0h0a8.13,8.13,0,0,1,11.5-11.5h0A8.14,8.14,0,0,1,161.2,123.27Z"/><path class="cls-1" d="M160.25,112.72l-.1-.1a7,7,0,1,0,.2.21Zm-.68,8.78a5.64,5.64,0,0,1-8,.14,1.59,1.59,0,0,1-.13-.13h0l-.12-.12a5.63,5.63,0,1,1,8.09-7.84h0A5.63,5.63,0,0,1,159.57,121.5Z"/><path class="cls-1" d="M156.63,116.36h0l-.17-.17a1.66,1.66,0,0,0-2.18,2.51h0a1.66,1.66,0,0,0,2.52-2.17C156.74,116.47,156.69,116.41,156.63,116.36Z"/><path class="cls-1" d="M158.49,114.49a3.57,3.57,0,0,0-.28-.27,4.44,4.44,0,1,0,.55.54A3.44,3.44,0,0,0,158.49,114.49Zm-.82,5.16a3,3,0,0,1-4.25.1l-.09-.09h0l-.1-.1a3,3,0,0,1,4.34-4.15h0A3,3,0,0,1,157.67,119.65Z"/><path class="cls-1" d="M163.69,109.3h0l-.14-.14a11.52,11.52,0,1,0,.27.26ZM163.13,125a10.6,10.6,0,0,1-15,.19L148,125h0l-.18-.18A10.61,10.61,0,1,1,163,110h0A10.61,10.61,0,0,1,163.13,125Z"/><path class="cls-1" d="M180.64,115.37c3.24-.65,22.4-4.66,12.91-7.48-8.26-2.45-11.84,3.82-13,6.46-2.2-3.88-22.59-18.74-36.93-17.49-7.18.62-12.84,5.29-14,17.38-1.43-1.14-3.54-2.28-4.66-.37-1.6,2.73,2.94,4.23,4,4.54v.06c-1.07.06-5.84.47-4.92,3.5.71,2.32,3.42,1.35,5.08.49a20.65,20.65,0,0,0,11.48,15.84c10,4.87,33.95-12.11,39.72-22.49.78,2.12,4.24,9.68,13.18,7C203,120,183.88,116,180.64,115.37ZM138.36,110a2.39,2.39,0,0,1-1.68-.76c.91.49,1.94-.06,2.35-1.27a2.86,2.86,0,0,0-.91-3.26c-.93-.56-2,0-2.43,1.23a3.65,3.65,0,0,0-.13.55c0-.09,0-.18,0-.27,0-2.08,1.26-3.77,2.81-3.77s2.81,1.69,2.81,3.77S139.91,110,138.36,110Zm28,18.39a15.38,15.38,0,0,1-21.74,0h0a15.37,15.37,0,0,1,21.74-21.74h0A15.38,15.38,0,0,1,166.32,128.39Z"/><path class="cls-1" d="M165.38,107.61c-.08-.09-.17-.17-.25-.25a14.06,14.06,0,1,0,.49.48Zm-.76,19.1a13,13,0,0,1-18.35,0h0a13,13,0,0,1,18.36-18.37h0A13,13,0,0,1,164.62,126.71Z"/><path class="cls-1" d="M1182.24,99.85a12.18,12.18,0,1,0,.38-.38c-.07.07-.14.13-.2.2h0Zm1.23.86h0a10.57,10.57,0,0,1,15,15h0a10.57,10.57,0,0,1-14.94-15Z"/><path class="cls-1" d="M1184.57,102.07a9.09,9.09,0,1,0,.27-.26.8.8,0,0,0-.13.13Zm1.19.94h0a7.32,7.32,0,0,1,10.52,10.19l-.17.16v0l-.16.16a7.33,7.33,0,0,1-10.2-10.52Z"/><path class="cls-1" d="M1189.42,106.67v0a2.28,2.28,0,0,1,.22-.22,2.16,2.16,0,0,1,2.83,3.27h0a2.16,2.16,0,0,1-3.27-2.82A1.52,1.52,0,0,1,1189.42,106.67Z"/><path class="cls-1" d="M1186.64,104.59a5.87,5.87,0,1,0,.72-.71,4.17,4.17,0,0,0-.37.36C1186.87,104.35,1186.76,104.47,1186.64,104.59Zm1.55.84h0a3.9,3.9,0,0,1,5.64,5.4l-.12.12h0a1.36,1.36,0,0,1-.12.12,3.9,3.9,0,0,1-5.4-5.64Z"/><path class="cls-1" d="M1180.07,97.65a15.47,15.47,0,1,0,.35-.34,1.53,1.53,0,0,0-.18.18h0Zm1.12.79h0a13.8,13.8,0,0,1,19.74,19.28l-.25.24h0l-.23.23a13.79,13.79,0,0,1-19.27-19.73Z"/><path class="cls-1" d="M1141.42,115.09c11.62,3.45,16.13-6.39,17.14-9.14,7.5,13.5,38.58,35.57,51.63,29.24a26.88,26.88,0,0,0,14.93-20.59c2.15,1.11,5.67,2.37,6.59-.64,1.2-3.94-5-4.48-6.39-4.55a.19.19,0,0,0,0-.08c1.35-.4,7.24-2.35,5.17-5.9-1.45-2.49-4.2-1-6.06.48-1.45-15.72-8.81-21.78-18.14-22.59-18.65-1.63-45.15,17.68-48,22.73-1.44-3.43-6.1-11.58-16.84-8.39-12.34,3.66,12.57,8.88,16.78,9.71C1154,106.21,1129.08,111.43,1141.42,115.09Zm68.09-21.6c0-2.71,1.64-4.91,3.65-4.91s3.66,2.2,3.66,4.91c0,.12,0,.23,0,.35a4.29,4.29,0,0,0-.16-.71c-.55-1.62-2-2.33-3.16-1.6a3.72,3.72,0,0,0-1.19,4.24c.53,1.56,1.88,2.28,3.06,1.64a3.07,3.07,0,0,1-2.19,1C1211.15,98.39,1209.51,96.2,1209.51,93.49Zm-32.7.57h0a20,20,0,0,1,28.27,28.27h0a20,20,0,0,1-28.26-28.26Z"/><path class="cls-1" d="M1177.73,95.6a18.46,18.46,0,1,0,.63-.63l-.32.32C1177.94,95.39,1177.83,95.49,1177.73,95.6Zm1.28.66h0a16.89,16.89,0,0,1,23.88,23.88h0A16.88,16.88,0,0,1,1179,96.26Z"/><path class="cls-1" d="M201.52,422.64a12.18,12.18,0,1,0,.38-.38l-.2.19h0Zm1.23.86h0a10.57,10.57,0,0,1,15,14.94h0a10.57,10.57,0,0,1-14.94-14.95Z"/><path class="cls-1" d="M203.85,424.86a8.92,8.92,0,1,0,.27-.27l-.13.14Zm1.19.94h0A7.33,7.33,0,0,1,215.58,436l-.17.16h0l-.16.17A7.33,7.33,0,0,1,205,425.8Z"/><path class="cls-1" d="M208.7,429.45h0l.22-.22a2.16,2.16,0,0,1,2.83,3.27h0a2.16,2.16,0,0,1-3.27-2.83Z"/><path class="cls-1" d="M205.93,427.38a5.83,5.83,0,1,0,.71-.71,4.17,4.17,0,0,0-.37.36A3.76,3.76,0,0,0,205.93,427.38Zm1.54.84h0a3.9,3.9,0,0,1,5.64,5.4l-.12.12h0l-.12.12a3.9,3.9,0,0,1-5.4-5.64Z"/><path class="cls-1" d="M199.35,420.44a15.25,15.25,0,1,0,.35-.35l-.18.18h0Zm1.12.78h0a13.79,13.79,0,0,1,19.74,19.27l-.25.25h0l-.23.23a13.79,13.79,0,0,1-19.27-19.74Z"/><path class="cls-1" d="M160.7,437.88c11.63,3.45,16.13-6.39,17.14-9.14,7.5,13.49,38.58,35.56,51.63,29.24a26.88,26.88,0,0,0,14.93-20.59c2.15,1.11,5.67,2.37,6.59-.65,1.2-3.93-5-4.47-6.39-4.54a.28.28,0,0,0,0-.09c1.35-.39,7.25-2.34,5.17-5.89-1.45-2.49-4.2-1-6.06.48-1.45-15.72-8.81-21.78-18.14-22.6-18.65-1.62-45.15,17.69-48,22.74-1.44-3.43-6.1-11.58-16.84-8.4-12.34,3.67,12.57,8.88,16.78,9.72C173.27,429,148.36,434.21,160.7,437.88Zm68.09-21.61c0-2.7,1.64-4.9,3.66-4.9s3.65,2.2,3.65,4.9c0,.12,0,.24,0,.36a4.65,4.65,0,0,0-.16-.72c-.55-1.61-2-2.32-3.16-1.6a3.73,3.73,0,0,0-1.19,4.24c.53,1.57,1.88,2.28,3.06,1.65a3.1,3.1,0,0,1-2.18,1C230.43,421.18,228.79,419,228.79,416.27Zm-32.7.57h0a20,20,0,0,1,28.27,28.26h0a20,20,0,0,1-28.26-28.27Z"/><path class="cls-1" d="M197,418.38a18.46,18.46,0,1,0,.63-.63c-.1.11-.21.22-.32.32S197.11,418.28,197,418.38Zm1.28.66h0a16.88,16.88,0,0,1,23.88,23.87h0A16.88,16.88,0,0,1,198.29,419Z"/></g></g></svg>