<svg xmlns="http://www.w3.org/2000/svg" viewBox="0 0 1282 659"><defs><style>.cls-1{fill:#005086;}.cls-2{fill:#ffa102;}.cls-3{fill:#fff;}</style></defs><title>bg_0</title><g id="Layer_2" data-name="Layer 2"><g id="Layer_1-2" data-name="Layer 1"><path class="cls-1" d="M871.24,52.94c-19.53,39.05,28.53,70.59,67.58,61.58,58.58-15,109.64-54.07,172.72-43.56,9,1.51,19.52,9,21,19.53,1.51,12-10.51,15-19.52,16.52-19.53,3-42,0-55.57,15-13.52,13.51-24,42.05-4.51,48.06,37.55,9,78.1-19.53,118.65-4.51,25.53,10.51,27,37.55,21,60.08-7.51,25.53-16.52,61.57,12,73.59,16.52,7.51,37.55,3,55.57-9A174.22,174.22,0,0,0,1282,273.6V0H866.79C876.07,16,880.47,34.48,871.24,52.94Z"/><path class="cls-1" d="M102.36,601.5c8.87-13.39,17.23-26.84,23.54-40.93C148.43,511,88.58,476.73,59.82,435.92c-1.93-2.75-2.73-9-3-12-3-33.44,18-60.07,10.51-94.61-3-12-6-25.54-10.51-34.55C45.28,271.67,23.89,258.45,2,246.66V601.5Z"/><path class="cls-2" d="M1126.57,100a26.5,26.5,0,1,0-26.5-26.5A26.53,26.53,0,0,0,1126.57,100Zm0-43a16.5,16.5,0,1,1-16.5,16.5A16.52,16.52,0,0,1,1126.57,57Z"/><path class="cls-1" d="M653.57,425.43a32.07,32.07,0,1,0,32.07,32.07A32.1,32.1,0,0,0,653.57,425.43Z"/><path class="cls-1" d="M854.31,392.36c-36-18-85.6-4.5-102.12-46.55-19.53-49.57,25.53-85.61,39-129.16,4.51-15-1.5-31.54-18-36.05-43.55-16.52-75.09,19.52-112.64,30-49.56,15-78.1-42-88.61-87.11C560,71,496.87,95,453.31,86,412.08,76,400,39,399.65,0H244.43c3.85,7.82,8.84,14.74,15.14,19.9,9,9,12,25.53,22.53,36,18,19.53,16.52,52.57,0,69.09-27,24-39.05,58.57-24,85.61,12,21,72.09,25.53,55.57,58.57-16.5,30-45.34,59.24-30.11,94.46.32.75.93,1.94,1.31,2.66,1.78,3.33,1.57,5,4.77,6.51,40.13,18.94,79.6,9,117.14-10.51,4.51-3,12-1.5,16.53-4.51,30-13.52,72.09-21,99.12,0,13.52,12,15,39.05-1.5,49.56s-40.55-4.5-60.08,9c-13.51,9-19.52,27-13.51,43.56,7.5,18,21.28,18.47,39,33a10,10,0,0,0,4.51,1.5c32.91,4.2,69.09,18,76.6,49.56a106,106,0,0,1-3.66,57.45H826.06c-.49-7.39-3.3-15-9.29-22.9-19.53-25.54-61.58-43.56-46.56-78.1,12-28.54,54.07-21,76.59-6,12,9,34.55,18,42.06,4.51C909.88,461.45,890.36,410.39,854.31,392.36ZM653.57,509a51.5,51.5,0,1,1,51.5-51.5A51.56,51.56,0,0,1,653.57,509Z"/><path class="cls-3" d="M1114,601a1.18,1.18,0,0,1,1.07-.68,1,1,0,0,1,.34,0c.34-.86.67-1.72,1-2.59a1.19,1.19,0,0,1-.89-1.14,1.2,1.2,0,0,1,1.2-1.2,1.24,1.24,0,0,1,.47.1c.26-.79.51-1.58.76-2.38h0a1.2,1.2,0,1,1,.65-2.19c.25-.91.49-1.82.72-2.74a1.2,1.2,0,0,1,0-2.39,1.22,1.22,0,0,1,.5.11q.38-1.71.69-3.45a1.16,1.16,0,0,1-.18,0,1.2,1.2,0,1,1,0-2.4,1.16,1.16,0,0,1,.55.15c.4-2.6.68-5.23.87-7.89a1.18,1.18,0,0,1-.93.47,1.2,1.2,0,0,1,0-2.4,1.17,1.17,0,0,1,1,.59c.09-1.68.14-3.37.14-5.07a93.51,93.51,0,0,0-2.07-19.58,1.19,1.19,0,0,1-1.15,1,1.2,1.2,0,1,1,.94-1.92q-.57-2.54-1.28-5a1.1,1.1,0,0,1,0,.16,1.2,1.2,0,1,1-1.2-1.2,1.17,1.17,0,0,1,1,.66,93,93,0,0,0-177.61-3.33,1.16,1.16,0,0,1,.55-.15,1.2,1.2,0,1,1,0,2.4,1.18,1.18,0,0,1-1.06-.67c-.42,1.34-.81,2.7-1.17,4.06a1.22,1.22,0,0,1,.84-.34,1.2,1.2,0,0,1,0,2.4,1.18,1.18,0,0,1-1.13-.88c-.36,1.45-.69,2.92-1,4.4a1.19,1.19,0,1,1,.59,2.22,1.16,1.16,0,0,1-.92-.46c-.23,1.26-.42,2.53-.59,3.8a1.18,1.18,0,0,1,.79-.31,1.2,1.2,0,1,1,0,2.4,1.16,1.16,0,0,1-1-.56q-.52,4.47-.63,9.05a1.23,1.23,0,0,1,.74-.28,1.2,1.2,0,0,1,0,2.4,1.16,1.16,0,0,1-.76-.29V566c0,1.45,0,2.89.1,4.33a1.11,1.11,0,0,1,.64-.21,1.2,1.2,0,0,1,0,2.4,1.29,1.29,0,0,1-.52-.13q.16,2.4.45,4.77c.05,0,.09,0,.13,0a1.19,1.19,0,0,1,.18,2.37c.17,1.2.37,2.4.59,3.58,0,0,.1,0,.16,0a1.2,1.2,0,0,1,1.2,1.2,1.19,1.19,0,0,1-.9,1.14c.41,1.91.87,3.79,1.39,5.66a1.06,1.06,0,0,1,.19,0,1.2,1.2,0,0,1,.47,2.3c.24.79.49,1.58.76,2.36l.15,0a1.2,1.2,0,0,1,1.2,1.2,1.17,1.17,0,0,1-.59,1A93,93,0,0,0,1115.18,601Zm-176.6-40.3a1.2,1.2,0,1,1,1.2-1.2A1.2,1.2,0,0,1,937.43,560.7ZM1114.31,588a1.2,1.2,0,1,1,1.2-1.2A1.2,1.2,0,0,1,1114.31,588Zm-60.55-5.87a1.2,1.2,0,1,1,1.2-1.2A1.2,1.2,0,0,1,1053.76,582.08Zm1.32,3.47a1.2,1.2,0,1,1-1.2-1.2A1.2,1.2,0,0,1,1055.08,585.55Zm-8.17-18.94a1.2,1.2,0,1,1,1.2-1.2A1.2,1.2,0,0,1,1046.91,566.61Zm.54,21.32a1.2,1.2,0,1,1,0,2.4,1.2,1.2,0,1,1,0-2.4Zm-55.74-6.73a1.2,1.2,0,1,1,1.2-1.2A1.2,1.2,0,0,1,991.71,581.2Zm.81,5.18a1.2,1.2,0,1,1-1.2-1.2A1.2,1.2,0,0,1,992.52,586.38Zm-.75-21.72a1.2,1.2,0,1,1,1.2-1.2A1.2,1.2,0,0,1,991.77,564.66ZM962,586.06a1.2,1.2,0,1,1,1.2-1.2A1.2,1.2,0,0,1,962,586.06Zm1.11,3.52a1.2,1.2,0,1,1-1.2-1.2A1.2,1.2,0,0,1,963.12,589.58Zm-17.77-28.41a1.2,1.2,0,1,1-1.2-1.2A1.2,1.2,0,0,1,945.35,561.17Zm-1.77-20.76a1.2,1.2,0,0,1,2.4,0,1.2,1.2,0,0,1-2.4,0Zm2.1,24.08a1.2,1.2,0,1,1-1.2,1.2A1.2,1.2,0,0,1,945.68,564.49Zm.54,4.7a1.2,1.2,0,1,1-1.2,1.2A1.2,1.2,0,0,1,946.22,569.19Zm.47-12.62a1.2,1.2,0,1,1,1.2-1.2A1.2,1.2,0,0,1,946.69,556.57Zm.35-5.93a1.2,1.2,0,1,1,1.2-1.2A1.2,1.2,0,0,1,947,550.64Zm45.7-49.3a1.2,1.2,0,1,1-1.2,1.2A1.2,1.2,0,0,1,992.74,501.34Zm-.85-7.07a1.2,1.2,0,1,1,1.2,1.2A1.2,1.2,0,0,1,991.89,494.27Zm.76,12.53a1.2,1.2,0,1,1-1.2-1.2A1.2,1.2,0,0,1,992.65,506.8Zm16-13.25a1.2,1.2,0,1,1-1.2,1.2A1.2,1.2,0,0,1,1008.67,493.55Zm-.52-4.37a1.2,1.2,0,1,1,1.2,1.2A1.2,1.2,0,0,1,1008.15,489.18Zm.77,17.15a1.2,1.2,0,1,1-1.2-1.2A1.2,1.2,0,0,1,1008.92,506.33Zm65.19,21.4a1.2,1.2,0,1,1,1.2-1.2A1.2,1.2,0,0,1,1074.11,527.73Zm.14,6.94a1.2,1.2,0,0,1,0,2.4,1.2,1.2,0,0,1,0-2.4Zm.34-14.92a1.2,1.2,0,0,1,0-2.4,1.2,1.2,0,1,1,0,2.4Zm-.86,2.7a1.2,1.2,0,1,1-1.2-1.2A1.2,1.2,0,0,1,1073.73,522.45Zm-.18,21.51a1.2,1.2,0,1,1-1.2,1.2A1.2,1.2,0,0,1,1073.55,544Zm2.06,6.44a1.2,1.2,0,1,1-1.2-1.2A1.2,1.2,0,0,1,1075.61,550.4Zm-1.82,8.87a1.2,1.2,0,1,1-1.2,1.2A1.2,1.2,0,0,1,1073.79,559.27Zm1.13-2.13a1.2,1.2,0,1,1,1.2-1.2A1.2,1.2,0,0,1,1074.92,557.14Zm.48-15.59a1.2,1.2,0,1,1,1.2-1.2A1.2,1.2,0,0,1,1075.4,541.55Zm.17-9a1.2,1.2,0,1,1,1.2-1.2A1.2,1.2,0,0,1,1075.57,532.59Zm.48-18a1.2,1.2,0,1,1,0-2.4,1.2,1.2,0,1,1,0,2.4Zm-1.21-10a1.2,1.2,0,1,1,1.2-1.2A1.2,1.2,0,0,1,1074.84,504.59Zm-.58,3.43a1.2,1.2,0,1,1-2.4,0,1.2,1.2,0,1,1,2.4,0Zm-2.25,4.23a1.2,1.2,0,0,1,0,2.4,1.2,1.2,0,0,1,0-2.4Zm-.19,18.37a1.2,1.2,0,1,1-1.2-1.2A1.2,1.2,0,0,1,1071.82,530.62Zm-9,13.35a1.2,1.2,0,1,1,1.2-1.2A1.2,1.2,0,0,1,1062.79,544Zm1,6.76a1.2,1.2,0,1,1-1.2-1.2A1.2,1.2,0,0,1,1063.83,550.73Zm4.08-15.16a1.2,1.2,0,1,1,1.2,1.2A1.2,1.2,0,0,1,1067.91,535.57Zm.76,7.36a1.2,1.2,0,1,1-1.2,1.2A1.2,1.2,0,0,1,1068.67,542.93Zm-.33-15.38a1.2,1.2,0,1,1,0-2.4,1.2,1.2,0,0,1,0,2.4Zm.26-5.77a1.2,1.2,0,1,1,1.2-1.2A1.2,1.2,0,0,1,1068.6,521.78Zm-.63-4.55a1.2,1.2,0,1,1,1.2-1.2A1.2,1.2,0,0,1,1068,517.23Zm-1,15a1.2,1.2,0,1,1-1.2-1.2A1.2,1.2,0,0,1,1066.93,532.24Zm-2.77-5a1.2,1.2,0,1,1,1.2-1.2A1.2,1.2,0,0,1,1064.16,527.27Zm-.55,11.49a1.2,1.2,0,1,1,1.2,1.2A1.2,1.2,0,0,1,1063.61,538.76Zm2.12,7.22a1.2,1.2,0,1,1-1.2,1.2A1.2,1.2,0,0,1,1065.73,546Zm2,27.07a1.2,1.2,0,0,1,0,2.4,1.2,1.2,0,0,1,0-2.4Zm.63,4.69a1.2,1.2,0,1,1-1.2,1.2A1.2,1.2,0,0,1,1068.4,577.74Zm-.12-7.82a1.2,1.2,0,0,1,0-2.4,1.2,1.2,0,0,1,0,2.4Zm-1.6-11.23a1.2,1.2,0,1,1,1.2,1.2A1.2,1.2,0,0,1,1066.68,558.69Zm2-8.76a1.2,1.2,0,1,1,1.2,1.2A1.2,1.2,0,0,1,1068.7,549.93Zm1.51-8.61a1.2,1.2,0,0,1,0-2.4,1.2,1.2,0,0,1,0,2.4Zm-.93-36.28a1.2,1.2,0,1,1,1.2-1.2A1.2,1.2,0,0,1,1069.28,505Zm-.28,6.07a1.2,1.2,0,1,1-2.4,0,1.2,1.2,0,0,1,2.4,0Zm-2.83-2.29a1.2,1.2,0,1,1,1.19-1.2A1.2,1.2,0,0,1,1066.17,508.82Zm-1,11.82a1.2,1.2,0,1,1-1.2-1.2A1.2,1.2,0,0,1,1065.18,520.64Zm-36.29,27.27a1.2,1.2,0,1,1,1.2,1.2A1.2,1.2,0,0,1,1028.89,547.91Zm1.15,11a1.2,1.2,0,1,1-1.2,1.2A1.2,1.2,0,0,1,1030,558.86Zm-1.13-30.1a1.2,1.2,0,0,1,2.4,0,1.2,1.2,0,1,1-2.4,0ZM1024.79,561a1.2,1.2,0,0,1,0-2.4,1.2,1.2,0,0,1,0,2.4Zm.07,7.12a1.2,1.2,0,0,1,0,2.4,1.2,1.2,0,0,1,0-2.4Zm-4.44-5.35a1.2,1.2,0,1,1,1.2-1.2A1.2,1.2,0,0,1,1020.42,562.79Zm1.83,3.46a1.2,1.2,0,1,1-1.2-1.2A1.2,1.2,0,0,1,1022.25,566.25Zm-26.81-21.68a1.2,1.2,0,1,1-1.2-1.2A1.2,1.2,0,0,1,995.44,544.57Zm-.72-20a1.2,1.2,0,1,1,2.4,0,1.2,1.2,0,1,1-2.4,0Zm.47,6.53a1.2,1.2,0,1,1,1.2,1.2A1.2,1.2,0,0,1,995.19,531.12Zm2.24,5.93a1.2,1.2,0,1,1-1.2,1.2A1.2,1.2,0,0,1,997.43,537.05Zm10.91-1.17a1.2,1.2,0,1,1-1.2,1.2A1.2,1.2,0,0,1,1008.34,535.88Zm-1.09-15a1.2,1.2,0,1,1,1.2-1.2A1.2,1.2,0,0,1,1007.25,520.9Zm2.7,21.56a1.2,1.2,0,1,1-1.2-1.2A1.2,1.2,0,0,1,1010,542.46Zm-3.72-8.87a1.2,1.2,0,1,1,0-2.4,1.2,1.2,0,1,1,0,2.4Zm-.71,5a1.2,1.2,0,1,1-1.2-1.2A1.2,1.2,0,0,1,1005.52,538.64Zm-.76,5.81a1.2,1.2,0,1,1-1.2-1.2A1.2,1.2,0,0,1,1004.76,544.45Zm-1-20a1.2,1.2,0,1,1,1.2-1.2A1.2,1.2,0,0,1,1003.78,524.47Zm-.67-14.77a1.2,1.2,0,1,1,1.2-1.2A1.2,1.2,0,0,1,1003.11,509.7Zm-.73,2.05a1.2,1.2,0,1,1-1.2,1.2A1.2,1.2,0,0,1,1002.38,511.75Zm-.44,5.06a1.2,1.2,0,1,1-1.2,1.2A1.2,1.2,0,0,1,1001.94,516.81Zm1.13,14.17a1.2,1.2,0,1,1-1.2-1.2A1.2,1.2,0,0,1,1003.07,531Zm-1.27,4.34a1.2,1.2,0,1,1-1.2-1.2A1.2,1.2,0,0,1,1001.8,535.32Zm-2,5.53a1.2,1.2,0,1,1-1.2,1.2A1.2,1.2,0,0,1,999.79,540.85Zm0,6a1.2,1.2,0,1,1-1.2-1.2A1.2,1.2,0,0,1,999.74,546.85Zm-2,8.7a1.2,1.2,0,1,1-1.2,1.2A1.2,1.2,0,0,1,997.76,555.55Zm.88-2.56a1.2,1.2,0,1,1,0-2.4,1.2,1.2,0,1,1,0,2.4Zm1.73,7a1.2,1.2,0,1,1-1.2,1.2A1.2,1.2,0,0,1,1000.37,560Zm1.57,4.54a1.2,1.2,0,1,1-1.2,1.2A1.2,1.2,0,0,1,1001.94,564.53Zm.6-8.07a1.2,1.2,0,1,1,1.2-1.2A1.2,1.2,0,0,1,1002.54,556.46Zm.94-5a1.2,1.2,0,1,1,1.2-1.2A1.2,1.2,0,0,1,1003.48,551.48Zm1.73,7.07a1.2,1.2,0,1,1-1.2,1.2A1.2,1.2,0,0,1,1005.21,558.55Zm1-11.36a1.2,1.2,0,1,1,1.21,1.2A1.21,1.21,0,0,1,1006.17,547.19Zm1.75,7.64a1.2,1.2,0,1,1-1.2,1.2A1.2,1.2,0,0,1,1007.92,554.83Zm.07-2.8a1.2,1.2,0,1,1,1.2,1.2A1.2,1.2,0,0,1,1008,552Zm3.59-12.47a1.2,1.2,0,1,1,1.2,1.2A1.2,1.2,0,0,1,1011.58,539.56Zm1.94,9.11a1.2,1.2,0,0,1-2.4,0,1.2,1.2,0,0,1,2.4,0Zm-2.09-13.83a1.2,1.2,0,1,1,1.2-1.2A1.2,1.2,0,0,1,1011.43,534.84Zm-.16-4.62a1.2,1.2,0,1,1,1.2-1.2A1.2,1.2,0,0,1,1011.27,530.22Zm-.79,38a1.2,1.2,0,1,1-1.2,1.2A1.2,1.2,0,0,1,1010.48,568.23Zm.84-2.64a1.2,1.2,0,1,1,1.2-1.2A1.2,1.2,0,0,1,1011.32,565.59Zm1-6.44a1.2,1.2,0,1,1,1.2-1.2A1.2,1.2,0,0,1,1012.34,559.15Zm.55-14.7a1.2,1.2,0,1,1,2.4,0,1.2,1.2,0,1,1-2.4,0Zm13.58-26.65a1.2,1.2,0,1,1-1.2,1.2A1.2,1.2,0,0,1,1026.47,517.8Zm-.83-3.88a1.2,1.2,0,1,1,1.2,1.2A1.2,1.2,0,0,1,1025.64,513.92Zm-2.08,18.57a1.2,1.2,0,1,1-1.2-1.2A1.2,1.2,0,0,1,1023.56,532.49Zm0-9.22a1.2,1.2,0,1,1,1.2,1.2A1.2,1.2,0,0,1,1023.52,523.27Zm-.11,16.25a1.2,1.2,0,1,1-1.2,1.2A1.2,1.2,0,0,1,1023.41,539.52Zm.6-11.36a1.2,1.2,0,1,1,1.2,1.2A1.2,1.2,0,0,1,1024,528.16Zm.23-17.19a1.2,1.2,0,1,1,1.2-1.2A1.2,1.2,0,0,1,1024.24,511Zm-1,4a1.2,1.2,0,1,1-1.2-1.2A1.2,1.2,0,0,1,1023.27,515Zm-2.37,4.62a1.2,1.2,0,1,1,0,2.4,1.2,1.2,0,1,1,0-2.4Zm-.23,6.25a1.2,1.2,0,1,1-1.2,1.2A1.2,1.2,0,0,1,1020.67,525.85Zm-.89,31.24a1.2,1.2,0,1,1-1.2-1.2A1.2,1.2,0,0,1,1019.78,557.09Zm-1.58-13.63a1.2,1.2,0,1,1,1.2-1.2A1.2,1.2,0,0,1,1018.2,543.46Zm-2-7.74a1.2,1.2,0,1,1-1.2,1.2A1.2,1.2,0,0,1,1016.25,535.72Zm-.53-3.42a1.2,1.2,0,1,1,1.2,1.2A1.2,1.2,0,0,1,1015.72,532.3Zm1.85-13.4a1.2,1.2,0,1,1,1.2-1.2A1.2,1.2,0,0,1,1017.57,518.9Zm-1.16,3.34a1.2,1.2,0,1,1-1.2,1.2A1.2,1.2,0,0,1,1016.41,522.24Zm-.34,4.61a1.2,1.2,0,1,1-1.2,1.2A1.2,1.2,0,0,1,1016.07,526.85Zm-1.22,25.41a1.2,1.2,0,1,1-1.2,1.2A1.2,1.2,0,0,1,1014.85,552.26Zm.49,7.89a1.2,1.2,0,1,1-1.2,1.2A1.2,1.2,0,0,1,1015.34,560.15Zm.74-11.46a1.2,1.2,0,1,1,1.2,1.2A1.2,1.2,0,0,1,1016.08,548.69Zm2.11,20.44a1.2,1.2,0,1,1-1.2,1.2A1.2,1.2,0,0,1,1018.19,569.13ZM1021,535.8a1.2,1.2,0,1,1-1.2,1.2A1.2,1.2,0,0,1,1021,535.8Zm2,8.1a1.2,1.2,0,1,1-1.2,1.2A1.2,1.2,0,0,1,1023,543.9Zm1.94,11.8a1.2,1.2,0,0,1,2.4,0,1.2,1.2,0,1,1-2.4,0Zm1.15-4a1.2,1.2,0,1,1,1.2-1.2A1.2,1.2,0,0,1,1026.1,551.67Zm-.4-14.45a1.2,1.2,0,1,1,1.2,1.2A1.2,1.2,0,0,1,1025.7,537.22Zm2.1-2.92a1.2,1.2,0,1,1,1.2-1.2A1.2,1.2,0,0,1,1027.8,534.3Zm.85-10.66a1.2,1.2,0,1,1,1.2,1.2A1.2,1.2,0,0,1,1028.65,523.64Zm1.47-6.09a1.2,1.2,0,0,1,2.4,0,1.2,1.2,0,0,1-2.4,0Zm0-5.06a1.2,1.2,0,1,1,1.2,1.2A1.2,1.2,0,0,1,1030.07,512.49Zm12.54-13.06a1.2,1.2,0,1,1-1.2,1.2A1.2,1.2,0,0,1,1042.61,499.43Zm-.94-2.78a1.2,1.2,0,1,1,1.2,1.2A1.2,1.2,0,0,1,1041.67,496.65Zm9.31,32.72a1.2,1.2,0,1,1-1.2,1.2A1.2,1.2,0,0,1,1051,529.37Zm-.21-3.44a1.2,1.2,0,1,1,1.2,1.2A1.2,1.2,0,0,1,1050.77,525.93Zm-4.69,24.23a1.2,1.2,0,1,1,1.2-1.2A1.2,1.2,0,0,1,1046.08,550.16Zm.83,3.21a1.2,1.2,0,1,1-1.2-1.2A1.2,1.2,0,0,1,1046.91,553.37Zm-.2-18.63a1.2,1.2,0,1,1,1.2,1.2A1.2,1.2,0,0,1,1046.71,534.74Zm2.35,4.74a1.2,1.2,0,1,1-1.2,1.2A1.2,1.2,0,0,1,1049.06,539.48Zm.4-20.64a1.2,1.2,0,1,1,1.2-1.2A1.2,1.2,0,0,1,1049.46,518.84ZM1049,521a1.2,1.2,0,1,1-1.2,1.2A1.2,1.2,0,0,1,1049,521Zm-1.14,6.1a1.2,1.2,0,1,1-1.2-1.2A1.2,1.2,0,0,1,1047.88,527.12Zm-2.2,4a1.2,1.2,0,1,1-1.2-1.2A1.2,1.2,0,0,1,1045.68,531.13Zm-1.52-8.56a1.2,1.2,0,1,1,1.2-1.2A1.2,1.2,0,0,1,1044.16,522.57ZM1043,511.49a1.2,1.2,0,1,1,1.2,1.2A1.2,1.2,0,0,1,1043,511.49Zm-.12,14.07a1.2,1.2,0,1,1-1.2-1.2A1.2,1.2,0,0,1,1042.92,525.56Zm-.34-8.83a1.2,1.2,0,1,1-1.2-1.2A1.2,1.2,0,0,1,1042.58,516.73Zm-2.28,12.46a1.2,1.2,0,1,1-1.2-1.2A1.2,1.2,0,0,1,1040.3,529.19Zm-1.58-6.34a1.2,1.2,0,1,1,0-2.4,1.2,1.2,0,1,1,0,2.4Zm-2.28-5.1a1.2,1.2,0,1,1,1.2-1.2A1.2,1.2,0,0,1,1036.44,517.75Zm-.27,8.87a1.2,1.2,0,0,1-2.4,0,1.2,1.2,0,0,1,2.4,0Zm-2.07-16.72a1.2,1.2,0,1,1,1.2-1.2A1.2,1.2,0,0,1,1034.1,509.9Zm0,10.51a1.2,1.2,0,1,1-1.2,1.2A1.2,1.2,0,0,1,1034.09,520.41Zm-.66,10.73a1.2,1.2,0,1,1-1.2,1.2A1.2,1.2,0,0,1,1033.43,531.14Zm-.25,4.74a1.2,1.2,0,1,1-1.2,1.2A1.2,1.2,0,0,1,1033.18,535.88Zm.94,9.18a1.2,1.2,0,0,1,0,2.4,1.2,1.2,0,0,1,0-2.4Zm1.11-2.49a1.2,1.2,0,1,1,1.2,1.2A1.2,1.2,0,0,1,1035.23,542.57Zm2.23-7.39a1.2,1.2,0,1,1,1.2-1.2A1.2,1.2,0,0,1,1037.46,535.18Zm1.71,2.91a1.2,1.2,0,1,1-1.2,1.2A1.2,1.2,0,0,1,1039.17,538.09Zm.26,9.69a1.2,1.2,0,1,1-1.2,1.2A1.2,1.2,0,0,1,1039.43,547.78Zm1.5,4.48a1.2,1.2,0,1,1-1.2,1.2A1.2,1.2,0,0,1,1040.93,552.26Zm.26-5.9a1.2,1.2,0,1,1,1.2-1.2A1.2,1.2,0,0,1,1041.19,546.36Zm.79-10.23a1.2,1.2,0,1,1,1.2-1.2A1.2,1.2,0,0,1,1042,536.13Zm2.29,1.77a1.2,1.2,0,1,1-1.2,1.2A1.2,1.2,0,0,1,1044.27,537.9Zm1.18,5a1.2,1.2,0,1,1-1.2,1.2A1.2,1.2,0,0,1,1045.45,542.88Zm.26,17.27a1.2,1.2,0,1,1-1.2,1.2A1.2,1.2,0,0,1,1045.71,560.15Zm1.1-2.85a1.2,1.2,0,1,1,1.2,1.2A1.2,1.2,0,0,1,1046.81,557.3Zm2.3-11.12a1.2,1.2,0,1,1,1.2,1.2A1.2,1.2,0,0,1,1049.11,546.18Zm1.91,4.49a1.2,1.2,0,1,1-1.2,1.2A1.2,1.2,0,0,1,1051,550.67Zm.18-14.26a1.2,1.2,0,1,1,1.2,1.2A1.2,1.2,0,0,1,1051.2,536.41Zm2.49,3.86a1.2,1.2,0,1,1-1.2,1.2A1.2,1.2,0,0,1,1053.69,540.27Zm4-11.53a1.2,1.2,0,0,1-2.4,0,1.2,1.2,0,0,1,2.4,0Zm-.4-13a1.2,1.2,0,1,1,1.2-1.2A1.2,1.2,0,0,1,1057.31,515.7Zm-1.48,16.41a1.2,1.2,0,1,1-1.2,1.2A1.2,1.2,0,0,1,1055.83,532.11Zm-1.13,14a1.2,1.2,0,1,1-1.2,1.2A1.2,1.2,0,0,1,1054.7,546.11Zm1.09,5.06a1.2,1.2,0,1,1-1.2,1.2A1.2,1.2,0,0,1,1055.79,551.17Zm2.33-14.14a1.2,1.2,0,0,1,0,2.4,1.2,1.2,0,1,1,0-2.4Zm.44-12.51a1.2,1.2,0,1,1,1.2,1.2A1.2,1.2,0,0,1,1058.56,524.52Zm2.54,4.68a1.2,1.2,0,1,1,0,2.4,1.2,1.2,0,0,1,0-2.4Zm.84-14.55a1.2,1.2,0,1,1,1.2,1.2A1.2,1.2,0,0,1,1061.94,514.65Zm1.58-9.25a1.2,1.2,0,1,1,1.2-1.2A1.2,1.2,0,0,1,1063.52,505.4Zm-.86,4.65a1.2,1.2,0,1,1-1.2-1.2A1.2,1.2,0,0,1,1062.66,510.05Zm-1.68,8.82a1.2,1.2,0,1,1-1.2-1.2A1.2,1.2,0,0,1,1061,518.87Zm-2.27-12.53a1.2,1.2,0,1,1,1.2-1.2A1.2,1.2,0,0,1,1058.71,506.34Zm-.72,3.49a1.2,1.2,0,1,1-1.2-1.2A1.2,1.2,0,0,1,1058,509.83Zm-1.34,12.88a1.2,1.2,0,1,1-1.2-1.2A1.2,1.2,0,0,1,1056.65,522.71Zm-2.44-3.32a1.2,1.2,0,1,1,1.2-1.2A1.2,1.2,0,0,1,1054.21,519.39Zm-.69-13.77a1.2,1.2,0,1,1,1.2-1.2A1.2,1.2,0,0,1,1053.52,505.62Zm-.2,3.31a1.2,1.2,0,1,1-1.2-1.2A1.2,1.2,0,0,1,1053.32,508.93Zm-2,3.06a1.2,1.2,0,1,1-1.2,1.2A1.2,1.2,0,0,1,1051.29,512Zm-2-8.42a1.2,1.2,0,1,1,1.2-1.2A1.2,1.2,0,0,1,1049.32,503.57Zm-.7-9.3a1.2,1.2,0,1,1,1.2-1.2A1.2,1.2,0,0,1,1048.62,494.27Zm-.41,2.24a1.2,1.2,0,1,1-1.2,1.2A1.2,1.2,0,0,1,1048.21,496.51Zm-.58,10.3a1.2,1.2,0,1,1-1.2,1.2A1.2,1.2,0,0,1,1047.63,506.81Zm-.61,8.76a1.2,1.2,0,1,1-1.2-1.2A1.2,1.2,0,0,1,1047,515.57Zm-2.18-9.87a1.2,1.2,0,0,1,0-2.4,1.2,1.2,0,1,1,0,2.4ZM1043,486.62a1.2,1.2,0,0,1,0-2.4,1.2,1.2,0,1,1,0,2.4Zm-.59,4.81a1.2,1.2,0,1,1-1.2,1.2A1.2,1.2,0,0,1,1042.42,491.43Zm-.41,17.62a1.2,1.2,0,1,1-1.2-1.2A1.2,1.2,0,0,1,1042,509.05Zm-2.54-3a1.2,1.2,0,1,1,1.2-1.2A1.2,1.2,0,0,1,1039.47,506Zm0-15.85a1.2,1.2,0,1,1,1.2-1.2A1.2,1.2,0,0,1,1039.45,490.18Zm-.91,22a1.2,1.2,0,1,1-1.2-1.2A1.2,1.2,0,0,1,1038.54,512.22ZM1035.71,500a1.2,1.2,0,1,1,1.2,1.2A1.2,1.2,0,0,1,1035.71,500Zm1.3-3.48a1.2,1.2,0,1,1,1.2-1.2A1.2,1.2,0,0,1,1037,496.51Zm-1.78-4.81a1.2,1.2,0,1,1,1.2-1.2A1.2,1.2,0,0,1,1035.23,491.7Zm-.68,11.22a1.2,1.2,0,1,1-1.2,1.2A1.2,1.2,0,0,1,1034.55,502.92Zm-2.35-4.13a1.2,1.2,0,0,1,0-2.4,1.2,1.2,0,1,1,0,2.4Zm-.92-5a1.2,1.2,0,1,1,1.2-1.2A1.2,1.2,0,0,1,1031.28,493.75Zm-.13,8.88a1.2,1.2,0,1,1-1.2-1.2A1.2,1.2,0,0,1,1031.15,502.63Zm-2.18,3.66a1.2,1.2,0,1,1-1.2,1.2A1.2,1.2,0,0,1,1029,506.29Zm-1.55-6.45a1.2,1.2,0,1,1,1.2-1.2A1.2,1.2,0,0,1,1027.42,499.84Zm-1-4.76a1.2,1.2,0,0,1,0-2.4,1.2,1.2,0,1,1,0,2.4Zm-.56,9.37a1.2,1.2,0,1,1-1.2-1.2A1.2,1.2,0,0,1,1025.91,504.45Zm-3.3-4a1.2,1.2,0,0,1,0-2.4,1.2,1.2,0,0,1,0,2.4Zm-.91-5a1.2,1.2,0,0,1,0-2.4,1.2,1.2,0,0,1,0,2.4Zm-.41,8.12a1.2,1.2,0,0,1-2.4,0,1.2,1.2,0,1,1,2.4,0ZM1018.57,486a1.2,1.2,0,1,1,1.2-1.2A1.2,1.2,0,0,1,1018.57,486Zm-.72,4.44a1.2,1.2,0,1,1-1.2,1.2A1.2,1.2,0,0,1,1017.85,490.44Zm1.62,16.58a1.2,1.2,0,1,1-1.2,1.2A1.2,1.2,0,0,1,1019.47,507Zm-.43,5.52a1.2,1.2,0,1,1-1.2-1.2A1.2,1.2,0,0,1,1019,512.54Zm-3.38-8.84a1.2,1.2,0,1,1,1.2-1.2A1.2,1.2,0,0,1,1015.66,503.7Zm-2.35-9.72a1.2,1.2,0,1,1,1.2-1.2A1.2,1.2,0,0,1,1013.31,494Zm1.32,12.38a1.2,1.2,0,1,1-1.2-1.2A1.2,1.2,0,0,1,1014.63,506.36Zm-1,3.2a1.2,1.2,0,0,1,0,2.4,1.2,1.2,0,0,1,0-2.4Zm-.88,12a1.2,1.2,0,1,1,1.2-1.2A1.2,1.2,0,0,1,1012.73,521.53Zm-1.07,2.62a1.2,1.2,0,1,1-1.2-1.2A1.2,1.2,0,0,1,1011.66,524.15Zm-2.86-12a1.2,1.2,0,1,1,0-2.4,1.2,1.2,0,1,1,0,2.4Zm-1.89,1.76a1.2,1.2,0,1,1-1.2,1.2A1.2,1.2,0,0,1,1006.91,513.89Zm-.41,12.05a1.2,1.2,0,1,1,0,2.4,1.2,1.2,0,1,1,0-2.4Zm-1.61-33.45a1.2,1.2,0,1,1,1.2-1.2A1.2,1.2,0,0,1,1004.89,492.49Zm-.72,11.43a1.2,1.2,0,1,1-1.2-1.2A1.2,1.2,0,0,1,1004.17,503.92Zm-2.46-3a1.2,1.2,0,0,1,0-2.4,1.2,1.2,0,0,1,0,2.4Zm-.35,25.92a1.2,1.2,0,1,1-1.2-1.2A1.2,1.2,0,0,1,1001.36,526.87Zm-2.73-4.6a1.2,1.2,0,1,1,1.2-1.2A1.2,1.2,0,0,1,998.63,522.27Zm-.79-8A1.2,1.2,0,1,1,999,513,1.2,1.2,0,0,1,997.84,514.22Zm-1.54-6.4a1.2,1.2,0,0,1,2.4,0,1.2,1.2,0,1,1-2.4,0Zm1.26-3.12a1.2,1.2,0,1,1,1.2-1.2A1.2,1.2,0,0,1,997.56,504.7Zm-.08-10a1.2,1.2,0,1,1,1.2-1.2A1.2,1.2,0,0,1,997.48,494.66Zm-.83,2.71a1.2,1.2,0,1,1-1.2,1.2A1.2,1.2,0,0,1,996.65,497.37Zm-1.1,18.84a1.2,1.2,0,1,1-1.2,1.2A1.2,1.2,0,0,1,995.55,516.21Zm-.86,18.38a1.2,1.2,0,1,1-1.2-1.2A1.2,1.2,0,0,1,994.69,534.59Zm-2.22-5.4a1.2,1.2,0,1,1,1.2-1.2A1.2,1.2,0,0,1,992.47,529.19ZM981.66,574a1.2,1.2,0,0,1,0-2.4,1.2,1.2,0,0,1,0,2.4Zm1.16,3.22a1.2,1.2,0,1,1-1.2-1.2A1.2,1.2,0,0,1,982.82,577.26Zm-10.51-5.75a1.2,1.2,0,1,1,1.2-1.2A1.2,1.2,0,0,1,972.31,571.51Zm.4,3.57a1.2,1.2,0,1,1-1.2-1.2A1.2,1.2,0,0,1,972.71,575.08Zm-2.41-26.53a1.2,1.2,0,1,1,1.2-1.2A1.2,1.2,0,0,1,970.3,548.55Zm1.1,8.11a1.2,1.2,0,1,1-1.2-1.2A1.2,1.2,0,0,1,971.4,556.66Zm-.16-28a1.2,1.2,0,1,1-1.2,1.2A1.2,1.2,0,0,1,971.24,528.7Zm-1.47-1.84a1.2,1.2,0,1,1,1.2-1.2A1.2,1.2,0,0,1,969.77,526.86Zm1.87,12.31a1.2,1.2,0,0,1,0-2.4,1.2,1.2,0,0,1,0,2.4Zm2,4.05a1.2,1.2,0,1,1-2.4,0,1.2,1.2,0,1,1,2.4,0Zm-.66,8.36a1.2,1.2,0,1,1,1.2,1.2A1.2,1.2,0,0,1,972.93,551.58Zm2.35-27.46a1.2,1.2,0,1,1,0-2.4,1.2,1.2,0,1,1,0,2.4Zm1.24,3.86a1.2,1.2,0,1,1-1.2-1.2A1.2,1.2,0,0,1,976.52,528ZM975,532.51a1.2,1.2,0,1,1-1.2,1.2A1.2,1.2,0,0,1,975,532.51Zm-.12,22.64a1.2,1.2,0,1,1-1.2,1.2A1.2,1.2,0,0,1,974.85,555.15ZM976,548a1.2,1.2,0,1,1,0-2.4,1.2,1.2,0,1,1,0,2.4Zm.21-7.46a1.2,1.2,0,1,1,1.2-1.2A1.2,1.2,0,0,1,976.17,540.53Zm1.52,2.59a1.2,1.2,0,1,1,1.2,1.2A1.2,1.2,0,0,1,977.69,543.12Zm.1,29a1.2,1.2,0,1,1-1.2-1.2A1.2,1.2,0,0,1,977.79,572.12Zm10-35.47a1.2,1.2,0,1,1,1.2,1.2A1.2,1.2,0,0,1,987.8,536.65Zm.64,4.31a1.2,1.2,0,1,1-2.4,0,1.2,1.2,0,0,1,2.4,0Zm.49-8.1a1.2,1.2,0,1,1,1.2-1.2A1.2,1.2,0,0,1,988.93,532.86Zm-2.36-4a1.2,1.2,0,1,1,1.2-1.2A1.2,1.2,0,0,1,986.57,528.84ZM983,535.4a1.2,1.2,0,1,1,1.2,1.2A1.2,1.2,0,0,1,983,535.4Zm.48,4.4a1.2,1.2,0,1,1-1.2-1.2A1.2,1.2,0,0,1,983.49,539.8Zm2.93-15.18a1.2,1.2,0,1,1,1.2-1.2A1.2,1.2,0,0,1,986.42,524.62Zm-2.13-3.79a1.2,1.2,0,1,1,1.2-1.2A1.2,1.2,0,0,1,984.29,520.83Zm-.21,10a1.2,1.2,0,0,1-2.4,0,1.2,1.2,0,0,1,2.4,0Zm-3.35-6a1.2,1.2,0,1,1,1.2-1.2A1.2,1.2,0,0,1,980.73,524.9Zm-1.18,2a1.2,1.2,0,1,1-1.2,1.2A1.2,1.2,0,0,1,979.55,526.9Zm-.36,6.9A1.2,1.2,0,1,1,978,535,1.2,1.2,0,0,1,979.19,533.8Zm.16,15.07a1.2,1.2,0,1,1-1.2,1.2A1.2,1.2,0,0,1,979.35,548.87Zm1.08,4.28a1.2,1.2,0,0,1,0,2.4,1.2,1.2,0,0,1,0-2.4Zm.48,8.94a1.2,1.2,0,1,1-1.2,1.2A1.2,1.2,0,0,1,980.91,562.09ZM982,545.37a1.2,1.2,0,1,1,1.2,1.2A1.2,1.2,0,0,1,982,545.37Zm2.51,3.09a1.2,1.2,0,1,1-1.2,1.2A1.2,1.2,0,0,1,984.51,548.46Zm2,3.86a1.2,1.2,0,1,1-1.2,1.2A1.2,1.2,0,0,1,986.52,552.32Zm.09,8.77a1.2,1.2,0,1,1-1.2,1.2A1.2,1.2,0,0,1,986.61,561.09Zm.85,10.79a1.2,1.2,0,1,1-1.2-1.2A1.2,1.2,0,0,1,987.46,571.88Zm-.65,4.34a1.2,1.2,0,1,1,0,2.4,1.2,1.2,0,1,1,0-2.4Zm.78-31.35a1.2,1.2,0,1,1,1.2,1.2A1.2,1.2,0,0,1,987.59,544.87Zm2.5,2.87a1.2,1.2,0,0,1,0,2.4,1.2,1.2,0,0,1,0-2.4Zm1.61,5.6a1.2,1.2,0,1,1-1.2,1.2A1.2,1.2,0,0,1,991.7,553.34Zm-.34-29.2a1.2,1.2,0,1,1,1.2-1.2A1.2,1.2,0,0,1,991.36,524.14Zm-.1-4.73a1.2,1.2,0,1,1,1.2-1.2A1.2,1.2,0,0,1,991.26,519.41Zm-.76-8a1.2,1.2,0,0,1-2.4,0,1.2,1.2,0,0,1,2.4,0Zm-1.56,4.68a1.2,1.2,0,1,1-1.2-1.2A1.2,1.2,0,0,1,988.94,516.05Zm-3.4-5.95a1.2,1.2,0,1,1,1.2-1.2A1.2,1.2,0,0,1,985.54,510.1Zm-1,4.17a1.2,1.2,0,1,1-1.2-1.2A1.2,1.2,0,0,1,984.57,514.27Zm-1.43-9.58a1.2,1.2,0,1,1,1.2-1.2A1.2,1.2,0,0,1,983.14,504.69Zm-.75,4.08a1.2,1.2,0,1,1-1.2-1.2A1.2,1.2,0,0,1,982.39,508.77ZM980.46,519a1.2,1.2,0,1,1-1.2-1.2A1.2,1.2,0,0,1,980.46,519Zm-1.84-4.77a1.2,1.2,0,1,1,1.2-1.2A1.2,1.2,0,0,1,978.62,514.2Zm-1.52-6a1.2,1.2,0,1,1,1.2-1.2A1.2,1.2,0,0,1,977.1,508.25Zm-.38,8.34a1.2,1.2,0,1,1-1.2-1.2A1.2,1.2,0,0,1,976.72,516.59Zm-3.35-3.94a1.2,1.2,0,1,1,1.2-1.2A1.2,1.2,0,0,1,973.37,512.65Zm-.66,4.9a1.2,1.2,0,1,1-1.2-1.2A1.2,1.2,0,0,1,972.71,517.55Zm-1.9,3.85a1.2,1.2,0,1,1-1.2-1.2A1.2,1.2,0,0,1,970.81,521.4ZM969,532.45a1.2,1.2,0,1,1-1.2,1.2A1.2,1.2,0,0,1,969,532.45Zm-.6,7.24a1.2,1.2,0,1,1-1.2-1.2A1.2,1.2,0,0,1,968.43,539.69Zm-3,17.32a1.2,1.2,0,1,1-1.2,1.2A1.2,1.2,0,0,1,965.39,557Zm-1.91-3.94a1.2,1.2,0,1,1,1.2,1.2A1.2,1.2,0,0,1,963.48,553.07Zm3-7.93a1.2,1.2,0,1,1,1.2-1.2A1.2,1.2,0,0,1,966.45,545.14Zm-1.68-9.06a1.2,1.2,0,1,1,1.2-1.2A1.2,1.2,0,0,1,964.77,536.08Zm.52-5.59a1.2,1.2,0,1,1,1.2-1.2A1.2,1.2,0,0,1,965.29,530.49Zm-.22-11.32a1.2,1.2,0,1,1,1.2-1.2A1.2,1.2,0,0,1,965.07,519.17Zm-.53,3.82a1.2,1.2,0,1,1-1.2,1.2A1.2,1.2,0,0,1,964.54,523Zm-.61,23.81a1.2,1.2,0,1,1-1.2,1.2A1.2,1.2,0,0,1,963.93,546.8Zm-2.25-6.67a1.2,1.2,0,1,1,1.2-1.2A1.2,1.2,0,0,1,961.68,540.13Zm-6.37,21.45a1.2,1.2,0,1,1-1.2,1.2A1.2,1.2,0,0,1,955.31,561.58Zm-1.45-2.79a1.2,1.2,0,0,1,0-2.4,1.2,1.2,0,0,1,0,2.4Zm2.07-4.29a1.2,1.2,0,1,1,1.2-1.2A1.2,1.2,0,0,1,955.93,554.5Zm.65-9.3a1.2,1.2,0,1,1,1.2-1.2A1.2,1.2,0,0,1,956.58,545.2Zm.19-5.52a1.2,1.2,0,1,1,1.2-1.2A1.2,1.2,0,0,1,956.77,539.68Zm2.33,18.16a1.2,1.2,0,1,1-1.2,1.2A1.2,1.2,0,0,1,959.1,557.84Zm.34-3a1.2,1.2,0,1,1,1.2,1.2A1.2,1.2,0,0,1,959.44,554.84Zm1.62-10a1.2,1.2,0,1,1,1.2-1.2A1.2,1.2,0,0,1,961.06,544.82Zm-.65-12.36a1.2,1.2,0,1,1-1.2,1.2A1.2,1.2,0,0,1,960.41,532.46Zm-.77-4.35a1.2,1.2,0,1,1,1.2,1.2A1.2,1.2,0,0,1,959.64,528.11Zm1.76-6a1.2,1.2,0,1,1,1.2-1.2A1.2,1.2,0,0,1,961.4,522.15Zm-1.66-4.94a1.2,1.2,0,1,1,1.2-1.2A1.2,1.2,0,0,1,959.74,517.21ZM959.43,548a1.2,1.2,0,1,1-1.2,1.2A1.2,1.2,0,0,1,959.43,548Zm-2.16-24a1.2,1.2,0,1,1,1.2-1.2A1.2,1.2,0,0,1,957.27,524Zm-.75,2.41a1.2,1.2,0,1,1-1.2,1.2A1.2,1.2,0,0,1,956.52,526.43ZM956,531a1.2,1.2,0,1,1-1.2,1.2A1.2,1.2,0,0,1,956,531Zm-.54,17.93a1.2,1.2,0,0,1-2.4,0,1.2,1.2,0,1,1,2.4,0Zm-2.77-12.69a1.2,1.2,0,1,1,1.2-1.2A1.2,1.2,0,0,1,952.66,536.19Zm-.44,3.19a1.2,1.2,0,1,1-1.2,1.2A1.2,1.2,0,0,1,952.22,539.38Zm-1,7.47a1.2,1.2,0,1,1,1.2-1.2A1.2,1.2,0,0,1,951.18,546.85Zm.77,5.82a1.2,1.2,0,1,1-2.4,0,1.2,1.2,0,0,1,2.4,0Zm-1.8-21.15a1.2,1.2,0,1,1,1.2-1.2A1.2,1.2,0,0,1,950.15,531.52Zm-.26,5.09a1.2,1.2,0,1,1-2.4,0,1.2,1.2,0,1,1,2.4,0Zm-1.32,6.89a1.2,1.2,0,1,1-1.2-1.2A1.2,1.2,0,0,1,948.57,543.5Zm.82,14.42a1.2,1.2,0,1,1-1.2,1.2A1.2,1.2,0,0,1,949.39,557.92Zm.91,4.22a1.2,1.2,0,1,1-1.2,1.2A1.2,1.2,0,0,1,950.3,562.14Zm.23,17.11a1.2,1.2,0,1,1-1.2-1.2A1.2,1.2,0,0,1,950.53,579.25ZM949.42,587a1.2,1.2,0,1,1-1.2,1.2A1.2,1.2,0,0,1,949.42,587Zm.72-19.41a1.2,1.2,0,1,1,1.2,1.2A1.2,1.2,0,0,1,950.14,567.6Zm2.06,3.77a1.2,1.2,0,1,1-1.2,1.2A1.2,1.2,0,0,1,952.2,571.37Zm1.64,6.23a1.2,1.2,0,1,1-1.2,1.2A1.2,1.2,0,0,1,953.84,577.6Zm.94-8.71a1.2,1.2,0,1,1,1.2,1.2A1.2,1.2,0,0,1,954.78,568.89Zm1.64,5a1.2,1.2,0,1,1-1.2,1.2A1.2,1.2,0,0,1,956.42,573.84Zm.25,7.92a1.2,1.2,0,1,1-1.2,1.2A1.2,1.2,0,0,1,956.67,581.76Zm.53,4.74a1.2,1.2,0,1,1-1.2,1.2A1.2,1.2,0,0,1,957.2,586.5Zm1-22.19a1.2,1.2,0,1,1,1.2,1.2A1.2,1.2,0,0,1,958.21,564.31Zm2.1,5.27a1.2,1.2,0,1,1,0,2.4,1.2,1.2,0,1,1,0-2.4ZM961.6,574a1.2,1.2,0,1,1-1.2,1.2A1.2,1.2,0,0,1,961.6,574Zm.48-7.34a1.2,1.2,0,1,1,1.2,1.2A1.2,1.2,0,0,1,962.08,566.68Zm1.29-4.36a1.2,1.2,0,1,1,2.4,0,1.2,1.2,0,1,1-2.4,0Zm3.15,10.22a1.2,1.2,0,1,1-1.2,1.2A1.2,1.2,0,0,1,966.52,572.54Zm-.72,4.81a1.2,1.2,0,1,1-1.2,1.2A1.2,1.2,0,0,1,965.8,577.35Zm.72,4.42a1.2,1.2,0,1,1-1.2,1.2A1.2,1.2,0,0,1,966.52,581.77Zm.17-11.1a1.2,1.2,0,1,1,1.2-1.2A1.2,1.2,0,0,1,966.69,570.67Zm1-19a1.2,1.2,0,1,1,1.2,1.2A1.2,1.2,0,0,1,967.71,551.66Zm2.36,8.91a1.2,1.2,0,1,1-1.2,1.2A1.2,1.2,0,0,1,970.07,560.57Zm.2,4.3a1.2,1.2,0,1,1-1.2,1.2A1.2,1.2,0,0,1,970.27,564.87Zm.83,13.73a1.2,1.2,0,1,1-1.2,1.2A1.2,1.2,0,0,1,971.1,578.6Zm.71,4.84a1.2,1.2,0,1,1-1.2,1.2A1.2,1.2,0,0,1,971.81,583.44Zm1.16,4.82a1.2,1.2,0,1,1-1.2,1.2A1.2,1.2,0,0,1,973,588.26Zm.79-26.53a1.2,1.2,0,1,1,2.4,0,1.2,1.2,0,1,1-2.4,0Zm2.4,3.38a1.2,1.2,0,1,1-1.2,1.2A1.2,1.2,0,0,1,976.16,565.11Zm.12,10.79a1.2,1.2,0,1,1-1.2,1.2A1.19,1.19,0,0,1,976.28,575.9Zm.24,4.36a1.2,1.2,0,1,1-1.2,1.2A1.2,1.2,0,0,1,976.52,580.26Zm.44,4.57a1.2,1.2,0,1,1-1.2,1.2A1.2,1.2,0,0,1,977,584.83Zm1-25.77a1.2,1.2,0,1,1,1.2,1.2A1.2,1.2,0,0,1,977.93,559.06Zm2.75,8.07a1.2,1.2,0,1,1-1.2,1.2A1.2,1.2,0,0,1,980.68,567.13Zm.6,18.52a1.2,1.2,0,1,1-1.2,1.2A1.2,1.2,0,0,1,981.28,585.65Zm.72-2.86a1.2,1.2,0,1,1,1.2-1.2A1.2,1.2,0,0,1,982,582.79Zm.74-24.85a1.2,1.2,0,1,1,1.2,1.2A1.2,1.2,0,0,1,982.74,557.94Zm2.52,7.46a1.2,1.2,0,1,1-1.2,1.2A1.2,1.2,0,0,1,985.26,565.4Zm.42,20a1.2,1.2,0,1,1-1.2,1.2A1.2,1.2,0,0,1,985.68,585.38Zm.48-3.1a1.2,1.2,0,1,1,1.2,1.2A1.2,1.2,0,0,1,986.16,582.28ZM988,558.41a1.2,1.2,0,1,1,1.2,1.2A1.2,1.2,0,0,1,988,558.41Zm1.8,8.64a1.2,1.2,0,1,1-1.2,1.2A1.2,1.2,0,0,1,989.79,567.05Zm2-26.85a1.2,1.2,0,1,1,2.4,0,1.2,1.2,0,1,1-2.4,0Zm2.39,9.18a1.2,1.2,0,1,1-1.2,1.2A1.2,1.2,0,0,1,994.22,549.38Zm.29,8.86a1.2,1.2,0,1,1-1.2,1.2A1.2,1.2,0,0,1,994.51,558.24Zm2.31,5.17a1.2,1.2,0,1,1-1.2,1.2A1.2,1.2,0,0,1,996.82,563.41Zm2.3,9.94a1.2,1.2,0,1,1,0,2.4,1.2,1.2,0,1,1,0-2.4Zm.57-2a1.2,1.2,0,1,1,1.2-1.2A1.2,1.2,0,0,1,999.69,571.32ZM1002,580a1.2,1.2,0,0,1,0,2.4,1.2,1.2,0,0,1,0-2.4Zm.13-3.19a1.2,1.2,0,1,1,1.2,1.2A1.2,1.2,0,0,1,1002.09,576.82Zm2.09-8.15a1.2,1.2,0,1,1,1.2,1.2A1.2,1.2,0,0,1,1004.18,568.67Zm1.77,3.07a1.2,1.2,0,1,1-1.2,1.2A1.2,1.2,0,0,1,1006,571.74Zm.93,7.88a1.2,1.2,0,1,1-1.2,1.2A1.2,1.2,0,0,1,1006.88,579.62Zm.36-14.93a1.2,1.2,0,0,1,0-2.4,1.2,1.2,0,0,1,0,2.4Zm2.31,10.08a1.2,1.2,0,0,1,0,2.4,1.2,1.2,0,0,1,0-2.4Zm2.28,8.41a1.2,1.2,0,1,1-1.2,1.2A1.2,1.2,0,0,1,1011.83,583.18Zm.26-2.06a1.2,1.2,0,1,1,1.2-1.2A1.2,1.2,0,0,1,1012.09,581.12Zm.31-8.25a1.2,1.2,0,1,1,1.2,1.2A1.2,1.2,0,0,1,1012.4,572.87Zm2.16-6.44a1.2,1.2,0,1,1,1.2,1.2A1.2,1.2,0,0,1,1014.56,566.43ZM1016,577a1.2,1.2,0,1,1-1.2,1.2A1.2,1.2,0,0,1,1016,577Zm.92,5.34a1.2,1.2,0,1,1-1.2,1.2A1.2,1.2,0,0,1,1017,582.36Zm.85-7.49a1.2,1.2,0,1,1,1.2,1.2A1.2,1.2,0,0,1,1017.81,574.87Zm3.26,3.84a1.2,1.2,0,1,1-1.2,1.2A1.2,1.2,0,0,1,1021.07,578.71Zm.11-23.71a1.2,1.2,0,1,1,1.2-1.2A1.2,1.2,0,0,1,1021.18,555Zm.42-4.62a1.2,1.2,0,1,1,0-2.4,1.2,1.2,0,1,1,0,2.4Zm2,22.07a1.2,1.2,0,1,1-1.2,1.2A1.2,1.2,0,0,1,1023.6,572.45Zm2.33,3.69a1.2,1.2,0,1,1-1.2,1.2A1.2,1.2,0,0,1,1025.93,576.14Zm.21,4.67a1.2,1.2,0,1,1,0,2.4,1.2,1.2,0,0,1,0-2.4Zm.1-15.18a1.2,1.2,0,1,1,1.2-1.2A1.2,1.2,0,0,1,1026.24,565.63Zm.43-22a1.2,1.2,0,1,1,1.2,1.2A1.2,1.2,0,0,1,1026.67,543.64ZM1029,571a1.2,1.2,0,1,1-1.2,1.2A1.2,1.2,0,0,1,1029,571Zm.11-4.86a1.2,1.2,0,0,1,2.4,0,1.2,1.2,0,1,1-2.4,0Zm1.51-12.06a1.2,1.2,0,1,1,1.2-1.2A1.2,1.2,0,0,1,1030.62,554.08Zm.56-12.05a1.2,1.2,0,1,1,1.2-1.2A1.2,1.2,0,0,1,1031.18,542Zm2,13.32a1.2,1.2,0,1,1-1.2,1.2A1.2,1.2,0,0,1,1033.22,555.35Zm1.43,8.38a1.2,1.2,0,1,1,1.2-1.2A1.2,1.2,0,0,1,1034.65,563.73Zm.7,4.51a1.2,1.2,0,1,1-2.4,0,1.2,1.2,0,0,1,2.4,0Zm-1.84,3.45a1.2,1.2,0,1,1-1.2,1.2A1.2,1.2,0,0,1,1033.51,571.69Zm1.16,4.91a1.2,1.2,0,1,1-1.2,1.2A1.2,1.2,0,0,1,1034.67,576.6Zm1.14-23.67a1.2,1.2,0,0,1,0-2.4,1.2,1.2,0,0,1,0,2.4Zm1.57,3.85a1.2,1.2,0,1,1-1.2,1.2A1.2,1.2,0,0,1,1037.38,556.78Zm.94,8.7a1.2,1.2,0,1,1-1.2,1.2A1.2,1.2,0,0,1,1038.32,565.48Zm2.19,6.11a1.2,1.2,0,1,1-1.2-1.2A1.2,1.2,0,0,1,1040.51,571.59Zm-1.49,3a1.2,1.2,0,1,1-1.2,1.2A1.2,1.2,0,0,1,1039,574.62Zm.49,8.91a1.2,1.2,0,1,1-1.2,1.2A1.2,1.2,0,0,1,1039.51,583.53Zm1-2.18a1.2,1.2,0,1,1,1.2-1.2A1.2,1.2,0,0,1,1040.55,581.35Zm.21-16.77a1.2,1.2,0,1,1,1.2-1.2A1.2,1.2,0,0,1,1040.76,564.58Zm1.2-4.92a1.2,1.2,0,1,1,1.2-1.2A1.2,1.2,0,0,1,1042,559.66Zm1.54,8a1.2,1.2,0,1,1-1.2,1.2A1.2,1.2,0,0,1,1043.5,567.65Zm1.09,4.8a1.2,1.2,0,1,1-1.2,1.2A1.2,1.2,0,0,1,1044.59,572.45Zm.19,5.08a1.2,1.2,0,1,1-1.2,1.2A1.2,1.2,0,0,1,1044.78,577.53Zm4.44-9.49a1.2,1.2,0,1,1-1.2,1.2A1.2,1.2,0,0,1,1049.22,568Zm.87-5.69a1.2,1.2,0,1,1,1.2,1.2A1.2,1.2,0,0,1,1050.09,562.35Zm1.5-5.46a1.2,1.2,0,1,1,1.2,1.2A1.2,1.2,0,0,1,1051.59,556.89Zm1.2,9.39a1.2,1.2,0,1,1,1.2,1.2A1.2,1.2,0,0,1,1052.79,566.28Zm2,3.72a1.2,1.2,0,1,1-1.2,1.2A1.2,1.2,0,0,1,1054.74,570Zm.08-9.78a1.2,1.2,0,1,1,2.4,0,1.2,1.2,0,1,1-2.4,0Zm2.17-17.09a1.2,1.2,0,1,1,1.2,1.2A1.2,1.2,0,0,1,1057,543.13Zm1.92,21.36a1.2,1.2,0,1,1,1.2-1.2A1.2,1.2,0,0,1,1058.91,564.49Zm1.13,4.1a1.2,1.2,0,1,1-1.2-1.2A1.2,1.2,0,0,1,1060,568.59Zm-1-12.05a1.2,1.2,0,1,1,1.2-1.2A1.2,1.2,0,0,1,1059,556.54Zm-.27,22.29a1.2,1.2,0,1,1-1.2,1.2A1.2,1.2,0,0,1,1058.73,578.83Zm.5,5.07a1.2,1.2,0,0,1,0,2.4,1.2,1.2,0,0,1,0-2.4Zm0-8.36a1.2,1.2,0,1,1,1.2-1.2A1.2,1.2,0,0,1,1059.25,575.54Zm.24-26.32a1.2,1.2,0,1,1,0-2.4,1.2,1.2,0,1,1,0,2.4Zm.69-14.05a1.2,1.2,0,1,1,1.2,1.2A1.2,1.2,0,0,1,1060.18,535.17Zm1.91,22.13a1.2,1.2,0,1,1-1.2,1.2A1.2,1.2,0,0,1,1062.09,557.3Zm1.28,11.05a1.2,1.2,0,1,1,1.2-1.2A1.2,1.2,0,0,1,1063.37,568.35Zm1.33,3.78a1.2,1.2,0,1,1-1.2-1.2A1.2,1.2,0,0,1,1064.7,572.13Zm-1.48,4.33a1.2,1.2,0,1,1,0,2.4,1.2,1.2,0,1,1,0-2.4Zm.67,4.8a1.2,1.2,0,1,1-1.2,1.2A1.2,1.2,0,0,1,1063.89,581.26Zm.54-17.39a1.2,1.2,0,1,1,1.2-1.2A1.2,1.2,0,0,1,1064.43,563.87Zm.93-8.71a1.2,1.2,0,1,1,1.2-1.2A1.2,1.2,0,0,1,1065.36,555.16ZM1067.5,584a1.2,1.2,0,1,1-1.2,1.2A1.2,1.2,0,0,1,1067.5,584Zm1.07,5a1.2,1.2,0,0,1,0,2.4,1.2,1.2,0,0,1,0-2.4Zm.57-24.31a1.2,1.2,0,1,1,1.2-1.2A1.2,1.2,0,0,1,1069.14,564.73Zm.2-9.8a1.2,1.2,0,1,1,1.2,1.2A1.2,1.2,0,0,1,1069.34,554.93Zm2.64,16.81a1.2,1.2,0,0,1,0,2.4,1.2,1.2,0,0,1,0-2.4Zm0,8.15a1.2,1.2,0,0,1,0,2.4,1.2,1.2,0,0,1,0-2.4Zm.46,4.93a1.2,1.2,0,1,1-1.2,1.2A1.2,1.2,0,0,1,1072.48,584.82Zm-.21-19.57a1.2,1.2,0,1,1,1.2,1.2A1.2,1.2,0,0,1,1072.27,565.25Zm2.52,3.25a1.2,1.2,0,1,1-1.2,1.2A1.2,1.2,0,0,1,1074.79,568.5Zm1.8,12.94a1.2,1.2,0,1,1-1.2,1.2A1.2,1.2,0,0,1,1076.59,581.44Zm1.87-73.68a1.2,1.2,0,1,1-1.2,1.2A1.2,1.2,0,0,1,1078.46,507.76Zm-.37-3.68a1.2,1.2,0,1,1,1.2,1.2A1.2,1.2,0,0,1,1078.09,504.08Zm.53,63.82a1.2,1.2,0,1,1,1.2-1.2A1.2,1.2,0,0,1,1078.62,567.9Zm1.18,5.07a1.2,1.2,0,0,1-2.4,0,1.2,1.2,0,0,1,2.4,0Zm-1-10.4a1.2,1.2,0,1,1,1.2-1.2A1.2,1.2,0,0,1,1078.83,562.57Zm-1.17-11.5a1.2,1.2,0,1,1,1.2,1.2A1.2,1.2,0,0,1,1077.66,551.07Zm1-3.88a1.2,1.2,0,1,1,1.2-1.2A1.2,1.2,0,0,1,1078.67,547.19Zm-1.09-23.47a1.2,1.2,0,1,1,1.2,1.2A1.2,1.2,0,0,1,1077.58,523.72Zm1.8,6.48a1.2,1.2,0,0,1,0-2.4,1.2,1.2,0,1,1,0,2.4Zm1.19,5a1.2,1.2,0,1,1-1.2-1.2A1.2,1.2,0,0,1,1080.57,535.21Zm-1-14.76a1.2,1.2,0,1,1,1.2-1.2A1.2,1.2,0,0,1,1079.58,520.45Zm-2.23,67a1.2,1.2,0,0,1,0,2.4,1.2,1.2,0,0,1,0-2.4Zm.94-9.39a1.2,1.2,0,1,1,1.2,1.2A1.2,1.2,0,0,1,1078.29,578Zm1.34-21.07a1.2,1.2,0,1,1,1.19-1.2A1.19,1.19,0,0,1,1079.63,557Zm.08-14.23a1.2,1.2,0,1,1,1.2-1.2A1.2,1.2,0,0,1,1079.71,542.73Zm.76-26.91a1.2,1.2,0,1,1,1.2-1.2A1.2,1.2,0,0,1,1080.47,515.82Zm24.34,16.64a1.2,1.2,0,1,1-1.2,1.2A1.2,1.2,0,0,1,1104.81,532.46Zm-1-6.65a1.2,1.2,0,1,1,1.2,1.2A1.2,1.2,0,0,1,1103.79,525.81Zm.6,21.71a1.2,1.2,0,1,1-1.2,1.2A1.2,1.2,0,0,1,1104.39,547.52Zm9.94,18.71a1.2,1.2,0,1,1,1.2-1.2A1.2,1.2,0,0,1,1114.33,566.23Zm1.27,11a1.2,1.2,0,1,1-1.2-1.2A1.2,1.2,0,0,1,1115.6,577.24Zm-1.63-22a1.2,1.2,0,1,1,1.2-1.2A1.2,1.2,0,0,1,1114,555.24Zm.14-7.92a1.2,1.2,0,1,1,1.2-1.2A1.2,1.2,0,0,1,1114.11,547.32Zm-1.31-6.71a1.2,1.2,0,1,1,0-2.4,1.2,1.2,0,1,1,0,2.4Zm-25.54-5.27a1.2,1.2,0,1,1-1.2,1.2A1.2,1.2,0,0,1,1087.26,535.34Zm-1-4.87a1.2,1.2,0,1,1,1.2,1.2A1.2,1.2,0,0,1,1086.23,530.47Zm1.57,10.2a1.2,1.2,0,1,1,0,2.4,1.2,1.2,0,1,1,0-2.4Zm1.13,5a1.2,1.2,0,0,1,0,2.4,1.2,1.2,0,0,1,0-2.4Zm1.83,3.91a1.2,1.2,0,1,1,0,2.4,1.2,1.2,0,1,1,0-2.4Zm0-9.92a1.2,1.2,0,1,1,1.2,1.2A1.2,1.2,0,0,1,1090.76,539.65Zm1.38,14.33a1.2,1.2,0,1,1-1.2,1.2A1.2,1.2,0,0,1,1092.14,554Zm2,12.45a1.2,1.2,0,1,1,0,2.4,1.2,1.2,0,0,1,0-2.4Zm-.22-18.22a1.2,1.2,0,1,1,1.2,1.2A1.2,1.2,0,0,1,1093.89,548.21Zm1.89-8a1.2,1.2,0,1,1,1.2,1.2A1.2,1.2,0,0,1,1095.78,540.26Zm.8,15.78a1.2,1.2,0,1,1-1.2,1.2A1.2,1.2,0,0,1,1096.58,556Zm.86-2.54a1.2,1.2,0,1,1,1.2-1.2A1.2,1.2,0,0,1,1097.44,553.5Zm2,13.1a1.2,1.2,0,1,1-1.2,1.2A1.2,1.2,0,0,1,1099.4,566.6Zm.76-3.38a1.2,1.2,0,1,1,0-2.4,1.2,1.2,0,0,1,0,2.4Zm.15-5.93a1.2,1.2,0,1,1,1.2,1.2A1.2,1.2,0,0,1,1100.31,557.29Zm1-4.39a1.2,1.2,0,1,1,1.2,1.2A1.2,1.2,0,0,1,1101.35,552.9Zm2.12,11.69a1.2,1.2,0,1,1,0,2.4,1.2,1.2,0,1,1,0-2.4Zm.75-5.39a1.2,1.2,0,1,1,1.2,1.2A1.2,1.2,0,0,1,1104.22,559.2Zm3.51,3.29a1.2,1.2,0,1,1-1.2,1.2A1.2,1.2,0,0,1,1107.73,562.49Zm.32,4.82a1.2,1.2,0,1,1-1.2,1.2A1.2,1.2,0,0,1,1108.05,567.31Zm.47-10.58a1.2,1.2,0,1,1,1.2,1.2A1.2,1.2,0,0,1,1108.52,556.73Zm1.09-7.26a1.2,1.2,0,1,1,1.2,1.2A1.2,1.2,0,0,1,1109.61,549.47Zm1.9,10.56a1.2,1.2,0,1,1-1.2,1.2A1.2,1.2,0,0,1,1111.51,560Zm.15-16.91a1.2,1.2,0,1,1-1.2-1.2A1.2,1.2,0,0,1,1111.66,543.12Zm-2-6.42a1.2,1.2,0,1,1,1.2-1.2A1.2,1.2,0,0,1,1109.62,536.7Zm-.8,16.1a1.2,1.2,0,1,1-1.2-1.2A1.2,1.2,0,0,1,1108.82,552.8Zm-2.29-6.76a1.2,1.2,0,1,1,1.2-1.2A1.2,1.2,0,0,1,1106.53,546Zm-4.34-15.43a1.2,1.2,0,1,1,1.2-1.2A1.2,1.2,0,0,1,1102.19,530.61Zm-.31,6.12a1.2,1.2,0,1,1-1.2,1.2A1.2,1.2,0,0,1,1101.88,536.73Zm-.29,5.13a1.2,1.2,0,1,1-1.2,1.2A1.2,1.2,0,0,1,1101.59,541.86Zm-.79,5.26a1.2,1.2,0,1,1-1.2-1.2A1.2,1.2,0,0,1,1100.8,547.12Zm-2.48-10.69a1.2,1.2,0,0,1,0-2.4,1.2,1.2,0,0,1,0,2.4Zm-1.08-3.9a1.2,1.2,0,1,1,1.2-1.2A1.2,1.2,0,0,1,1097.24,532.53Zm-.35-4.58a1.2,1.2,0,1,1,1.2-1.2A1.2,1.2,0,0,1,1096.89,528Zm-1.86-5.5a1.2,1.2,0,1,1,0-2.4,1.2,1.2,0,1,1,0,2.4Zm-1.18,20.35a1.2,1.2,0,1,1-1.2,1.2A1.2,1.2,0,0,1,1093.85,542.8Zm-1.48-6.33a1.2,1.2,0,0,1,0-2.4,1.2,1.2,0,1,1,0,2.4ZM1092,532a1.2,1.2,0,1,1,1.2-1.2A1.2,1.2,0,0,1,1092,532Zm-.11-4.85a1.2,1.2,0,1,1,1.2-1.2A1.2,1.2,0,0,1,1091.93,527.14Zm-1.76-5.07a1.2,1.2,0,1,1,1.2-1.2A1.2,1.2,0,0,1,1090.17,522.07Zm-2.1-3.72a1.2,1.2,0,1,1,1.2-1.2A1.2,1.2,0,0,1,1088.07,518.35Zm-1.06,5.11a1.2,1.2,0,1,1,0,2.4,1.2,1.2,0,1,1,0-2.4Zm-1.76-8.07a1.2,1.2,0,1,1,1.2-1.2A1.2,1.2,0,0,1,1085.25,515.39Zm-1.85,35.4a1.2,1.2,0,1,1,1.2-1.2A1.2,1.2,0,0,1,1083.4,550.79Zm1,7.57a1.2,1.2,0,1,1-1.2-1.2A1.2,1.2,0,0,1,1084.41,558.36Zm-.35-12.32a1.2,1.2,0,0,1,0-2.4,1.2,1.2,0,0,1,0,2.4Zm.66-13.14a1.2,1.2,0,1,1-1.2-1.2A1.2,1.2,0,0,1,1084.72,532.9Zm-.88-11a1.2,1.2,0,1,1,1.2-1.2A1.2,1.2,0,0,1,1083.84,521.91Zm.46-15.72a1.2,1.2,0,1,1,1.2-1.2A1.2,1.2,0,0,1,1084.3,506.19Zm-1.09,2.3a1.2,1.2,0,1,1-1.2,1.2A1.2,1.2,0,0,1,1083.21,508.49Zm0,17.35a1.2,1.2,0,1,1-1.2,1.2A1.2,1.2,0,0,1,1083.18,525.84Zm-.12,11.81a1.2,1.2,0,1,1-1.2,1.2A1.2,1.2,0,0,1,1083.06,537.65Zm-.37,25.64a1.2,1.2,0,0,1,0,2.4,1.2,1.2,0,0,1,0-2.4Zm-.23,6.54a1.2,1.2,0,1,1-1.2,1.2A1.2,1.2,0,0,1,1082.46,569.83Zm2.35,4.55a1.2,1.2,0,1,1-1.2,1.2A1.2,1.2,0,0,1,1084.81,574.38Zm1.37,10.92a1.2,1.2,0,1,1-1.2-1.2A1.2,1.2,0,0,1,1086.18,585.3Zm0,3.26a1.2,1.2,0,1,1-1.2,1.2A1.2,1.2,0,0,1,1086.13,588.56Zm-.12-18.85a1.2,1.2,0,1,1,1.2-1.2A1.2,1.2,0,0,1,1086,569.71Zm-1.61-16.56a1.2,1.2,0,1,1,1.2,1.2A1.2,1.2,0,0,1,1084.4,553.15Zm3.53,3.09a1.2,1.2,0,1,1-1.2,1.2A1.2,1.2,0,0,1,1087.93,556.24Zm2.11,8.86a1.2,1.2,0,1,1-1.2,1.2A1.2,1.2,0,0,1,1090,565.1Zm.8-4.39a1.2,1.2,0,1,1,1.2,1.2A1.2,1.2,0,0,1,1090.84,560.71Zm2.23,14a1.2,1.2,0,1,1-1.2,1.2A1.2,1.2,0,0,1,1093.07,574.74Zm.91,4.75a1.2,1.2,0,1,1-1.2,1.2A1.2,1.2,0,0,1,1094,579.49Zm.73-6.31a1.2,1.2,0,1,1,1.2-1.2A1.2,1.2,0,0,1,1094.71,573.18Zm1-8.79a1.2,1.2,0,1,1,1.2-1.2A1.2,1.2,0,0,1,1095.76,564.39Zm1.44,18.31a1.2,1.2,0,1,1-1.2,1.2A1.2,1.2,0,0,1,1097.2,582.7Zm1-4.09a1.2,1.2,0,1,1,1.2-1.2A1.2,1.2,0,0,1,1098.19,578.61Zm.62-6.07a1.2,1.2,0,1,1,1.2,1.2A1.2,1.2,0,0,1,1098.81,572.54Zm2.76,7.21a1.2,1.2,0,1,1-1.2,1.2A1.2,1.2,0,0,1,1101.57,579.75Zm1.09,4.35a1.2,1.2,0,1,1-1.2,1.2A1.2,1.2,0,0,1,1102.66,584.1Zm.92-6.44a1.2,1.2,0,1,1,1.2-1.2A1.2,1.2,0,0,1,1103.58,577.66Zm.21-6a1.2,1.2,0,0,1,2.4,0,1.2,1.2,0,1,1-2.4,0Zm3.15,8.51a1.2,1.2,0,1,1-1.2,1.2A1.2,1.2,0,0,1,1106.94,580.2Zm1.26,5.22a1.2,1.2,0,1,1-1.2,1.2A1.2,1.2,0,0,1,1108.2,585.42Zm.5-7.33a1.2,1.2,0,1,1,0-2.4,1.2,1.2,0,1,1,0,2.4Zm1.18-4.75a1.2,1.2,0,1,1,1.2,1.2A1.2,1.2,0,0,1,1109.88,573.34Zm1.53,7.78a1.2,1.2,0,1,1-1.2,1.2A1.2,1.2,0,0,1,1111.41,581.12Zm.46-12.13a1.2,1.2,0,1,1,1.2,1.2A1.2,1.2,0,0,1,1111.87,569Zm4.2,14.16a1.2,1.2,0,1,1,1.2-1.2A1.2,1.2,0,0,1,1116.07,583.15Zm.53-9.81a1.2,1.2,0,1,1,1.2-1.2A1.2,1.2,0,0,1,1116.6,573.34Zm3.36,2.13a1.2,1.2,0,1,1-1.2,1.2A1.2,1.2,0,0,1,1120,575.47Zm-.15-7.46a1.2,1.2,0,1,1,1.2-1.2A1.2,1.2,0,0,1,1119.81,568Zm0-4.06a1.2,1.2,0,1,1,1.2-1.2A1.2,1.2,0,0,1,1119.82,564Zm1.7-5.71a1.2,1.2,0,1,1-1.2-1.2A1.2,1.2,0,0,1,1121.52,558.24Zm-1.79-5.59a1.2,1.2,0,1,1-1.2,1.2A1.2,1.2,0,0,1,1119.73,552.65Zm-2.4-3.45a1.2,1.2,0,1,1-1.2,1.2A1.2,1.2,0,0,1,1117.33,549.2Zm-.53,9.91a1.2,1.2,0,1,1-1.2-1.2A1.2,1.2,0,0,1,1116.8,559.11Zm-1.66-25.3a1.2,1.2,0,1,1-1.2,1.2A1.2,1.2,0,0,1,1115.14,533.81Zm-2.06-4.61a1.2,1.2,0,1,1-1.2,1.2A1.2,1.2,0,0,1,1113.08,529.2Zm-2.33-4.62a1.2,1.2,0,1,1-1.2,1.2A1.2,1.2,0,0,1,1110.75,524.58Zm-2.35-4.31a1.2,1.2,0,1,1-1.2,1.2A1.2,1.2,0,0,1,1108.4,520.27Zm-.19,8.61a1.2,1.2,0,1,1-1.2,1.2A1.2,1.2,0,0,1,1108.21,528.88Zm-.64,10.43a1.2,1.2,0,1,1-1.2-1.2A1.2,1.2,0,0,1,1107.57,539.31Zm-2.41-24a1.2,1.2,0,1,1-1.2,1.2A1.2,1.2,0,0,1,1105.16,515.27Zm-.28,5.66a1.2,1.2,0,0,1-2.4,0,1.2,1.2,0,0,1,2.4,0Zm-2.71-9.54a1.2,1.2,0,1,1-1.2,1.2A1.2,1.2,0,0,1,1102.17,511.39ZM1101,523.44a1.2,1.2,0,1,1-1.2-1.2A1.2,1.2,0,0,1,1101,523.44Zm-1.63-4.25a1.2,1.2,0,0,1,0-2.4,1.2,1.2,0,1,1,0,2.4Zm-.22-12.13a1.2,1.2,0,1,1-1.2,1.2A1.2,1.2,0,0,1,1099.19,507.06Zm-1.81,5a1.2,1.2,0,1,1-1.2,1.2A1.2,1.2,0,0,1,1097.38,512Zm-2.21-9.2a1.2,1.2,0,1,1-1.2,1.2A1.2,1.2,0,0,1,1095.17,502.83Zm-1.12,4.68a1.2,1.2,0,1,1-1.2,1.2A1.2,1.2,0,0,1,1094.05,507.51Zm-.3,7.61a1.2,1.2,0,1,1-1.2,1.2A1.2,1.2,0,0,1,1093.75,515.12Zm-2.89-1.63a1.2,1.2,0,1,1,1.2-1.2A1.2,1.2,0,0,1,1090.86,513.49Zm-.07-15a1.2,1.2,0,1,1,0,2.4,1.2,1.2,0,0,1,0-2.4Zm-.76,4.43a1.2,1.2,0,1,1-1.2,1.2A1.2,1.2,0,0,1,1090,502.91Zm-.76,5.59a1.2,1.2,0,1,1-1.2-1.2A1.2,1.2,0,0,1,1089.27,508.5Zm-2.87-13.59a1.2,1.2,0,1,1-1.2,1.2A1.2,1.2,0,0,1,1086.4,494.91Zm-1.29,4.45a1.2,1.2,0,1,1-1.2,1.2A1.2,1.2,0,0,1,1085.11,499.36Zm-2.83-6.83a1.2,1.2,0,1,1-1.2,1.2A1.2,1.2,0,0,1,1082.28,492.53Zm-.53,6.47a1.2,1.2,0,1,1-1.2-1.2A1.2,1.2,0,0,1,1081.75,499Zm-2.87-9.36a1.2,1.2,0,1,1-1.2,1.2A1.2,1.2,0,0,1,1078.88,489.64Zm-.89,8a1.2,1.2,0,1,1-2.4,0,1.2,1.2,0,1,1,2.4,0Zm-3.08-2.88a1.2,1.2,0,1,1,1.2-1.2A1.2,1.2,0,0,1,1074.91,494.74Zm-.32-7.92a1.2,1.2,0,1,1-1.2,1.2A1.2,1.2,0,0,1,1074.59,486.82Zm-1.39,12.81a1.2,1.2,0,1,1-1.2-1.2A1.2,1.2,0,0,1,1073.2,499.63Zm-2.89-3.72a1.2,1.2,0,1,1,1.2-1.2A1.2,1.2,0,0,1,1070.31,495.91Zm1.07-6.19a1.2,1.2,0,0,1-2.4,0,1.2,1.2,0,0,1,2.4,0Zm-1.84-6.06a1.2,1.2,0,1,1-1.2,1.2A1.2,1.2,0,0,1,1069.54,483.66Zm-1.15,14.59a1.2,1.2,0,1,1-1.2-1.2A1.2,1.2,0,0,1,1068.39,498.25Zm-1.64-5.58a1.2,1.2,0,1,1-1.2-1.2A1.2,1.2,0,0,1,1066.75,492.67Zm-.63-4.91a1.2,1.2,0,1,1-1.2-1.2A1.2,1.2,0,0,1,1066.12,487.76Zm-1.9-6.07a1.2,1.2,0,1,1,0,2.4,1.2,1.2,0,0,1,0-2.4Zm-.34,18.34a1.2,1.2,0,0,1-2.4,0,1.2,1.2,0,0,1,2.4,0Zm-1.29-4.14a1.2,1.2,0,1,1-1.2-1.2A1.2,1.2,0,0,1,1062.59,495.89Zm-2.25-3.4a1.2,1.2,0,1,1,1.2-1.2A1.2,1.2,0,0,1,1060.34,492.49Zm.92-6.37a1.2,1.2,0,1,1-1.2-1.2A1.2,1.2,0,0,1,1061.26,486.12Zm-2.08-6.3a1.2,1.2,0,1,1-1.2,1.2A1.2,1.2,0,0,1,1059.18,479.82Zm-.9,20.89a1.2,1.2,0,1,1-2.4,0,1.2,1.2,0,0,1,2.4,0Zm-.49-5.62a1.2,1.2,0,1,1-1.2-1.2A1.2,1.2,0,0,1,1057.79,495.09Zm-.6-6.9a1.2,1.2,0,1,1-1.2-1.2A1.2,1.2,0,0,1,1057.19,488.19Zm-1.62-4.75a1.2,1.2,0,1,1-1.2-1.2A1.2,1.2,0,0,1,1055.57,483.44Zm-2-5.58a1.2,1.2,0,1,1-1.2,1.2A1.2,1.2,0,0,1,1053.62,477.86Zm-.56,12.73a1.2,1.2,0,1,1,0,2.4,1.2,1.2,0,0,1,0-2.4Zm-.18,6.31a1.2,1.2,0,1,1,0,2.4,1.2,1.2,0,0,1,0-2.4Zm-1.24-10a1.2,1.2,0,1,1-1.2-1.2A1.2,1.2,0,0,1,1051.64,486.92Zm-1.91-4.27a1.2,1.2,0,1,1-1.2-1.2A1.2,1.2,0,0,1,1049.73,482.65Zm-1.84-6.16a1.2,1.2,0,1,1-1.2,1.2A1.2,1.2,0,0,1,1047.89,476.49Zm-2,11.43a1.2,1.2,0,1,1-1.2,1.2A1.2,1.2,0,0,1,1045.91,487.92Zm-2.11-8.21a1.2,1.2,0,1,1-1.2,1.2A1.2,1.2,0,0,1,1043.8,479.71Zm-2.35-4.41a1.2,1.2,0,1,1-1.2,1.2A1.2,1.2,0,0,1,1041.45,475.3Zm-3,3.57a1.2,1.2,0,1,1-1.2,1.2A1.2,1.2,0,0,1,1038.41,478.87Zm-1,4.46a1.2,1.2,0,1,1-1.2,1.2A1.2,1.2,0,0,1,1037.38,483.33ZM1035,475.2a1.2,1.2,0,1,1-1.2,1.2A1.2,1.2,0,0,1,1035,475.2Zm-1.79,4.92a1.2,1.2,0,1,1-1.2,1.2A1.2,1.2,0,0,1,1033.24,480.12Zm-1,5.13a1.2,1.2,0,1,1-1.2,1.2A1.2,1.2,0,0,1,1032.21,485.25Zm-2.54-10a1.2,1.2,0,1,1-1.2,1.2A1.2,1.2,0,0,1,1029.67,475.29Zm-1.34,4.54a1.2,1.2,0,1,1-1.2,1.2A1.2,1.2,0,0,1,1028.33,479.83Zm-1.31,4.42a1.2,1.2,0,1,1-1.2,1.2A1.2,1.2,0,0,1,1027,484.25Zm-.5,4a1.2,1.2,0,1,1-1.2,1.2A1.2,1.2,0,0,1,1026.52,488.24Zm-2.08-12.43a1.2,1.2,0,1,1-1.2,1.2A1.2,1.2,0,0,1,1024.44,475.81ZM1023,480.9a1.2,1.2,0,1,1-1.2,1.2A1.2,1.2,0,0,1,1023,480.9Zm-1.42,6.11a1.2,1.2,0,1,1-1.2,1.2A1.2,1.2,0,0,1,1021.61,487Zm-2.06-11.8a1.2,1.2,0,1,1,0,2.4,1.2,1.2,0,1,1,0-2.4Zm-1.86,3.76a1.2,1.2,0,1,1-1.2,1.2A1.2,1.2,0,0,1,1017.69,479Zm-.25,17.28a1.2,1.2,0,1,1-1.2,1.2A1.2,1.2,0,0,1,1017.44,496.25Zm-1.76-8.71a1.2,1.2,0,1,1-2.4,0,1.2,1.2,0,1,1,2.4,0Zm-2.33-4.28a1.2,1.2,0,1,1,1.2-1.2A1.2,1.2,0,0,1,1013.35,483.26Zm-.14-7.36a1.2,1.2,0,0,1,0,2.4,1.2,1.2,0,0,1,0-2.4Zm-.46,21a1.2,1.2,0,1,1-1.2,1.2A1.2,1.2,0,0,1,1012.75,496.91Zm-.3,17.65a1.2,1.2,0,0,1,0,2.4,1.2,1.2,0,0,1,0-2.4Zm-1.35-12.17a1.2,1.2,0,1,1-1.2-1.2A1.2,1.2,0,0,1,1011.1,502.39Zm-.46-18.52a1.2,1.2,0,1,1-1.2-1.2A1.2,1.2,0,0,1,1010.64,483.87Zm-2.41-6.52a1.2,1.2,0,1,1-1.2,1.2A1.2,1.2,0,0,1,1008.23,477.35Zm-.38,21.76a1.2,1.2,0,1,1-1.2-1.2A1.2,1.2,0,0,1,1007.85,499.11Zm-1.32-13.69a1.2,1.2,0,1,1-1.2-1.2A1.2,1.2,0,0,1,1006.53,485.42Zm-2.88-6.95a1.2,1.2,0,1,1-1.2,1.2A1.2,1.2,0,0,1,1003.65,478.47Zm-.17,16.76a1.2,1.2,0,1,1-1.2-1.2A1.2,1.2,0,0,1,1003.48,495.23ZM1001,483a1.2,1.2,0,1,1-1.2,1.2A1.2,1.2,0,0,1,1001,483Zm-.49,5.27a1.2,1.2,0,1,1-1.2,1.2A1.2,1.2,0,0,1,1000.48,488.25Zm-2.35-8.6a1.2,1.2,0,1,1-1.2,1.2A1.2,1.2,0,0,1,998.13,479.65Zm-1.78,6.25a1.2,1.2,0,1,1-1.2,1.2A1.2,1.2,0,0,1,996.35,485.9Zm-1.58,25.81a1.2,1.2,0,1,1-1.2-1.2A1.2,1.2,0,0,1,994.77,511.71Zm-1.61-29.83a1.2,1.2,0,1,1-1.2,1.2A1.2,1.2,0,0,1,993.16,481.88Zm-.78,5.5a1.2,1.2,0,1,1,0,2.4,1.2,1.2,0,0,1,0-2.4Zm-1.91,10a1.2,1.2,0,1,1-1.2,1.2A1.2,1.2,0,0,1,990.47,497.38Zm-.89-7.56a1.2,1.2,0,1,1-2.4,0,1.2,1.2,0,0,1,2.4,0Zm-2-6.07a1.2,1.2,0,1,1-1.2,1.2A1.2,1.2,0,0,1,987.56,483.75Zm0,9.95a1.2,1.2,0,1,1-1.2,1.2A1.2,1.2,0,0,1,987.54,493.7Zm0,8.56a1.2,1.2,0,1,1-1.2,1.2A1.2,1.2,0,0,1,987.51,502.26Zm-1.73-3.55a1.2,1.2,0,1,1-1.2-1.2A1.2,1.2,0,0,1,985.78,498.71Zm-1.66-8.65a1.2,1.2,0,1,1-1.2,1.2A1.2,1.2,0,0,1,984.12,490.06Zm-2.89-2.69a1.2,1.2,0,1,1-1.2,1.2A1.2,1.2,0,0,1,981.23,487.37Zm-.27,6.27a1.2,1.2,0,1,1-1.2,1.2A1.2,1.2,0,0,1,981,493.64Zm-1.11,8.8a1.2,1.2,0,0,1-2.4,0,1.2,1.2,0,0,1,2.4,0Zm-.47-4.39a1.2,1.2,0,1,1-1.2-1.2A1.2,1.2,0,0,1,979.38,498.05Zm-3-7a1.2,1.2,0,1,1-1.2,1.2A1.2,1.2,0,0,1,976.35,491.06Zm-1.5,9.71a1.2,1.2,0,1,1-1.2-1.2A1.2,1.2,0,0,1,974.85,500.77ZM973,494.31a1.2,1.2,0,1,1,0,2.4,1.2,1.2,0,1,1,0-2.4Zm-.46,11.09a1.2,1.2,0,1,1-1.2,1.2A1.2,1.2,0,0,1,972.57,505.4Zm-1.86-2.25a1.2,1.2,0,1,1-1.2-1.2A1.2,1.2,0,0,1,970.71,503.15Zm-2.06-6.36a1.2,1.2,0,1,1-1.2,1.2A1.2,1.2,0,0,1,968.65,496.79Zm-.34,11.94a1.2,1.2,0,1,1-1.2,1.2A1.2,1.2,0,0,1,968.31,508.73Zm-.45,4.4a1.2,1.2,0,1,1-1.2,1.2A1.2,1.2,0,0,1,967.86,513.13Zm-1.31-6.24a1.2,1.2,0,1,1-1.2-1.2A1.2,1.2,0,0,1,966.55,506.89ZM964.43,501a1.2,1.2,0,1,1-1.2,1.2A1.2,1.2,0,0,1,964.43,501Zm-1.69,10a1.2,1.2,0,0,1,0,2.4,1.2,1.2,0,0,1,0-2.4Zm-2.17-5.73a1.2,1.2,0,0,1,0,2.4,1.2,1.2,0,0,1,0-2.4Zm-2.67,3.51a1.2,1.2,0,1,1,0,2.4,1.2,1.2,0,1,1,0-2.4ZM956.58,519a1.2,1.2,0,1,1-1.2-1.2A1.2,1.2,0,0,1,956.58,519Zm-1.66-6.81a1.2,1.2,0,0,1,0,2.4,1.2,1.2,0,0,1,0-2.4Zm-1.35,13.37a1.2,1.2,0,1,1-1.2-1.2A1.2,1.2,0,0,1,953.57,525.51Zm-2.07-9.27a1.2,1.2,0,1,1-1.2,1.2A1.2,1.2,0,0,1,951.5,516.24Zm-2.2,4.6a1.2,1.2,0,1,1-1.2,1.2A1.2,1.2,0,0,1,949.3,520.84Zm-2.54,4.21a1.2,1.2,0,1,1-1.2,1.2A1.2,1.2,0,0,1,946.76,525.05Zm-2.2,4.24a1.2,1.2,0,1,1-1.2,1.2A1.2,1.2,0,0,1,944.56,529.29Zm0,4a1.2,1.2,0,1,1-1.2,1.2A1.2,1.2,0,0,1,944.56,533.32ZM942.9,545.8a1.2,1.2,0,1,1-1.2,1.2A1.2,1.2,0,0,1,942.9,545.8Zm-.25,5.39a1.2,1.2,0,1,1-1.2,1.2A1.2,1.2,0,0,1,942.65,551.19Zm-2,12.87a1.2,1.2,0,0,1,0,2.4,1.2,1.2,0,0,1,0-2.4Zm-1.84,11.19a1.2,1.2,0,1,1,1.2,1.2A1.2,1.2,0,0,1,938.85,575.25ZM940,589.12a1.2,1.2,0,1,1,1.2-1.2A1.2,1.2,0,0,1,940,589.12Zm1.38-6.45a1.2,1.2,0,1,1,1.2-1.2A1.2,1.2,0,0,1,941.35,582.67Zm.1-10.95a1.2,1.2,0,1,1,1.2-1.2A1.2,1.2,0,0,1,941.45,571.72Zm.43-13a1.2,1.2,0,0,1,0-2.4,1.2,1.2,0,1,1,0,2.4Zm1,18.41a1.2,1.2,0,1,1,1.2,1.2A1.2,1.2,0,0,1,942.86,577.11Zm1.74,8.3a1.2,1.2,0,1,1-1.2,1.2A1.2,1.2,0,0,1,944.6,585.41Zm-1,6.6a1.2,1.2,0,1,1,1.2,1.2A1.2,1.2,0,0,1,943.56,592Zm2.14,6.7a1.2,1.2,0,1,1,1.2-1.2A1.2,1.2,0,0,1,945.7,598.71Zm.84-14.89a1.2,1.2,0,1,1,0-2.4,1.2,1.2,0,0,1,0,2.4Zm.31-9.24a1.2,1.2,0,1,1,1.2,1.2A1.2,1.2,0,0,1,946.85,574.58Zm1.23,18.84a1.2,1.2,0,1,1,1.2,1.2A1.2,1.2,0,0,1,948.08,593.42Zm1.95,7.23a1.2,1.2,0,1,1,1.2-1.2A1.2,1.2,0,0,1,950,600.65Zm.79-16.12a1.2,1.2,0,1,1,1.2,1.2A1.2,1.2,0,0,1,950.82,584.53Zm2.59,12.54a1.2,1.2,0,1,1,1.2-1.2A1.2,1.2,0,0,1,953.41,597.07Zm.66-4.91a1.2,1.2,0,1,1,1.2-1.2A1.2,1.2,0,0,1,954.07,592.16Zm2.41,8.36a1.2,1.2,0,1,1,1.2-1.2A1.2,1.2,0,0,1,956.48,600.52Zm2-5.6a1.2,1.2,0,1,1,1.2-1.2A1.2,1.2,0,0,1,958.49,594.92Zm.59-15.09a1.2,1.2,0,1,1,1.2,1.2A1.2,1.2,0,0,1,959.08,579.83ZM962.67,601h-2.33a.75.75,0,0,1,0-.16,1.2,1.2,0,0,1,2.4,0A.76.76,0,0,1,962.67,601Zm-.52-3.38a1.2,1.2,0,1,1,1.2-1.2A1.2,1.2,0,0,1,962.15,597.62Zm1.92-4.6a1.2,1.2,0,1,1,1.2,1.2A1.2,1.2,0,0,1,964.07,593Zm2.6,7.09a1.2,1.2,0,1,1,1.2-1.2A1.2,1.2,0,0,1,966.67,600.11Zm.83-11.05a1.2,1.2,0,1,1,1.2-1.2A1.2,1.2,0,0,1,967.5,589.06Zm.92,4.16a1.2,1.2,0,1,1,1.2,1.2A1.2,1.2,0,0,1,968.42,593.22Zm2.57,7.14a1.2,1.2,0,1,1,1.2-1.2A1.2,1.2,0,0,1,971,600.36Zm1.84-5.12a1.2,1.2,0,1,1,1.2,1.2A1.2,1.2,0,0,1,972.83,595.24Zm4.26,5.76h-2.26a1,1,0,0,1-.07-.34,1.2,1.2,0,0,1,2.4,0A1.28,1.28,0,0,1,977.09,601Zm-.74-9.34a1.2,1.2,0,1,1,1.2,1.2A1.2,1.2,0,0,1,976.35,591.66Zm2.8,6.28a1.2,1.2,0,1,1,1.2-1.2A1.2,1.2,0,0,1,979.15,597.94Zm3.41,3.06h-2.17a1.18,1.18,0,0,1-.11-.5,1.2,1.2,0,1,1,2.4,0A1.19,1.19,0,0,1,982.56,601Zm-.26-8a1.2,1.2,0,1,1,1.2-1.2A1.2,1.2,0,0,1,982.3,593Zm2.64,3.24a1.2,1.2,0,1,1,1.2-1.2A1.2,1.2,0,0,1,984.94,596.26Zm2.15,3.41a1.2,1.2,0,1,1,1.2-1.2A1.2,1.2,0,0,1,987.09,599.67Zm1.21-8a1.2,1.2,0,0,1,0-2.4,1.2,1.2,0,0,1,0,2.4Zm1-17.32a1.2,1.2,0,1,1,1.2,1.2A1.2,1.2,0,0,1,989.32,574.33Zm.74,19.57a1.2,1.2,0,0,1,2.4,0,1.2,1.2,0,0,1-2.4,0Zm1.85,6a1.2,1.2,0,1,1,1.2-1.2A1.2,1.2,0,0,1,991.91,599.88Zm2.57-32.42a1.2,1.2,0,1,1-1.2,1.2A1.2,1.2,0,0,1,994.48,567.46Zm-1.13,6.3a1.2,1.2,0,1,1,1.2,1.2A1.2,1.2,0,0,1,993.35,573.76Zm3,9.91a1.2,1.2,0,0,1-2.4,0,1.2,1.2,0,0,1,2.4,0ZM994,589.41a1.2,1.2,0,1,1,1.2,1.2A1.2,1.2,0,0,1,994,589.41ZM996.9,601h-1.55a1.16,1.16,0,0,1-.42-.9,1.2,1.2,0,0,1,2.4,0A1.16,1.16,0,0,1,996.9,601Zm-.67-5.42a1.2,1.2,0,1,1,1.2-1.2A1.2,1.2,0,0,1,996.23,595.58Zm.59-15.38a1.2,1.2,0,0,1,0-2.4,1.2,1.2,0,0,1,0,2.4Zm1.15,5.08a1.2,1.2,0,1,1,1.2,1.2A1.2,1.2,0,0,1,998,585.28Zm.79,5.92a1.2,1.2,0,1,1,1.2,1.2A1.2,1.2,0,0,1,998.76,591.2Zm.79,5.56a1.2,1.2,0,1,1,1.2,1.2A1.2,1.2,0,0,1,999.55,596.76ZM1000,601a1.18,1.18,0,0,1,1-.6,1.19,1.19,0,0,1,1,.6Zm2-13.65a1.2,1.2,0,1,1,1.2,1.2A1.2,1.2,0,0,1,1002.05,587.35Zm1.23,5.72a1.2,1.2,0,1,1,1.2,1.2A1.2,1.2,0,0,1,1003.28,593.07Zm2.32,6.5a1.2,1.2,0,1,1,1.2-1.2A1.2,1.2,0,0,1,1005.6,599.57ZM1006,586a1.2,1.2,0,1,1,1.2,1.2A1.2,1.2,0,0,1,1006,586Zm1.37,5.27a1.2,1.2,0,1,1,1.2,1.2A1.2,1.2,0,0,1,1007.41,591.29Zm1,9.71a1.14,1.14,0,0,1,.49-.11,1.22,1.22,0,0,1,.5.11Zm1.58-3.83a1.2,1.2,0,1,1,1.2-1.2A1.2,1.2,0,0,1,1010,597.17Zm1.5-8.1a1.2,1.2,0,1,1,1.2,1.2A1.2,1.2,0,0,1,1011.49,589.07Zm1.82,11.85a1.2,1.2,0,1,1,1.2-1.2A1.2,1.2,0,0,1,1013.31,600.92Zm1.34-5.2a1.2,1.2,0,1,1,1.2-1.2A1.2,1.2,0,0,1,1014.65,595.72Zm1.33-6a1.2,1.2,0,1,1,1.2,1.2A1.2,1.2,0,0,1,1016,589.7Zm2.35,11a1.2,1.2,0,1,1,1.2-1.2A1.2,1.2,0,0,1,1018.33,600.75Zm1.17-5.09a1.2,1.2,0,0,1,0-2.4,1.2,1.2,0,0,1,0,2.4Zm1-8.48a1.2,1.2,0,0,1,0-2.4,1.2,1.2,0,0,1,0,2.4Zm1.3,4.35a1.2,1.2,0,1,1,1.2,1.2A1.2,1.2,0,0,1,1021.78,591.53Zm1.69,7.05a1.2,1.2,0,0,1,0-2.4,1.2,1.2,0,1,1,0,2.4Zm1.33-10.83a1.2,1.2,0,1,1,1.2-1.2A1.2,1.2,0,0,1,1024.8,587.75Zm3.29,13.25h-2.24a1.1,1.1,0,0,1-.08-.4,1.2,1.2,0,0,1,2.4,0A1.35,1.35,0,0,1,1028.09,601Zm-.35-4.42a1.2,1.2,0,1,1,1.2-1.2A1.2,1.2,0,0,1,1027.74,596.58ZM1028,591a1.2,1.2,0,1,1,1.2-1.2A1.2,1.2,0,0,1,1028,591Zm2.44-13.84a1.2,1.2,0,1,1-1.2,1.2A1.2,1.2,0,0,1,1030.39,577.12Zm-1.09,7.31a1.2,1.2,0,1,1,1.2,1.2A1.2,1.2,0,0,1,1029.3,584.43Zm1.26,7.18a1.2,1.2,0,1,1,1.2,1.2A1.2,1.2,0,0,1,1030.56,591.61Zm2.83,9.39h-2.29a1.26,1.26,0,0,1,0-.28,1.2,1.2,0,1,1,2.4,0A.88.88,0,0,1,1033.39,601Zm-.71-3.64a1.2,1.2,0,1,1,1.2-1.2A1.2,1.2,0,0,1,1032.68,597.36Zm1.77-8.22a1.2,1.2,0,1,1,1.2-1.2A1.2,1.2,0,0,1,1034.45,589.14ZM1035,584a1.2,1.2,0,0,1,0-2.4,1.2,1.2,0,0,1,0,2.4Zm2.07,8.74a1.2,1.2,0,1,1,0,2.4,1.2,1.2,0,0,1,0-2.4Zm0,7.72a1.2,1.2,0,1,1,1.2-1.2A1.2,1.2,0,0,1,1037.12,600.41Zm2.08-9.68a1.2,1.2,0,1,1,1.2-1.2A1.2,1.2,0,0,1,1039.2,590.73Zm2.67,10.1a1.2,1.2,0,1,1,1.2-1.2A1.2,1.2,0,0,1,1041.87,600.83Zm.91-4.25a1.2,1.2,0,1,1,1.2-1.2A1.2,1.2,0,0,1,1042.78,596.58Zm.74-4.08a1.2,1.2,0,1,1,1.2-1.2A1.2,1.2,0,0,1,1043.52,592.5Zm.59-6.35a1.2,1.2,0,1,1,1.2-1.2A1.2,1.2,0,0,1,1044.11,586.15Zm2.67,14.66a1.2,1.2,0,1,1,1.2-1.2A1.2,1.2,0,0,1,1046.78,600.81Zm1.92-5.11a1.2,1.2,0,1,1,1.2-1.2A1.2,1.2,0,0,1,1048.7,595.7Zm0-10.39a1.2,1.2,0,1,1,1.2-1.2A1.2,1.2,0,0,1,1048.74,585.31Zm.48-5.14a1.2,1.2,0,0,1,0-2.4,1.2,1.2,0,0,1,0,2.4Zm.44-5.16a1.2,1.2,0,1,1,1.2-1.2A1.2,1.2,0,0,1,1049.66,575Zm2.1,25.07a1.2,1.2,0,1,1,1.2-1.2A1.2,1.2,0,0,1,1051.76,600.08Zm.11-8.8a1.2,1.2,0,1,1,1.2-1.2A1.2,1.2,0,0,1,1051.87,591.28Zm2.5,4.64a1.2,1.2,0,1,1,1.2-1.2A1.2,1.2,0,0,1,1054.37,595.92Zm0-18.68a1.2,1.2,0,1,1,1.2-1.2A1.2,1.2,0,0,1,1054.41,577.24Zm2.43,23.7a1.2,1.2,0,1,1,1.2-1.2A1.2,1.2,0,0,1,1056.84,600.94Zm.09-9.87a1.2,1.2,0,1,1,1.2-1.2A1.2,1.2,0,0,1,1056.93,591.07Zm1.39,2.65a1.2,1.2,0,1,1,1.2,1.2A1.2,1.2,0,0,1,1058.32,593.72Zm3,5.63a1.2,1.2,0,1,1,0-2.4,1.2,1.2,0,1,1,0,2.4Zm.19-11.25a1.2,1.2,0,1,1,1.2,1.2A1.2,1.2,0,0,1,1061.49,588.1Zm1.72,12.9a1.06,1.06,0,0,1,1.21,0Zm0-8.57a1.2,1.2,0,1,1,1.2,1.2A1.2,1.2,0,0,1,1063.25,592.43Zm3,5.52a1.2,1.2,0,1,1,1.2-1.2A1.2,1.2,0,0,1,1066.23,598Zm1.15,3a1.2,1.2,0,0,1,2.22,0Zm3.42-4.31a1.2,1.2,0,1,1,1.2-1.2A1.2,1.2,0,0,1,1070.8,596.69Zm2.35,4.21a1.2,1.2,0,1,1,1.2-1.2A1.2,1.2,0,0,1,1073.15,600.9Zm.11-8.68a1.2,1.2,0,1,1,1.2-1.2A1.2,1.2,0,0,1,1073.26,592.22Zm.27-15.42a1.2,1.2,0,1,1,1.2,1.2A1.2,1.2,0,0,1,1073.53,576.8Zm1.7,17.94a1.2,1.2,0,1,1,1.2,1.2A1.2,1.2,0,0,1,1075.23,594.74Zm3.19,6a1.2,1.2,0,1,1,1.2-1.2A1.2,1.2,0,0,1,1078.42,600.7Zm1-16.47a1.2,1.2,0,1,1,1.2,1.2A1.2,1.2,0,0,1,1079.44,584.23Zm1.85,5.16a1.2,1.2,0,0,1,0,2.4,1.2,1.2,0,0,1,0-2.4Zm.16,7.16a1.2,1.2,0,1,1,1.2-1.2A1.2,1.2,0,0,1,1081.45,596.55Zm2.8-17.66a1.2,1.2,0,1,1-1.2,1.2A1.2,1.2,0,0,1,1084.25,578.89Zm.34,21.84a1.2,1.2,0,1,1,1.2-1.2A1.2,1.2,0,0,1,1084.59,600.73Zm1.93-4.59a1.2,1.2,0,1,1,1.2-1.2A1.2,1.2,0,0,1,1086.52,596.14Zm.37-32.48a1.2,1.2,0,1,1,1.2-1.2A1.2,1.2,0,0,1,1086.89,563.66Zm2.07,7.78a1.2,1.2,0,1,1-1.2,1.2A1.2,1.2,0,0,1,1089,571.44Zm-1.09,7.45a1.2,1.2,0,1,1,1.2,1.2A1.2,1.2,0,0,1,1087.87,578.89Zm.46,5.17a1.2,1.2,0,1,1,1.2,1.2A1.2,1.2,0,0,1,1088.33,584.06Zm1.12,6.39a1.2,1.2,0,1,1,1.2,1.2A1.2,1.2,0,0,1,1089.45,590.45Zm.37,5.26a1.2,1.2,0,1,1,1.2,1.2A1.2,1.2,0,0,1,1089.82,595.71Zm2.6,5.29h-2a1.16,1.16,0,0,1-.22-.66,1.2,1.2,0,0,1,2.4,0A1.17,1.17,0,0,1,1092.42,601Zm0-14a1.2,1.2,0,1,1,1.2,1.2A1.2,1.2,0,0,1,1092.42,587Zm1.87,5.84a1.2,1.2,0,1,1,1.2,1.2A1.2,1.2,0,0,1,1094.29,592.87Zm1.76,6.19a1.2,1.2,0,0,1,0-2.4,1.2,1.2,0,0,1,0,2.4Zm2.44-8.77a1.2,1.2,0,1,1,1.2-1.2A1.2,1.2,0,0,1,1098.49,590.29Zm2.18,9.28a1.2,1.2,0,1,1,1.2-1.2A1.2,1.2,0,0,1,1100.67,599.57Zm.32-4.65a1.2,1.2,0,1,1,1.2-1.2A1.2,1.2,0,0,1,1101,594.92Zm1.58-4.94a1.2,1.2,0,0,1,2.4,0,1.2,1.2,0,1,1-2.4,0Zm3.5,11h-2.2a1.29,1.29,0,0,1-.1-.48,1.2,1.2,0,0,1,2.4,0A1.29,1.29,0,0,1,1106.07,601Zm.27-3.86a1.2,1.2,0,1,1,1.2-1.2A1.2,1.2,0,0,1,1106.34,597.14Zm.8-5.56a1.2,1.2,0,1,1,1.2,1.2A1.2,1.2,0,0,1,1107.14,591.58Zm4.35,9.42h-2.28a1,1,0,0,1-.06-.3,1.2,1.2,0,0,1,2.4,0A1.45,1.45,0,0,1,1111.49,601Zm.44-3.77a1.2,1.2,0,1,1,1.2-1.2A1.2,1.2,0,0,1,1111.93,597.23Zm1.19-5a1.2,1.2,0,0,1,0-2.4,1.2,1.2,0,1,1,0,2.4Z"/><polygon class="cls-2" points="359.13 143.28 361.02 136.45 307.16 82.59 300.33 84.47 359.13 143.28"/><polygon class="cls-2" points="362.54 130.91 364.41 124.08 319.53 79.2 312.69 81.07 362.54 130.91"/><polygon class="cls-2" points="365.93 118.54 367.81 111.7 331.91 75.8 325.07 77.68 365.93 118.54"/><polygon class="cls-2" points="352.35 168.03 354.22 161.19 282.42 89.39 275.58 91.26 352.35 168.03"/><polygon class="cls-2" points="355.74 155.65 357.62 148.81 294.8 85.99 287.96 87.87 355.74 155.65"/><polygon class="cls-2" points="379.51 69.06 381.39 62.22 374.55 64.09 379.51 69.06"/><polygon class="cls-2" points="376.12 81.43 378 74.59 369.02 65.61 362.18 67.49 376.12 81.43"/><polygon class="cls-2" points="372.72 93.79 374.6 86.96 356.64 69.01 349.81 70.89 372.72 93.79"/><polygon class="cls-2" points="369.32 106.17 371.2 99.33 344.28 72.41 337.44 74.28 369.32 106.17"/><path class="cls-2" d="M121.58,298.66a2,2,0,1,0-2.81-.37A2,2,0,0,0,121.58,298.66Z"/><path class="cls-2" d="M97.76,351.38a2,2,0,1,0,2.81.36A2,2,0,0,0,97.76,351.38Z"/><path class="cls-2" d="M103.65,345.7a2,2,0,1,0-2.81-.36A2,2,0,0,0,103.65,345.7Z"/><path class="cls-2" d="M102,361.23a2,2,0,1,0,2.8.37A2,2,0,0,0,102,361.23Z"/><path class="cls-2" d="M94.78,359.86a2,2,0,1,0,2.8.36A2,2,0,0,0,94.78,359.86Z"/><path class="cls-2" d="M90.25,350.22a2,2,0,1,0,2.8.36A2,2,0,0,0,90.25,350.22Z"/><path class="cls-2" d="M110.41,342.48a2,2,0,1,0,2.81.36A2,2,0,0,0,110.41,342.48Z"/><path class="cls-2" d="M86.62,356.72a2,2,0,1,0,2.81.37A2,2,0,0,0,86.62,356.72Z"/><path class="cls-2" d="M115.72,334.29a2,2,0,1,0-.37,2.8A2,2,0,0,0,115.72,334.29Z"/><path class="cls-2" d="M108.31,349.84a2,2,0,1,0-.36,2.81A2,2,0,0,0,108.31,349.84Z"/><path class="cls-2" d="M110,362.71a2,2,0,1,0,2.81.36A2,2,0,0,0,110,362.71Z"/><path class="cls-2" d="M111.39,358.35a2,2,0,1,0-2.81-.37A2,2,0,0,0,111.39,358.35Z"/><path class="cls-2" d="M84,331.36a2,2,0,1,0-.36,2.81A2,2,0,0,0,84,331.36Z"/><path class="cls-2" d="M72.41,276.86a2,2,0,1,0,.36-2.81A2,2,0,0,0,72.41,276.86Z"/><path class="cls-2" d="M72.39,286.52a2,2,0,1,0,.36-2.8A2,2,0,0,0,72.39,286.52Z"/><path class="cls-2" d="M71.6,302.86a2,2,0,1,0,.36-2.8A2,2,0,0,0,71.6,302.86Z"/><path class="cls-2" d="M75.32,247.92a2,2,0,1,0,2.81.37A2,2,0,0,0,75.32,247.92Z"/><path class="cls-2" d="M76.61,259.8a2,2,0,1,0-2.81-.36A2,2,0,0,0,76.61,259.8Z"/><path class="cls-2" d="M76.93,333.57a2,2,0,1,0-.37,2.8A2,2,0,0,0,76.93,333.57Z"/><path class="cls-2" d="M78.56,351.75a2,2,0,1,0,2.81.37A2,2,0,0,0,78.56,351.75Z"/><path class="cls-2" d="M70.8,346.25a2,2,0,1,0,2.81.36A2,2,0,0,0,70.8,346.25Z"/><path class="cls-2" d="M119.12,349.62a2,2,0,1,0-2.81-.36A2,2,0,0,0,119.12,349.62Z"/><path class="cls-2" d="M86.86,346.19a2,2,0,1,0-.37,2.81A2,2,0,0,0,86.86,346.19Z"/><path class="cls-2" d="M80.23,344.58a2,2,0,1,0-2.81-.37A2,2,0,0,0,80.23,344.58Z"/><path class="cls-2" d="M149.23,339.4a2,2,0,0,0-.36,2.81,2,2,0,1,0,.36-2.81Z"/><path class="cls-2" d="M149.84,305.46a2,2,0,1,0-.36,2.81A2,2,0,0,0,149.84,305.46Z"/><path class="cls-2" d="M144.73,345.64a2,2,0,1,0,2.8.36A2,2,0,0,0,144.73,345.64Z"/><path class="cls-2" d="M139.8,339.79a2,2,0,1,0,2.8.37A2,2,0,0,0,139.8,339.79Z"/><path class="cls-2" d="M146.14,334.14a2,2,0,1,0-2.8-.37A2,2,0,0,0,146.14,334.14Z"/><path class="cls-2" d="M77.12,268.78a2,2,0,1,0-2.8-.36A2,2,0,0,0,77.12,268.78Z"/><path class="cls-2" d="M151.44,329.25a2,2,0,0,0-.36,2.81,2,2,0,1,0,.36-2.81Z"/><path class="cls-2" d="M137.78,349.7a2,2,0,1,0,2.8.36A2,2,0,0,0,137.78,349.7Z"/><path class="cls-2" d="M160.84,328.2a2,2,0,1,0,2.81.36A2,2,0,0,0,160.84,328.2Z"/><path class="cls-2" d="M160.28,316.47a2,2,0,1,0-.36,2.81A2,2,0,0,0,160.28,316.47Z"/><path class="cls-2" d="M155.87,335.5a2,2,0,1,0,2.8.37A2,2,0,0,0,155.87,335.5Z"/><path class="cls-2" d="M155.33,322.51a2,2,0,1,0-.36,2.81A2,2,0,0,0,155.33,322.51Z"/><path class="cls-2" d="M132.16,342.86a2,2,0,1,0,2.8.37A2,2,0,0,0,132.16,342.86Z"/><path class="cls-2" d="M127.82,350.09a2,2,0,1,0-2.81-.36A2,2,0,0,0,127.82,350.09Z"/><path class="cls-2" d="M121.1,330.06a2,2,0,1,0,2.8.37A2,2,0,0,0,121.1,330.06Z"/><path class="cls-2" d="M118.31,360.76a2,2,0,1,0,2.8.36A2,2,0,0,0,118.31,360.76Z"/><path class="cls-2" d="M165,291.45a2,2,0,1,0,2.81.36A2,2,0,0,0,165,291.45Z"/><path class="cls-2" d="M119.9,338.72a2,2,0,1,0,2.8.37A2,2,0,0,0,119.9,338.72Z"/><path class="cls-2" d="M127.34,336.8a2,2,0,1,0,2.81.36A2,2,0,0,0,127.34,336.8Z"/><path class="cls-2" d="M120.36,356.38a2,2,0,1,0-2.81-.36A2,2,0,0,0,120.36,356.38Z"/><path class="cls-2" d="M138,326.85a2,2,0,1,0-2.81-.36A2,2,0,0,0,138,326.85Z"/><path class="cls-2" d="M138.73,336.39a2,2,0,1,0-2.81-.37A2,2,0,0,0,138.73,336.39Z"/><path class="cls-2" d="M132.4,328.71a2,2,0,1,0-.37,2.8A2,2,0,0,0,132.4,328.71Z"/><path class="cls-2" d="M132,353.64a2,2,0,1,0,2.81.36A2,2,0,0,0,132,353.64Z"/><path class="cls-2" d="M125.8,357.12a2,2,0,1,0,2.8.36A2,2,0,0,0,125.8,357.12Z"/><path class="cls-2" d="M128.84,261.43a2,2,0,1,0,.37-2.8A2,2,0,0,0,128.84,261.43Z"/><path class="cls-2" d="M132.64,289.57a2,2,0,1,0-.36,2.81A2,2,0,0,0,132.64,289.57Z"/><path class="cls-2" d="M129.7,248.41a2,2,0,1,0,2.8.36A2,2,0,0,0,129.7,248.41Z"/><path class="cls-2" d="M131.69,310.24a2,2,0,1,0-2.81-.37A2,2,0,0,0,131.69,310.24Z"/><path class="cls-2" d="M129.8,319.93a2,2,0,1,0-2.8-.37A2,2,0,0,0,129.8,319.93Z"/><path class="cls-2" d="M128.08,276.72a2,2,0,1,0,.36-2.8A2,2,0,0,0,128.08,276.72Z"/><path class="cls-2" d="M118.89,234.52a2,2,0,1,0,2.8.36A2,2,0,0,0,118.89,234.52Z"/><path class="cls-2" d="M129.55,299.17a2,2,0,1,0-2.8-.37A2,2,0,0,0,129.55,299.17Z"/><path class="cls-2" d="M122.36,250.16a2,2,0,1,0,2.8.37A2,2,0,0,0,122.36,250.16Z"/><path class="cls-2" d="M115.47,241.78a2,2,0,1,0,2.81.37A2,2,0,0,0,115.47,241.78Z"/><path class="cls-2" d="M124.71,229.51a2,2,0,1,0,2.81.36A2,2,0,0,0,124.71,229.51Z"/><path class="cls-2" d="M124.05,244.23a2,2,0,1,0,.37-2.81A2,2,0,0,0,124.05,244.23Z"/><path class="cls-2" d="M129.48,285.36a2,2,0,1,0-2.8-.36A2,2,0,0,0,129.48,285.36Z"/><path class="cls-2" d="M113.59,314.42a2,2,0,1,0-2.8-.36A2,2,0,0,0,113.59,314.42Z"/><path class="cls-2" d="M112.16,278.19a2,2,0,1,0,.36-2.8A2,2,0,0,0,112.16,278.19Z"/><path class="cls-2" d="M113.88,256.19a2,2,0,1,0,2.8.37A2,2,0,0,0,113.88,256.19Z"/><path class="cls-2" d="M114.55,266a2,2,0,1,0,2.8.36A2,2,0,0,0,114.55,266Z"/><path class="cls-2" d="M109.84,285.48a2,2,0,1,0,2.81.36A2,2,0,0,0,109.84,285.48Z"/><path class="cls-2" d="M126.5,266.43a2,2,0,1,0-.37,2.81A2,2,0,0,0,126.5,266.43Z"/><path class="cls-2" d="M110.56,294.08a2,2,0,1,0,2.8.36A2,2,0,0,0,110.56,294.08Z"/><path class="cls-2" d="M117.65,321.72a2,2,0,1,0-2.81-.37A2,2,0,0,0,117.65,321.72Z"/><path class="cls-2" d="M122.86,314.72a2,2,0,1,0-2.8-.37A2,2,0,0,0,122.86,314.72Z"/><path class="cls-2" d="M115,329a2,2,0,1,0-2.8-.37A2,2,0,0,0,115,329Z"/><path class="cls-2" d="M106.29,272a2,2,0,1,0,.36-2.8A2,2,0,0,0,106.29,272Z"/><path class="cls-2" d="M83.62,232.48a2,2,0,1,0,2.81.36A2,2,0,0,0,83.62,232.48Z"/><path class="cls-2" d="M82.11,253.24a2,2,0,1,0,.36-2.8A2,2,0,0,0,82.11,253.24Z"/><path class="cls-2" d="M79.73,215.65a2,2,0,1,0,2.8.37A2,2,0,0,0,79.73,215.65Z"/><path class="cls-2" d="M87.14,267.26a2,2,0,1,0,.36-2.8A2,2,0,0,0,87.14,267.26Z"/><path class="cls-2" d="M84.9,240.25a2,2,0,1,0,2.8.36A2,2,0,0,0,84.9,240.25Z"/><path class="cls-2" d="M79.77,277.91a2,2,0,1,0,2.81.37A2,2,0,0,0,79.77,277.91Z"/><path class="cls-2" d="M73.11,324.91a2,2,0,1,0,2.8.36A2,2,0,0,0,73.11,324.91Z"/><path class="cls-2" d="M113.52,248.7a2,2,0,1,0,2.8.36A2,2,0,0,0,113.52,248.7Z"/><path class="cls-2" d="M75.89,292.57a2,2,0,1,0,2.8.36A2,2,0,0,0,75.89,292.57Z"/><path class="cls-2" d="M87.13,211.72a2,2,0,1,0,2.8.37A2,2,0,0,0,87.13,211.72Z"/><path class="cls-2" d="M81.38,262.19a2,2,0,1,0,.37-2.8A2,2,0,0,0,81.38,262.19Z"/><path class="cls-2" d="M77.42,317a2,2,0,1,0-.37,2.81A2,2,0,0,0,77.42,317Z"/><path class="cls-2" d="M107.7,260a2,2,0,1,0,2.8.37A2,2,0,0,0,107.7,260Z"/><path class="cls-2" d="M90.66,227.36a2,2,0,1,0,2.8.36A2,2,0,0,0,90.66,227.36Z"/><path class="cls-2" d="M110.88,233.65a2,2,0,1,0,2.8.37A2,2,0,0,0,110.88,233.65Z"/><path class="cls-2" d="M104.25,276.8a2,2,0,1,0,2.8.36A2,2,0,0,0,104.25,276.8Z"/><path class="cls-2" d="M107,226.25a2,2,0,1,0,2.8.37A2,2,0,0,0,107,226.25Z"/><path class="cls-2" d="M77.9,308a2,2,0,1,0-.36,2.8A2,2,0,0,0,77.9,308Z"/><path class="cls-2" d="M93,217.34a2,2,0,1,0,2.8.36A2,2,0,0,0,93,217.34Z"/><path class="cls-2" d="M94.17,260.38a2,2,0,1,0,2.8.36A2,2,0,0,0,94.17,260.38Z"/><path class="cls-2" d="M101.27,256.62a2,2,0,1,0,2.81.37A2,2,0,0,0,101.27,256.62Z"/><path class="cls-2" d="M97.29,252.13a2,2,0,1,0,.36-2.8A2,2,0,0,0,97.29,252.13Z"/><path class="cls-2" d="M125,325.43a2,2,0,1,0-2.8-.37A2,2,0,0,0,125,325.43Z"/><path class="cls-2" d="M57.44,232.93a2,2,0,1,0,.36-2.81A2,2,0,0,0,57.44,232.93Z"/><path class="cls-2" d="M53.46,203.27a2,2,0,1,0-2.8-.37A2,2,0,0,0,53.46,203.27Z"/><path class="cls-2" d="M54.46,195.2a2,2,0,1,0-2.81-.36A2,2,0,0,0,54.46,195.2Z"/><path class="cls-2" d="M54.46,223.26a2,2,0,1,0,2.8.37A2,2,0,0,0,54.46,223.26Z"/><path class="cls-2" d="M54.12,208.28a2,2,0,1,0,2.8.36A2,2,0,0,0,54.12,208.28Z"/><path class="cls-2" d="M53.31,218.8a2,2,0,1,0-2.81-.36A2,2,0,0,0,53.31,218.8Z"/><path class="cls-2" d="M52.92,235.32a2,2,0,1,0-2.8-.36A2,2,0,0,0,52.92,235.32Z"/><path class="cls-2" d="M45.89,201.35a2,2,0,1,0-2.81-.36A2,2,0,0,0,45.89,201.35Z"/><path class="cls-2" d="M45,207a2,2,0,0,0-.36,2.81A2,2,0,1,0,45,207Z"/><path class="cls-2" d="M46.4,240.53a2,2,0,1,0,2.8.36A2,2,0,0,0,46.4,240.53Z"/><path class="cls-2" d="M45.36,223.3a2,2,0,1,0,2.81.36A2,2,0,0,0,45.36,223.3Z"/><path class="cls-2" d="M74.27,206.8a2,2,0,1,0-2.81-.36A2,2,0,0,0,74.27,206.8Z"/><path class="cls-2" d="M73.22,194.19a2,2,0,1,0,2.81.37A2,2,0,0,0,73.22,194.19Z"/><path class="cls-2" d="M76.79,242.28a2,2,0,1,0,.36-2.8A2,2,0,0,0,76.79,242.28Z"/><path class="cls-2" d="M61.62,219.39a2,2,0,1,0-2.81-.37A2,2,0,0,0,61.62,219.39Z"/><path class="cls-2" d="M81.1,229.6a2,2,0,1,0-2.8-.37A2,2,0,0,0,81.1,229.6Z"/><path class="cls-2" d="M74.4,190a2,2,0,0,0,.36-2.81A2,2,0,1,0,74.4,190Z"/><path class="cls-2" d="M81.28,209.36a2,2,0,1,0-2.81-.36A2,2,0,0,0,81.28,209.36Z"/><path class="cls-2" d="M45.28,218a2,2,0,1,0-2.8-.36A2,2,0,0,0,45.28,218Z"/><path class="cls-2" d="M61.65,197a2,2,0,1,0-2.81-.37A2,2,0,0,0,61.65,197Z"/><path class="cls-2" d="M65.9,191.15a2,2,0,1,0-2.81-.37A2,2,0,0,0,65.9,191.15Z"/><path class="cls-2" d="M66.17,200.69a2,2,0,1,0,.37-2.8A2,2,0,0,0,66.17,200.69Z"/><path class="cls-2" d="M68.69,244.08a2,2,0,1,0,.36-2.81A2,2,0,0,0,68.69,244.08Z"/><path class="cls-2" d="M28.21,232a2,2,0,1,0-2.81-.36A2,2,0,0,0,28.21,232Z"/><path class="cls-2" d="M18.05,236.55a2,2,0,1,0-2.81-.37A2,2,0,0,0,18.05,236.55Z"/><path class="cls-2" d="M13.05,265.49a2,2,0,1,0,.37-2.8A2,2,0,0,0,13.05,265.49Z"/><path class="cls-2" d="M10.84,252.1a2,2,0,1,0,2.8.36A2,2,0,0,0,10.84,252.1Z"/><path class="cls-2" d="M22.44,222.85a2,2,0,1,0-2.81-.37A2,2,0,0,0,22.44,222.85Z"/><path class="cls-2" d="M19.78,229.51a2,2,0,1,0-2.81-.36A2,2,0,0,0,19.78,229.51Z"/><path class="cls-2" d="M3.72,254.94a2,2,0,0,0-2.44-3.17,2,2,0,0,0,2.44,3.17Z"/><path class="cls-2" d="M.18,266.17A1.62,1.62,0,0,0,0,266v2.82A2,2,0,0,0,.18,266.17Z"/><path class="cls-2" d="M22.1,239.93a2,2,0,1,0,.37-2.81A2,2,0,0,0,22.1,239.93Z"/><path class="cls-2" d="M41.27,250.12a2,2,0,1,0,.36-2.81A2,2,0,0,0,41.27,250.12Z"/><path class="cls-2" d="M12.34,225a2,2,0,1,0-2.81-.36A2,2,0,0,0,12.34,225Z"/><path class="cls-2" d="M9.14,232.18a2,2,0,1,0-2.8-.36A2,2,0,0,0,9.14,232.18Z"/><path class="cls-2" d="M4.19,240.84a2,2,0,1,0-2.81-.36A2,2,0,0,0,4.19,240.84Z"/><path class="cls-2" d="M37.16,233.22a2,2,0,1,0-2.81-.36A2,2,0,0,0,37.16,233.22Z"/><path class="cls-2" d="M39,208.83a2,2,0,1,0-2.8-.36A2,2,0,0,0,39,208.83Z"/><path class="cls-2" d="M37.25,216.34a2,2,0,1,0-2.8-.37A2,2,0,0,0,37.25,216.34Z"/><path class="cls-2" d="M38.29,238.83a2,2,0,1,0,2.8.36A2,2,0,0,0,38.29,238.83Z"/><path class="cls-2" d="M37.17,222.3a2,2,0,1,0,2.8.36A2,2,0,0,0,37.17,222.3Z"/><path class="cls-2" d="M82.91,199.56a2,2,0,1,0-2.8-.37A2,2,0,0,0,82.91,199.56Z"/><path class="cls-2" d="M29.31,221.62a2,2,0,1,0,2.8.37A2,2,0,0,0,29.31,221.62Z"/><path class="cls-2" d="M33.58,250.17a2,2,0,1,0,.36-2.81A2,2,0,0,0,33.58,250.17Z"/><path class="cls-2" d="M29.71,216.94a2,2,0,1,0-2.81-.37A2,2,0,0,0,29.71,216.94Z"/><path class="cls-2" d="M30.67,236.94a2,2,0,1,0,2.8.36A2,2,0,0,0,30.67,236.94Z"/><path class="cls-2" d="M129.61,237.27a2,2,0,1,0,.36-2.81A2,2,0,0,0,129.61,237.27Z"/><path class="cls-2" d="M156.4,250.64a2,2,0,1,0-2.81-.36A2,2,0,0,0,156.4,250.64Z"/><path class="cls-2" d="M154.65,257.89a2,2,0,1,0-2.81-.36A2,2,0,0,0,154.65,257.89Z"/><path class="cls-2" d="M156.85,266.36a2,2,0,1,0,.37-2.8A2,2,0,0,0,156.85,266.36Z"/><path class="cls-2" d="M148.28,262.55a2,2,0,1,0,2.81.37A2,2,0,0,0,148.28,262.55Z"/><path class="cls-2" d="M83.25,191a2,2,0,1,0-2.81-.36A2,2,0,0,0,83.25,191Z"/><path class="cls-2" d="M139.94,235.11a2,2,0,1,0,2.81.36A2,2,0,0,0,139.94,235.11Z"/><path class="cls-2" d="M149.06,241.7a2,2,0,0,0,.36-2.81,2,2,0,1,0-.36,2.81Z"/><path class="cls-2" d="M162.13,275a2,2,0,1,0,2.81.36A2,2,0,0,0,162.13,275Z"/><path class="cls-2" d="M140.54,231.48a2,2,0,1,0-2.8-.36A2,2,0,0,0,140.54,231.48Z"/><path class="cls-2" d="M148.35,249.46a2,2,0,1,0-2.81-.36A2,2,0,0,0,148.35,249.46Z"/><path class="cls-2" d="M143.27,258.24a2,2,0,1,0,.36-2.81A2,2,0,0,0,143.27,258.24Z"/><path class="cls-2" d="M164.51,322a2,2,0,1,0,2.81.37A2,2,0,0,0,164.51,322Z"/><path class="cls-2" d="M169.39,316.11a2,2,0,1,0,2.8.36A2,2,0,0,0,169.39,316.11Z"/><path class="cls-2" d="M168.25,271.28a2,2,0,1,0-2.81-.36A2,2,0,0,0,168.25,271.28Z"/><path class="cls-2" d="M162.45,310.78a2,2,0,1,0,2.81.36A2,2,0,0,0,162.45,310.78Z"/><path class="cls-2" d="M162,303.74a2,2,0,1,0,2.81.36A2,2,0,0,0,162,303.74Z"/><path class="cls-2" d="M164.47,283.41a2,2,0,1,0,2.81.36A2,2,0,0,0,164.47,283.41Z"/><path class="cls-2" d="M134.35,241.24a2,2,0,1,0,2.8.37A2,2,0,0,0,134.35,241.24Z"/><path class="cls-2" d="M172.59,289.51a2,2,0,1,0,.36-2.81A2,2,0,0,0,172.59,289.51Z"/><path class="cls-2" d="M172.69,281a2,2,0,1,0-2.81-.36A2,2,0,0,0,172.69,281Z"/><path class="cls-2" d="M174.85,294.21a2,2,0,1,0,2.81.37A2,2,0,0,0,174.85,294.21Z"/><path class="cls-2" d="M172,309.16a2,2,0,1,0,2.8.36A2,2,0,0,0,172,309.16Z"/><path class="cls-2" d="M175.23,302.56a2,2,0,1,0,2.8.36A2,2,0,0,0,175.23,302.56Z"/><path class="cls-2" d="M162.75,260.71a2,2,0,1,0-2.8-.37A2,2,0,0,0,162.75,260.71Z"/><path class="cls-2" d="M99.1,201.91a2,2,0,1,0,.37-2.8A2,2,0,0,0,99.1,201.91Z"/><path class="cls-2" d="M101.26,207.42a2,2,0,1,0,2.8.37A2,2,0,0,0,101.26,207.42Z"/><path class="cls-2" d="M108.13,251.79a2,2,0,1,0-2.8-.36A2,2,0,0,0,108.13,251.79Z"/><path class="cls-2" d="M99.41,195.16a2,2,0,1,0-2.81-.36A2,2,0,0,0,99.41,195.16Z"/><path class="cls-2" d="M101.35,232.47a2,2,0,1,0,2.8.36A2,2,0,0,0,101.35,232.47Z"/><path class="cls-2" d="M90.22,200.45a2,2,0,1,0,.37-2.81A2,2,0,0,0,90.22,200.45Z"/><path class="cls-2" d="M87.81,224.73a2,2,0,1,0-2.8-.36A2,2,0,0,0,87.81,224.73Z"/><path class="cls-2" d="M88,206.29a2,2,0,1,0-2.8-.37A2,2,0,0,0,88,206.29Z"/><path class="cls-2" d="M108.75,243.46a2,2,0,1,0-2.8-.36A2,2,0,0,0,108.75,243.46Z"/><path class="cls-2" d="M93.38,209.84a2,2,0,1,0,.36-2.81A2,2,0,0,0,93.38,209.84Z"/><path class="cls-2" d="M90.87,192.6a2,2,0,1,0-2.8-.36A2,2,0,0,0,90.87,192.6Z"/><path class="cls-2" d="M167,301.68a2,2,0,1,0,.36-2.8A2,2,0,0,0,167,301.68Z"/><path class="cls-2" d="M121.79,212.18a2,2,0,1,0-2.81-.37A2,2,0,0,0,121.79,212.18Z"/><path class="cls-2" d="M122.74,224.61a2,2,0,1,0,.37-2.8A2,2,0,0,0,122.74,224.61Z"/><path class="cls-2" d="M129.78,219.23a2,2,0,1,0-2.81-.36A2,2,0,0,0,129.78,219.23Z"/><path class="cls-2" d="M119.25,218.71a2,2,0,1,0-2.8-.36A2,2,0,0,0,119.25,218.71Z"/><path class="cls-2" d="M134.83,226.93a2,2,0,1,0-2.81-.37A2,2,0,0,0,134.83,226.93Z"/><path class="cls-2" d="M115.35,227.93a2,2,0,1,0,.36-2.8A2,2,0,0,0,115.35,227.93Z"/><path class="cls-2" d="M109,218.94a2,2,0,1,0,2.8.37A2,2,0,0,0,109,218.94Z"/><path class="cls-2" d="M109.06,202.32a2,2,0,1,0-2.81-.36A2,2,0,0,0,109.06,202.32Z"/><path class="cls-2" d="M108.08,211.4a2,2,0,1,0,2.8.36A2,2,0,0,0,108.08,211.4Z"/><path class="cls-2" d="M114.75,207.61a2,2,0,1,0-2.8-.37A2,2,0,0,0,114.75,207.61Z"/><path class="cls-2" d="M4.16,352.78a2,2,0,1,0,2.81.36A2,2,0,0,0,4.16,352.78Z"/><path class="cls-2" d="M29.22,272.91a2,2,0,1,0,.37-2.81A2,2,0,0,0,29.22,272.91Z"/><path class="cls-2" d="M31.25,254.8a2,2,0,1,0,2.81.37A2,2,0,0,0,31.25,254.8Z"/><path class="cls-2" d="M30.6,296.91a2,2,0,1,0-.36,2.8A2,2,0,0,0,30.6,296.91Z"/><path class="cls-2" d="M34.07,263.34a2,2,0,1,0,2.8.37A2,2,0,0,0,34.07,263.34Z"/><path class="cls-2" d="M34.94,282.77a2,2,0,1,0,2.8.36A2,2,0,0,0,34.94,282.77Z"/><path class="cls-2" d="M26.82,244.53a2,2,0,1,0,2.8.36A2,2,0,0,0,26.82,244.53Z"/><path class="cls-2" d="M25.28,262.88a2,2,0,1,0,.37-2.81A2,2,0,0,0,25.28,262.88Z"/><path class="cls-2" d="M26.28,304.82a2,2,0,1,0,2.81.36A2,2,0,0,0,26.28,304.82Z"/><path class="cls-2" d="M39.14,304.15a2,2,0,1,0-2.8-.36A2,2,0,0,0,39.14,304.15Z"/><path class="cls-2" d="M30.75,280.59a2,2,0,1,0-2.8-.36A2,2,0,0,0,30.75,280.59Z"/><path class="cls-2" d="M22.36,251.18a2,2,0,1,0,2.81.36A2,2,0,0,0,22.36,251.18Z"/><path class="cls-2" d="M31.43,287.24a2,2,0,1,0-.36,2.8A2,2,0,0,0,31.43,287.24Z"/><path class="cls-2" d="M42.19,284.93a2,2,0,1,0,2.8.36A2,2,0,0,0,42.19,284.93Z"/><path class="cls-2" d="M42.55,292.9a2,2,0,1,0,2.8.37A2,2,0,0,0,42.55,292.9Z"/><path class="cls-2" d="M45.86,231.57a2,2,0,1,0-.36,2.81A2,2,0,0,0,45.86,231.57Z"/><path class="cls-2" d="M46.69,254a2,2,0,1,0,2.8.36A2,2,0,0,0,46.69,254Z"/><path class="cls-2" d="M46.06,265.35a2,2,0,1,0,.36-2.81A2,2,0,0,0,46.06,265.35Z"/><path class="cls-2" d="M37.18,296a2,2,0,0,0,.36-2.81,2,2,0,1,0-.36,2.81Z"/><path class="cls-2" d="M33.16,316.57a2,2,0,1,0,2.8.36A2,2,0,0,0,33.16,316.57Z"/><path class="cls-2" d="M36,308.3a2,2,0,1,0-.36,2.81A2,2,0,0,0,36,308.3Z"/><path class="cls-2" d="M39.49,256.92a2,2,0,1,0,2.81.36A2,2,0,0,0,39.49,256.92Z"/><path class="cls-2" d="M39.6,268.22a2,2,0,1,0,2.81.36A2,2,0,0,0,39.6,268.22Z"/><path class="cls-2" d="M38.18,278.47a2,2,0,1,0,.36-2.8A2,2,0,0,0,38.18,278.47Z"/><path class="cls-2" d="M7,299.32a2,2,0,1,0,2.81.36A2,2,0,0,0,7,299.32Z"/><path class="cls-2" d="M4.74,311.51a2,2,0,1,0,.36-2.8A2,2,0,0,0,4.74,311.51Z"/><path class="cls-2" d="M5.47,265.17a2,2,0,1,0,2.8.36A2,2,0,0,0,5.47,265.17Z"/><path class="cls-2" d="M3.69,258.14a2,2,0,1,0,2.81.37A2,2,0,0,0,3.69,258.14Z"/><path class="cls-2" d="M5.18,280.84A2,2,0,1,0,8,281.2,2,2,0,0,0,5.18,280.84Z"/><path class="cls-2" d="M5.37,291.37a2,2,0,1,0,2.8.36A2,2,0,0,0,5.37,291.37Z"/><path class="cls-2" d="M4.65,335.41a2,2,0,1,0-.36,2.8A2,2,0,0,0,4.65,335.41Z"/><path class="cls-2" d="M5.53,316.59a2,2,0,1,0,2.81.36A2,2,0,0,0,5.53,316.59Z"/><path class="cls-2" d="M48.57,269.66a2,2,0,1,0,2.8.36A2,2,0,0,0,48.57,269.66Z"/><path class="cls-2" d="M9.68,345.88a2,2,0,1,0,2.8.37A2,2,0,0,0,9.68,345.88Z"/><path class="cls-2" d="M1.75,289.48A2,2,0,0,0,0,286v3.84A2,2,0,0,0,1.75,289.48Z"/><path class="cls-2" d="M4.25,326.24a2,2,0,1,0,2.81.36A2,2,0,0,0,4.25,326.24Z"/><path class="cls-2" d="M17.49,244.28a2,2,0,1,0,2.8.36A2,2,0,0,0,17.49,244.28Z"/><path class="cls-2" d="M24.3,290.68a2,2,0,1,0-.36,2.8A2,2,0,0,0,24.3,290.68Z"/><path class="cls-2" d="M20.86,268.89a2,2,0,1,0,.36-2.8A2,2,0,0,0,20.86,268.89Z"/><path class="cls-2" d="M19.61,302.74a2,2,0,1,0,.37-2.8A2,2,0,0,0,19.61,302.74Z"/><path class="cls-2" d="M21,282.29a2,2,0,1,0,2.81.36A2,2,0,0,0,21,282.29Z"/><path class="cls-2" d="M20.33,273.52a2,2,0,1,0,2.8.37A2,2,0,0,0,20.33,273.52Z"/><path class="cls-2" d="M14.13,294.29a2,2,0,1,0,2.8.36A2,2,0,0,0,14.13,294.29Z"/><path class="cls-2" d="M13.37,278.21a2,2,0,1,0,2.81.37A2,2,0,0,0,13.37,278.21Z"/><path class="cls-2" d="M16.83,259.27a2,2,0,1,0,.36-2.81A2,2,0,0,0,16.83,259.27Z"/><path class="cls-2" d="M14.74,289.42a2,2,0,1,0-2.81-.37A2,2,0,0,0,14.74,289.42Z"/><path class="cls-2" d="M10.9,271.08a2,2,0,1,0,2.8.37A2,2,0,0,0,10.9,271.08Z"/><path class="cls-2" d="M16,307.68a2,2,0,1,0-2.8-.37A2,2,0,0,0,16,307.68Z"/><path class="cls-2" d="M.83,316.51a1.94,1.94,0,0,0-.83-.62v3.69a2.42,2.42,0,0,0,.47-.26A2,2,0,0,0,.83,316.51Z"/><path class="cls-2" d="M42.9,307.51a2,2,0,1,0,2.81.37A2,2,0,0,0,42.9,307.51Z"/><path class="cls-2" d="M48.12,303.15a2,2,0,1,0-2.8-.36A2,2,0,0,0,48.12,303.15Z"/><path class="cls-2" d="M59.62,202.49a2,2,0,1,0,2.8.37A2,2,0,0,0,59.62,202.49Z"/><path class="cls-2" d="M12.24,240.66a2,2,0,1,0-2.81-.37A2,2,0,0,0,12.24,240.66Z"/><path class="cls-2" d="M61,246.52a2,2,0,1,0,.36-2.8A2,2,0,0,0,61,246.52Z"/><path class="cls-2" d="M8.15,247.77a2,2,0,1,0,.37-2.8A2,2,0,0,0,8.15,247.77Z"/><path class="cls-2" d="M53.08,294.25a2,2,0,1,0-2.81-.36A2,2,0,0,0,53.08,294.25Z"/><path class="cls-2" d="M53.89,310.46a2,2,0,1,0-2.8-.37A2,2,0,0,0,53.89,310.46Z"/><path class="cls-2" d="M50.9,283.57a2,2,0,1,0,2.81.36A2,2,0,0,0,50.9,283.57Z"/><path class="cls-2" d="M56.37,262.13a2,2,0,1,0-2.81-.36A2,2,0,0,0,56.37,262.13Z"/><path class="cls-2" d="M49.94,277.38a2,2,0,0,0-2.81-.36,2,2,0,1,0,2.81.36Z"/><path class="cls-2" d="M4.08,276.48a2,2,0,0,0-2.44-3.16,2,2,0,1,0,2.44,3.16Z"/><path class="cls-2" d="M3.11,346.35A2,2,0,1,0,0,344.12v1.26a2,2,0,0,0,.31.6A2,2,0,0,0,3.11,346.35Z"/><path class="cls-2" d="M10.36,338.88a2,2,0,1,0,2.81.36A2,2,0,0,0,10.36,338.88Z"/><path class="cls-2" d="M2.2,306.86A2,2,0,0,0,0,303.54V307A2,2,0,0,0,2.2,306.86Z"/><path class="cls-2" d="M.1,295.37l-.1-.1v2.66A2,2,0,0,0,.1,295.37Z"/><path class="cls-2" d="M0,352v1.82A2,2,0,0,0,0,352Z"/><path class="cls-2" d="M56.37,301.39a2,2,0,1,0-2.8-.36A2,2,0,0,0,56.37,301.39Z"/><path class="cls-2" d="M.78,231a2,2,0,0,0-.78-.6v3.65a2.52,2.52,0,0,0,.42-.24A2,2,0,0,0,.78,231Z"/><path class="cls-2" d="M1,245a2.05,2.05,0,0,0-1-.7v3.83a1.78,1.78,0,0,0,.66-.33A2,2,0,0,0,1,245Z"/><path class="cls-2" d="M51.94,248.52a2,2,0,1,0,2.8.36A2,2,0,0,0,51.94,248.52Z"/><path class="cls-2" d="M0,368.29v1.52A2,2,0,0,0,0,368.29Z"/><path class="cls-2" d="M2.91,226.06A2,2,0,1,0,.47,222.9a1.78,1.78,0,0,0-.47.52v2.11a1,1,0,0,0,.1.17A2,2,0,0,0,2.91,226.06Z"/><path class="cls-2" d="M2.45,363.9a2,2,0,0,0,.36-2.81A2,2,0,0,0,0,360.73H0v3.16A2,2,0,0,0,2.45,363.9Z"/><path class="cls-2" d="M70.59,251.63a2,2,0,1,0-.36,2.8A2,2,0,0,0,70.59,251.63Z"/><path class="cls-2" d="M68.83,218.4a2,2,0,1,0-.36,2.81A2,2,0,0,0,68.83,218.4Z"/><path class="cls-2" d="M68,226.83a2,2,0,1,0-.37,2.81A2,2,0,0,0,68,226.83Z"/><path class="cls-2" d="M66.28,301.53a2,2,0,1,0-2.81-.36A2,2,0,0,0,66.28,301.53Z"/><path class="cls-2" d="M69.11,322.73a2,2,0,1,0-2.8-.37A2,2,0,0,0,69.11,322.73Z"/><path class="cls-2" d="M70.52,309.1a2,2,0,1,0-.36,2.8A2,2,0,0,0,70.52,309.1Z"/><path class="cls-2" d="M54.59,239.92a2,2,0,1,0,2.8.36A2,2,0,0,0,54.59,239.92Z"/><path class="cls-2" d="M57.36,267.2a2,2,0,1,0,2.81.37A2,2,0,0,0,57.36,267.2Z"/><path class="cls-2" d="M64.4,208.87a2,2,0,1,0,2.8.37A2,2,0,0,0,64.4,208.87Z"/><path class="cls-2" d="M59.23,254.63a2,2,0,1,0,.36-2.8A2,2,0,0,0,59.23,254.63Z"/><path class="cls-2" d="M63.39,237.76a2,2,0,1,0,.37-2.8A2,2,0,0,0,63.39,237.76Z"/><path class="cls-2" d="M68.37,285a2,2,0,1,0-2.81-.36A2,2,0,0,0,68.37,285Z"/><path class="cls-2" d="M59.15,277.47a2,2,0,1,0-2.81-.36A2,2,0,0,0,59.15,277.47Z"/><path class="cls-2" d="M70.49,263.38a2,2,0,1,0-.36,2.81A2,2,0,0,0,70.49,263.38Z"/><path class="cls-2" d="M69.9,294.71a2,2,0,1,0-2.8-.37A2,2,0,0,0,69.9,294.71Z"/><path class="cls-2" d="M61.27,284.4a2,2,0,1,0-2.81-.36A2,2,0,0,0,61.27,284.4Z"/><path class="cls-2" d="M64.13,315.8a2,2,0,1,0-2.81-.36A2,2,0,0,0,64.13,315.8Z"/><path class="cls-2" d="M65.6,272a2,2,0,1,0,2.81.36A2,2,0,0,0,65.6,272Z"/><path class="cls-2" d="M59.58,304.33a2,2,0,1,0,2.81.36A2,2,0,0,0,59.58,304.33Z"/><path class="cls-2" d="M61.83,326.27a2,2,0,1,0-2.8-.37A2,2,0,0,0,61.83,326.27Z"/><path class="cls-2" d="M61.92,259.75a2,2,0,1,0,2.8.36A2,2,0,0,0,61.92,259.75Z"/><path class="cls-2" d="M61.68,293.07a2,2,0,1,0-2.8-.36A2,2,0,0,0,61.68,293.07Z"/><path class="cls-2" d="M11.29,321.69a2,2,0,1,0,2.8.36A2,2,0,0,0,11.29,321.69Z"/><path class="cls-2" d="M98.56,277.23a2,2,0,1,0-.37,2.81A2,2,0,0,0,98.56,277.23Z"/><path class="cls-2" d="M88.21,294.91a2,2,0,1,0-2.81-.36A2,2,0,0,0,88.21,294.91Z"/><path class="cls-2" d="M96.9,297.13a2,2,0,1,0-2.8-.36A2,2,0,0,0,96.9,297.13Z"/><path class="cls-2" d="M92.27,270.74a2,2,0,1,0,2.81.36A2,2,0,0,0,92.27,270.74Z"/><path class="cls-2" d="M93.62,326.3a2,2,0,1,0,.36-2.81A2,2,0,0,0,93.62,326.3Z"/><path class="cls-2" d="M96.91,307a2,2,0,1,0-2.8-.37A2,2,0,0,0,96.91,307Z"/><path class="cls-2" d="M10.43,331.26a2,2,0,1,0,2.8.36A2,2,0,0,0,10.43,331.26Z"/><path class="cls-2" d="M88.21,309a2,2,0,1,0,2.8.36A2,2,0,0,0,88.21,309Z"/><path class="cls-2" d="M95.41,238.25a2,2,0,1,0-2.8-.36A2,2,0,0,0,95.41,238.25Z"/><path class="cls-2" d="M89.48,256.9a2,2,0,1,0,.36-2.81A2,2,0,0,0,89.48,256.9Z"/><path class="cls-2" d="M90.1,245.33a2,2,0,1,0,2.8.36A2,2,0,0,0,90.1,245.33Z"/><path class="cls-2" d="M83.43,289.4a2,2,0,1,0-2.8-.37A2,2,0,0,0,83.43,289.4Z"/><path class="cls-2" d="M140.17,264.52a2,2,0,1,0,2.8.36A2,2,0,0,0,140.17,264.52Z"/><path class="cls-2" d="M138.66,247.85a2,2,0,1,0,2.81.37A2,2,0,0,0,138.66,247.85Z"/><path class="cls-2" d="M142.4,278.35a2,2,0,1,0,2.8.37A2,2,0,0,0,142.4,278.35Z"/><path class="cls-2" d="M146.17,270.52a2,2,0,1,0,2.8.36A2,2,0,0,0,146.17,270.52Z"/><path class="cls-2" d="M135.73,255.86a2,2,0,1,0,2.81.36A2,2,0,0,0,135.73,255.86Z"/><path class="cls-2" d="M84.78,270.32a2,2,0,1,0-.37,2.81A2,2,0,0,0,84.78,270.32Z"/><path class="cls-2" d="M83.83,315a2,2,0,1,0-2.8-.36A2,2,0,0,0,83.83,315Z"/><path class="cls-2" d="M83.89,325.57a2,2,0,1,0-2.8-.36A2,2,0,0,0,83.89,325.57Z"/><path class="cls-2" d="M133.12,266.42a2,2,0,1,0,2.8.36A2,2,0,0,0,133.12,266.42Z"/><path class="cls-2" d="M87.48,299.85a2,2,0,1,0,2.8.36A2,2,0,0,0,87.48,299.85Z"/><path class="cls-2" d="M80.05,303.34a2,2,0,1,0,.36-2.81A2,2,0,0,0,80.05,303.34Z"/><path class="cls-2" d="M88.82,340.59a2,2,0,1,0-2.8-.36A2,2,0,0,0,88.82,340.59Z"/><path class="cls-2" d="M106.78,338.8a2,2,0,1,0-2.8-.37A2,2,0,0,0,106.78,338.8Z"/><path class="cls-2" d="M108.72,320.79a2,2,0,1,0-2.81-.37A2,2,0,0,0,108.72,320.79Z"/><path class="cls-2" d="M110.1,303.39a2,2,0,1,0-.37,2.8A2,2,0,0,0,110.1,303.39Z"/><path class="cls-2" d="M106.18,332.08a2,2,0,1,0-2.8-.36A2,2,0,0,0,106.18,332.08Z"/><path class="cls-2" d="M103.76,325.34A2,2,0,1,0,101,325,2,2,0,0,0,103.76,325.34Z"/><path class="cls-2" d="M117.58,281.45a2,2,0,1,0,2.8.36A2,2,0,0,0,117.58,281.45Z"/><path class="cls-2" d="M101.7,308.75a2,2,0,1,0,2.81.36A2,2,0,0,0,101.7,308.75Z"/><path class="cls-2" d="M119.21,288.31a2,2,0,1,0,2.8.37A2,2,0,0,0,119.21,288.31Z"/><path class="cls-2" d="M121.93,306.45a2,2,0,1,0,.37-2.81A2,2,0,0,0,121.93,306.45Z"/><path class="cls-2" d="M123.71,261.87a2,2,0,1,0-2.8-.36A2,2,0,0,0,123.71,261.87Z"/><path class="cls-2" d="M120.28,276.31a2,2,0,1,0,.37-2.8A2,2,0,0,0,120.28,276.31Z"/><path class="cls-2" d="M97.68,336.76a2,2,0,1,0-2.81-.37A2,2,0,0,0,97.68,336.76Z"/><path class="cls-2" d="M95.68,345.17a2,2,0,1,0-2.8-.37A2,2,0,0,0,95.68,345.17Z"/><path class="cls-2" d="M94.55,289a2,2,0,1,0-2.8-.36A2,2,0,0,0,94.55,289Z"/><path class="cls-2" d="M91,331.53a2,2,0,1,0-2.81-.36A2,2,0,0,0,91,331.53Z"/><path class="cls-2" d="M146,325.6a2,2,0,1,0-2.8-.37A2,2,0,0,0,146,325.6Z"/><path class="cls-2" d="M87.3,278.64a2,2,0,1,0,2.8.36A2,2,0,0,0,87.3,278.64Z"/><path class="cls-2" d="M102.56,293.29a2,2,0,1,0,.36-2.81A2,2,0,0,0,102.56,293.29Z"/><path class="cls-2" d="M99.17,314.44a2,2,0,1,0-.36,2.8A2,2,0,0,0,99.17,314.44Z"/><path class="cls-2" d="M103,286.75a2,2,0,1,0-2.81-.36A2,2,0,0,0,103,286.75Z"/><path class="cls-2" d="M103.75,301.6a2,2,0,1,0-2.81-.36A2,2,0,0,0,103.75,301.6Z"/><path class="cls-2" d="M102.14,269.66a2,2,0,1,0-2.8-.37A2,2,0,0,0,102.14,269.66Z"/><path class="cls-2" d="M88.06,317.4a2,2,0,0,0-.36,2.81,2,2,0,1,0,.36-2.81Z"/><path class="cls-2" d="M50.5,334.78a2,2,0,1,0,2.81.36A2,2,0,0,0,50.5,334.78Z"/><path class="cls-2" d="M50.5,316.32a2,2,0,1,0-.37,2.8A2,2,0,0,0,50.5,316.32Z"/><path class="cls-2" d="M44.08,330.55a2,2,0,1,0,2.8.36A2,2,0,0,0,44.08,330.55Z"/><path class="cls-2" d="M71.4,339a2,2,0,1,0-.37,2.8A2,2,0,0,0,71.4,339Z"/><path class="cls-2" d="M45.54,326.29a2,2,0,1,0-2.81-.36A2,2,0,0,0,45.54,326.29Z"/><path class="cls-2" d="M42.68,315.62a2,2,0,1,0-.36,2.81A2,2,0,0,0,42.68,315.62Z"/><path class="cls-2" d="M51.89,324.94a2,2,0,1,0,2.8.37A2,2,0,0,0,51.89,324.94Z"/><path class="cls-2" d="M68.38,329.93a2,2,0,1,0-.36,2.8A2,2,0,0,0,68.38,329.93Z"/><path class="cls-2" d="M61.38,339.42a2,2,0,1,0,2.81.37A2,2,0,0,0,61.38,339.42Z"/><path class="cls-2" d="M60.56,332.51a2,2,0,1,0-.36,2.8A2,2,0,0,0,60.56,332.51Z"/><path class="cls-2" d="M57.77,315.66a2,2,0,1,0-.36,2.8A2,2,0,0,0,57.77,315.66Z"/><path class="cls-2" d="M37.55,334.19a2,2,0,1,0,2.81.36A2,2,0,0,0,37.55,334.19Z"/><path class="cls-2" d="M18.7,320.7a2,2,0,1,0,2.8.36A2,2,0,0,0,18.7,320.7Z"/><path class="cls-2" d="M18.62,340a2,2,0,1,0,2.81.37A2,2,0,0,0,18.62,340Z"/><path class="cls-2" d="M20.35,334a2,2,0,1,0-2.8-.37A2,2,0,0,0,20.35,334Z"/><path class="cls-2" d="M13.78,312.49a2,2,0,1,0,2.8.37A2,2,0,0,0,13.78,312.49Z"/><path class="cls-2" d="M117,306.12a2,2,0,1,0-2.81-.36A2,2,0,0,0,117,306.12Z"/><path class="cls-2" d="M29.27,317.38a2,2,0,1,0-.36,2.8A2,2,0,0,0,29.27,317.38Z"/><path class="cls-2" d="M37.09,325.26a2,2,0,1,0-.36,2.81A2,2,0,0,0,37.09,325.26Z"/><path class="cls-2" d="M24.27,311.36a2,2,0,1,0-.37,2.8A2,2,0,0,0,24.27,311.36Z"/><path class="cls-2" d="M30.45,331.92a2,2,0,1,0,2.81.37A2,2,0,0,0,30.45,331.92Z"/><path class="cls-2" d="M27.17,329.21a2,2,0,1,0-2.8-.36A2,2,0,0,0,27.17,329.21Z"/><path class="cls-2" d="M25.62,336.89a2,2,0,1,0,2.81.36A2,2,0,0,0,25.62,336.89Z"/><path class="cls-2" d="M138.75,291.44a2,2,0,1,0,2.8.36A2,2,0,0,0,138.75,291.44Z"/><path class="cls-2" d="M146.68,286a2,2,0,1,0,2.81.37A2,2,0,0,0,146.68,286Z"/><path class="cls-2" d="M136.87,299.73a2,2,0,1,0-.36,2.8A2,2,0,0,0,136.87,299.73Z"/><path class="cls-2" d="M151.92,294.28a2,2,0,1,0-.36,2.8A2,2,0,0,0,151.92,294.28Z"/><path class="cls-2" d="M134.07,314.56a2,2,0,1,0,2.8.36A2,2,0,0,0,134.07,314.56Z"/><path class="cls-2" d="M149.56,316.28a2,2,0,1,0,.37-2.81A2,2,0,0,0,149.56,316.28Z"/><path class="cls-2" d="M150.4,277.55a2,2,0,1,0,2.8.36A2,2,0,0,0,150.4,277.55Z"/><path class="cls-2" d="M141.16,310a2,2,0,1,0-2.81-.36A2,2,0,0,0,141.16,310Z"/><path class="cls-2" d="M145.15,301.47a2,2,0,1,0-2.81-.37A2,2,0,0,0,145.15,301.47Z"/><path class="cls-2" d="M138.24,277.93a2,2,0,1,0-2.8-.36A2,2,0,0,0,138.24,277.93Z"/><path class="cls-2" d="M139.16,287.14a2,2,0,1,0-2.81-.37A2,2,0,0,0,139.16,287.14Z"/><path class="cls-2" d="M144.37,317.78a2,2,0,1,0-2.81-.36A2,2,0,0,0,144.37,317.78Z"/><path class="cls-2" d="M156,281.65a2,2,0,1,0,2.8.36A2,2,0,0,0,156,281.65Z"/><path class="cls-2" d="M97.68,243.76a2,2,0,1,0,.37-2.81A2,2,0,0,0,97.68,243.76Z"/><path class="cls-2" d="M153.63,307.6a2,2,0,1,0,.37-2.8A2,2,0,0,0,153.63,307.6Z"/><path class="cls-2" d="M98.36,224.48a2,2,0,1,0,2.81.36A2,2,0,0,0,98.36,224.48Z"/><path class="cls-2" d="M75.12,235.59a2,2,0,1,0-2.8-.37A2,2,0,0,0,75.12,235.59Z"/><path class="cls-2" d="M75.12,216a2,2,0,1,0-2.8-.36A2,2,0,0,0,75.12,216Z"/><path class="cls-2" d="M102.77,219.51a2,2,0,1,0-2.81-.37A2,2,0,0,0,102.77,219.51Z"/><path class="cls-2" d="M72.2,225.19a2,2,0,1,0,.37-2.8A2,2,0,0,0,72.2,225.19Z"/><path class="cls-2" d="M155.33,270.39a2,2,0,1,0,2.81.36A2,2,0,0,0,155.33,270.39Z"/><path class="cls-2" d="M157.13,296.78a2,2,0,1,0,2.8.36A2,2,0,0,0,157.13,296.78Z"/><path class="cls-2" d="M156.16,289.11a2,2,0,1,0,2.81.36A2,2,0,0,0,156.16,289.11Z"/><polygon class="cls-2" points="174.2 161.48 157.39 161.48 165.79 174.35 174.2 161.48"/><polygon class="cls-2" points="157.39 161.48 140.57 161.48 148.98 174.35 157.39 161.48"/><polygon class="cls-2" points="140.57 161.48 123.76 161.48 132.17 174.35 140.57 161.48"/><polygon class="cls-2" points="1141.87 218.75 1152.62 208.01 1163.37 218.75 1169.81 212.31 1159.07 201.56 1169.81 190.81 1163.37 184.37 1152.62 195.12 1141.87 184.37 1135.43 190.81 1146.18 201.56 1135.43 212.31 1141.87 218.75"/><path class="cls-2" d="M828.77,320.67a8.51,8.51,0,1,1,12-12l4.85-4.85a15.37,15.37,0,1,0-21.73,21.73Z"/><path class="cls-2" d="M819.24,330.2a22,22,0,1,1,31.08-31.08l4.85-4.85a28.84,28.84,0,1,0-40.78,40.78Z"/><path class="cls-2" d="M810.2,339.24a34.76,34.76,0,1,1,49.15-49.16l4.86-4.85a41.61,41.61,0,1,0-58.85,58.85Z"/><path class="cls-2" d="M801.23,348.21a47.45,47.45,0,1,1,67.1-67.1l4.85-4.85a54.31,54.31,0,1,0-76.8,76.8Z"/><path class="cls-2" d="M792.65,356.79a59.59,59.59,0,1,1,84.27-84.27l4.84-4.84a66.44,66.44,0,1,0-94,94Z"/><path class="cls-2" d="M784,365.45A71.83,71.83,0,1,1,885.57,263.87l4.85-4.85A78.69,78.69,0,1,0,779.13,370.3Z"/><path class="cls-2" d="M443.78,515.65a8.5,8.5,0,1,1-12-12l-4.85-4.85a15.37,15.37,0,1,0,21.73,21.73Z"/><path class="cls-2" d="M453.32,525.18a22,22,0,1,1-31.08-31.08l-4.85-4.85A28.84,28.84,0,1,0,458.17,530Z"/><path class="cls-2" d="M462.36,534.22a34.76,34.76,0,1,1-49.16-49.15l-4.85-4.86a41.61,41.61,0,1,0,58.84,58.85Z"/><path class="cls-2" d="M471.33,543.19a47.45,47.45,0,1,1-67.1-67.1l-4.85-4.85a54.31,54.31,0,1,0,76.8,76.81Z"/><path class="cls-2" d="M479.91,551.78a59.59,59.59,0,1,1-84.28-84.28l-4.83-4.84a66.44,66.44,0,1,0,94,94Z"/><path class="cls-2" d="M488.57,560.43A71.83,71.83,0,1,1,387,458.85L382.14,454A78.69,78.69,0,1,0,493.42,565.29Z"/></g></g></svg>