<svg xmlns="http://www.w3.org/2000/svg" viewBox="0 0 1000.44 800"><defs><style>.cls-1{fill:#ffa102;}.cls-2{fill:#005086;}.cls-3{fill:#fff;}</style></defs><title>bg_tab</title><g id="Layer_2" data-name="Layer 2"><g id="Layer_1-2" data-name="Layer 1"><g id="Layer_3" data-name="Layer 3"><path class="cls-1" d="M795.23,167.31c0-6.89,1.33-13.12,9.2-14.74-9,0-16.53,5.34-18,12.33-12.29-7.91-2.16-32.5-2.16-32.5-21.15,4.48-43.82,34.91-43.82,34.91H740s22.67,30.43,43.82,34.91c0,0-9.79-24.63,2.66-32.52,1.41,7,8.91,12.34,18,12.34C796.55,180.42,795.23,174.19,795.23,167.31Zm-30.55-5c-1.86,0-3.36-1.77-3.37-4s1.49-4,3.35-4,3.36,1.77,3.37,4h0C768,160.5,766.53,162.28,764.68,162.28Z"/><path class="cls-2" d="M181,369.13c-2.37.14-4.2,2.52-4.09,5.33.11,2.62,1.88,4.72,4.09,4.85a3.79,3.79,0,0,0,2.46-.93,1.41,1.41,0,0,1-.41,0,3.45,3.45,0,0,1-2.88-3.82,3.4,3.4,0,0,1,2.88-3.42,2.81,2.81,0,0,1,1.74.66A4.23,4.23,0,0,0,181,369.13Z"/><path class="cls-2" d="M896.59,464.81c-52.93-21.32-125.84-5.33-150.13-55.14-28.71-58.73,37.53-101.43,57.33-153,6.64-17.77-2.2-37.38-26.46-42.72-64-19.57-110.39,23.12-165.59,35.54-72.86,17.77-114.81-49.75-130.27-103.2-17.55-62.18-110.36-33.75-174.39-44.41C246.46,90,228.7,46.2,228.23,0H0A74.18,74.18,0,0,0,22.23,23.57C35.46,34.23,39.87,53.81,55.35,66.22c26.46,23.14,24.29,62.28,0,81.85C15.66,176.5-2.06,217.45,20.07,249.49c17.64,24.88,106,30.24,81.69,69.38C77.5,354.41,35.11,389,57.5,430.77c.47.89,1.36,2.3,1.92,3.16,2.62,3.94,2.31,5.92,7,7.71,59,22.43,117,10.66,172.21-12.45,6.63-3.56,17.64-1.78,24.3-5.34,44.11-16,106-24.88,145.72,0,19.88,14.21,22,46.25-2.21,58.7s-59.61-5.33-88.32,10.66c-19.86,10.66-28.7,32-19.86,51.6,11,21.32,31.28,21.89,57.33,39.09a17.37,17.37,0,0,0,6.63,1.78c48.38,5,101.57,21.32,112.61,58.71,6,22.64-42.05,133.74-51.6,155.61h500c-.72-8.77-73.06-105.32-81.87-114.69-28.67-30.25-90.49-51.57-68.41-92.5,17.64-33.81,79.49-24.88,112.6-7.11,17.64,10.66,50.79,21.32,61.83,5.35C978.28,546.65,949.59,486.16,896.59,464.81ZM129,394.57c-3.57-1.89-7.07-3.84-10.08-5.74a11.6,11.6,0,0,1-9,4.39c-6.8,0-8.13-6.24-8.13-13.91s1.33-13.91,8.15-13.91a11.67,11.67,0,0,1,9,4.38c3-1.88,6.5-3.84,10.08-5.73a41.17,41.17,0,0,0,0,30.52Zm28.19,11c-.26,7.17-2.07,12.65-8.69,12.65-7.33,0-13.26-6.7-13.26-15a16.64,16.64,0,0,1,.78-5.08h-.1a34.76,34.76,0,0,1,0-37.59l.1-.07a17.52,17.52,0,0,1-.77-5.16c0-8.3,5.93-15,13.26-15,6.62,0,8.41,5.51,8.69,12.68h0C145,366.7,144.44,389.48,156,404c.41.52.84,1,1.28,1.51h-.07A.49.49,0,0,0,157.17,405.59Zm6.59-.21a34.73,34.73,0,0,1,0-52.12,34.74,34.74,0,0,1,10.47,2.92c-4.67,6.71-9.3,14.68-9.3,23.09s4.63,16.45,9.3,23.16A35.78,35.78,0,0,1,163.76,405.38Zm26.76-25.59c0,8.2-4.4,15.52-12.16,20.41-4.38-5.81-9-13.09-9-20.93s4.6-15,9-20.86c7.78,4.9,12.16,12.21,12.16,20.42a3.84,3.84,0,0,1,0,.48A3.84,3.84,0,0,1,190.52,379.79Zm523.11-98.07H714s14.27-19.16,27.59-22c0,0-6.38,15.48,1.36,20.47.9-4.41,5.62-7.77,11.31-7.77-.91-.19,1,0,0,0-5,1-5.8,4.95-5.8,9.28s.84,8.29,5.8,9.28c1,0-.91.19,0,0-5.7,0-10.42-3.37-11.31-7.77-7.84,5-1.67,20.47-1.67,20.47C727.91,300.88,713.63,281.72,713.63,281.72Z"/><ellipse class="cls-2" cx="729.18" cy="276.01" rx="2.11" ry="2.5"/><path class="cls-1" d="M725.79,235.73c0-11.11,2.14-21.17,14.85-23.79-14.59,0-26.69,8.61-29,19.9-19.82-12.7-3.41-52.44-3.41-52.44-34.14,7.23-70.73,56.34-70.73,56.34h-.8s36.58,49.11,70.72,56.34c0,0-15.79-39.75,4.29-52.48,2.27,11.3,14.38,19.92,29,19.92C727.93,256.91,725.79,246.85,725.79,235.73Zm-49.3-8.2c-3,0-5.42-2.88-5.42-6.42s2.43-6.42,5.42-6.42,5.42,2.87,5.42,6.42h0c0,3.54-2.42,6.42-5.41,6.43h0Z"/></g><path class="cls-1" d="M973.88,702.11a55,55,0,0,0-72.65-72.44c-.07-4.87-1.25-11.14-7.07-10.23-8.3,1.3-3.78,13.16-2.66,15.8l-.15.1c-1.91-2.11-10.77-11.24-15.45-4.26-3.59,5.35,3,9.3,7.5,11.28A55,55,0,0,0,959,721.93c-1.52,8,2.47,14.28,7.44,19.88,0,0,6-29.85,34-38.13C1000.42,703.68,986.06,696.3,973.88,702.11ZM893,692.53a5.3,5.3,0,0,1-7.42-1h0a5.29,5.29,0,1,1,7.43,1Zm37-40.65a5.3,5.3,0,0,1,7.41,1h0a5.29,5.29,0,1,1-7.42-1Zm-31.72,19.46h0a5.29,5.29,0,1,1,7.41,1h0a5.29,5.29,0,0,1-7.37-1Zm13.06,30.25h0a4.08,4.08,0,1,1,.07,0l0,0Zm12.74,19.81a5.29,5.29,0,1,1,1-7.44h0a5.3,5.3,0,0,1-.9,7.44Zm-6.46-48.57a5.29,5.29,0,1,1,6.46,8.38h0a5.29,5.29,0,0,1-6.45-8.39ZM929,700a5.28,5.28,0,1,1,7.43,1h0a5.27,5.27,0,0,1-7.4-1Zm15.91,21.53h0a5.29,5.29,0,1,1,1-7.43,5.29,5.29,0,0,1-1,7.43l0,0ZM947,678.4h0a5.29,5.29,0,1,1,1-7.43,5.29,5.29,0,0,1-1,7.43l-.06,0Zm11.44,18a5.29,5.29,0,1,1,1-7.43h0a5.28,5.28,0,0,1-1,7.4h0Zm5.5-29.58h0a5.29,5.29,0,1,1,1-7.42,5.28,5.28,0,0,1-1,7.42Z"/><circle class="cls-3" cx="919.17" cy="643.45" r="10.02"/><circle cx="915.6" cy="642.41" r="6.54"/></g></g></svg>