<svg xmlns="http://www.w3.org/2000/svg" viewBox="0 0 404.8 118"><defs><style>.cls-1{fill:#ffa101;}</style></defs><title>drink in</title><g id="Layer_2" data-name="Layer 2"><g id="Layer_1-2" data-name="Layer 1"><g id="Layer_2-2" data-name="Layer 2"><g id="Layer_1-2-2" data-name="Layer 1-2"><g id="Layer_3" data-name="Layer 3"><path class="cls-1" d="M399.6,25.62,362.2,1.73a11.08,11.08,0,0,0-11.9,0L312.9,25.62a11,11,0,0,0-5.1,9.3v72A11.13,11.13,0,0,0,318.9,118h74.8a11.14,11.14,0,0,0,11.1-11.1v-72A11.5,11.5,0,0,0,399.6,25.62Zm-73.2,4.2c.6-1.5,2.5-2.1,4.3-1.4s2.8,2.5,2.3,3.9-2.5,2.1-4.3,1.4-2.8-2.4-2.3-3.9Zm7.9,73.1a3.15,3.15,0,0,1-3.12,3.2H316.7a3.15,3.15,0,0,1-3.2-3.1V32.72a3.19,3.19,0,0,1,5.2-2.5l14.4,11.7a3.33,3.33,0,0,1,1.2,2.5Zm64.9-.1a3.15,3.15,0,0,1-3.14,3.18H381.5a3.15,3.15,0,0,1-3.2-3.12V71.52a27.27,27.27,0,0,0-.4-5.1,14.66,14.66,0,0,0-1.5-4.3,7.27,7.27,0,0,0-2.9-2.89,9.1,9.1,0,0,0-4.6-1.11,10.79,10.79,0,0,0-4.9,1.11,9.3,9.3,0,0,0-3.5,3,15.18,15.18,0,0,0-2.1,4.39,17.66,17.66,0,0,0-.7,5.11v31a3.16,3.16,0,0,1-3.14,3.2H340a3.15,3.15,0,0,1-3.2-3.12V44.23a3,3,0,0,1,1.2-2.5l13.7-11.5a3.21,3.21,0,0,1,5.3,2.5v18.7h.3a22.47,22.47,0,0,1,3-4,21.4,21.4,0,0,1,4.3-3.4,27.07,27.07,0,0,1,5.4-2.3,21,21,0,0,1,6.2-.9,24,24,0,0,1,10.8,2.3,21.11,21.11,0,0,1,7.2,5.9,23.6,23.6,0,0,1,3.9,8.3,37.74,37.74,0,0,1,1.2,9.4v36.09Z"/><path class="cls-1" d="M59.3,108.62a8.17,8.17,0,0,1-8.2-8.14v-.06h-.3a19.24,19.24,0,0,1-8.7,7.4,29.05,29.05,0,0,1-12,2.6,27.41,27.41,0,0,1-12.7-2.8,30,30,0,0,1-9.5-7.39A33.82,33.82,0,0,1,2,89.52a38.83,38.83,0,0,1-2-12.7,37.78,37.78,0,0,1,2.1-12.6,32.67,32.67,0,0,1,6-10.6,28.14,28.14,0,0,1,21.8-9.9,23.83,23.83,0,0,1,11.8,2.7,27.54,27.54,0,0,1,7.5,5.8h.3V20.92a8.18,8.18,0,0,1,8.14-8.2H62a8.17,8.17,0,0,1,8.2,8.14v79.46a8.16,8.16,0,0,1-8.14,8.2H59.3Zm-9-31.8a18.14,18.14,0,0,0-1.1-6,16.69,16.69,0,0,0-3-5.2,16.21,16.21,0,0,0-4.8-3.7,14.59,14.59,0,0,0-6.3-1.4,14.89,14.89,0,0,0-6.5,1.4,14,14,0,0,0-4.7,3.6,16.25,16.25,0,0,0-2.9,5.1,20.07,20.07,0,0,0-1,6,17.46,17.46,0,0,0,1,6,15.24,15.24,0,0,0,2.9,5.3,15.63,15.63,0,0,0,4.7,3.7A14.76,14.76,0,0,0,35.1,93a13.75,13.75,0,0,0,6.3-1.4,15.64,15.64,0,0,0,4.8-3.7,16.69,16.69,0,0,0,3-5.2A14.6,14.6,0,0,0,50.3,76.82Z"/><path class="cls-1" d="M120.9,59.62A2.59,2.59,0,0,1,118.14,62h0a25,25,0,0,0-2.6-.1,14.88,14.88,0,0,0-7,1.5,14,14,0,0,0-7.1,8.41,17,17,0,0,0-.8,4.4v23.1a9.33,9.33,0,0,1-9.3,9.29h0a11.5,11.5,0,0,1-11.5-11.5V55.33a9.92,9.92,0,0,1,9.9-9.9h1.1a9.13,9.13,0,0,1,9.1,9.1h.3a20.33,20.33,0,0,1,6.9-7.9,18.15,18.15,0,0,1,10.3-3.1,23.12,23.12,0,0,1,2.5.1h0a2.16,2.16,0,0,1,1.9,2.2Z"/><path class="cls-1" d="M151.6,25.22a9.74,9.74,0,0,1-1,4.5,11.37,11.37,0,0,1-2.5,3.6,12.48,12.48,0,0,1-8.4,3.3,11.44,11.44,0,0,1-8.5-3.4,10.74,10.74,0,0,1-3.4-8.1,11.28,11.28,0,0,1,.9-4.4,10.33,10.33,0,0,1,2.5-3.6,17.11,17.11,0,0,1,3.8-2.5,12.27,12.27,0,0,1,4.7-1,11.9,11.9,0,0,1,4.6.9,12.36,12.36,0,0,1,3.8,2.4,10.2,10.2,0,0,1,2.5,3.6A11.22,11.22,0,0,1,151.6,25.22Zm-22.4,73.1V55.72a10.3,10.3,0,0,1,10.28-10.3h0A10.5,10.5,0,0,1,150,55.92v42.2a10.5,10.5,0,0,1-10.5,10.5h0a10.42,10.42,0,0,1-10.3-10.3Z"/><path class="cls-1" d="M210.8,108.62a8.8,8.8,0,0,1-8.8-8.79V74a27.27,27.27,0,0,0-.4-5.1,14.66,14.66,0,0,0-1.5-4.3,7.42,7.42,0,0,0-2.9-2.9,9.2,9.2,0,0,0-4.6-1.1,10.81,10.81,0,0,0-4.9,1.1,9.3,9.3,0,0,0-3.5,3,15.37,15.37,0,0,0-2.1,4.4,17.64,17.64,0,0,0-.7,5.1V99.7a8.8,8.8,0,0,1-8.8,8.8h-3.4a8.81,8.81,0,0,1-8.8-8.8V54a8.82,8.82,0,0,1,8.8-8.8h2.7a8.81,8.81,0,0,1,8.8,8.8h.3a22.47,22.47,0,0,1,3-4,21.4,21.4,0,0,1,4.3-3.4,27.07,27.07,0,0,1,5.4-2.3,21,21,0,0,1,6.2-.9,24,24,0,0,1,10.8,2.3,21.11,21.11,0,0,1,7.2,5.9,23.6,23.6,0,0,1,3.9,8.3,37.74,37.74,0,0,1,1.2,9.4V99.62a8.8,8.8,0,0,1-8.8,8.8h-3.4Z"/><path class="cls-1" d="M285.6,108.62H280a11.47,11.47,0,0,1-9.5-5L253.2,78.33h-.4v19.5A10.8,10.8,0,0,1,242,108.62h0a10.07,10.07,0,0,1-10.1-10v-76a9.86,9.86,0,0,1,9.81-9.89h.09a11,11,0,0,1,11,11V71h.4l17.5-22.29a9,9,0,0,1,7-3.4h9.6a5.2,5.2,0,0,1,4,8.6l-15.9,18.7a2.1,2.1,0,0,0-.1,2.6l16.1,22a7.23,7.23,0,0,1-5.8,11.41Z"/></g></g></g></g></g></svg>