<svg xmlns="http://www.w3.org/2000/svg" viewBox="0 0 1781.06 1351.67"><defs><style>.cls-1{fill:#fff;}</style></defs><title>pinguin</title><g id="Layer_2" data-name="Layer 2"><g id="Layer_8" data-name="Layer 8"><path class="cls-1" d="M1459,687.85l.17.92-.75-.85V555c0-305.24-249.74-555-555-555h0C608.69,0,367.53,241.16,367.53,535.91V711.44a717.75,717.75,0,0,0-45.47,62.41s-412,471.26-304,447.27c64.48-14.33,139.64-58.6,189.74-91.95q-.79,16.95-.8,34.1a717,717,0,0,0,24.7,187.16l416.75.37c-128.7-90.53-212.79-240.18-212.79-409.48,0-171.37,86.17-322.61,217.53-412.78A239.86,239.86,0,0,1,564,341.68C564,209,671.55,101.36,804.28,101.36,853,101.36,886.14,168.05,924,193c33.82-18.17,84.73-80.64,125.8-80.64,132.73,0,240.32,107.59,240.32,240.32a239.67,239.67,0,0,1-74.37,173.83c133,89.91,220.5,242.15,220.5,414.81,0,169.62-84.41,319.52-213.51,410l391.16.35a722.2,722.2,0,0,0,20.35-270.82c41,23.24,87.07,45,128.74,54.27C1871,1159.11,1459,687.85,1459,687.85Z"/></g></g></svg>