<svg xmlns="http://www.w3.org/2000/svg" viewBox="0 0 55.64 44.11"><defs><style>.cls-1,.cls-2{fill:#ffa102;}.cls-1{opacity:0.51;}</style></defs><title>quotes</title><g id="Layer_2" data-name="Layer 2"><g id="Layer_1-2" data-name="Layer 1"><g id="Layer_2-2" data-name="Layer 2"><g id="Layer_1-2-2" data-name="Layer 1-2"><path class="cls-1" d="M23.11,28.4C22.71,14.7,32.61.9,47,0a17.52,17.52,0,0,0-4.8,11.8c13.1,2.3,18.1,19.1,8.3,28.1-10.1,9.3-26.8,2.2-27.4-11.5Z"/><path class="cls-1" d="M0,28.4C-.28,14.7,9.52.9,23.91,0a17.56,17.56,0,0,0-4.8,11.8c13.1,2.3,18.1,19.1,8.3,28.1C17.31,49.2.62,42.1,0,28.4Z"/><path class="cls-2" d="M26.07,14.77a29.3,29.3,0,0,0-3,13.55A16,16,0,0,0,28,39.23C35.1,32,33.42,20.42,26.07,14.77Z"/></g></g></g></g></svg>