<svg xmlns="http://www.w3.org/2000/svg" viewBox="0 0 488.29 101.53"><defs><style>.cls-1{fill:#ffa102;}</style></defs><title>switch_on</title><g id="Layer_2" data-name="Layer 2"><g id="Layer_1-2" data-name="Layer 1"><path class="cls-1" d="M2,87a8.93,8.93,0,0,1,11.38-7.12A59.53,59.53,0,0,0,30,82.41c9.4,0,13.44-2.54,13.44-8.41,0-6.33-5.35-8.81-20.16-15.85C10.63,52.15,0,43.34,0,27.36,0,9.3,14.41.16,35.42.16A74.24,74.24,0,0,1,55.58,2.73a9,9,0,0,1,6.3,10.44l-.05.25a9,9,0,0,1-11.51,6.74,44.91,44.91,0,0,0-12.75-2c-9.39,0-13.7,3.32-13.7,8.35,0,6,5.15,9.26,17.16,14.74C58.11,49,68.29,56.52,68.29,72.11c0,17.8-12.85,29.41-36.2,29.41A92.15,92.15,0,0,1,8.24,98.3a9,9,0,0,1-6.39-10Z"/><path class="cls-1" d="M65.49,41.63H79.33a2.27,2.27,0,0,1,2.21,1.72l5.63,22.17,1.06,5.22a2.28,2.28,0,0,0,4.45.05l1.21-5.21,0-.13,6.5-22.18a2.27,2.27,0,0,1,2.18-1.64h13.84a2.29,2.29,0,0,1,2.19,1.65l6.44,22.16s0,.1,0,.15l1,4.75a2.28,2.28,0,0,0,4.46,0l1-4.84,5.18-22.07A2.28,2.28,0,0,1,139,41.63h12.92a2.28,2.28,0,0,1,2.18,3L136.88,99.92a2.27,2.27,0,0,1-2.17,1.6H121.25a2.28,2.28,0,0,1-2.19-1.63L111,72.56a1.46,1.46,0,0,1,0-.2h0a2.28,2.28,0,0,0-4.47,0v0c0,.06,0,.12,0,.17l-7.8,27.33a2.27,2.27,0,0,1-2.19,1.65h-14a2.27,2.27,0,0,1-2.18-1.61l-17-55.33A2.28,2.28,0,0,1,65.49,41.63Z"/><path class="cls-1" d="M155.24,24.48c0-5.8,5.33-10.67,11.55-10.67s10.57,4,10.57,9.9-5.18,10.72-11.45,10.72S155.24,30.29,155.24,24.48Zm6.89,17.15h7.25a6,6,0,0,1,6,6v47a6,6,0,0,1-6,6h-7.25a6,6,0,0,1-6-6v-47A6,6,0,0,1,162.13,41.63Z"/><path class="cls-1" d="M183,54.22h0a3.42,3.42,0,0,1-3.42-3.42V46.61A3.43,3.43,0,0,1,182,43.35c3.86-1.21,6.48-2.46,7.83-5.24.94-2,2.14-5,3.26-7.81a3.44,3.44,0,0,1,3.17-2.14h5.95a3.42,3.42,0,0,1,3.42,3.42v6.63A3.42,3.42,0,0,0,209,41.63h8.49a3.42,3.42,0,0,1,3.42,3.42V50.8a3.42,3.42,0,0,1-3.42,3.42H209a3.42,3.42,0,0,0-3.42,3.42V75.26c0,11,1.55,11.91,6.84,11.91a19.76,19.76,0,0,0,5.24-.87,3.41,3.41,0,0,1,4.27,2.58l1,4.48A3.44,3.44,0,0,1,221.31,97a36.86,36.86,0,0,1-17.64,4.5c-12.69,0-17.25-6.37-17.25-19.22V57.64A3.42,3.42,0,0,0,183,54.22Z"/><path class="cls-1" d="M254,40.8a54.69,54.69,0,0,1,10.48,1,6.42,6.42,0,0,1,5,7.27l-.25,1.61a6.48,6.48,0,0,1-7.36,5.48,33,33,0,0,0-5.33-.4c-6.11,0-12.95,3.53-13.16,14.67-.2,12.17,5.86,16.42,13.32,16.42a40.42,40.42,0,0,0,6.14-.47,6.45,6.45,0,0,1,7.36,5h0a6.44,6.44,0,0,1-3.52,7.17,34.13,34.13,0,0,1-14.13,3c-19.53,0-28.59-12.74-28.59-29.79C224,54.48,233.33,40.8,254,40.8Z"/><path class="cls-1" d="M279.8,14.59h7.89a5.66,5.66,0,0,1,5.67,5.66V36.52a3.87,3.87,0,0,1,0,.48h0a5.67,5.67,0,0,0,7.76,5.73,28.07,28.07,0,0,1,9.83-2c12.85-.26,18.7,7.15,18.7,22.95V95a5.65,5.65,0,0,1-5.66,5.66h-7.9A5.66,5.66,0,0,1,310.4,95V66.92c0-9-2.44-11.25-7.62-11.14a15.4,15.4,0,0,0-6.33,1.63,5.65,5.65,0,0,0-3.09,5.05V95a5.66,5.66,0,0,1-5.67,5.66H279.8A5.66,5.66,0,0,1,274.13,95V20.25A5.66,5.66,0,0,1,279.8,14.59Z"/><path class="cls-1" d="M435.36,38.63h13a2.35,2.35,0,0,1,2.34,2.18h0a2.35,2.35,0,0,0,3.59,1.82,33.29,33.29,0,0,1,16-4.93c12.07-.26,18,5.8,18,22.8V95.34a2.35,2.35,0,0,1-2.35,2.35H471.47a2.35,2.35,0,0,1-2.35-2.35V63.92c0-8.6-1.92-11.3-7.51-11.14a15.13,15.13,0,0,0-8.5,3,2.37,2.37,0,0,0-.93,1.88V95.34a2.35,2.35,0,0,1-2.35,2.35H435.36A2.35,2.35,0,0,1,433,95.34V41A2.35,2.35,0,0,1,435.36,38.63Z"/><path class="cls-1" d="M383.67,0C356,.81,336.44,15,335.79,50.25c-.59,31.61,16.59,51.86,45.92,51.27,27.23-.52,45.91-15.61,46.56-50.88C428.86,19.09,411.88-.76,383.67,0ZM408,61.52a37.52,37.52,0,0,1-2.31,11L404.42,76A7.58,7.58,0,0,1,399,80.86L388.2,83.37a9.56,9.56,0,0,1-5-.47c-.14-.07-8.69-3.81-14.93-9.57-4.82-4.48-11.47-12.49-11.54-12.56a6.5,6.5,0,0,1,.68-8.82,5.82,5.82,0,0,1,4.21-1.49,6,6,0,0,1,4.34,2.24c.48.54,1.49,1.69,2.65,3l-6.65-28.77a6.39,6.39,0,0,1,4.61-7.74,5.91,5.91,0,0,1,4.75.88,6.62,6.62,0,0,1,2.78,4.07l3.13,13.1a5.61,5.61,0,0,1,2.3-1.15,6.2,6.2,0,0,1,6.11,2.1,6.29,6.29,0,0,1,3-1.69,5.92,5.92,0,0,1,4.75.88,5.86,5.86,0,0,1,1.36,1.22,6.19,6.19,0,0,1,3-1.7,6,6,0,0,1,4.75.88,6.57,6.57,0,0,1,2.72,4.08l1.9,8.28A43.28,43.28,0,0,1,408,61.52Z"/></g></g></svg>