<svg xmlns="http://www.w3.org/2000/svg" viewBox="0 0 1962 400"><defs><style>.cls-1{fill:#fff;}</style></defs><title>white_bg</title><g id="Layer_2" data-name="Layer 2"><g id="Layer_3" data-name="Layer 3"><path class="cls-1" d="M12,0S124,7,137,112,258,318,258,318s32.5,23.5,59.5-11.5,43,22,43,22S376,259,399,256s-9,81-9,81,26-51,35-36-34.5,36.5-34.5,36.5S541,456,678,345s178,3,243,12,139-46,171-36,155,49,155,49,53,36,114,22,98-5,114-26,11-29,88-29,173-22,173-37,30-114,60-114,47-4,55-32,46-66,65-81,44-49,44-49l2,376H0V1Z"/></g><g id="Layer_2-2" data-name="Layer 2"><path class="cls-1" d="M417.5,195.5s60,143,58.35,191.5l5,2.7s10.61-19.2-20.39-94.2C451.32,273.28,417.5,195.5,417.5,195.5Z"/><path class="cls-1" d="M477.5,377.5s-18-29.95-31-35C410.5,328.5,477.5,377.5,477.5,377.5Z"/><path class="cls-1" d="M471.5,349.5s-13.2-35.84-35.92-40.95C426.5,306.5,471.5,349.5,471.5,349.5Z"/><path class="cls-1" d="M460.64,308.55s-21-31.11-44.27-31.75C405.5,276.5,460.64,308.55,460.64,308.55Z"/><path class="cls-1" d="M449.64,279.55S426.5,250.5,405.37,247.8C389.36,245.75,449.64,279.55,449.64,279.55Z"/><path class="cls-1" d="M440.64,251.55s-18.87-24.69-35.86-27.17C391.9,222.5,440.64,251.55,440.64,251.55Z"/><path class="cls-1" d="M429.64,224.55s-13.23-15.84-25.49-17.17C394.86,206.37,429.64,224.55,429.64,224.55Z"/><path class="cls-1" d="M480.33,377.7s10.81-33.24,22.33-41.08C534.58,314.88,480.33,377.7,480.33,377.7Z"/><path class="cls-1" d="M476.1,345.46s-3.35-38,15-52.37C498.45,287.37,476.1,345.46,476.1,345.46Z"/><path class="cls-1" d="M465.06,308.62s-4.11-37.3,13.23-52.84C486.39,248.52,465.06,308.62,465.06,308.62Z"/><path class="cls-1" d="M452.87,279.65s-4.68-36.84,8.13-53.87C470.7,212.88,452.87,279.65,452.87,279.65Z"/><path class="cls-1" d="M439.94,251.35s-.48-31.06,11.34-43.54C460.23,198.36,439.94,251.35,439.94,251.35Z"/><path class="cls-1" d="M428.89,223.39s.59-20.63,9.39-29.26C445,187.58,428.89,223.39,428.89,223.39Z"/><path class="cls-1" d="M331,125.42s-68.37,162.94-66.49,218.2l-5.74,3.08S246.68,324.82,282,239.36C292.46,214.05,331,125.42,331,125.42Z"/><path class="cls-1" d="M262.63,332.8s20.53-34.13,35.32-39.88C339,277,262.63,332.8,262.63,332.8Z"/><path class="cls-1" d="M269.47,300.89s15-40.83,40.93-46.66C320.74,251.9,269.47,300.89,269.47,300.89Z"/><path class="cls-1" d="M281.84,254.23s23.91-35.44,50.44-36.17C344.67,217.72,281.84,254.23,281.84,254.23Z"/><path class="cls-1" d="M294.37,221.19s26.37-33.1,50.45-36.18C363.06,182.68,294.37,221.19,294.37,221.19Z"/><path class="cls-1" d="M304.63,189.28s21.5-28.13,40.86-30.95C360.17,156.19,304.63,189.28,304.63,189.28Z"/><path class="cls-1" d="M317.16,158.52s15.08-18,29-19.56C356.79,137.81,317.16,158.52,317.16,158.52Z"/><path class="cls-1" d="M259.41,333S247.08,295.16,234,286.22C197.59,261.45,259.41,333,259.41,333Z"/><path class="cls-1" d="M264.22,296.29s3.83-43.34-17.1-59.67C238.76,230.1,264.22,296.29,264.22,296.29Z"/><path class="cls-1" d="M276.8,254.31s4.69-42.49-15.07-60.21C252.5,185.83,276.8,254.31,276.8,254.31Z"/><path class="cls-1" d="M290.69,221.3s5.33-42-9.26-61.37C270.38,145.23,290.69,221.3,290.69,221.3Z"/><path class="cls-1" d="M305.43,189.06s.54-35.4-12.92-49.61C282.31,128.69,305.43,189.06,305.43,189.06Z"/><path class="cls-1" d="M318,157.2s-.66-23.5-10.69-33.34C299.72,116.4,318,157.2,318,157.2Z"/><path class="cls-1" d="M1170.5,188.5s60,143,58.35,191.5l5,2.7s10.61-19.2-20.39-94.2C1204.32,266.28,1170.5,188.5,1170.5,188.5Z"/><path class="cls-1" d="M1230.5,370.5s-18-29.95-31-35C1163.5,321.5,1230.5,370.5,1230.5,370.5Z"/><path class="cls-1" d="M1224.5,342.5s-13.2-35.84-35.92-40.95C1179.5,299.5,1224.5,342.5,1224.5,342.5Z"/><path class="cls-1" d="M1213.64,301.55s-21-31.11-44.27-31.75C1158.5,269.5,1213.64,301.55,1213.64,301.55Z"/><path class="cls-1" d="M1202.64,272.55s-23.14-29.05-44.27-31.75C1142.36,238.75,1202.64,272.55,1202.64,272.55Z"/><path class="cls-1" d="M1193.64,244.55s-18.87-24.69-35.86-27.17C1144.9,215.5,1193.64,244.55,1193.64,244.55Z"/><path class="cls-1" d="M1182.64,217.55s-13.23-15.84-25.49-17.17C1147.86,199.37,1182.64,217.55,1182.64,217.55Z"/><path class="cls-1" d="M1233.33,370.7s10.81-33.24,22.33-41.08C1287.58,307.88,1233.33,370.7,1233.33,370.7Z"/><path class="cls-1" d="M1229.1,338.46s-3.35-38,15-52.37C1251.45,280.37,1229.1,338.46,1229.1,338.46Z"/><path class="cls-1" d="M1218.06,301.62s-4.11-37.3,13.23-52.84C1239.39,241.52,1218.06,301.62,1218.06,301.62Z"/><path class="cls-1" d="M1205.87,272.65s-4.68-36.84,8.13-53.87C1223.7,205.88,1205.87,272.65,1205.87,272.65Z"/><path class="cls-1" d="M1192.94,244.35s-.48-31.06,11.34-43.54C1213.23,191.36,1192.94,244.35,1192.94,244.35Z"/><path class="cls-1" d="M1181.89,216.39s.59-20.63,9.39-29.26C1198,180.58,1181.89,216.39,1181.89,216.39Z"/><path class="cls-1" d="M1324.62,266.12S1284.89,360.8,1286,392.91l-3.34,1.79s-7-12.71,13.5-62.37C1302.23,317.62,1324.62,266.12,1324.62,266.12Z"/><path class="cls-1" d="M1284.89,386.62s11.93-19.83,20.53-23.17C1329.25,354.18,1284.89,386.62,1284.89,386.62Z"/><path class="cls-1" d="M1288.86,368.08s8.74-23.72,23.79-27.11C1318.66,339.61,1288.86,368.08,1288.86,368.08Z"/><path class="cls-1" d="M1296.05,341s13.9-20.6,29.31-21C1332.56,319.75,1296.05,341,1296.05,341Z"/><path class="cls-1" d="M1303.34,321.77s15.32-19.23,29.31-21C1343.25,299.39,1303.34,321.77,1303.34,321.77Z"/><path class="cls-1" d="M1309.3,303.23s12.49-16.35,23.74-18C1341.57,284,1309.3,303.23,1309.3,303.23Z"/><path class="cls-1" d="M1316.58,285.35s8.76-10.48,16.88-11.36C1339.61,273.32,1316.58,285.35,1316.58,285.35Z"/><path class="cls-1" d="M1283,386.76s-7.16-22-14.79-27.2C1247.1,345.16,1283,386.76,1283,386.76Z"/><path class="cls-1" d="M1285.82,365.41s2.22-25.19-9.94-34.67C1271,327,1285.82,365.41,1285.82,365.41Z"/><path class="cls-1" d="M1293.13,341s2.72-24.7-8.76-35C1279,301.22,1293.13,341,1293.13,341Z"/><path class="cls-1" d="M1301.2,321.83s3.09-24.39-5.38-35.66C1289.4,277.63,1301.2,321.83,1301.2,321.83Z"/><path class="cls-1" d="M1309.76,303.1s.31-20.57-7.51-28.83C1296.33,268,1309.76,303.1,1309.76,303.1Z"/><path class="cls-1" d="M1317.07,284.58s-.38-13.65-6.21-19.37C1306.44,260.88,1317.07,284.58,1317.07,284.58Z"/></g><g id="Layer_5" data-name="Layer 5"><path class="cls-1" d="M1423.32,390.74a4.42,4.42,0,0,1-5-5.45c1.78-6.82,2.41-17-7.81-20.79-16-6-19.72-8-34-10-7-1-12.87-2-14-8-3-16,19,8-1-16s-23-27-21-31c3.36-6.73,31.8,27.05,38.56,35.24a4.34,4.34,0,0,0,3.3,1.6c1.53,0,3.55.38,4.14,2.16,2.7,8.11,20,14,24,16s17.57,6.76,18-4c1-24.59-102.49-68.52-105.91-137.5a4.4,4.4,0,0,1,6.41-4.14l.18.1a4.35,4.35,0,0,0,6.6-3.78c-.34-14.81.35-34.5,6.72-30.68,9.18,5.51,1.51,78.36,23.36,91.88a4.41,4.41,0,0,0,6.71-3.44c.36-5.41,1.79-12.3,6.93-8.44,7.72,5.79,8.92,59.08,42.26,58.3a4.38,4.38,0,0,0,4.22-3.88c1.64-14,5.21-65-27.48-74.42-31.47-9.11-28.65-26.44-26.75-32.14a4.3,4.3,0,0,1,3.8-3c3.08-.17,8.59,1.54,17,11.09,14,16-16-20-17-36s-6-38,7-14,30,78,41,78-10.2-36.4-9-38c6-8,1-25-4-38s-32-34-27-44c3-5.94,8.76-4.82,13-2.94a4.38,4.38,0,0,0,6-2.81c.75-2.75,2-5.25,4-4.25,4,2,16,12,22,80,0,0,1,13,6,2s-3-40,0-43,8-22,12-15-2,71,0,80-19,123-5,128c12.39,4.42,17-26,11-117,0,0-1-19,6-3s1,43,8,39-17-148,8-136-5,100,8,102,9-10,11-11,1-32,9-26,2,28,8,24,10-17,15-14c9.59,5.75,7,28,1,34C1511,248,1463.7,263,1470.21,326a4.39,4.39,0,0,0,3.74,3.94c4.73.61,14-2.56,25.55-28.41,17-38,25-60,32-59s-15,49-20,57c-6.75,10.79-12,40-42,41-27.15.91-3,8-20.67,19.67-5,3.28.62,16.82.65,22.55a4.39,4.39,0,0,1-3.7,4.38Z"/><path class="cls-1" d="M166.41,222.16a2.61,2.61,0,0,0,4-1.8c.61-4.11,2.6-9.76,9-9.48,10.06.43,12.53.22,20.74,2.4,4,1.07,7.45,1.88,9.44-1.11,5.31-8-12.15,0,4.23-8.45s18.69-9.35,18.53-12c-.28-4.42-23.48,7.35-29,10.24a2.52,2.52,0,0,1-2.16.1,2.35,2.35,0,0,0-2.74.22c-3.33,3.78-14.07,3-16.7,3.15s-11.09-.37-8.84-6.31C178,185.58,244.24,185.58,262,149a2.6,2.6,0,0,0-2.52-3.73l-.12,0a2.57,2.57,0,0,1-2.71-3.57c3.59-8,7.75-18.8,3.42-18.19-6.25.87-18.87,42.15-33.83,44.46a2.61,2.61,0,0,1-2.85-3.42c1-3,1.86-7.08-1.82-6.17-5.52,1.36-18.44,30-36.34,21.89a2.58,2.58,0,0,1-1.4-3.08c2.34-8,12.13-36.43,32-34,19.17,2.3,21.63-7.75,21.92-11.28a2.53,2.53,0,0,0-1.39-2.47c-1.63-.81-5-1.15-11.74,2.11-11.28,5.45,13.28-7.17,17.51-15.61s12-19.23-.57-9.21-34.24,35.4-40.21,32.87S215.29,122.14,215,121c-1.42-5.72,5.21-13.79,10.92-19.69s25.18-11.08,24.78-17.65c-.25-3.91-3.65-4.64-6.37-4.58a2.6,2.6,0,0,1-2.62-2.92c.23-1.66.13-3.31-1.19-3.22-2.63.16-11.44,2.82-30.36,38.32,0,0-3.53,6.83-3.71-.29s10.84-21,9.9-23.33.73-13.77-3.05-10.9-15.27,39-18.43,43.4-18,71.09-26.76,70.58c-7.74-.45-3.24-18,21-66,0,0,4.91-10.07-2.57-3s-10.44,23.1-13.32,19.32,43.31-76.37,27-75.62-20.32,55.4-27.83,53.49-2.58-7.5-3.43-8.5,6.83-17.59,1.1-16.18S162.5,109,160.17,105.4s-1.51-11.53-4.91-11.05c-6.53.91-10.25,13.58-8.38,18.21,4.84,12,27,31,9,63.66A2.58,2.58,0,0,1,153,177.5c-2.7-.75-7-4.61-7.31-21.29-.47-24.53.26-38.3-3.77-39.37s-3.15,30-2.28,35.52c1.17,7.41-2.7,24.46,13.34,31.91,14.52,6.75-.22,5,6.68,15.43,1.94,2.93-4.2,9-5.55,12.09a2.59,2.59,0,0,0,1,3.22Z"/><path class="cls-1" d="M1827.13,202.76a2.61,2.61,0,0,0,3-3.21c-1-4-1.42-10,4.6-12.25,9.43-3.54,11.62-4.69,20-5.89,4.12-.59,7.58-1.18,8.25-4.72,1.76-9.43-11.2,4.72.59-9.43s13.55-15.91,12.37-18.26c-2-4-18.74,15.94-22.72,20.77a2.58,2.58,0,0,1-2,.94c-.9,0-2.09.22-2.44,1.27-1.59,4.77-11.78,8.25-14.14,9.43s-10.35,4-10.61-2.36c-.58-14.49,60.4-40.38,62.42-81a2.6,2.6,0,0,0-3.78-2.44l-.11.06a2.57,2.57,0,0,1-3.89-2.23c.2-8.73-.21-20.33-4-18.08-5.41,3.25-.89,46.18-13.77,54.15a2.6,2.6,0,0,1-4-2c-.21-3.19-1-7.25-4.08-5-4.55,3.41-5.26,34.82-24.9,34.35a2.58,2.58,0,0,1-2.49-2.29c-1-8.27-3.08-38.27,16.19-43.85,18.54-5.37,16.88-15.58,15.76-18.94a2.54,2.54,0,0,0-2.24-1.74c-1.81-.1-5.06.91-10,6.54-8.25,9.43,9.43-11.79,10-21.22s3.53-22.39-4.13-8.25-17.68,46-24.16,46,6-21.45,5.3-22.4c-3.53-4.71-.59-14.73,2.36-22.39s18.86-20,15.91-25.93c-1.75-3.5-5.16-2.84-7.65-1.73a2.58,2.58,0,0,1-3.55-1.66c-.44-1.62-1.17-3.09-2.35-2.5-2.36,1.18-9.43,7.07-13,47.14,0,0-.59,7.66-3.53,1.18s1.76-23.57,0-25.34-4.72-13-7.08-8.84,1.18,41.84,0,47.15,11.2,72.48,3,75.43c-7.3,2.6-10-15.32-6.48-68.95,0,0,.59-11.2-3.54-1.77s-.59,25.34-4.71,23,10-87.21-4.72-80.14,3,58.93-4.71,60.11-5.3-5.9-6.48-6.48-.59-18.86-5.31-15.33-1.17,16.5-4.71,14.15-5.89-10-8.84-8.25c-5.65,3.39-4.13,16.5-.59,20,9.13,9.13,37,18,33.17,55.08a2.59,2.59,0,0,1-2.2,2.33c-2.79.36-8.24-1.51-15.06-16.75-10-22.39-14.73-35.35-18.86-34.76s8.84,28.87,11.79,33.59c4,6.36,7.07,23.57,24.75,24.16,16,.53,1.77,4.71,12.18,11.59,2.93,1.93-.36,9.91-.38,13.29a2.59,2.59,0,0,0,2.18,2.58Z"/><path class="cls-1" d="M1055.5,170.5s14.09,20.25,4,48c-12,33-18,56-7,80s3,26.83,3,26.83l9-2.83s-5.89-18.58-9-31c-4-16-2-34,4-54,2.24-7.48,19-45,5-67S1055.5,170.5,1055.5,170.5Z"/><path class="cls-1" d="M1031.5,288.5c-.88,5.45-15.1,7.33-24.1,5.87s-15.57-7.06-14.69-12.51,8.89-8.69,17.89-7.23S1032.38,283.05,1031.5,288.5Z"/><path class="cls-1" d="M1038.5,263.5c-1.36,4.78-13.5,4.92-21.46,2.66s-13.33-8-12-12.77,8.93-6.81,16.89-4.55S1039.86,258.72,1038.5,263.5Z"/><path class="cls-1" d="M1037.39,210.5c6.13,7.77,12.78,19.56,7.9,23.41s-19.45-1.71-25.58-9.48-7.13-17.2-2.25-21.05S1031.27,202.72,1037.39,210.5Z"/><path class="cls-1" d="M1057.5,206.5c-5.29,3.51-17.4-4.32-22.59-12.15s-5.09-17,.2-20.52,13.79,0,19,7.82S1062.79,203,1057.5,206.5Z"/><path class="cls-1" d="M1078.47,158.33c-4.57,8.51-18.62,15-25.87,11.15s-5-16.74-.42-25.25,14.16-12.27,21.42-8.37S1083,149.81,1078.47,158.33Z"/><path class="cls-1" d="M1064.75,296.72c2.83,4.74,16.74,1.26,24.57-3.4s11.89-12.29,9.06-17-11.46-4.82-19.29-.16S1061.93,292,1064.75,296.72Z"/><path class="cls-1" d="M1064.65,267.18c2.85,4.07,14.36.23,21.15-4.52s10-11.91,7.12-16-10.66-3.52-17.45,1.24S1061.8,263.11,1064.65,267.18Z"/><path class="cls-1" d="M1087.17,211.86c-8.05,5.76-17.72,15.24-14.09,20.29s19.16,3.77,27.2-2,11.63-14.53,8-19.58S1095.21,206.09,1087.17,211.86Z"/><path class="cls-1" d="M1079.53,195.2c3.33,5.4,17.61,3.38,25.6-1.54s11.77-13.31,8.44-18.71-12.51-5.8-20.51-.87S1076.2,189.79,1079.53,195.2Z"/><path class="cls-1" d="M1031.5,288.5s14.83-6.26,17.91,1.87V282.5s-15.67,1-21.29,0S1031.5,288.5,1031.5,288.5Z"/><path class="cls-1" d="M1031.59,263.5s14.82-6.26,17.91,1.87V257.5s-15.67,1-21.29,0S1031.59,263.5,1031.59,263.5Z"/><path class="cls-1" d="M1054.53,201.35s11.5,11.26,5.19,17.25l6.78-3.1s-6.49-14-7.74-19.58S1054.53,201.35,1054.53,201.35Z"/><path class="cls-1" d="M1066.16,262.64s-12.61,10-17.76,3l2.11,7.59s14.82-5.17,20.51-5.71S1066.16,262.64,1066.16,262.64Z"/><path class="cls-1" d="M1071.22,287.87s-12.17,10.53-17.61,3.75l2.43,7.49s14.59-5.8,20.25-6.58S1071.22,287.87,1071.22,287.87Z"/><path class="cls-1" d="M1041.25,233.86s14.29,7.4,10,15l6-5s-10.79-11.41-13.62-16.37S1041.25,233.86,1041.25,233.86Z"/><path class="cls-1" d="M1074.16,225.64s-12.61,10-17.76,3l2.11,7.59s14.82-5.17,20.51-5.71S1074.16,225.64,1074.16,225.64Z"/><path class="cls-1" d="M1083.16,188.64s-12.61,10-17.76,3l2.11,7.59s14.82-5.17,20.51-5.71S1083.16,188.64,1083.16,188.64Z"/><path class="cls-1" d="M957,265.82s-9.15,12.49-2.6,29.61c7.79,20.36,11.68,34.54,4.54,49.35S957,361.33,957,361.33l-5.84-1.75S955,348.13,957,340.46c2.59-9.87,1.29-21-2.6-33.31-1.46-4.61-12.33-27.76-3.25-41.33S957,265.82,957,265.82Z"/><path class="cls-1" d="M972.55,338.61c.58,3.36,9.81,4.52,15.64,3.62s10.11-4.35,9.54-7.71-5.77-5.36-11.61-4.47S972,335.25,972.55,338.61Z"/><path class="cls-1" d="M968,323.19c.88,2.95,8.76,3,13.93,1.64s8.65-4.93,7.77-7.88-5.8-4.2-11-2.8S967.13,320.24,968,323.19Z"/><path class="cls-1" d="M968.73,290.49c-4,4.8-8.3,12.07-5.13,14.45s12.63-1.06,16.6-5.85,4.63-10.61,1.46-13S972.7,285.7,968.73,290.49Z"/><path class="cls-1" d="M955.68,288c3.43,2.16,11.29-2.67,14.66-7.5s3.31-10.49-.13-12.66-9,0-12.32,4.83S952.24,285.86,955.68,288Z"/><path class="cls-1" d="M942.07,258.31c3,5.26,12.08,9.28,16.79,6.88s3.23-10.32.27-15.58-9.19-7.56-13.9-5.16S939.1,253.06,942.07,258.31Z"/><path class="cls-1" d="M951,343.68c-1.83,2.93-10.86.78-16-2.1s-7.71-7.58-5.88-10.5,7.44-3,12.52-.1S952.8,340.75,951,343.68Z"/><path class="cls-1" d="M951,325.46c-1.85,2.51-9.33.14-13.73-2.79s-6.47-7.35-4.62-9.86,6.92-2.17,11.32.77S952.89,323,951,325.46Z"/><path class="cls-1" d="M936.42,291.33c5.22,3.56,11.5,9.41,9.15,12.52s-12.44,2.33-17.66-1.23-7.55-9-5.2-12.08S931.2,287.78,936.42,291.33Z"/><path class="cls-1" d="M941.38,281.05c-2.16,3.34-11.43,2.09-16.62-.95s-7.64-8.2-5.47-11.54,8.12-3.57,13.31-.53S943.54,277.72,941.38,281.05Z"/><path class="cls-1" d="M972.55,338.61s-9.62-3.86-11.62,1.16v-4.86s10.17.62,13.82,0S972.55,338.61,972.55,338.61Z"/><path class="cls-1" d="M972.5,323.19s-9.63-3.86-11.63,1.15v-4.85s10.17.62,13.82,0S972.5,323.19,972.5,323.19Z"/><path class="cls-1" d="M957.6,284.85s-7.46,6.95-3.36,10.64l-4.4-1.91s4.21-8.64,5-12.08S957.6,284.85,957.6,284.85Z"/><path class="cls-1" d="M950.06,322.66s8.18,6.17,11.53,1.85l-1.37,4.67s-9.63-3.18-13.32-3.52S950.06,322.66,950.06,322.66Z"/><path class="cls-1" d="M946.77,338.22s7.9,6.5,11.44,2.32l-1.58,4.61s-9.47-3.57-13.15-4S946.77,338.22,946.77,338.22Z"/><path class="cls-1" d="M966.23,304.91s-9.28,4.56-6.51,9.23L955.8,311s7-7,8.83-10.09S966.23,304.91,966.23,304.91Z"/><path class="cls-1" d="M944.87,299.83s8.18,6.17,11.52,1.85L955,306.36s-9.62-3.19-13.31-3.52S944.87,299.83,944.87,299.83Z"/><path class="cls-1" d="M939,277s8.18,6.17,11.52,1.85l-1.37,4.68s-9.62-3.19-13.31-3.53S939,277,939,277Z"/><path class="cls-1" d="M625.16,195.55c.4,5.94,4.81,10.9,9.81,14.13s10.7,5.21,15.82,8.23c15.56,9.17,24.45,27.12,40.18,36a39.41,39.41,0,0,1-20.58-4.39,27.21,27.21,0,0,1-7.69-5.76,60.52,60.52,0,0,1-5-7.24,64.23,64.23,0,0,0-32.88-25.44c-1.26,2,.31,4.6,2.1,6.15s4,3,4.38,5.38l-13-5c-1.9-.72-4-1.46-5.84.12a4.14,4.14,0,0,0-1.35,2.83c-.17,2.79,1.7,5,3.82,6.47,10.44,7.45,27.4,2.22,35.78,11.93,3.95,4.58,4.94,11.61,10,14.89,3.45,2.22,7.84,2,11.92,2.55a34,34,0,0,1,17.73,7.81c-4.88,2.39-10.61-.07-15.69-2a80.64,80.64,0,0,0-21.54-5c-2.93-.27-5.93-.39-8.67-1.46a26.39,26.39,0,0,1-5.43-3.23l-13.57-9.62c-2.51-1.79-5.42-3.66-8.44-3a37.32,37.32,0,0,0,14.82,17c-1.41,1.45-3.72,1.33-5.74,1.42s-4.64,1-4.78,3.16a3.14,3.14,0,0,0,2,3c2.1.87,4.23.14,6.3-.38,8.42-2.11,17.28-.87,25.87.39l14,2,24.76,3.61a2.88,2.88,0,0,1,2.5,2.45c.19,1.82-1.51,2.53-3,2.95A49.57,49.57,0,0,1,678,277.93c-13.52-.54-26.36-9.59-39.63-6.93a2,2,0,0,0-1.55.9,1.86,1.86,0,0,0,.06,1.33c1.55,4.8,6.52,8,11.54,8.39,1.31.11,2.69.08,3.77.9a2.15,2.15,0,0,1,.9,1.79c0,1-.84,1.41-1.57,1.77l-9.23,4.51c.18,2.17,3.15,2.65,5.32,2.4,16.66-1.95,32.25-10.43,49-10.82,1.39,2.67-.54,5.93-3,7.73s-5.38,2.87-7.39,5.11c4,2.06,8.86-.14,12.39-2.92s6.79-6.29,11.18-7.26a21.52,21.52,0,0,1,6.51-.1l16.72,1.43a25.23,25.23,0,0,1,7.72,1.48c4,1.7,6.87,5.33,9.52,8.82,5.19,6.83,10.45,13.79,13.37,21.84a103.4,103.4,0,0,1,18-6.09l-3.06-13.45a9.37,9.37,0,0,1,4.49-9.86A36.13,36.13,0,0,1,809,286.27c3.15.87,6.2,2.17,9.45,2.49a4.79,4.79,0,0,0-2.58-4.74,14,14,0,0,0-5.54-1.41l-16.94-1.94c2.33-3.69,7.13-4.82,11.47-5.37,13.41-1.69,27-.87,40.52-.65A2.83,2.83,0,0,0,848,273c.79-2-1.29-3.27-3-3.82-8.62-2.72-17.91-1.44-26.94-1a4.35,4.35,0,0,1-3-.6,2.87,2.87,0,0,1-.48-3.49,6.6,6.6,0,0,1,2.8-2.5c6.35-3.45,14.08-3,21.2-1.8s14.28,3.17,21.48,2.44a3.08,3.08,0,0,0,2.1-.8c.72-.82.43-2.12-.1-3.09-2.45-4.45-8.3-5.63-13.39-5.53s-10.45.93-15-1.3c11.72-5.62,25.35-6.11,38.17-3.95,6.46,1.08,13.34,2.76,19.33.1.56-2.53-2.18-4.5-4.61-5.43a37.28,37.28,0,0,0-16.34-2.29c-4.4.38-9,1.51-13.1-.21-.55-1,.62-2.07,1.63-2.64l13.63-7.68c8.9-5,15.83-13.41,21.08-21.81,3.08-4.94,3.48-11.41,0-16.11a1.37,1.37,0,0,0-.19-.22,2.51,2.51,0,0,0-2.52-.3c-2.74.9-4.42,3.6-5.87,6.1l-8.39,14.48c-1.31-2.51.05-5.49.87-8.2a20.49,20.49,0,0,0,0-11.51c-5,3.64-5.67,11.14-5.37,16.69a31.07,31.07,0,0,1-.81,9.32,10,10,0,0,1-1.57,3.79,12.52,12.52,0,0,1-3.38,2.65c-8.05,5.09-14.43,12.81-23.21,16.5-5.35,2.25-11.5,3-15.94,6.7-2.22,1.87-3.92,4.43-6.53,5.69-2.18,1.06-4.8,1.09-6.8,2.46-3.24,2.22-3.6,7-6.39,9.76-3.13,3.1-8.33,2.8-12,5.23a28.14,28.14,0,0,0-4.6,4.53c-1.7,1.81-3.81,3.48-6.39,3.34a4,4,0,0,1-3.35-2c-1.15-2.07.22-4.17,2-5.16a15,15,0,0,1,4.53-1.32,54.79,54.79,0,0,0,15.59-5.56,9.55,9.55,0,0,0,3.87-3.17c2.06-3.37.26-8.75,3.53-11,1.45-1,3.36-.86,5.06-1.32,3.31-.89,5.65-4,8.91-5,2.66-.87,5.76-.32,8.13-1.81s3.2-4.4,5.1-6.38c5-5.25,15.73-2.73,19-9.18-2.66-1.76-6.86.83-9.07-1.84a3.87,3.87,0,0,1-.36-4.11c1.43-3,4.5-4,6.92-5.8a13.18,13.18,0,0,0,5.1-9.25c.35-4-1.19-8-2-11.95s-.78-8.62,2.1-11.49c1.38-1.38,3.24-2.16,4.78-3.36s2.79-3.19,2.19-5c-5.74,1.94-9.68,7.11-13.15,12.08a15.6,15.6,0,0,0-2.9,5.78c-.47,2.55.33,5.13.69,7.69a22.66,22.66,0,0,1-2.67,14.11c-2,3.57-4.94,6.52-7.84,9.41l-10,10c-2.35-1.05-2.79-4.41-1.63-6.72s3.38-3.85,5.38-5.48a44,44,0,0,0,13.17-18.18c.77-2,1.27-4.63-.71-5.88a3.23,3.23,0,0,0-2.73-.28c-2,.64-3.12,2.34-4.19,4l-9.77,15a112.43,112.43,0,0,0-8,13.59,55.67,55.67,0,0,0-4.4,14.14l-2.33-14.19c-.16-.95-.74-2.18-1.66-1.9a1.56,1.56,0,0,0-.76.7c-2.13,3.28-1.67,7.57-2.86,11.29-1.51,4.73-5.54,8.16-9.38,11.32-2.16-3.84.68-8.59,3.92-11.57.56-.51,1.16-1.06,1-2a1.88,1.88,0,0,0-2.23-1.37c-1.72.32-2.51,2-3,3.55-.44,1.36-.84,2.84-1.93,3.75-2.1-3-.59-7.24,1.48-10.3s4.78-6,5.09-9.68c-3.44-1-7.06,1.69-8.44,5s-1.11,7-.81,10.59l1.56,18.38a3.16,3.16,0,0,1-.19,1.76,3.21,3.21,0,0,1-2.44,1.23c-3.79.62-7.85,1.21-11.19-1.16a5.56,5.56,0,0,1-2.46-5c.31-3.16,3.24-4.25,5.43-5.93a11.9,11.9,0,0,0,4.52-8c.42-3.86-1.08-7.75-.57-11.6.62-4.6,4.2-8.51,8.54-10.16a19.22,19.22,0,0,1,13.62.43c3,1.17,6.08,3,9.29,1.44a3.44,3.44,0,0,0,1.85-4.29c-.61-1.53-2-1.77-3.31-2-3.94-.59-8.59-1.65-10-5.36a2.91,2.91,0,0,1-.12-2,3.68,3.68,0,0,1,2.56-1.76c4-1.18,8.14-1.68,12.11-2.9s7.89-3.3,10.13-6.8c1.52-2.37,2.18-5.27,4-7.43s4.57-3.3,6.72-5.15,3.66-5.15,2-7.46a18.6,18.6,0,0,0-9.14,3.57c-2.85-2.11-3.49-6.1-3.42-9.64s.59-7.26-.8-10.53a13,13,0,0,0-7.19,9.05,22.3,22.3,0,0,0,.83,11.83c.76,2.38,1.74,5.11.44,7.24-1,1.68-3.1,2.32-5,3a45.31,45.31,0,0,0-24.92,21,7.3,7.3,0,0,1,0-10.21,26.15,26.15,0,0,1,4.56-2.87c6-3.69,8.58-10.9,10.77-17.57l4.68-14.29a9.74,9.74,0,0,0,.72-4.14,3.34,3.34,0,0,0-2.53-3,4.13,4.13,0,0,0-2.72.82c-4.88,3.08-7.17,8.89-9.15,14.31a67.38,67.38,0,0,0-2.57-13.27c-2.13.79-2.22,3.76-1.72,6,1.14,5,3.35,9.85,3.5,15s-2.63,11-7.69,11.86c-4.62-4.27-3.28-11.69-4.27-17.9-.66-4.17-2.54-8.22-2.13-12.41.56-5.83,5.39-11.66,2.8-16.9a11.94,11.94,0,0,0-6.33,6.85,30.1,30.1,0,0,0-1.71,9.39,141.2,141.2,0,0,0,.6,24.5c-2.72-2.67-1.81-7.58-4.36-10.41-1.8-2-5-2.56-6.23-4.93a8,8,0,0,1-.66-3.43l-.61-13.65c-5.37,3.34-7.26,10.47-6.44,16.73s3.8,12,6.26,17.82A112.21,112.21,0,0,1,780.51,212c1.14,6.34,1.72,12.92.27,19.21s-5.18,12.28-10.91,15.24c-5.64-6.72-5.45-17.2-.68-24.57,1.25-1.94,2.8-3.73,3.54-5.92,1.25-3.64.06-7.61-1.13-11.27a8.3,8.3,0,0,0-5.27,5.47c-1.9-.68-2.74-2.85-3.28-4.79a72.3,72.3,0,0,1-2.37-25.65c3.17-4,3.62-10.15,2.89-15.24q-1-6.93-2.4-13.78c-.15-.75-.34-1.56-1.26-1.8a2.16,2.16,0,0,0-2.23.85c-4.75,6-1.31,14.35-2.31,21.72a1.75,1.75,0,0,1-.47,1.13,1.59,1.59,0,0,1-1.35.16c-4.52-1-6.91-6-7.66-10.52s-.58-9.43-2.83-13.47c-2.71,3.38-3.69,7.9-3.56,12.23a55.32,55.32,0,0,0,2.42,12.75,9.7,9.7,0,0,0,1.56,3.64c1.42,1.78,3.94,2.38,5.42,4.12a9.58,9.58,0,0,1,1.79,4.78c1.68,10.06,1.34,20.77,6.07,29.8,1.47,2.8,3.43,5.46,3.91,8.58.91,5.92-3.74,11.25-8.72,14.57a18,18,0,0,1-6-15.55c.28-2.24,1-4.4,1.33-6.63,1-6.22-.95-12.51-3.2-18.38-1.52,3.82-1.35,8.07-1.87,12.16s-2,8.46-5.63,10.47a316.33,316.33,0,0,1-6-31.1,15.74,15.74,0,0,1,.08-6.8c.61-2,2-3.66,2.81-5.56,1.74-3.95,1.1-8.49.44-12.75l-2.28-14.48c-2.19,1-3.53,3.29-4.07,5.63a42.93,42.93,0,0,0-.56,7.18,34.45,34.45,0,0,1-3.68,13.66,1.89,1.89,0,0,1-1,1.05c-.63.21-1.26-.25-1.73-.72-6.63-6.65-4.18-18.46-9.71-26a38.13,38.13,0,0,0,3.52,29.4c2,3.43,4.49,6.54,6.33,10,7.41,14.09,3,32.28,10.77,46.16,5.19,9.24,15.42,15.79,17.51,26.18-2,2.73-6.61,1.74-8.75-.89s-2.64-6.17-3.58-9.43a32.57,32.57,0,0,0-5.61-10.94c-5.88-7.48-15.09-12.46-18.84-21.22A36.65,36.65,0,0,1,710,210.41c-2.18-18.43-1.73-37.57-8.46-54.85a5.1,5.1,0,0,0-4.6-3.47c-.57,0-1.89-1-2.93-.53a2.09,2.09,0,0,0-1,1.06c-1.46,2.81.1,6.2,1.79,8.88s3.62,5.71,2.84,8.78c-2.33,1.95-6,1.39-8.38-.51-2.85-2.28-4.17-6-5.33-9.37a2.94,2.94,0,0,0-2.82-2.07c-2.34.1-2.58,3-2.14,5a35.51,35.51,0,0,0,12,19.84c2.22,1.83,4.69,3.42,6.47,5.68,2.11,2.68,3.07,6.07,3.83,9.4a108.24,108.24,0,0,1,2.36,15.5,1.91,1.91,0,0,1-.24,1.34c-.68.83-2,0-2.69-.81l-9.36-10.83a49.37,49.37,0,0,1-6.39-8.59c-1.53-2.85-2.49-6-4.06-8.8a45.37,45.37,0,0,0-7-8.73,16.45,16.45,0,0,0-4.42-3.7,5.6,5.6,0,0,0-5.52,0c7.25,5.58,9.13,15.55,10.5,24.6a22.09,22.09,0,0,1-13-13.69c-.76-2.36-1.19-5-3.49-6.4a3,3,0,0,0-3.74.33c-1,1.07-.71,2.48-.34,3.73,2.56,8.76,7,17.53,14.72,22.33,6.19,3.83,14.06,4.82,19.48,9.68,4.62,4.15,6.91,10.66,12.19,13.93,2.48,1.53,5.4,2.19,8,3.43,7.06,3.3,11.48,10.35,15.51,17,3.82,6.33,7.79,13.37,6.57,20.66a15.7,15.7,0,0,1-11.15-9.16c-1.33-3.17-1.56-6.68-2.29-10s-2.17-6.83-5.07-8.67a17,17,0,0,0-3.11,7,73.56,73.56,0,0,1-17.41-19.06c-1.38,2.74-.53,6.16,1.25,8.65s4.33,4.3,6.74,6.19c2.89,2.27,5.69,4.81,7.4,8.07s2.16,7.36.37,10.57c-3.78-.71-6.42-4-8.71-7.12-6.78-9.15-13.7-18.61-16.47-29.65-.61-2.44-1.09-5.09-3.43-6.53a3.16,3.16,0,0,0-3.77.2c-1.66,1.5-.78,3.86,0,5.76.71,1.74,1.14,4.09-.37,5.2a49,49,0,0,0-10.72-10.06,35.47,35.47,0,0,1-5.3-4.12c-3.52-3.7-4.62-9-5.57-14-.37-2-2.7-3.53-4.48-4.43a23.7,23.7,0,0,0,.62,9.59,5,5,0,0,1,.31,2A1.52,1.52,0,0,1,648,211a2.21,2.21,0,0,1-1.21-.44,90.81,90.81,0,0,1-16.21-12.9C628.91,196,627.4,195,625.16,195.55Z"/><path class="cls-1" d="M1574.16,201.55c.4,5.94,4.81,10.9,9.81,14.13s10.7,5.21,15.82,8.23c15.56,9.17,24.45,27.12,40.18,36a39.41,39.41,0,0,1-20.58-4.39,27.21,27.21,0,0,1-7.69-5.76,60.52,60.52,0,0,1-5-7.24,64.23,64.23,0,0,0-32.88-25.44c-1.26,2,.31,4.6,2.1,6.15s4,3,4.38,5.38l-13-5c-1.9-.72-4-1.46-5.84.12a4.14,4.14,0,0,0-1.35,2.83c-.17,2.79,1.7,5,3.82,6.47,10.44,7.45,27.4,2.22,35.78,11.93,4,4.58,4.94,11.61,10,14.89,3.45,2.22,7.84,2.05,11.92,2.55a34,34,0,0,1,17.73,7.81c-4.88,2.39-10.61-.07-15.69-2a80.64,80.64,0,0,0-21.54-5c-2.93-.27-5.93-.39-8.67-1.46a26.39,26.39,0,0,1-5.43-3.23l-13.57-9.62c-2.51-1.79-5.42-3.66-8.44-3a37.32,37.32,0,0,0,14.82,17c-1.41,1.45-3.72,1.33-5.74,1.42s-4.64,1-4.78,3.16a3.14,3.14,0,0,0,2,3c2.1.87,4.23.14,6.3-.38,8.42-2.11,17.28-.87,25.87.39l14,2,24.76,3.61a2.88,2.88,0,0,1,2.5,2.45c.19,1.82-1.51,2.53-3,2.95a49.57,49.57,0,0,1-15.85,2.43c-13.52-.54-26.36-9.59-39.63-6.93a2,2,0,0,0-1.55.9,1.86,1.86,0,0,0,.06,1.33c1.55,4.8,6.52,8,11.54,8.39,1.31.11,2.69.08,3.77.9a2.15,2.15,0,0,1,.9,1.79c0,1-.84,1.41-1.57,1.77l-9.23,4.51c.18,2.17,3.15,2.65,5.32,2.4,16.66-1.95,32.25-10.43,49-10.82,1.39,2.67-.54,5.93-3,7.73s-5.38,2.87-7.39,5.11c4,2.06,8.86-.14,12.39-2.92s6.79-6.29,11.18-7.26a21.52,21.52,0,0,1,6.51-.1l16.72,1.43a25.23,25.23,0,0,1,7.72,1.48c4,1.7,6.87,5.33,9.52,8.82,5.19,6.83,10.45,13.79,13.37,21.84a103.4,103.4,0,0,1,18-6.09l-3.06-13.45a9.37,9.37,0,0,1,4.49-9.86,36.13,36.13,0,0,1,25.83-2.63c3.15.87,6.2,2.17,9.45,2.49a4.79,4.79,0,0,0-2.58-4.74,14,14,0,0,0-5.54-1.41l-16.94-1.94c2.33-3.69,7.13-4.82,11.47-5.37,13.41-1.69,27-.87,40.52-.65A2.83,2.83,0,0,0,1797,279c.79-2-1.29-3.27-3-3.82-8.62-2.72-17.91-1.44-26.94-1a4.35,4.35,0,0,1-3-.6,2.87,2.87,0,0,1-.48-3.49,6.6,6.6,0,0,1,2.8-2.5c6.35-3.45,14.08-3,21.2-1.8s14.28,3.17,21.48,2.44a3.08,3.08,0,0,0,2.1-.8c.72-.82.43-2.12-.1-3.09-2.45-4.45-8.3-5.63-13.39-5.53s-10.45.93-15-1.3c11.72-5.62,25.35-6.11,38.17-3.95,6.46,1.08,13.34,2.76,19.33.1.56-2.53-2.18-4.5-4.61-5.43a37.28,37.28,0,0,0-16.34-2.29c-4.4.38-9,1.51-13.1-.21-.55-1,.62-2.07,1.63-2.64l13.63-7.68c8.9-5,15.83-13.41,21.08-21.81,3.08-4.94,3.48-11.41,0-16.11a1.37,1.37,0,0,0-.19-.22,2.51,2.51,0,0,0-2.52-.3c-2.74.9-4.42,3.6-5.87,6.1l-8.39,14.48c-1.31-2.51,0-5.49.87-8.2a20.49,20.49,0,0,0,0-11.51c-5,3.64-5.67,11.14-5.37,16.69a31.07,31.07,0,0,1-.81,9.32,10,10,0,0,1-1.57,3.79,12.52,12.52,0,0,1-3.38,2.65c-8,5.09-14.43,12.81-23.21,16.5-5.35,2.25-11.5,3-15.94,6.7-2.22,1.87-3.92,4.43-6.53,5.69-2.18,1.06-4.8,1.09-6.8,2.46-3.24,2.22-3.6,7-6.39,9.76-3.13,3.1-8.33,2.8-12,5.23a28.14,28.14,0,0,0-4.6,4.53c-1.7,1.81-3.81,3.48-6.39,3.34a4,4,0,0,1-3.35-2c-1.15-2.07.22-4.17,2-5.16a15,15,0,0,1,4.53-1.32,54.79,54.79,0,0,0,15.59-5.56,9.55,9.55,0,0,0,3.87-3.17c2.06-3.37.26-8.75,3.53-11,1.45-1,3.36-.86,5.06-1.32,3.31-.89,5.65-4,8.91-5,2.66-.87,5.76-.32,8.13-1.81s3.2-4.4,5.1-6.38c5-5.25,15.73-2.73,19-9.18-2.66-1.76-6.86.83-9.07-1.84a3.87,3.87,0,0,1-.36-4.11c1.43-3,4.5-4,6.92-5.8a13.18,13.18,0,0,0,5.1-9.25c.35-4-1.19-8-2-11.95s-.78-8.62,2.1-11.49c1.38-1.38,3.24-2.16,4.78-3.36s2.79-3.19,2.19-5c-5.74,1.94-9.68,7.11-13.15,12.08a15.6,15.6,0,0,0-2.9,5.78c-.47,2.55.33,5.13.69,7.69a22.66,22.66,0,0,1-2.67,14.11c-2,3.57-4.94,6.52-7.84,9.41l-10.05,10c-2.35-1.05-2.79-4.41-1.63-6.72s3.38-3.85,5.38-5.48a44,44,0,0,0,13.17-18.18c.77-2,1.27-4.63-.71-5.88a3.23,3.23,0,0,0-2.73-.28c-2,.64-3.12,2.34-4.19,4l-9.77,15a112.43,112.43,0,0,0-8,13.59,55.67,55.67,0,0,0-4.4,14.14l-2.33-14.19c-.16-.95-.74-2.18-1.66-1.9a1.56,1.56,0,0,0-.76.7c-2.13,3.28-1.67,7.57-2.86,11.29-1.51,4.73-5.54,8.16-9.38,11.32-2.16-3.84.68-8.59,3.92-11.57.56-.51,1.16-1.06,1-2a1.88,1.88,0,0,0-2.23-1.37c-1.72.32-2.51,2-3,3.55-.44,1.36-.84,2.84-1.93,3.75-2.1-3-.59-7.24,1.48-10.3s4.78-6,5.09-9.68c-3.44-1-7.06,1.69-8.44,5s-1.11,7-.81,10.59l1.56,18.38a3.16,3.16,0,0,1-.19,1.76,3.21,3.21,0,0,1-2.44,1.23c-3.79.62-7.85,1.21-11.19-1.16a5.56,5.56,0,0,1-2.46-5c.31-3.16,3.24-4.25,5.43-5.93a11.9,11.9,0,0,0,4.52-8c.42-3.86-1.08-7.75-.57-11.6.62-4.6,4.2-8.51,8.54-10.16a19.22,19.22,0,0,1,13.62.43c3,1.17,6.08,3,9.29,1.44a3.44,3.44,0,0,0,1.85-4.29c-.61-1.53-2-1.77-3.31-2-3.94-.59-8.59-1.65-10-5.36a2.91,2.91,0,0,1-.12-2,3.68,3.68,0,0,1,2.56-1.76c4-1.18,8.14-1.68,12.11-2.9s7.89-3.3,10.13-6.8c1.52-2.37,2.18-5.27,4-7.43s4.57-3.3,6.72-5.15,3.66-5.15,2-7.46a18.6,18.6,0,0,0-9.14,3.57c-2.85-2.11-3.49-6.1-3.42-9.64s.59-7.26-.8-10.53a13,13,0,0,0-7.19,9.05,22.3,22.3,0,0,0,.83,11.83c.76,2.38,1.74,5.11.44,7.24-1,1.68-3.1,2.32-5,3a45.31,45.31,0,0,0-24.92,21,7.3,7.3,0,0,1,0-10.21,26.15,26.15,0,0,1,4.56-2.87c6-3.69,8.58-10.9,10.77-17.57l4.68-14.29a9.74,9.74,0,0,0,.72-4.14,3.34,3.34,0,0,0-2.53-3,4.13,4.13,0,0,0-2.72.82c-4.88,3.08-7.17,8.89-9.15,14.31a67.38,67.38,0,0,0-2.57-13.27c-2.13.79-2.22,3.76-1.72,6,1.14,5,3.35,9.85,3.5,15s-2.63,11-7.69,11.86c-4.62-4.27-3.28-11.69-4.27-17.9-.66-4.17-2.54-8.22-2.13-12.41.56-5.83,5.39-11.66,2.8-16.9a11.94,11.94,0,0,0-6.33,6.85,30.1,30.1,0,0,0-1.71,9.39,141.2,141.2,0,0,0,.6,24.5c-2.72-2.67-1.81-7.58-4.36-10.41-1.8-2-5-2.56-6.23-4.93a8,8,0,0,1-.66-3.43l-.61-13.65c-5.37,3.34-7.26,10.47-6.44,16.73s3.8,12,6.26,17.82a112.21,112.21,0,0,1,7.09,23.87c1.14,6.34,1.72,12.92.27,19.21s-5.18,12.28-10.91,15.24c-5.64-6.72-5.45-17.2-.68-24.57,1.25-1.94,2.8-3.73,3.54-5.92,1.25-3.64.06-7.61-1.13-11.27a8.3,8.3,0,0,0-5.27,5.47c-1.9-.68-2.74-2.85-3.28-4.79a72.3,72.3,0,0,1-2.37-25.65c3.17-4,3.62-10.15,2.89-15.24q-1-6.93-2.4-13.78c-.15-.75-.34-1.56-1.26-1.8a2.16,2.16,0,0,0-2.23.85c-4.75,6-1.31,14.35-2.31,21.72a1.75,1.75,0,0,1-.47,1.13,1.59,1.59,0,0,1-1.35.16c-4.52-1-6.91-6-7.66-10.52s-.58-9.43-2.83-13.47c-2.71,3.38-3.69,7.9-3.56,12.23a55.32,55.32,0,0,0,2.42,12.75,9.7,9.7,0,0,0,1.56,3.64c1.42,1.78,3.94,2.38,5.42,4.12a9.58,9.58,0,0,1,1.79,4.78c1.68,10.06,1.34,20.77,6.07,29.8,1.47,2.8,3.43,5.46,3.91,8.58.91,5.92-3.74,11.25-8.72,14.57a18,18,0,0,1-6-15.55c.28-2.24,1-4.4,1.33-6.63,1-6.22-1-12.51-3.2-18.38-1.52,3.82-1.35,8.07-1.87,12.16s-2,8.46-5.63,10.47a316.33,316.33,0,0,1-5.95-31.1,15.74,15.74,0,0,1,.08-6.8c.61-2,2-3.66,2.81-5.56,1.74-3.95,1.1-8.49.44-12.75l-2.28-14.48c-2.19,1-3.53,3.29-4.07,5.63a42.93,42.93,0,0,0-.56,7.18,34.45,34.45,0,0,1-3.68,13.66,1.89,1.89,0,0,1-1,1.05c-.63.21-1.26-.25-1.73-.72-6.63-6.65-4.18-18.46-9.71-26a38.13,38.13,0,0,0,3.52,29.4c2,3.43,4.49,6.54,6.33,10,7.41,14.09,3,32.28,10.77,46.16,5.19,9.24,15.42,15.79,17.51,26.18-2,2.73-6.61,1.74-8.75-.89s-2.64-6.17-3.58-9.43a32.57,32.57,0,0,0-5.61-10.94c-5.88-7.48-15.09-12.46-18.84-21.22a36.65,36.65,0,0,1-2.31-10.23c-2.18-18.43-1.73-37.57-8.46-54.85a5.1,5.1,0,0,0-4.6-3.47c-.57,0-1.89-1-2.93-.53a2.09,2.09,0,0,0-1,1.06c-1.46,2.81.1,6.2,1.79,8.88s3.62,5.71,2.84,8.78c-2.33,1.95-6,1.39-8.38-.51-2.85-2.28-4.17-6-5.33-9.37a2.94,2.94,0,0,0-2.82-2.07c-2.34.1-2.58,3-2.14,5a35.51,35.51,0,0,0,12,19.84c2.22,1.83,4.69,3.42,6.47,5.68,2.11,2.68,3.07,6.07,3.83,9.4a108.24,108.24,0,0,1,2.36,15.5,1.91,1.91,0,0,1-.24,1.34c-.68.83-2,0-2.69-.81l-9.36-10.83a49.37,49.37,0,0,1-6.39-8.59c-1.53-2.85-2.49-6-4.06-8.8a45.37,45.37,0,0,0-7-8.73,16.45,16.45,0,0,0-4.42-3.7,5.6,5.6,0,0,0-5.52,0c7.25,5.58,9.13,15.55,10.5,24.6a22.09,22.09,0,0,1-13-13.69c-.76-2.36-1.19-5-3.49-6.4a3,3,0,0,0-3.74.33c-1,1.07-.71,2.48-.34,3.73,2.56,8.76,7,17.53,14.72,22.33,6.19,3.83,14.06,4.82,19.48,9.68,4.62,4.15,6.91,10.66,12.19,13.93,2.48,1.53,5.4,2.19,8,3.43,7.06,3.3,11.48,10.35,15.51,17,3.82,6.33,7.79,13.37,6.57,20.66a15.7,15.7,0,0,1-11.15-9.16c-1.33-3.17-1.56-6.68-2.29-10s-2.17-6.83-5.07-8.67a17,17,0,0,0-3.11,7,73.56,73.56,0,0,1-17.41-19.06c-1.38,2.74-.53,6.16,1.25,8.65s4.33,4.3,6.74,6.19c2.89,2.27,5.69,4.81,7.4,8.07s2.16,7.36.37,10.57c-3.78-.71-6.42-4-8.71-7.12-6.78-9.15-13.7-18.61-16.47-29.65-.61-2.44-1.09-5.09-3.43-6.53a3.16,3.16,0,0,0-3.77.2c-1.66,1.5-.78,3.86,0,5.76.71,1.74,1.14,4.09-.37,5.2a49,49,0,0,0-10.72-10.06,35.47,35.47,0,0,1-5.3-4.12c-3.52-3.7-4.62-9-5.57-14-.37-2-2.7-3.53-4.48-4.43a23.7,23.7,0,0,0,.62,9.59,5,5,0,0,1,.31,2A1.52,1.52,0,0,1,1597,217a2.21,2.21,0,0,1-1.21-.44,90.81,90.81,0,0,1-16.21-12.9C1577.91,202,1576.4,201,1574.16,201.55Z"/></g></g></svg>