<svg xmlns="http://www.w3.org/2000/svg" viewBox="0 0 4799.85 2700.71"><defs><style>.cls-1{fill:#fff;}.cls-2{fill:#005086;}</style></defs><title>slide-1_1</title><g id="Layer_2" data-name="Layer 2"><g id="slide-1"><path class="cls-1" d="M3583.69,2562s1.4-21.08,7.72-28.11,20.38-52,24.59-68.14,19-55.51,12.65-69.56-38.64-40-41.45-61.13,4.21-42.15,7-49.17,12.72-20.38,12.72-20.38-6.4,21.08-6.4,28.81-9.13,27.4,2.12,18.26,39.34-62.53,34.42-97.65-16.86-51.29-53.39-66-59.72-33.72-107.5-12.65-75.88,26-100.47,24.6-40,6.32-69.55,0-34.43-14-52.69-14-30.92-14.55-38.65-19.93-7.73-29.25-9.83-43.31-5.62-27.4,0-33,7.73-21.08,14.05-21.08,29.5-11.24,37.24-28.8,10.53-40,3.51-40.75-29.51,2.11-40.05,23.18-17.57,27.4-21.08,26-19.67-9.84-33-7.73-18.27,5.62-21.78,0-9.13-23.89-29.51-31.61-41.45-13.35-42.85-2.81,7.73,33.72,26,42.85,28.81,7,26.7,12.65-6.32,14-4.92,16.86,2.81,11.94,2.81,14.75,5.62,9.14,4.22,14.76-11.95,14.05-8.43,22.48,9.83,9.14,10.54,12a8.27,8.27,0,0,0,7,6.32c4.22.7,9.13-2.81,9.13,7.73s-9.83,27.4,2.81,56.2,27.41,40.81,27.41,63.26,7,36.51,16.15,47.05,29.52,8.43,35.84,29.51,2.81,56.2-2.81,74.47-6.33,23.19-6.33,42.15,3.52,31.62,1.41,47.78-3.51,33-9.14,46.37-11.24,20.38-11.24,20.38,18.27,3.51,25.3,2.1,7-19.67,7-19.67,2.11-39.34,11.24-77.28,19-56.91,26.7-78.69,5.33-32.32,5.33-32.32,10.13,37.94,8.72,54.8,0,19.67,4.92,30.21,14.76,35.83,21.78,55.5,8.43,35.13,8.43,40.75-3.51,14-3.51,14l-.7,6.33,26.69-1.41s1.41-20.37-3.51-33-10.54-40-14.75-61.82.7-57.62,0-73.07,6.32-48.48,6.32-48.48,48.48,6.33,89.93,5.62,56.21-9.13,56.21-9.13,4.21,18.27,24.58,28.1,42.86,29.51,49.89,42.86,6.32,37.94.7,52.69-21.08,70.26-35.83,81.5-22.48,22.48-22.48,22.48,25.29,1.41,31.62-4.21,7.72-2.11,11.23-11.95,23.89-37.94,31.62-45.66,16.16-23.89,16.16-23.89-3.51,42.86-9.83,59-14.76,30.92-18.27,32.33-9.84,11.94-.7,9.83S3571.74,2569.77,3583.69,2562Z"/><path class="cls-1" d="M1923.42,2535.93s33.71,5.18,41.49-7.78,14.26-18.15,18.15-28.52-31.12-71.31-36.3-133.54-5.19-111.49-9.08-115.38-40.18-36.3-32.41-108.9,57-110.2-7.77-184.1-80.39-54.45-131-60.93-77.79,20.74-149.09,0-86.86-22-105-36.3-14.26-27.23-14.26-27.23,27.22-9.07,32.41-14.26,31.11-19.45,41.49-20.74,11.66-13,18.14-15.56,13-16.86,10.38-27.22-7.78-23.34-24.63-25.94-49.27-18.14-51.86-25.92-5.19-20.75-18.15-22-23.34-6.48-22-14.26-3.89-19.45,28.52-24.63,97.23-19.45,125.75-48,24.64-44.08,24.64-44.08-16.86,27.22-36.31,33.71a256.36,256.36,0,0,1-35,9.07s36.3-22,36.3-59.64a330.7,330.7,0,0,0-6.48-66.12s-2.59,72.61-14.26,85.57-24.63,15.56-24.63,15.56,20.74-72.6,5.18-108.9-32.41-51.86-32.41-51.86,24.63,55.75,20.75,92-63.53,73.9-63.53,73.9-14.26-10.37-16.86-32.41-3.89-60.93,13-59.63,27.22-25.93,27.22-25.93-18.14-7.78-27.22-3.9-17.08-46.66-24.74-67.41-36.19-33.71-36.19-33.71,23.33,22,23.33,51.86,3.89,51.86-11.67,62.23-38.89-38.89-49.26-63.52-11.67-57-11.67-57-6.48,45.38,11.67,83,1.64,45.38-12.79,38.9-40.37-41.49-55.92-48-42.79-14.26-42.79-14.26,79.09,53.15,94.64,75.19,63.53,18.15,71.31,24.64-1.3,75.19-23.34,77.78-35-25.93-36.3-54.45-28.52-114.09-28.52-114.09,16.85,111.5,11.67,132.24-3.89,50.56-23.34,40.19-29.82-38.89-20.74-71.3-19.45-129.65-19.45-129.65,7.78,116.68,1.3,153-10.37,53.16-32.41,40.19-40.19-23.33-36.3-70-9.08-95.94-9.08-95.94-2.59,85.57-9.08,102.43-6.47,54.45-31.11,24.63-58.34-50.56-58.34-83-2.59-49.27,11.67-75.2-6.48-58.34-6.48-58.34,1.29,55.75-25.93,64.82-25.93-27.22-25.93-27.22-9.09,37.59,0,51.85,31.13,58.35,24.64,63.53-42.78-3.89-64.82-14.26-28.52-55.74-28.52-55.74,9.07,50.56,0,67.41-10.37,16.85-29.82,31.12-28.52,37.59-28.52,37.59,35-32.41,46.67-37.59,31.11-7.78,15.56,9.07-6.49,38.89-6.49,38.89,10.38-35,22-44.08,27.23-29.82,60.94,5.19,68.71,79.08,108.9,89.46S1312.8,1631,1327.06,1644s23.33,11.67,23.33,38.89-6.48,68.72-25.93,146.5-10.37,134.83,13,178.91,38.89,97.24,42.78,136.13,19.45,59.64,19.45,97.24,15.55,75.19,6.48,105,5.18,14.26,1.3,50.56,2.59,86.86-9.08,106.3-36.3,51.86,5.19,44.08,42.78,5.19,37.59-28.52-11.67-57,0-110.19,18.15-62.23,11.67-97.24-10.37-110.2,0-120.57,44.08-18.15,46.67,5.19-3.89,77.78-11.67,93.34,0,45.38,1.3,64.83,9.08,44.07,6.48,84.26-11.66,67.42-9.07,81.68-7,28.41-7,28.41,36.8,18.26,44.58-6.37-6.48-40.19-5.19-73.9-1.29-80.38,7.78-119.27-3.89-51.86,6.48-85.56,7.78-49.28,50.56-29.82,108.9-20.75,123.16-13,48,63.52,63.53,77.79,38.89,10.37,36.3,49.26-5.18,107.61-14.26,124.46-16.85,36.3-23.34,50.56-13,28.53,23.34,25.93,46.68-16.85,42.78-71.3,9.08-101.13,15.56-132.24,5.19-60.94,5.19-73.9,10.37,1.3,28.52,14.26,33.71,66.12,36.3,92.05,15.56,84.27,11.66,102.42S1911.75,2529.45,1923.42,2535.93Z"/><path class="cls-2" d="M4468.67,1251.76a274.76,274.76,0,0,0-31.28,2.31c4.2-139,8.75-278,7-416.93-2.66-215-16.19-429.86-21.63-644.65-1.63-64.26-.92-128.4.84-192.49H4194.86c1.78,24.63,4,49.24,6.9,73.83,7.13,61,10.09,123.88,12.24,186.84-10.65-3.28-21.48-5.18-31.62-7.81-5.2-13.87-10.12-27.91-14.92-42-3.77-11.34-8-24.61-16.24-35.45-2.39-3.16-4.82-6.13-7.23-9-11.38-39.73-8.95-80.55-11.37-121.51l-1.21.06c.6,22.87-.18,45.77.78,68.75a314.07,314.07,0,0,0,3.11,34.43,67.08,67.08,0,0,0,2.89,11.3,140.9,140.9,0,0,1-9-11.89c-6.35-8.88-8.7-19.9-14.08-32.34-2.6-5.68-6.23-13.1-13.5-17-6.2-3.32-12-4.71-17.83-6.14l-2.61-.51c-.12-.38-.23-.76-.36-1.13-4.06-12.11-10.47-24.5-20.26-33.44v-.5H4060c-.91-.81-1.84-1.6-2.82-2.35C4047,46,4034.29,42.84,4023,40.94q-1.05-3.06-2.09-6.15Q4015,17.5,4009.69,0h-1.78q4.88,18,10.36,35.77c.46,1.54.94,3.09,1.42,4.64l-.83-.13c-12.34-2-24.68-4.06-37-6.19-1.15-2.94-2.13-6.06-3.22-9.15a73.24,73.24,0,0,0-9.59-18.74,76.39,76.39,0,0,0-4.91-6.2h-3.35a75,75,0,0,1,6.07,7.94,70.44,70.44,0,0,1,8.63,18.18c.75,2.34,1.45,4.79,2.25,7.25-17.67-3.11-35.26-6.5-52.67-10.62-5.9-7.38-11.52-15.13-17.18-22.75h-3.55l-1.93,1.59c4.37,6.21,8.68,12.56,13.14,18.83a462.89,462.89,0,0,1-45.86-14l-1.94,5.86a490,490,0,0,0,55.4,18.43c7.57,9.77,15.9,19,26,26.68,20.56,14.66,44.25,17.88,65.52,26,7.46,2.5,15,5.19,22.52,7.84.32.34.63.69,1,1l.35-.55c10.48,3.68,21.07,7.26,31.79,10.16,1.38,5.31,2.55,10.69,3.55,16.15a40.91,40.91,0,0,0-13-5.5,143.67,143.67,0,0,0-33.79-1.26c-22,1.38-43.84-5.35-66.14-6.55l-.08,1.36c22.06,1.91,43.59,9.43,66.37,8.82a140.39,140.39,0,0,1,32.72,2.31,33.81,33.81,0,0,1,15.24,8.51c2.46,15.91,3.79,32.33,5.37,49a.49.49,0,0,1,0,.12c-20.85-6.53-42.18-10.42-63.28-14.9l-.53,2.66c21.67,5.38,43.48,10.12,64.4,17.65,2.87,25.68,7.16,53,22.31,76.87,10,15.88,24.19,26.65,39.18,34.59-16.15,8.28-29.37,21.47-43.42,27.65-10.52,5.15-22.25,2.56-33.73-2.26s-22-12.28-33-19.42c-44.84-31.12-98.67-32.64-147.8-45.09l-.71,3c49.33,14.19,102.49,17.77,144.37,49.17,10.68,7.42,21.39,15.43,33.69,21.25a70.93,70.93,0,0,0,19.58,6.21,39.49,39.49,0,0,0,21.25-2.58c13.2-5.3,23.5-14.05,34.27-20.59,7.07-4.47,14.36-8,21.77-9.8,4.35,1.79,8.67,3.42,12.85,4.92,4.41,1.64,8.77,3.23,13.05,4.85,1.88,4.28,3.92,8.51,6.21,12.61,5.9,11,12,21.19,16.29,31.46,3.94,9,6.59,20.54,10.91,32.09q.89,22.13,2.05,44c5.71,105.07-8.09,208.83-6.26,314l.66,38.95-7.79-4.14L4205,777c-4-5.4-6.1-13.85-7.29-21.23-1.81-11.61-2.06-23.94-4.35-35.93-2.1-12.09-6-23.55-10.15-34.82a158.12,158.12,0,0,0-7.24-16.49c-2.92-5.09-5.71-11-11.44-13.55l-.37,1.31c9.08,5.94,12.66,19,16.86,29.65,3.81,11.28,7.3,22.8,9,34.53,1.9,11.79,1.76,23.76,3.28,36.05a74.42,74.42,0,0,0,3.76,16.35c-10.84-5.55-21.89-10.86-33.25-15.48-3.72-3.32-7.35-7.06-11.05-10.77-6.72-6.75-12.17-15.86-19.54-24-3.55-3.91-8.76-8.2-14.36-9.32a58.84,58.84,0,0,0-15.78-1.42c-3.91.08-7.79.38-11.63.75-2.66-7.25-5.79-14.82-11.08-21.31-.11-.15-.24-.28-.36-.42-10.21-31.43-39.83-50.88-68.52-56.89l-.19,1c26.39,6.42,52.53,24.49,63.06,51a21,21,0,0,0-7.44-3.13,59.86,59.86,0,0,0-14-2.39c-9.25-.69-18.29-.33-27.18-.21-17.43.4-35.24-3-53-5.2a204.17,204.17,0,0,0-54.1-.38L3919,679c35.67-4.78,69.91,7.79,106.68,9.27,9,.19,17.91.15,26.48,1.1,8.51,1.26,17.11,2.4,21.38,8.48,3.32,4.19,5.64,9.75,7.74,15.73-2.69.25-5.36.46-8,.57-39.66.71-79.5-2.11-119.38-2.45l0,2.43c39.76,1.69,79.42,5.88,119.46,6.53,3.47,0,6.87-.2,10.23-.41.21.61.41,1.22.62,1.84a95.1,95.1,0,0,0,5.65,14.1,34.37,34.37,0,0,0,10.91,12.28c1.81,1.21,3.63,2.3,5.47,3.29-4.13-.9-8.26-2-12.5-2.95-18.66-4.72-38.51-5.54-57.1-.35l.22,1.14c18.7-4.5,37.88-3,56.23,2.25,9.07,2.47,18.66,5.53,28.27,6,11,3.38,21.84,5.05,31.21,9.4,16.32,6.79,32.09,15.3,47.82,24.29q7.26,4.14,14.59,8.38c2.13,131.17,3.63,262.66,2.75,393.75-.46,68.68-2.88,137.46-5.54,206.24a42.32,42.32,0,0,1-6.57,2c-.85.24-1.7.45-2.56.61-3.46.25-6.94.41-10.35.34-6.78-.73-13.71-3.09-20.84-5.74-3.53-2.79-6.51-6.64-9.86-11-22.71-26.91-51.25-45.81-77-68l-1.19,1.56c25.21,23.13,53.18,43.13,74.4,70,.91,1.11,1.75,2.26,2.6,3.42q-31.2-10.58-62.48-20.44c-3.5-6-7-12.06-10.71-17.9l-.77.54c3.22,5.44,6.3,11,9.34,16.69q-55.24-17.37-110.95-32.7l-.92,3.63q58.9,18.4,117.25,39.08c9.27,17.21,18.92,34.32,32.23,48.41-34.31-9.48-65.5-38.55-103.94-37.33l-.29,2.5c42,.07,71.56,35.34,113.43,43.53l.63.53.25-.37c.72.13,1.43.28,2.15.4,21.77,1.35,41.83-5.66,61.83-4.41,1,0,2,.07,3,.12-3.78,96.64-7.45,193.24-6.22,289.51,1,79.86,4.67,159.89,5.33,239.82-5-.69-9.93-1.49-14.82-2.2-22-2.93-43.75-11.54-67.58-10a72.71,72.71,0,0,0-7.75,1,130.7,130.7,0,0,1-23-20.92c-6.1-6.66-10.36-14.91-16.18-22.35-2.69-3.68-6.46-7.49-11-8.73-4.38-1.39-8.7-2.14-13-3.16l-.45,2.09c8.64,2.36,17.66,3.28,22.27,11.72,5.33,7.23,9.52,15.92,15.64,23.07a131.85,131.85,0,0,0,19.68,19.7c-1.21.35-2.41.73-3.59,1.16-5.95,2.24-10.75,5.93-15.39,9.39s-9.1,7-13.89,9.06c-4.55,2.1-10.12,1.65-15.53,1.16-21.9-3-42.66-13.62-63.2-23.26L4001,1955c20.31,10.31,40.65,21.74,63.68,25.77,5.68.69,11.84,1.54,18-.89,5.82-2.29,10.59-5.93,15.3-9.19s9.31-6.49,14.08-8.08a55.54,55.54,0,0,1,8.86-2c4.94,3.63,10,7,15.18,10.2,17.09,10.48,35.24,18.24,53.5,25.39-11.77-1.45-23.61-3-35.62-4.72-19.2-2.36-37.13-4.14-55.73-8.06-20.55-4.61-40.29,2.57-58,7.49l1.42,7.72c19-3,37-7.07,53.5-1.1,18,6.06,37.42,10.39,55.37,14.74q8.19,2.14,16.5,4.26-7.38,3-14.61,6.54-7,.54-14,1.4c-58.55,6.45-118.28-6.63-174.24-27.11l-1.17,3.41c53.32,21.52,110.26,36.55,168.17,33.87-5.53,3.39-10.9,7-16,10.84-23.07,14.16-50.9,10.15-77.08,10l0,1.61c25.91,1,54.07,6.26,79-7.74a227.38,227.38,0,0,1,26-15.46,262.48,262.48,0,0,1,66.51,3c-.76,37.2-2.54,74.36-5.91,111.47-9.45,103.93-10,209.94-7,314.38q1,35.8,1.6,71.77c-1.89-2.44-4.15-4.9-5.45-6.86-1,3.5-4.38,6.89-5.35,10.23-12.12-8.66-8.93-20.56-10.13-34.8-8.1,4.15-9.12,14.17-16.58,18.14-1.8-5.61-5.85-9.85-9.22-14.59-1.23,1.6-3.86,2.29-5.27,4.86-8.69-3-16.63-10.44-17.88-20.59-17,2.58-27.55,19.25-45.48,21.39-16.89,2-29.76,3.93-40.53-14.2-11-2.87-19.68.94-29.52,5.52-.89.42-23.46,12.89-22.74,3-.37,5.07-.08,10.37-.57,15.43-7.76-8.77-9.67,4.52-13.6,10.13-2.41-6.66-5.3-11.58-7.76-18.2-3.16,8.82-12.65,15.87-17.95,23.86-5.13-2.16-8.33-8.24-10.63-13.33-2.66,7.58-3.33,17.74-9.43,22.14-1.79-6.53-4.75-12.89-7.63-18.94-1.4.58-3,.87-4.25,1.32a63.64,63.64,0,0,0-8.49-18.56c-2.66,4.57-3.44,9.23-4.85,14.74-2.17-6-2.55-11.31-6.12-16.44,4.42,6.34-60.71,45.07-62.83,8.72-1.63,4.54-1.38,9.89-1.51,15a33.64,33.64,0,0,1-11.18-4.9c-.79,2.85-4.34,6.22-4.86,9.46-3-1.67-2.06-.6-3.59-4-7-.9-9.54-10.88-12.83-17.26-2,6.12-4.77,12.69-9.39,16.78-1.68-6.72-4.74-13-6.86-19.1-4.38,6.05-8.26,16-10.83,24.44-2-.24-4.1-.44-6.15-.56a38.07,38.07,0,0,1-4.29-3.05c-1,.91-2,1.89-3,2.9a107.68,107.68,0,0,0-14.52,1.35c-7.29-6.63-14.28-14.51-21.33-21.44.37,4.23-.76,9.32-.6,13.59l-2.71.6c0,3.58-1.86,6.55-2.19,10.08-.07.7-36.66,2.72-41.86,1.49-15.63-3.67-26.41-14.51-31.88-30.62-16.37.14-30.85-13.77-47.6-6.85-8.15,3.36-24.14,40.83-29.08,21.08-3.44.6-5.21,3-6,6.61-5.23-4.88-3.73-12.34-9.51-16-.87,3.49-4.11,7.73-4.82,10.2-2.2-7.88-6.27-14.81-8.58-22.41-2.65-8.71-3.6-19.05-7.79-26.38-2.79,7.89-3,18.14-4.43,26-.61,3.39-1.87,6.24-2.22,9.26a19.67,19.67,0,0,0-3.1-3.64c-3.45,6.34-1.26,13.68-3.28,20.44-1.2-3.62-3.15-4-4.89-6.41-1.27,3.16-4.26,5.32-5.44,8,.18-6.36-2.09-13-7.75-10.91.71-10-7.1-15.24-10.49-23.28-8.12,7-.29,23.68-12.25,31.13-3.57-4.41-4.83-6-9.84-3.55-4.18-11.57-10,.1-15.64-1.33-3-.77-11.66-10.4-15.7-12.46-5.84-3-11.46-5.69-17.83-4.93,4.62,4.51,11.72,7.87,12.71,15.25-2.58-2.11-6.93-2-9.42-3.14,5,22.49-20.64,5.19-29.43,7.49,1.81,11.32-7.23,24-15.24,10.79-2.53,6.69-7,13.36-12.88,17.08-1.44-10.59,2-23.15,2.88-34-15.12,4.1-17.45,15.4-25.19,26.33-2.86-9.44-15-10.65-23-10.11,1.56,8-3.15,11.78-9.58,11.84-7.65.06-16.52,3.54-25.75,7.05H3111.51a44,44,0,0,1-12.12-8.13c-4.66-4.57-.91-11.17-8.53-17.17-3.57-2.81-14.77-7-19.61-9.52-7.41-3.9-12.63-5.06-20.2.21-1.34,17.87-47.14,4.89-57,2.11-7.93-2.23-20.2-11.86-29.43-6-5.33,3.37-3.37,9.09-7.52,12.76-3.82,3.4-9.61,3.7-13.81,6.07a17.06,17.06,0,0,1-5.55-13.29c-7,2.27-7.19,10.71-12.28,15.43q-3.49-6.12-7.35-11.88c-1.11,1.9-5.14,4.48-6.13,7-4.45-4-8.64-10.84-11.06-16a106.4,106.4,0,0,1-4,13.73c-4.54,2.28-4,1.38-7.89,5.31-.62-.18-2.33-1.5-2.9-1.41-.78,3.49-3.1,6.6-3.76,9.91-.48-5.86-1.75-4.15-4.45-8.15-.52,2.37-1.77,4.46-2.32,6.67-4.15,1.66-4.08,1.14-7.8,5.26-7.73-5.17-9.31,4.64-15.49,1.31-5.89-3.17-8.1-14.6-9.41-20.35-6.85,9.64-7.92,16.07-20.32,17.68-10.62,1.38-21-4.2-31.24-7.46-.88-6.58-2.46-13-5.55-18.5-7.89,13.65-19.23,26.14-33.22,18.72-5.56-3-8.62-8.88-15.16-10.33-4-.88-7.78,0-11.62.73,3.17,2.1,5.18,6.55,6.27,11.13-1.31-5.53-38.35.16-42.28.55-8.91.88-21.48,4.7-30.25,2.81-2.92-.63-22.94-15.35-20.39-16.94-6.45,4-8.74,12.71-16.24,16.65-11.22-14.08-39.95-8.89-57-7.8a36.17,36.17,0,0,1,2.69,10.66c-17-3.43-34-7.3-51.23-11.6-8.67-12.41-14.2-29.2-26.42-36-3,7-1.8,14.51-5.18,21.65-5.29-5.5-12-17.6-18.37-6.48-8.24-9-18.11-24.09-19.16-2.7-8.06-15.13-21.07.69-32.46-5.9-2.43-5.37-4.13-9.78-8-13.59-6.85,8.15-1.12,18.58-10,24.56-6.9,4.67-13.31,1.78-20.58,8.49-5.64,5.21-6.61,11.71-14.3,12.86-14.24,2.13-43.22-15-57.37-19.75-7.59-2.53-25.65-8.29-33.28-7.07-10.33,1.66-16.88,14.14-26.12,15.88-5,.95-16.93-3.26-19.68-7.33-3.06-4.53-5.56-8.87-9.92-10-1.52,3.52-4.08,4.17-6.37,7.88-10-5.64-9.83-20.79-19.78-25.58-.44,8,.07,16.32-.58,24.3-1.27-3-5.39-6.46-7.14-8.48-.84,9.6-5.13,15.13-5.88,24.15-9.44-.43-13.74-2.55-18.86,7.11-6-5-13.53-26.49-21.27-12.16a38.08,38.08,0,0,1-4-15.59c-4,10.75-14.84,18.46-20.45,9.12-.24-.4,1.33-8.75.81-10.94-1.29-5.36-6.85-11.67-10.2-15.72-5.86,3.49-10,8.8-17,11.3-6.86,2.45-11.31-2-14.79,5.48-1.67-2.54-4.94-4.85-6.26-7.56q-.35,1.18-.6,2.4c-2.45-3.56-4.84-7.18-7.4-10.61-6.32,17.51-11.23,23.24-28.62,22.73-19.77-.58-40.44-3.76-58.27-13.42-7.55-15-35.83,3.59-35.67-20.79-26.52.56-47.62,16.75-70.92,25.06l-1.34-.09a239,239,0,0,0-40.31,1.17c-5.29-2.74-10.05-6.64-15-10.42-.08,1.65-.34,3.33-.58,5-9.79-5.25-11,3-13.1,9.93-22.28,4.42-44.49,10.78-66.73,17.39a54,54,0,0,1-19.32-10.74c1.86,4.82,4.44,9.84,5.86,14.75l-8.53,2.54c-13,1.27-25.42-4.62-38.15-6,8.53-7.47,4.93-18.93-5.08-22.7-5.13,6.19-10.84,12-15.1,19.06-2.68-6.46-6.55-14-12.29-16.87-2.21,6.05-5.74,11.14-8.48,16.78-2-3.84-5.63-5.52-7.93-8.06-.26,7.38,3.49,15.77-.2,22.09-3.66-3.06-4.84-10.15-6.91-12.22-4.77-4.77-14.81-10-21.36-12-25.17-7.8-51.43,7.23-75.76,3.5-9-1.37-10.72-7.9-17.8-11.29-7.43-3.56-15-2.52-23-2.41-5.12.06-18.62-3-22.37-.49-6.23,4.07-3.59,12.44-6.16,19.38-7.69.65-12.91,7.36-17.65,12.54,4.18,4,6.16,9.55,3.35,14.43-5.93-2.55-16-3.78-22.28-1.92a12.8,12.8,0,0,0-3.67,1.89q-10.82-.36-21.63-.53a116.42,116.42,0,0,1-17.52-19,26,26,0,0,1-4.79,13.41c-4.24-4-8.65-7.75-13.71-10.26-5.68,9.36-14.61-6.15-22.09-8.32-.53,3.63-3.41,6.65-4.24,10.15-8.9-2.63-15.63-.84-24-4.75-9-4.17-17.69-13.05-24.86-20.05-27.32-26.71-40.5-6.54-74.55-6.38-16.61.07-29.11-7.63-45.2,1-10.65,5.73-12.73,13-16.56,23.9-.73,2.08-4.11,13.75-8.11,19.58l-11.65-.25c-3.52-1.43-5.74-1.29-7.68-.16q-10.5-.22-21-.43a22.85,22.85,0,0,0-4.12-3.24c-.66,1.16-1.27,2.19-1.85,3.12q-19-.36-38.11-.61c-2.29-2.14-4.74-3.28-7.39-1.2-2.46-17.49-12.12-6.56-21.32-.36.78-6.81-3-23.66-11.77-21.74-3.46.76-12.39,19.09-14.09,23h-.25c-4.35-3.64-8.9-8.12-13.12-11a4.15,4.15,0,0,0-.12,2.65c-5.25-2.22-9.94-4.59-14.62-3.33a24.1,24.1,0,0,0,9.62,10.59c-1.83.34-3.7.79-5.61,1.28q-17.69.19-35.38.65a10.8,10.8,0,0,1-1.05-2.62,36.7,36.7,0,0,1-2.71,2.73c-3,.08-5.91.18-8.87.28-1.21-3.44-3.19-6.27-6.43-7-1,3.26-3.91,4.83-5.17,7.36l-.38,0c-4.73-4.64-10.36-10.78-17.33-7.79-2.52-7.55-8-14.06-15.65-15.77,3,9,1.17,16.59.49,25.12-2.67.16-5.34.3-8,.47a40.22,40.22,0,0,1-6.65-10.74c.19,3.78-1.54,5.85-1.83,9.61a25.68,25.68,0,0,1-3.54,1.88H833.52c-1-1.81-1.07-4.62.3-8.81-7.64,2-15.33,5.5-23,7,1.85-4,2.54-11.23-3-11.82-4.85-.51-7.1,8.86-8.84,13.67h-1.35c-6.34-11-11-18.79-23.94-22.84,4.94,10.09,6.38,12.41,5.82,22.84h-3.32c-3.52-4.38-5.49-10.05-11-11.92.3,3.54-.53,8.25.68,11.84a16.68,16.68,0,0,0-2.82.08H740.45a14.11,14.11,0,0,1,1.54-4.78c2.83,0,8-1.6,9.38-1.67-11.94-1.79-22.39,3.23-33.51,4.64a29,29,0,0,0-5.54-12.25c-1.18,1.64-3.27,2.74-4.5,4.81-6.14-7.57-6.64-19.12-17.67-22-.53,8.06,5.15,22.8,1.12,31.22H659.92c-11.47-5-23.22-11.69-29.84-13.87-32-10.57-56.32-17-90.3-15.08a54.84,54.84,0,0,1-12.27,16.82c-23.12-2.56-46.09-5-69.05-6.73-14.65-16.69-12.78-31.38-49.91-24.75-15.81,2.82-27.23,4.22-42.4,1.72-17.57-2.91-28.11-11.73-45.49-1.63-12.54,7.29-22,17.58-35,24.53-1.8-3.2-8.93-12.27-9.05-15.75.25,7.43-5.95,24.82-13.12,25.88-.59-2.23-2.83-5.39-3.18-6.63a8.64,8.64,0,0,0-.32,4.1c-7.24-11.94-12.14-27.41-28.86-28.56,1.11,11.93,9.66,22.78,9.14,36.68l-3.08.49c-3.27-.87-6.37-.87-8.35,1.31l-3.56.56c-6.05-6.74-12.94-16.36-20.57-18a76.07,76.07,0,0,0-2.29,13.67c-2.41-6.35-2.8-11.93-10-11.34-7,.58-11.47,16.8-16,6.48-6.51-.63-11.16,4.15-17.16,4.77-.21-6.87,1.94-13.63-.88-20.67-6,5.49-10.66,14.19-16,20.81-1.2-1.55-3.91-4.08-4.94-6.24a20.83,20.83,0,0,0,.21,2.22c-4.67-8.43-10.31-16.46-14.45-25.26-.8,3.76-3.88,7.49-5.24,10.34a35.69,35.69,0,0,0-9.15-8.85c-3.06,7.67-4,15.47-4.2,24.19-12.46-4.91-25.94-14.63-39.09-16.81-5.06-.84-10.73-1-15.26,1.89-1.75,1.11-10.22,14.7-9.74,14.77-14.16-2.15-20,2.26-24.28,8.93H0V2700H4411.33l387.39.71s2.54-171.78,0-172c5-11.17-339.55-10.94-349.14-17.51-14.68-10-23.79-.87-33,9.36q.93-30.3,1.6-60.79c6.22-299.81,13-598.37,13.15-898.45,0-91.36,2.34-182.74,5-274.1l.25.65c9.88-4.5,20.78-5.9,32-6.76v-6.89c-3.17.15-6.36.34-9.56.64,3.25-1.74,6.42-3.57,9.56-5.45ZM4035.51,56.24q-3.69-.15-7.37-.42l-.69-2A82.22,82.22,0,0,1,4035.51,56.24ZM4017,51.57q3.36.61,6.54,1.31c.28.88.55,1.75.82,2.62-.86-.08-1.73-.15-2.6-.25a120.85,120.85,0,0,1-18.88-3.56c-4.8-1.27-9.42-2.72-13.05-5.59Q4003.47,48.88,4017,51.57Zm.4,21.88c-22.07-7.41-45.6-10.14-64.23-22.74a118.2,118.2,0,0,1-18.89-17.09c16.16,4.12,32.43,7.7,48.69,11.07.26.37.53.75.82,1.11,4.45,6.23,11.73,8.81,17.88,10.65a127.25,127.25,0,0,0,19.47,4.36c1.68.24,3.37.46,5.06.65.25.82.51,1.64.76,2.45,1.29,4.21,1.95,8.86,3.15,13.45Q4023.82,75.37,4017.42,73.45ZM4035,78.9c-1.8-5-2.92-10.86-4.52-16.15-.09-.29-.19-.58-.29-.87,6.05.58,12.09.91,18.12,1.16.59.44,1.17.91,1.74,1.39,7.16,5.92,12.27,14.25,15.94,23.68C4055.61,85.4,4045.35,82.16,4035,78.9Zm60.91,93.64c-2.77-21.84-5.06-44.6-10.7-66.89a49,49,0,0,1,10.53,4.29c3.23,1.63,5.43,5.84,7.64,11.09,4.07,9.91,6.81,23.66,14.22,35,6.91,11.11,15.22,20.15,21.67,29.35,6.16,8.58,9.31,19.22,12.85,31.14q4.7,15.23,9.63,30.37c-14-5.27-26.44-13.32-33.37-27-2.57-4.7-2.16-9.13-1.78-16,.2-3.47-1.35-8.07-4-10.41a30.69,30.69,0,0,0-7.89-5.3Q4106,184,4097,180.51,4096.46,176.54,4095.93,172.54ZM4118,245.78c-11.25-16.27-16.56-37.19-20-58.89,4.83,2.13,9.6,4.4,14.27,6.84,4.85,2.68,8.72,5.46,8.08,10.06-.51,4.9-1.36,13.29,2,19.32,8.82,18.79,25.92,28.52,43.06,34.57q4.11,12.13,8.55,24.19C4151.45,274.3,4130.7,264.67,4118,245.78Zm79.21,43.94c-1.51-3.5-3-7.05-4.6-10.65q-3.09-7.51-6-15.14c9.43,2.52,19,4.9,27.77,8.23q.4,12.36.78,24.7C4209.17,294.13,4203.18,291.83,4197.25,289.72Zm17.43,33.07,1.31.83c0,.5,0,1,.05,1.49ZM4106.61,738.67c-6.35-3.54-9.56-10.73-12.64-19.06,3.06-.16,6.09-.27,9.12-.23,10,.16,18.53,1.27,24.37,9.15,5.63,6.53,10.3,14.56,16.53,22C4130.28,747,4116.94,745.46,4106.61,738.67Zm101.24,687.77c-21.47-.44-41.75,7.24-61.48,6.54-1.83-.21-3.64-.5-5.45-.84-15.16-13.32-26.19-31-36.74-49.12q28.14,10,56,20.54c13.72,5.46,29.93,14,47.52,9.85,1.31-.24,2.6-.56,3.88-.9q-.28,7-.55,14C4210,1426.45,4208.92,1426.43,4207.85,1426.44Zm-38.24,595.73c2.79-1,5.59-2,8.42-3q7.19,1.79,14.42,3.52C4184.84,2022.22,4177.21,2022,4169.61,2022.17Zm-31-56.51q-4.86-2.79-9.62-5.81c21.22-.4,42.38,8.43,64.49,12.25,5.52,1,10.93,2.08,16.41,3q0,10,0,19.93C4185.43,1986.6,4161.1,1978.46,4138.61,1965.66Zm307.57-699.32c-3.06,1.43-6.15,2.69-9.27,3.81.06-1.94.11-3.88.17-5.82,6.25-1,12.47-1.87,18.67-2.53C4452.59,1263.4,4449.4,1264.93,4446.18,1266.34Z"/><path class="cls-2" d="M2917.43,2530.49A29,29,0,0,0,2928,2530C2925.28,2528.36,2921.81,2528.16,2917.43,2530.49Z"/></g></g></svg>